<svg xmlns="http://www.w3.org/2000/svg" width="40.031" height="40" viewBox="0 0 40.031 40">
  <metadata><?xpacket begin="﻿" id="W5M0MpCehiHzreSzNTczkc9d"?>
<x:xmpmeta xmlns:x="adobe:ns:meta/" x:xmptk="Adobe XMP Core 5.6-c138 79.159824, 2016/09/14-01:09:01        ">
   <rdf:RDF xmlns:rdf="http://www.w3.org/1999/02/22-rdf-syntax-ns#">
      <rdf:Description rdf:about=""/>
   </rdf:RDF>
</x:xmpmeta>
                                                                                                    
                                                                                                    
                                                                                                    
                                                                                                    
                                                                                                    
                                                                                                    
                                                                                                    
                                                                                                    
                                                                                                    
                                                                                                    
                                                                                                    
                                                                                                    
                                                                                                    
                                                                                                    
                                                                                                    
                                                                                                    
                                                                                                    
                                                                                                    
                                                                                                    
                                                                                                    
                           
<?xpacket end="w"?></metadata>
<defs>
    <style>
      .cls-1 {
        fill: #76c9e3;
        fill-rule: evenodd;
      }
    </style>
  </defs>
  <path id="_1" data-name="1" class="cls-1" d="M593.526,980.089a1.579,1.579,0,0,0-1.582-1.572h-1.283a1.579,1.579,0,0,0-1.582,1.572v1.275a1.579,1.579,0,0,0,1.582,1.572h1.283a1.579,1.579,0,0,0,1.582-1.572v-1.275Zm-1.176,1.275a0.41,0.41,0,0,1-.406.4h-1.283a0.41,0.41,0,0,1-.406-0.4v-1.275a0.41,0.41,0,0,1,.406-0.4h1.283a0.41,0.41,0,0,1,.406.4v1.275Zm6.949-1.28a1.578,1.578,0,0,0-1.581-1.572h-1.283a1.578,1.578,0,0,0-1.582,1.572v1.275a1.578,1.578,0,0,0,1.582,1.572h1.283a1.578,1.578,0,0,0,1.581-1.572v-1.275Zm-1.176,1.275a0.409,0.409,0,0,1-.405.4h-1.283a0.41,0.41,0,0,1-.406-0.4v-1.275a0.41,0.41,0,0,1,.406-0.4h1.283a0.409,0.409,0,0,1,.405.4v1.275Zm4.085,1.582h1.283a1.579,1.579,0,0,0,1.582-1.571v-1.276a1.579,1.579,0,0,0-1.582-1.571h-1.283a1.579,1.579,0,0,0-1.582,1.571v1.276A1.579,1.579,0,0,0,602.208,982.941Zm-0.406-2.847a0.41,0.41,0,0,1,.406-0.4h1.283a0.41,0.41,0,0,1,.406.4v1.276a0.41,0.41,0,0,1-.406.4h-1.283a0.41,0.41,0,0,1-.406-0.4v-1.276Zm6.179,2.852h1.284a1.578,1.578,0,0,0,1.581-1.571V980.1a1.578,1.578,0,0,0-1.581-1.571h-1.284A1.578,1.578,0,0,0,606.4,980.1v1.276A1.578,1.578,0,0,0,607.981,982.946Zm-0.4-2.847a0.409,0.409,0,0,1,.4-0.4h1.284a0.41,0.41,0,0,1,.4.4v1.276a0.41,0.41,0,0,1-.4.4h-1.284a0.409,0.409,0,0,1-.4-0.4V980.1Zm6.178,2.852h1.284a1.578,1.578,0,0,0,1.582-1.571v-1.275a1.579,1.579,0,0,0-1.582-1.572h-1.284a1.579,1.579,0,0,0-1.581,1.572v1.275A1.578,1.578,0,0,0,613.754,982.951Zm-0.4-2.846a0.41,0.41,0,0,1,.4-0.4h1.284a0.41,0.41,0,0,1,.406.4v1.275a0.41,0.41,0,0,1-.406.4h-1.284a0.41,0.41,0,0,1-.4-0.4v-1.275Zm-21.405,9.832h-1.283a1.579,1.579,0,0,0-1.582,1.572v1.275a1.579,1.579,0,0,0,1.582,1.572h1.283a1.579,1.579,0,0,0,1.582-1.572v-1.275A1.579,1.579,0,0,0,591.944,989.937Zm0.406,2.847a0.41,0.41,0,0,1-.406.4h-1.283a0.41,0.41,0,0,1-.406-0.4v-1.275a0.41,0.41,0,0,1,.406-0.4h1.283a0.41,0.41,0,0,1,.406.4v1.275Zm5.368-2.852h-1.283a1.578,1.578,0,0,0-1.582,1.572v1.275a1.578,1.578,0,0,0,1.582,1.571h1.283a1.578,1.578,0,0,0,1.581-1.571V991.5A1.578,1.578,0,0,0,597.718,989.932Zm0.405,2.847a0.409,0.409,0,0,1-.405.4h-1.283a0.41,0.41,0,0,1-.406-0.4V991.5a0.41,0.41,0,0,1,.406-0.4h1.283a0.41,0.41,0,0,1,.405.4v1.275Zm6.95,0.01v-1.275a1.579,1.579,0,0,0-1.582-1.572h-1.283a1.579,1.579,0,0,0-1.582,1.572v1.275a1.579,1.579,0,0,0,1.582,1.572h1.283A1.579,1.579,0,0,0,605.073,992.789Zm-1.176,0a0.41,0.41,0,0,1-.406.4h-1.283a0.41,0.41,0,0,1-.406-0.4v-1.275a0.41,0.41,0,0,1,.406-0.4h1.283a0.41,0.41,0,0,1,.406.4v1.275Zm-10.371-6.99a1.579,1.579,0,0,0-1.582-1.572h-1.283a1.579,1.579,0,0,0-1.582,1.572v1.275a1.579,1.579,0,0,0,1.582,1.572h1.283a1.579,1.579,0,0,0,1.582-1.572V985.8Zm-1.176,1.275a0.41,0.41,0,0,1-.406.4h-1.283a0.41,0.41,0,0,1-.406-0.4V985.8a0.41,0.41,0,0,1,.406-0.4h1.283a0.41,0.41,0,0,1,.406.4v1.275Zm6.949-1.28a1.578,1.578,0,0,0-1.581-1.572h-1.283a1.578,1.578,0,0,0-1.582,1.572v1.275a1.578,1.578,0,0,0,1.582,1.572h1.283a1.578,1.578,0,0,0,1.581-1.572v-1.275Zm-1.176,1.275a0.409,0.409,0,0,1-.405.4h-1.283a0.41,0.41,0,0,1-.406-0.4v-1.275a0.41,0.41,0,0,1,.406-0.4h1.283a0.409,0.409,0,0,1,.405.4v1.275Zm2.5,0.01a1.579,1.579,0,0,0,1.582,1.572h1.283a1.579,1.579,0,0,0,1.582-1.572V985.8a1.579,1.579,0,0,0-1.582-1.572h-1.283a1.579,1.579,0,0,0-1.582,1.572v1.275ZM601.8,985.8a0.41,0.41,0,0,1,.406-0.4h1.283a0.41,0.41,0,0,1,.406.4v1.275a0.41,0.41,0,0,1-.406.4h-1.283a0.41,0.41,0,0,1-.406-0.4V985.8Zm4.6,1.28a1.578,1.578,0,0,0,1.581,1.572h1.284a1.578,1.578,0,0,0,1.581-1.572v-1.275a1.578,1.578,0,0,0-1.581-1.571h-1.284a1.578,1.578,0,0,0-1.581,1.571v1.275Zm1.176-1.275a0.409,0.409,0,0,1,.4-0.4h1.284a0.41,0.41,0,0,1,.4.4v1.275a0.41,0.41,0,0,1-.4.4h-1.284a0.41,0.41,0,0,1-.4-0.4v-1.275Zm4.6,1.281a1.578,1.578,0,0,0,1.581,1.571h1.284a1.579,1.579,0,0,0,1.582-1.571v-1.276a1.58,1.58,0,0,0-1.582-1.572h-1.284a1.579,1.579,0,0,0-1.581,1.572v1.276Zm1.176-1.276a0.41,0.41,0,0,1,.4-0.4h1.284a0.41,0.41,0,0,1,.406.4v1.276a0.409,0.409,0,0,1-.406.4h-1.284a0.409,0.409,0,0,1-.4-0.4v-1.276Zm2.739,10.219a0.592,0.592,0,0,0-.832,0l-2.424,2.409a0.582,0.582,0,0,0,0,.826,0.591,0.591,0,0,0,.832,0l2.008-2,1.6,1.594a0.592,0.592,0,0,0,.832,0l1.618-1.608,0.572,0.569a0.737,0.737,0,0,0,1.251-.313l0.642-2.65a0.783,0.783,0,0,0-.936-0.93l-2.667.638a0.729,0.729,0,0,0-.314,1.243l0.621,0.617-1.2,1.2Zm4.807-.81-0.3,1.245c-0.326-.325-0.617-0.613-0.951-0.945Zm3.624,2.7a0.589,0.589,0,0,0-.688.466,6.747,6.747,0,0,1-13.28-.234s0-.009,0-0.014a6.739,6.739,0,0,1,13.282-2.262,0.588,0.588,0,0,0,1.156-.217,7.866,7.866,0,0,0-4.272-5.579V970.012a1.579,1.579,0,0,0-1.582-1.572h-2.3v-1.829a1.623,1.623,0,0,0-3.246,0v1.829h-9.119v-1.829a1.623,1.623,0,0,0-3.245,0v1.829h-9.119v-1.829a1.623,1.623,0,0,0-3.246,0v1.829h-2.3a1.579,1.579,0,0,0-1.582,1.572v27.261a1.579,1.579,0,0,0,1.582,1.572h14.911a0.585,0.585,0,1,0,0-1.169H586.566a0.41,0.41,0,0,1-.406-0.4V975.7h33.378v13.919a8.044,8.044,0,0,0-2.327-.346,7.926,7.926,0,0,0-6.365,3.2v-0.947a1.578,1.578,0,0,0-1.582-1.572h-1.283a1.578,1.578,0,0,0-1.581,1.572v1.275a1.578,1.578,0,0,0,1.581,1.572h1.283a1.592,1.592,0,0,0,.583-0.112,7.809,7.809,0,0,0-.532,3.422h-5.093a0.585,0.585,0,1,0,0,1.169h5.263a7.926,7.926,0,0,0,15.5-.238A0.585,0.585,0,0,0,624.519,997.924Zm-9.752-31.313a0.447,0.447,0,0,1,.894,0v4.717a0.447,0.447,0,0,1-.894,0v-4.717Zm-12.365,0a0.447,0.447,0,0,1,.894,0v4.717a0.447,0.447,0,0,1-.894,0v-4.717Zm-12.364,0a0.447,0.447,0,0,1,.894,0v4.717a0.447,0.447,0,0,1-.894,0v-4.717Zm-3.878,7.917v-4.516a0.41,0.41,0,0,1,.406-0.4h2.3v0.459a2.565,2.565,0,0,0,.877,4.46H586.16Zm2.917-2.4a1.627,1.627,0,0,0,2.816,0A1.41,1.41,0,0,1,589.077,972.129Zm2.154,2.4a2.565,2.565,0,0,0,.877-4.46v-0.459h9.119v0.459a2.565,2.565,0,0,0,.877,4.46H591.231Zm10.21-2.4a1.627,1.627,0,0,0,2.816,0A1.41,1.41,0,0,1,601.441,972.129Zm2.154,2.4a2.565,2.565,0,0,0,.877-4.46v-0.459h9.119v0.459a2.565,2.565,0,0,0,.877,4.46H603.6Zm10.211-2.4a1.627,1.627,0,0,0,2.816,0A1.41,1.41,0,0,1,613.806,972.129Zm2.154,2.4a2.565,2.565,0,0,0,.877-4.46v-0.459h2.3a0.409,0.409,0,0,1,.4.4v4.516H615.96Zm-6.29,18.266a0.409,0.409,0,0,1-.4.4h-1.284a0.409,0.409,0,0,1-.4-0.4v-1.275a0.409,0.409,0,0,1,.4-0.4h1.284a0.41,0.41,0,0,1,.4.4v1.275Z" transform="translate(-584.969 -965)"/>
</svg>
