<svg xmlns="http://www.w3.org/2000/svg" width="40" height="39.969" viewBox="0 0 40 39.969">
  <metadata><?xpacket begin="﻿" id="W5M0MpCehiHzreSzNTczkc9d"?>
<x:xmpmeta xmlns:x="adobe:ns:meta/" x:xmptk="Adobe XMP Core 5.6-c138 79.159824, 2016/09/14-01:09:01        ">
   <rdf:RDF xmlns:rdf="http://www.w3.org/1999/02/22-rdf-syntax-ns#">
      <rdf:Description rdf:about=""/>
   </rdf:RDF>
</x:xmpmeta>
                                                                                                    
                                                                                                    
                                                                                                    
                                                                                                    
                                                                                                    
                                                                                                    
                                                                                                    
                                                                                                    
                                                                                                    
                                                                                                    
                                                                                                    
                                                                                                    
                                                                                                    
                                                                                                    
                                                                                                    
                                                                                                    
                                                                                                    
                                                                                                    
                                                                                                    
                                                                                                    
                           
<?xpacket end="w"?></metadata>
<defs>
    <style>
      .cls-1 {
        fill: #76c9e3;
        fill-rule: evenodd;
      }
    </style>
  </defs>
  <path id="_2" data-name="2" class="cls-1" d="M819.414,1005H780.586a0.585,0.585,0,0,1-.586-0.59V983.453a0.586,0.586,0,0,1,1.172,0v20.377h37.656v-1.35a0.586,0.586,0,0,1,1.172,0v1.93A0.585,0.585,0,0,1,819.414,1005Zm-34.727-13.076h7.807a0.586,0.586,0,1,1,0,1.171h-7.807A0.586,0.586,0,0,1,784.687,991.924Zm34.727,8.686a0.585,0.585,0,0,1-.586-0.59V980.643h-15.9v3.474h12.383a0.586,0.586,0,0,1,0,1.171H802.93v1.431h12.383a0.586,0.586,0,0,1,0,1.171H802.93v1.432h12.383a0.586,0.586,0,0,1,0,1.171H802.93v5.469a0.967,0.967,0,0,1-.535.863c0.172,0.852.056,2.334-1.612,4.4a1.013,1.013,0,0,1-1.566,0c-1.668-2.071-1.784-3.554-1.612-4.4a0.967,0.967,0,0,1-.535-0.863v-5.469H784.687a0.586,0.586,0,0,1,0-1.171H797.07V987.89H784.687a0.586,0.586,0,0,1,0-1.171H797.07v-1.431H784.687a0.586,0.586,0,0,1,0-1.171H797.07v-3.474h-15.9v0.283a0.586,0.586,0,0,1-1.172,0v-7.114a0.586,0.586,0,0,1,.586-0.586H797.07v-6.482a1.719,1.719,0,0,1,1.719-1.715h2.422a1.719,1.719,0,0,1,1.719,1.715v6.482h9.57a0.586,0.586,0,1,1,0,1.171h-9.57v5.075h15.9V974.4h-3.769a0.586,0.586,0,1,1,0-1.171h4.355a0.586,0.586,0,0,1,.586.586v26.208A0.585,0.585,0,0,1,819.414,1000.61ZM797.07,974.4h-15.9v5.075h15.9V974.4ZM800,1000.33c1.429-1.841,1.351-2.958,1.222-3.4h-0.636V997.9a0.586,0.586,0,0,1-1.172,0v-0.973h-0.632C798.65,997.381,798.578,998.5,800,1000.33Zm1.758-33.586a0.547,0.547,0,0,0-.547-0.544h-2.422a0.547,0.547,0,0,0-.547.544V968.6h3.516v-1.853Zm0,3.024h-3.516v1.166h3.516v-1.166Zm0,2.337h-3.516V993.42h3.516V972.105Zm0,22.486h-3.516v1.166h3.516v-1.166ZM784.18,975.139a1.757,1.757,0,1,1-1.758,1.757A1.759,1.759,0,0,1,784.18,975.139Zm0,2.342a0.586,0.586,0,1,0-.586-0.585A0.586,0.586,0,0,0,784.18,977.481Zm4.687-2.342a1.757,1.757,0,1,1-1.758,1.757A1.76,1.76,0,0,1,788.867,975.139Zm0,2.342a0.586,0.586,0,1,0-.586-0.585A0.586,0.586,0,0,0,788.867,977.481Zm4.688-2.342A1.757,1.757,0,1,1,791.8,976.9,1.76,1.76,0,0,1,793.555,975.139Zm0,2.342a0.586,0.586,0,1,0-.586-0.585A0.586,0.586,0,0,0,793.555,977.481Z" transform="translate(-780 -965.031)"/>
</svg>
