<svg xmlns="http://www.w3.org/2000/svg" viewBox="0 0 915 780"><title>404_final</title><g style="isolation:isolate"><circle cx="457.22" cy="390" r="390" fill="#a2ddeb"/><circle cx="457.22" cy="390" r="323.91" fill="#fff" opacity="0.15"/><circle cx="457.22" cy="390" r="259.05" fill="#fff" opacity="0.15"/><circle cx="457.22" cy="390" r="175.74" fill="#fff" opacity="0.15"/><g opacity="0.3"><path d="M291,396.68l-37.5-15.19,36.3,11.4-7.41-23.42-31.24-21.32s19.85,9.4,28.46,12.52L268.89,326.8,250.2,307.14l15.44,9.38-18.3-57.85-10.78,34.09,9.58-2.08-11.13,7-12.63,39.93,21.13-13.86L218,351.48l-6.77,21.4c13-7.09,31.12-16.72,31.12-16.72l-33.49,24.2L201.67,403H293Z" fill="#fff"/><path d="M223.45,488.23l-65.59-26.57,63.5,19.94-13-41-54.65-37.29s34.72,16.45,49.79,21.9L184.79,366l-32.7-34.4,27,16.4-32-101.2-18.86,59.63L145,302.78,125.52,315l-22.09,69.85,37-24.24L95.74,409.16,83.91,446.59c22.75-12.4,54.45-29.25,54.45-29.25L79.77,459.66,67.22,499.37H227Z" fill="#fff"/><path d="M536.09,446.68l-41.81-16.94,40.48,12.71-8.26-26.12-34.84-23.77s22.13,10.48,31.74,14l-11.95-37.78L490.6,346.83l17.21,10.45-20.4-64.51-12,38,10.69-2.32-12.42,7.79-14.08,44.53,23.56-15.45-28.46,31-7.55,23.86c14.5-7.9,34.71-18.65,34.71-18.65l-37.34,27-8,25.31H538.33Z" fill="#fff"/><path d="M598,445.85l-46.7-18.92,45.2,14.2L587.25,412l-38.91-26.55s24.72,11.71,35.45,15.59l-13.34-42.19-23.28-24.49L566.4,346l-22.79-72-13.42,42.45,11.94-2.59-13.87,8.69-15.73,49.73L538.84,355l-31.78,34.56-8.43,26.65c16.2-8.83,38.76-20.83,38.76-20.83l-41.7,30.13-8.94,28.27H600.48Z" fill="#fff"/><path d="M695.35,445.85l-46.7-18.92,45.2,14.2L684.63,412l-38.91-26.55s24.72,11.71,35.45,15.59l-13.34-42.19-23.28-24.49L663.77,346,641,274l-13.42,42.45,11.94-2.59-13.87,8.69L609.9,372.25,636.21,355l-31.78,34.56L596,416.21c16.2-8.83,38.76-20.83,38.76-20.83l-41.7,30.13-8.94,28.27H697.85Z" fill="#fff"/><path d="M728.55,447.73l-22.74-9.21,22,6.91-4.49-14.2-18.95-12.93s12,5.7,17.26,7.59l-6.5-20.54-11.33-11.92,9.36,5.68L702.08,364l-6.54,20.67,5.81-1.26-6.75,4.23-7.66,24.21,12.81-8.4-15.48,16.83-4.1,13c7.89-4.3,18.87-10.14,18.87-10.14l-20.31,14.67-4.35,13.77h55.38Z" fill="#fff"/><path d="M839.52,489.82l-71.65-29,69.36,21.78-14.15-44.75-59.7-40.73s37.93,18,54.38,23.93l-20.47-64.73-35.71-37.57,29.5,17.91-35-110.54-20.6,65.13,18.31-4-21.28,13.34-24.13,76.3,40.37-26.47-48.77,53L687.1,444.34c24.85-13.54,59.47-32,59.47-32l-64,46.23L668.86,502h174.5Z" fill="#fff"/><path d="M461.48,444.28l-56-22.67,54.17,17-11.05-35L402,371.86s29.63,14,42.48,18.69L428.5,340l-27.9-29.35,23,14-27.31-86.35-16.09,50.88,14.3-3.1-16.62,10.42-18.85,59.6,31.53-20.68-38.09,41.42-10.1,31.93c19.41-10.58,46.45-25,46.45-25l-50,36.11-10.71,33.88h136.3Z" fill="#fff"/><path d="M240.35,443.13l-30.27-12.26,29.3,9.2-6-18.9L208.19,404s16,7.59,23,10.11l-8.65-27.34-15.09-15.87,12.46,7.57-14.77-46.7-8.7,27.51,7.74-1.68-9,5.64L185,395.43,202,384.25l-20.6,22.4L176,423.92c10.5-5.72,25.12-13.5,25.12-13.5l-27,19.53-5.79,18.32H242Z" fill="#fff"/><path d="M356.35,446.27l-44.23-17.92,42.82,13.45-8.74-27.63L309.34,389s23.41,11.09,33.57,14.77l-12.64-40-22-23.19,18.21,11.06-21.58-68.24-12.72,40.21,11.31-2.45-13.13,8.24-14.9,47.1,24.92-16.34L270.24,393l-8,25.24C277.6,409.83,299,398.47,299,398.47L259.47,427,251,453.78H358.72Z" fill="#fff"/></g><path d="M674.59,584.08a26.06,26.06,0,0,0,3.24-12.46c0-18.38-19.91-33.28-44.48-33.28a53.8,53.8,0,0,0-29,8c-2.83-31-29.59-55.25-62.2-55.25a64.28,64.28,0,0,0-16.14,2,17.37,17.37,0,0,1-20.83-11.37C495.32,452.23,475.47,432,452.59,432c-9.76,0-19,3.67-27.08,10.18a35.67,35.67,0,0,1-35.26,5.68,153.91,153.91,0,0,0-55.64-10.18c-43.87,0-82.53,17.68-105.3,44.55a27.57,27.57,0,0,1-24.68,9.53,75.18,75.18,0,0,0-10-.66c-43.14,0-78.12,36.34-78.12,81.18a84.94,84.94,0,0,0,.83,11.78Z" fill="#a2ddeb"/><path d="M674.59,584.08s-3.7-30.91-32.73-34.07-46.69,17-46.69,17-3.79-15.81-16.4-17.37-25.87,17-30.91,17.2-12.62,2.69-12.62,2.69,17.67-39.75,11.36-54.26-24.61-17-24.61-17,12,22.08-15.77,21.45-34.7-39.12-66.88-11.67-44.79,44.48-55.52,40.69-8.2-18.93-8.2-18.93.63-26.64,18.3-44.55a115.78,115.78,0,0,0,24.89-38.78s-8.76,7.51-28.56,1.4S353,436.65,334.61,437.71s-45.43,33.44-25.24,62.46,44.79,32.81,53,50.47,8.2,24.61,8.2,24.61S357.33,555.69,327,554.43s-47.49,24.9-77,1.89-29.13-46.16-68.14-45.5-64.56,73.26-64.56,73.26Z" fill="#90cddf"/><path d="M795.07,584.08a123.1,123.1,0,0,0,4.1-37.25c-2.17-53.63-37.2-95.75-78.26-94.1a58.67,58.67,0,0,0-23.13,5.82c-18.7-23.86-44.45-38.2-72.33-37.07a77.33,77.33,0,0,0-35,10.09,12.56,12.56,0,0,1-17-4.8l-.07-.12c-35-60.71-101.14-88.17-147.62-61.33-31.52,18.2-45.92,56.69-41,98.52a14.83,14.83,0,0,1-12.51,16.27c-17.48,2.85-32.17,11.57-40.34,25.72-8.34,14.45-8.38,31.93-1.72,48.82-2-1.43-4.17-2.8-6.4-4.08-25.09-14.49-52.55-13.91-61.32,1.3-5.16,8.93-2.71,20.92,5.26,32.22Z" fill="#a2ddeb"/><path d="M267.74,584.08H795.07a123.1,123.1,0,0,0,4.1-37.25c0-.64-.06-1.28-.1-1.92-13.3,7.08-31.87,12.14-46.9-2.18-26.54-25.3-48.76-9.26-73.44,14.2s-4.94-56.16-59.87-77.15-81.47,74.68-99.37,37.65,27.77-61.72,27.77-61.72-63,27.77-107.39-6.79S443,369.31,443,369.31,419.52,382.27,409,402s-9.26,59.87,24.69,90.11,64.19,77.76,64.19,77.76-63.57-20.37-100-13.27-63.57,25-96.9,21.29c-20.17-2.24-31-17.37-36.47-29a19.64,19.64,0,0,0-2.07,2.91C257.33,560.79,259.77,572.78,267.74,584.08Z" fill="#90cddf"/><path d="M663.28,600.94c126.06-61.17,111-115.24,174.07-150.25,38.22-21.2,58.18-52.74,68-74.31.4.31.8.63,1.17,1-14.84-13.42-45.43-5.05-75.56,18.34a16.61,16.61,0,0,1-25.46-6.56c-4-9.16-10-15.93-18-19.34-27.3-11.66-79.83,17.58-81,66.62-.62,25.13-1.35,40.17-9.64,51.91-.82-4.34-.37-19.57-13.73-22.49-14.1-3.08-30.44,22.07-35.36,45.1a21.11,21.11,0,0,1-10.4,14c-7.28,4-14.78,8-20.07,13.86-55.68,61.57-26.83,156.92-24.58,164l-.08-.27C599.66,667,617.78,623,663.28,600.94Z" fill="#c1e9fa"/><path d="M862.09,604.21a33.26,33.26,0,0,0-5.87-18.76,14.88,14.88,0,0,1-1.74-12.85q.13-.38.27-.76a14.51,14.51,0,0,1,1.07-2.18,14,14,0,0,1,6.06-5.5,14.63,14.63,0,0,1,1.64-.66q4.06-1.35,7.75-2.92a80.13,80.13,0,0,0,10.12-5.13q1.52-.92,2.93-1.88a48.26,48.26,0,0,0,6.26-5q1.09-1.05,2-2.13t1.77-2.19a26.53,26.53,0,0,0,1.48-2.24,18.86,18.86,0,0,0,2.81-10.59c-.44-8.75-7.61-16.41-19.12-22a17.09,17.09,0,0,1-5.15-26.9l.2-.22c36.75-40.64,51-87.61,31.9-104.92-.38-.34-.78-.66-1.17-1-9.8,21.57-29.76,53.11-68,74.31-63.1,35-48,89.09-174.07,150.25-45.49,22.07-63.62,66-70.68,101.63,0,.1,83.93-46.57,147.82-40.24a50.74,50.74,0,0,0,9.49-.07C812.32,660.6,861.73,635.51,862.09,604.21Z" fill="#a2ddeb"/><path d="M704.06,457.9a3.25,3.25,0,1,1,2.18-2.65L729.44,467l-6.54-19.92a3.22,3.22,0,1,1,2-.67l6.54,19.92,11.72-23.19a3.25,3.25,0,1,1,1.92,1l-12.41,24.55h0l-.29.57,10.87,33.09,42.82-84.71-11.54-35.13-.57-.29h0l-24.55-12.41a3.19,3.19,0,0,1-1.21.74,3.22,3.22,0,1,1,2.05-4.07,3.19,3.19,0,0,1,.13,1.41l23.19,11.72-6.54-19.92a3.22,3.22,0,1,1,2-.67l6.54,19.92,11.72-23.19a3.19,3.19,0,0,1-.74-1.21,3.25,3.25,0,1,1,2.65,2.18L776.9,381.2h0l-.29.57,10.87,33.09,7.66-15.16,9.11-18,8-15.77-.2-.6h0l-8.58-26.13a3.25,3.25,0,1,1,2-.67l8.11,24.69,9.46-18.71a3.22,3.22,0,1,1,1.92,1l-9.46,18.71L840.21,356a3.25,3.25,0,1,1,.67,2l-26.13,8.58h0l-.6.2-8,15.77-9.11,18L783.76,427l33.95-11.15.29-.57h0l12.41-24.55a3.18,3.18,0,0,1-.74-1.21,3.25,3.25,0,1,1,2.65,2.18L820.6,414.89l19.92-6.54a3.22,3.22,0,1,1,.67,2l-19.92,6.54,23.19,11.72a3.19,3.19,0,0,1,1.21-.74,3.25,3.25,0,1,1-2.18,2.65l-24.55-12.41h0l-.57-.29-36,11.82h0l-26.32,52.07L790,470.61l.29-.57h0l12.41-24.55a3.25,3.25,0,1,1,1.92,1l-11.72,23.19,19.92-6.54a3.22,3.22,0,1,1,.67,2l-19.92,6.54,23.19,11.72a3.25,3.25,0,1,1-1,1.92l-24.55-12.41h0l-.57-.29-36,11.82h0l-41,81.1,33.95-11.15.29-.57h0l12.41-24.55a3.18,3.18,0,0,1-.74-1.21,3.22,3.22,0,1,1,4.07,2.06,3.19,3.19,0,0,1-1.41.13l-11.72,23.19,19.92-6.54a3.22,3.22,0,1,1,.67,2l-19.92,6.54,23.19,11.72a3.25,3.25,0,1,1-1,1.92l-24.55-12.41h0l-.57-.29-36,11.82h0l-29.84,59,33.95-11.15.29-.57h0L729.16,591a3.25,3.25,0,1,1,1.92,1l-11.72,23.19,19.92-6.54a3.22,3.22,0,1,1,.67,2L720,617.23,743.22,629a3.25,3.25,0,1,1-1,1.92L717.7,618.46h0l-.57-.29-36,11.82h0l-22.33,44.19-3,1.22,16.62-32.87L660.87,607.4l-.57-.29h0L635.76,594.7a3.25,3.25,0,1,1,1-1.92l23.19,11.72-6.54-19.92a3.22,3.22,0,1,1,2-.67L662,603.83l11.72-23.19a3.19,3.19,0,0,1-.74-1.21,3.25,3.25,0,1,1,2.65,2.18l-12.41,24.55h0l-.29.57,10.87,33.09,43.63-86.32-11.54-35.13-.57-.29h0l-24.55-12.41a3.25,3.25,0,1,1,1-1.92l23.19,11.72-6.54-19.92a3.22,3.22,0,1,1,2-.67L707,514.8l11.72-23.19a3.19,3.19,0,0,1-.74-1.21,3.25,3.25,0,1,1,2.65,2.18L708.2,517.12h0l-.29.57,10.87,33.09L741.93,505l-11.54-35.13-.57-.29h0l-24.55-12.41A3.19,3.19,0,0,1,704.06,457.9Z" fill="#96d0e0"/><path d="M634.66,737.66l11.65-6.19s17.76-102.61,28.32-153.78,70.15-196.34,70.15-196.34-57.62,113.89-79.84,199.37S634.66,737.66,634.66,737.66Z" fill="#8381d4"/><ellipse cx="718.48" cy="417.98" rx="35.9" ry="3.21" transform="translate(255.79 1108.52) rotate(-86.37)" fill="#8381d4"/><ellipse cx="695.51" cy="447.59" rx="4.81" ry="53.87" transform="translate(-15.1 24.38) rotate(-1.99)" fill="#8381d4"/><ellipse cx="732.42" cy="462.02" rx="53.87" ry="4.81" transform="translate(-113.85 645.66) rotate(-44.49)" fill="#8381d4"/><ellipse cx="679.44" cy="482.15" rx="5.64" ry="63.21" transform="translate(-16.3 23.84) rotate(-1.99)" fill="#8381d4"/><ellipse cx="726.09" cy="499.2" rx="63.21" ry="5.64" transform="translate(-148.75 604.39) rotate(-41.37)" fill="#8381d4"/><ellipse cx="657.49" cy="536.89" rx="6" ry="67.24" transform="translate(-68.55 97.1) rotate(-8.03)" fill="#8381d4"/><ellipse cx="708.75" cy="549.7" rx="67.24" ry="6" transform="translate(-175.6 699.45) rotate(-47.41)" fill="#8381d4"/><ellipse cx="639.65" cy="588.34" rx="8.4" ry="71.51" transform="translate(-104.93 140.12) rotate(-11.56)" fill="#8381d4"/><ellipse cx="619.7" cy="631.22" rx="12.34" ry="58.83" transform="translate(-233.84 398.98) rotate(-30.31)" fill="#8381d4"/><ellipse cx="696.87" cy="598.17" rx="71.51" ry="6.38" transform="translate(-206.73 762.33) rotate(-50.94)" fill="#8381d4"/><ellipse cx="696.77" cy="634.56" rx="71.51" ry="8.9" transform="translate(-245.52 618.78) rotate(-41.37)" fill="#8381d4"/><ellipse cx="604.59" cy="677.57" rx="12.34" ry="58.83" transform="translate(-288.51 513.26) rotate(-37.83)" fill="#8381d4"/><ellipse cx="694.93" cy="686.28" rx="71.51" ry="8.9" transform="translate(-268.03 523.1) rotate(-35.02)" fill="#8381d4"/><ellipse cx="739.45" cy="429.59" rx="46.16" ry="4.12" transform="translate(-72.61 697.71) rotate(-48.43)" fill="#8381d4"/><path d="M582.75,632.77c-9.26-42.92,13.52-99.9,34.1-144,14.61-31.31,12.56-66,8.61-87.8a54.34,54.34,0,0,1,17.09,3c42.28,14.38,19.38,64,8.59,80.74s-5.11,19.34,11.69,14c11.48-3.67,49.54-2.87,46.42,30.73s-77.64,71.22-61.82,76.71c28.86,10,25.09,41.81-2,55.63-30.76,15.7,5.88,8.23-1.37,40.85-7.74,34.84-90,64.7-97.93,67.29C577.09,737.3,590.57,669,582.75,632.77Z" fill="#c1e9fa"/><path d="M504.23,691.45c-24.17-14.7-9.64-37.5,5.21-39.95,10.87-1.79,20.52.9,13.69-6.84-26.41-30-47.43-71.51-21.72-88.08s39.38,17.67,43.68,12.48-28.12-39.33-30.24-62,33.14-43,50-5.84c11.12,24.47,22.9-11.35,17.79-34.37-8-35.92,11.91-66.14,42.8-65.9,3.95,21.8,6,56.49-8.61,87.8-20.58,44.1-43.36,101.07-34.1,144,7.82,36.25-5.65,104.53-36.6,137.16l-.62.2S545.85,716.76,504.23,691.45Z" fill="#a2ddeb"/><path d="M555,587.36a2.77,2.77,0,1,1,1.7-2.38l20.35,8.65-6.68-16.55a2.74,2.74,0,1,1,1.7-.68L578.75,593l8.65-20.35a2.77,2.77,0,1,1,1.68.71l-9.16,21.54h0l-.21.5,11.09,27.49,31.6-74.34-11.77-29.18-.5-.21h0l-21.54-9.16a2.71,2.71,0,0,1-1,.69,2.74,2.74,0,1,1,1.52-3.57,2.71,2.71,0,0,1,.19,1.19l20.35,8.65L603,500.37a2.74,2.74,0,1,1,1.7-.68l6.68,16.55L620,495.88a2.71,2.71,0,0,1-.69-1,2.77,2.77,0,1,1,2.38,1.7l-9.16,21.54h0l-.21.5,11.09,27.49,5.66-13.3L635.8,517l5.88-13.84-.2-.5h0L632.73,481a2.77,2.77,0,1,1,1.7-.68l8.27,20.51,7-16.42a2.74,2.74,0,1,1,1.68.72l-7,16.42,20.51-8.27a2.77,2.77,0,1,1,.68,1.7l-21.71,8.76h0l-.5.2-5.88,13.84-6.72,15.82-9.82,23.1,28.2-11.38.21-.5h0l9.16-21.54a2.71,2.71,0,0,1-.69-1,2.77,2.77,0,1,1,2.38,1.7l-8.65,20.35,16.55-6.68a2.74,2.74,0,1,1,.68,1.7L652.23,546l20.35,8.65a2.71,2.71,0,0,1,1-.69,2.77,2.77,0,1,1-1.7,2.38l-21.54-9.16h0l-.5-.21L619.94,559h0l-19.43,45.7,28.2-11.38.21-.5h0l9.16-21.54a2.77,2.77,0,1,1,1.68.72l-8.65,20.35,16.55-6.68a2.74,2.74,0,1,1,.68,1.7L631.8,594l20.35,8.65a2.77,2.77,0,1,1-.71,1.68l-21.54-9.16h0l-.5-.21-29.88,12.06h0l-30.25,71.17,28.2-11.38.21-.5h0l9.16-21.54a2.71,2.71,0,0,1-.69-1,2.74,2.74,0,1,1,3.57,1.52,2.71,2.71,0,0,1-1.19.19l-8.65,20.35,16.55-6.68a2.74,2.74,0,1,1,.68,1.7l-16.55,6.67,20.35,8.65a2.77,2.77,0,1,1-.72,1.68l-21.54-9.16h0l-.5-.21-29.88,12.06h0l-22,51.81L574.42,721l.21-.5h0L583.8,699a2.77,2.77,0,1,1,1.68.72l-8.65,20.35,16.55-6.68a2.74,2.74,0,1,1,.68,1.7l-16.55,6.68,20.35,8.65a2.77,2.77,0,1,1-.71,1.68l-21.54-9.16h0l-.5-.21-29.88,12.06h0l-16.48,38.78-2.15.39,11.92-28-11.77-29.18-.5-.21h0l-21.54-9.16a2.77,2.77,0,1,1,.72-1.68l20.35,8.65-6.68-16.55a2.74,2.74,0,1,1,1.7-.68l6.68,16.55,8.65-20.35a2.71,2.71,0,0,1-.69-1,2.77,2.77,0,1,1,2.38,1.7l-9.16,21.54h0l-.21.5,11.09,27.49,32.2-75.75L559.93,638.6l-.5-.21h0l-21.54-9.16a2.77,2.77,0,1,1,.72-1.68L559,636.2l-6.68-16.55A2.74,2.74,0,1,1,554,619l6.68,16.55,8.65-20.35a2.71,2.71,0,0,1-.69-1,2.77,2.77,0,1,1,2.38,1.7l-9.16,21.54h0l-.21.5,11.09,27.49,17.08-40.18L578,596l-.5-.21h0L556,586.67A2.72,2.72,0,0,1,555,587.36Z" fill="#8381d4"/><path d="M545.79,770l-7.89,1.73s4.74-79.09,5.73-116.74-17-149.34-17-149.34,21.75,89.41,23.33,153.06S545.79,770,545.79,770Z" fill="#96d0e0"/><ellipse cx="539.05" cy="535.7" rx="25.88" ry="2.31" transform="translate(-78.46 978.68) rotate(-80.48)" fill="#96d0e0"/><ellipse cx="550.31" cy="560.26" rx="38.84" ry="3.47" transform="translate(-134.26 945.08) rotate(-74.86)" fill="#96d0e0"/><ellipse cx="522.03" cy="564.33" rx="3.47" ry="38.84" transform="translate(-220.96 366.98) rotate(-32.35)" fill="#96d0e0"/><ellipse cx="555.92" cy="587.15" rx="45.57" ry="4.07" transform="translate(-156.08 970.37) rotate(-74.86)" fill="#96d0e0"/><ellipse cx="520.38" cy="591.46" rx="4.07" ry="45.57" transform="translate(-246.66 411.81) rotate(-35.48)" fill="#96d0e0"/><ellipse cx="562.35" cy="629.18" rx="48.48" ry="4.33" transform="translate(-227.55 926.12) rotate(-68.81)" fill="#96d0e0"/><ellipse cx="524.26" cy="629.76" rx="4.33" ry="48.48" transform="translate(-241.81 338.92) rotate(-29.43)" fill="#96d0e0"/><ellipse cx="566.43" cy="668.23" rx="51.55" ry="6.05" transform="translate(-277.43 903.34) rotate(-65.28)" fill="#96d0e0"/><ellipse cx="573.4" cy="701.61" rx="42.41" ry="8.89" transform="translate(-330.27 635.14) rotate(-46.54)" fill="#96d0e0"/><ellipse cx="524.65" cy="665.74" rx="4.6" ry="51.55" transform="translate(-238.12 296.08) rotate(-25.9)" fill="#96d0e0"/><ellipse cx="518.74" cy="691.3" rx="6.42" ry="51.55" transform="translate(-304.91 429.4) rotate(-35.48)" fill="#96d0e0"/><ellipse cx="576.4" cy="736.63" rx="42.41" ry="8.89" transform="translate(-335.15 527.04) rotate(-39.01)" fill="#96d0e0"/><ellipse cx="511.55" cy="727.92" rx="6.42" ry="51.55" transform="translate(-355.04 526.52) rotate(-41.82)" fill="#96d0e0"/><ellipse cx="522.42" cy="540.41" rx="2.97" ry="33.28" transform="translate(-194.22 313.71) rotate(-28.42)" fill="#96d0e0"/><rect x="453.33" y="231.91" width="27.31" height="393.36" fill="#604b3b"/><path d="M453.33,231.91v10.15a13.63,13.63,0,0,1,4.39-.73h0A13.66,13.66,0,0,1,471.38,255V602.18a13.66,13.66,0,0,1-13.66,13.66h0a13.63,13.63,0,0,1-4.39-.73v10.15h27.31V231.91Z" fill="#452f27" opacity="0.54"/><ellipse cx="466.99" cy="231.91" rx="13.66" ry="3.42" fill="#916f5d"/><polygon points="497.99 253.51 325.79 253.51 320.61 256.47 492.81 256.47 497.99 253.51" fill="#916f5d"/><polygon points="320.61 256.47 293.2 293.61 320.61 330.75 492.81 330.75 492.81 256.47 320.61 256.47" fill="#beac83"/><polygon points="497.99 327.79 492.81 330.75 492.81 256.47 497.99 253.51 497.99 327.79" fill="#604b3b"/><g opacity="0.12"><polygon points="392.82 256.47 320.61 256.47 293.2 293.61 320.61 330.75 349.93 330.75 392.82 256.47" fill="#fff"/><polygon points="475.88 256.47 433 330.75 492.81 330.75 492.81 256.47 475.88 256.47" fill="#fff"/></g><path d="M337.17,275.1h7.3a3.92,3.92,0,0,1,2.92,1.06,3.8,3.8,0,0,1,1,2.8,4.2,4.2,0,0,1-.23,1.46,2.82,2.82,0,0,1-.6,1,2.33,2.33,0,0,1-.88.57,3.55,3.55,0,0,1-1.09.2v.13a3.64,3.64,0,0,1,1.13.19,3.22,3.22,0,0,1,1.09.61,3.39,3.39,0,0,1,.83,1.09,3.63,3.63,0,0,1,.33,1.64,4.77,4.77,0,0,1-.29,1.67,4.23,4.23,0,0,1-.81,1.37,3.74,3.74,0,0,1-1.23.92,3.6,3.6,0,0,1-1.55.33h-8Zm3.27,6.16h3.25a1.27,1.27,0,0,0,1.38-1.38v-.65a1.27,1.27,0,0,0-1.38-1.38h-3.25Zm0,6.11h3.77a1.43,1.43,0,0,0,1-.36,1.31,1.31,0,0,0,.38-1v-.73a1.31,1.31,0,0,0-.38-1,1.43,1.43,0,0,0-1-.36h-3.77Z" fill="#452f27"/><path d="M351.53,290.13v-15h10.23V278h-7v3.06h6V284h-6v3.25h7v2.91Z" fill="#452f27"/><path d="M364.59,290.13v-15h7.1a4.83,4.83,0,0,1,1.89.36,4.2,4.2,0,0,1,1.43,1,4.29,4.29,0,0,1,.92,1.52,6.07,6.07,0,0,1,0,3.91,4.3,4.3,0,0,1-.92,1.51,4.2,4.2,0,0,1-1.43,1,4.83,4.83,0,0,1-1.89.36h-3.83v5.42Zm3.27-8.27h3.45a1.66,1.66,0,0,0,1.15-.38,1.41,1.41,0,0,0,.42-1.11v-.95a1.41,1.41,0,0,0-.42-1.11,1.66,1.66,0,0,0-1.15-.38h-3.45Z" fill="#452f27"/><path d="M387.71,284H382v6.16h-3.27v-15H382v6h5.73v-6H391v15h-3.27Z" fill="#452f27"/><path d="M395.21,287.22h2.63l.32-.82-5.25-11.3h3.44l2.11,4.67,1.25,3h.06l1.1-3,1.85-4.65h3.21L400.63,288a4.67,4.67,0,0,1-.53,1,2.67,2.67,0,0,1-.68.66,2.56,2.56,0,0,1-.89.37,5.72,5.72,0,0,1-1.17.11h-2.15Z" fill="#452f27"/><path d="M414.22,278v12.12h-3.27V278h-4.07V275.1h11.41V278Z" fill="#452f27"/><path d="M420.52,275.1h3.27v5.43h4a4.81,4.81,0,0,1,1.89.36,4.18,4.18,0,0,1,1.43,1,4.3,4.3,0,0,1,.92,1.52,6.07,6.07,0,0,1,0,3.91,4.32,4.32,0,0,1-.92,1.51,4.18,4.18,0,0,1-1.43,1,4.81,4.81,0,0,1-1.89.36h-7.32Zm6.93,12.19a1.66,1.66,0,0,0,1.15-.38,1.41,1.41,0,0,0,.42-1.11v-.95a1.41,1.41,0,0,0-.42-1.11,1.66,1.66,0,0,0-1.15-.38H423.8v3.92Z" fill="#452f27"/><path d="M440.85,290.39a7.47,7.47,0,0,1-2.76-.48,5.46,5.46,0,0,1-2.09-1.44,6.62,6.62,0,0,1-1.33-2.39,10.68,10.68,0,0,1-.47-3.35,11,11,0,0,1,.47-3.37,7.05,7.05,0,0,1,1.33-2.48,5.58,5.58,0,0,1,2.09-1.52,7,7,0,0,1,2.76-.52,6.38,6.38,0,0,1,3.45.85,5.87,5.87,0,0,1,2.17,2.68l-2.82,1.46a3.36,3.36,0,0,0-.94-1.52,2.7,2.7,0,0,0-1.86-.57,3,3,0,0,0-2.31.94,3.86,3.86,0,0,0-.87,2.72v2.41a3.85,3.85,0,0,0,.87,2.72,3,3,0,0,0,2.31.94,2.75,2.75,0,0,0,1.93-.66,4,4,0,0,0,1.07-1.58l2.67,1.55a6.68,6.68,0,0,1-2.21,2.66A6,6,0,0,1,440.85,290.39Z" fill="#452f27"/><path d="M448,287.22h1.33l1.23-1.92a2.44,2.44,0,0,1,.57-.65,2.12,2.12,0,0,1,.89-.34v-.13a4,4,0,0,1-2.66-1.29,4.32,4.32,0,0,1-1-3,5.68,5.68,0,0,1,.32-2,4.45,4.45,0,0,1,.92-1.52,4,4,0,0,1,1.43-1,4.9,4.9,0,0,1,1.87-.34h7.13v15H456.8v-5.51h-2l-2.52,3.94a4.59,4.59,0,0,1-.59.8,2.46,2.46,0,0,1-.61.47,2.3,2.3,0,0,1-.68.24,4.42,4.42,0,0,1-.79.06H448Zm8.76-5.36v-3.92h-3.44a1.66,1.66,0,0,0-1.15.38,1.41,1.41,0,0,0-.42,1.11v.93a1.44,1.44,0,0,0,.42,1.13,1.66,1.66,0,0,0,1.15.38Z" fill="#452f27"/><path d="M341.19,305.5h-5.73v6.16h-3.27v-15h3.27v6h5.73v-6h3.27v15h-3.27Z" fill="#452f27"/><path d="M357,311.66,356,308.08h-5l-1.08,3.57h-3.32l5-15h4l4.89,15Zm-3.55-12.06h-.11l-1.66,5.71h3.44Z" fill="#452f27"/><path d="M367.61,296.63h8.83v2.91h-5.55v12.12h-3.27Z" fill="#452f27"/><path d="M376.16,308.75h1.79a3.49,3.49,0,0,0,.6-.92,6.6,6.6,0,0,0,.44-1.41,16.43,16.43,0,0,0,.28-2.08q.1-1.22.1-2.94v-4.78H390v15H386.7V299.54h-4.16v2.33a33.81,33.81,0,0,1-.15,3.43,18.05,18.05,0,0,1-.41,2.49,7.56,7.56,0,0,1-.61,1.7,4.52,4.52,0,0,1-.76,1.08,4,4,0,0,1-1.43.95,5.59,5.59,0,0,1-1.91.28h-1.12Z" fill="#452f27"/><path d="M402.55,311.66l-1.08-3.57h-5l-1.08,3.57h-3.32l5-15h4l4.89,15ZM399,299.6h-.11l-1.66,5.71h3.44Z" fill="#452f27"/><path d="M408,296.63h7.3a3.92,3.92,0,0,1,2.92,1.06,3.8,3.8,0,0,1,1,2.8,4.2,4.2,0,0,1-.23,1.46,2.84,2.84,0,0,1-.6,1,2.32,2.32,0,0,1-.88.57,3.55,3.55,0,0,1-1.09.2v.13a3.65,3.65,0,0,1,1.13.19,3.22,3.22,0,0,1,1.09.61,3.39,3.39,0,0,1,.83,1.09,3.64,3.64,0,0,1,.33,1.64,4.77,4.77,0,0,1-.29,1.67,4.25,4.25,0,0,1-.81,1.37,3.75,3.75,0,0,1-1.23.92,3.6,3.6,0,0,1-1.55.33h-8Zm3.27,6.16h3.25a1.27,1.27,0,0,0,1.38-1.38v-.65a1.27,1.27,0,0,0-1.38-1.38h-3.25Zm0,6.11h3.77a1.43,1.43,0,0,0,1-.36,1.31,1.31,0,0,0,.38-1v-.73a1.31,1.31,0,0,0-.38-1,1.43,1.43,0,0,0-1-.36h-3.77Z" fill="#452f27"/><path d="M431.4,305.5h-5.73v6.16H422.4v-15h3.27v6h5.73v-6h3.27v15H431.4Z" fill="#452f27"/><path d="M438.89,308.75h2.63l.32-.82-5.25-11.3H440l2.11,4.67,1.25,3h.06l1.1-3,1.85-4.65h3.21l-5.3,12.92a4.67,4.67,0,0,1-.53,1,2.67,2.67,0,0,1-.68.66,2.56,2.56,0,0,1-.89.37,5.72,5.72,0,0,1-1.17.11h-2.15Z" fill="#452f27"/><path d="M464.1,311.92a6.26,6.26,0,0,1-4.48-1.63,7.53,7.53,0,0,1-2.09-4.79h-2.69v6.16h-3.27v-15h3.27v6h2.73a8.19,8.19,0,0,1,.7-2.69,6.17,6.17,0,0,1,1.4-2,5.66,5.66,0,0,1,2-1.18,7.32,7.32,0,0,1,2.45-.4,7.19,7.19,0,0,1,2.71.5,5.46,5.46,0,0,1,2.09,1.47,6.85,6.85,0,0,1,1.33,2.43,12.22,12.22,0,0,1,0,6.74,6.85,6.85,0,0,1-1.33,2.43,5.46,5.46,0,0,1-2.09,1.48A7.21,7.21,0,0,1,464.1,311.92Zm0-2.91a2.88,2.88,0,0,0,2.31-1,4.16,4.16,0,0,0,.83-2.78V303a4.16,4.16,0,0,0-.83-2.78,3.25,3.25,0,0,0-4.63,0A4.15,4.15,0,0,0,461,303v2.24a4.15,4.15,0,0,0,.83,2.78A2.88,2.88,0,0,0,464.1,309Z" fill="#452f27"/><circle cx="467.54" cy="266.74" r="4.48" fill="#4d4d4d"/><circle cx="467.06" cy="266.25" r="4" fill="#666"/><rect x="466.34" y="262.9" width="1.45" height="6.7" rx="0.72" ry="0.72" transform="translate(215.82 -209.05) rotate(32.45)" fill="#4d4d4d"/><g opacity="0.7"><path d="M464.43,266.19l-.23-.17a.51.51,0,0,0-.82.41,3,3,0,0,0,.45,1.51.51.51,0,0,0,.84,0l0,0a.51.51,0,0,0,0-.57,2,2,0,0,1-.27-.76A2,2,0,0,1,464.43,266.19Z" fill="gray"/><path d="M466.08,262.65a3,3,0,0,0-1.41.86.51.51,0,0,0,.13.79h0a.52.52,0,0,0,.64-.11,2,2,0,0,1,1.71-.61.51.51,0,0,0,.51-.25v0a.51.51,0,0,0-.37-.76A3,3,0,0,0,466.08,262.65Z" fill="gray"/></g><circle cx="470.48" cy="321.09" r="4.48" fill="#4d4d4d"/><circle cx="470" cy="320.6" r="4" fill="#666"/><rect x="469.28" y="317.25" width="1.45" height="6.7" rx="0.72" ry="0.72" transform="translate(245.44 -202.14) rotate(32.45)" fill="#4d4d4d"/><g opacity="0.7"><path d="M467.37,320.54l-.23-.17a.51.51,0,0,0-.82.41,3,3,0,0,0,.45,1.51.51.51,0,0,0,.84,0l0,0a.51.51,0,0,0,0-.57,2,2,0,0,1-.27-.76A2,2,0,0,1,467.37,320.54Z" fill="gray"/><path d="M469,317a3,3,0,0,0-1.41.86.51.51,0,0,0,.13.79h0a.52.52,0,0,0,.64-.11,2,2,0,0,1,1.71-.61.51.51,0,0,0,.51-.25v0a.51.51,0,0,0-.37-.76A3,3,0,0,0,469,317Z" fill="gray"/></g><path d="M336.57,274.51h7.3a3.92,3.92,0,0,1,2.92,1.06,3.8,3.8,0,0,1,1,2.8,4.2,4.2,0,0,1-.23,1.46,2.82,2.82,0,0,1-.6,1,2.33,2.33,0,0,1-.88.57,3.55,3.55,0,0,1-1.09.2v.13a3.64,3.64,0,0,1,1.13.19,3.22,3.22,0,0,1,1.09.61,3.39,3.39,0,0,1,.83,1.09,3.63,3.63,0,0,1,.33,1.64,4.77,4.77,0,0,1-.29,1.67,4.23,4.23,0,0,1-.81,1.37,3.74,3.74,0,0,1-1.23.92,3.6,3.6,0,0,1-1.55.33h-8Zm3.27,6.16h3.25a1.27,1.27,0,0,0,1.38-1.38v-.65a1.27,1.27,0,0,0-1.38-1.38h-3.25Zm0,6.11h3.77a1.43,1.43,0,0,0,1-.36,1.31,1.31,0,0,0,.38-1v-.73a1.31,1.31,0,0,0-.38-1,1.43,1.43,0,0,0-1-.36h-3.77Z" fill="#604b3b"/><path d="M350.93,289.53v-15h10.23v2.91h-7v3.06h6v2.91h-6v3.25h7v2.91Z" fill="#604b3b"/><path d="M364,289.53v-15h7.1a4.83,4.83,0,0,1,1.89.36,4.2,4.2,0,0,1,1.43,1,4.29,4.29,0,0,1,.92,1.52,6.07,6.07,0,0,1,0,3.91,4.3,4.3,0,0,1-.92,1.51,4.2,4.2,0,0,1-1.43,1,4.83,4.83,0,0,1-1.89.36h-3.83v5.42Zm3.27-8.27h3.45a1.66,1.66,0,0,0,1.15-.38,1.41,1.41,0,0,0,.42-1.11v-.95a1.41,1.41,0,0,0-.42-1.11,1.66,1.66,0,0,0-1.15-.38h-3.45Z" fill="#604b3b"/><path d="M387.12,283.38h-5.73v6.16h-3.27v-15h3.27v6h5.73v-6h3.27v15h-3.27Z" fill="#604b3b"/><path d="M394.61,286.63h2.63l.32-.82-5.25-11.3h3.44l2.11,4.67,1.25,3h.06l1.1-3,1.85-4.65h3.21L400,287.42a4.67,4.67,0,0,1-.53,1,2.67,2.67,0,0,1-.68.66,2.56,2.56,0,0,1-.89.37,5.72,5.72,0,0,1-1.17.11h-2.15Z" fill="#604b3b"/><path d="M413.62,277.41v12.12h-3.27V277.41h-4.07v-2.91h11.41v2.91Z" fill="#604b3b"/><path d="M419.93,274.51h3.27v5.43h4a4.81,4.81,0,0,1,1.89.36,4.18,4.18,0,0,1,1.43,1,4.3,4.3,0,0,1,.92,1.52,6.07,6.07,0,0,1,0,3.91,4.32,4.32,0,0,1-.92,1.51,4.18,4.18,0,0,1-1.43,1,4.81,4.81,0,0,1-1.89.36h-7.32Zm6.93,12.19a1.66,1.66,0,0,0,1.15-.38,1.41,1.41,0,0,0,.42-1.11v-.95a1.41,1.41,0,0,0-.42-1.11,1.66,1.66,0,0,0-1.15-.38H423.2v3.92Z" fill="#604b3b"/><path d="M440.25,289.79a7.47,7.47,0,0,1-2.76-.48,5.46,5.46,0,0,1-2.09-1.44,6.62,6.62,0,0,1-1.33-2.39,10.68,10.68,0,0,1-.47-3.35,11,11,0,0,1,.47-3.37,7.05,7.05,0,0,1,1.33-2.48,5.58,5.58,0,0,1,2.09-1.52,7,7,0,0,1,2.76-.52,6.38,6.38,0,0,1,3.45.85,5.87,5.87,0,0,1,2.17,2.68L443,279.24a3.36,3.36,0,0,0-.94-1.52,2.7,2.7,0,0,0-1.86-.57,3,3,0,0,0-2.31.94,3.86,3.86,0,0,0-.87,2.72v2.41a3.85,3.85,0,0,0,.87,2.72,3,3,0,0,0,2.31.94,2.75,2.75,0,0,0,1.93-.66,4,4,0,0,0,1.07-1.58l2.67,1.55a6.68,6.68,0,0,1-2.21,2.66A6,6,0,0,1,440.25,289.79Z" fill="#604b3b"/><path d="M447.44,286.63h1.33l1.23-1.92a2.44,2.44,0,0,1,.57-.65,2.12,2.12,0,0,1,.89-.34v-.13a4,4,0,0,1-2.66-1.29,4.32,4.32,0,0,1-1-3,5.68,5.68,0,0,1,.32-2,4.45,4.45,0,0,1,.92-1.52,4,4,0,0,1,1.43-1,4.9,4.9,0,0,1,1.87-.34h7.13v15H456.2V284h-2L451.7,288a4.59,4.59,0,0,1-.59.8,2.46,2.46,0,0,1-.61.47,2.3,2.3,0,0,1-.68.24,4.42,4.42,0,0,1-.79.06h-1.59Zm8.76-5.36v-3.92h-3.44a1.66,1.66,0,0,0-1.15.38,1.41,1.41,0,0,0-.42,1.11v.93a1.44,1.44,0,0,0,.42,1.13,1.66,1.66,0,0,0,1.15.38Z" fill="#604b3b"/><path d="M340.59,304.9h-5.73v6.16H331.6V296h3.27v6h5.73v-6h3.27v15h-3.27Z" fill="#604b3b"/><path d="M356.44,311.06l-1.08-3.57h-5l-1.08,3.57H346l5-15h4l4.89,15ZM352.89,299h-.11l-1.66,5.71h3.44Z" fill="#604b3b"/><path d="M367,296h8.83v2.91h-5.55v12.12H367Z" fill="#604b3b"/><path d="M375.56,308.16h1.79a3.49,3.49,0,0,0,.6-.92,6.6,6.6,0,0,0,.44-1.41,16.43,16.43,0,0,0,.28-2.08q.1-1.22.1-2.94V296h10.61v15h-3.27V298.94H382v2.33a33.81,33.81,0,0,1-.15,3.43,18.05,18.05,0,0,1-.41,2.49,7.56,7.56,0,0,1-.61,1.7A4.52,4.52,0,0,1,380,310a4,4,0,0,1-1.43.95,5.59,5.59,0,0,1-1.91.28h-1.12Z" fill="#604b3b"/><path d="M402,311.06l-1.08-3.57h-5l-1.08,3.57h-3.32l5-15h4l4.89,15ZM398.4,299h-.11l-1.66,5.71h3.44Z" fill="#604b3b"/><path d="M407.44,296h7.3a3.92,3.92,0,0,1,2.92,1.06,3.8,3.8,0,0,1,1,2.8,4.2,4.2,0,0,1-.23,1.46,2.84,2.84,0,0,1-.6,1,2.32,2.32,0,0,1-.88.57,3.55,3.55,0,0,1-1.09.2v.13a3.65,3.65,0,0,1,1.13.19,3.22,3.22,0,0,1,1.09.61,3.39,3.39,0,0,1,.83,1.09,3.64,3.64,0,0,1,.33,1.64,4.77,4.77,0,0,1-.29,1.67,4.25,4.25,0,0,1-.81,1.37,3.75,3.75,0,0,1-1.23.92,3.6,3.6,0,0,1-1.55.33h-8Zm3.27,6.16H414a1.27,1.27,0,0,0,1.38-1.38v-.65a1.27,1.27,0,0,0-1.38-1.38h-3.25Zm0,6.11h3.77a1.43,1.43,0,0,0,1-.36,1.31,1.31,0,0,0,.38-1v-.73a1.31,1.31,0,0,0-.38-1,1.43,1.43,0,0,0-1-.36h-3.77Z" fill="#604b3b"/><path d="M430.8,304.9h-5.73v6.16H421.8V296h3.27v6h5.73v-6h3.27v15H430.8Z" fill="#604b3b"/><path d="M438.29,308.16h2.63l.32-.82L436,296h3.44l2.11,4.67,1.25,3h.06l1.1-3L445.8,296H449L443.72,309a4.67,4.67,0,0,1-.53,1,2.67,2.67,0,0,1-.68.66,2.56,2.56,0,0,1-.89.37,5.72,5.72,0,0,1-1.17.11h-2.15Z" fill="#604b3b"/><path d="M463.5,311.32a6.26,6.26,0,0,1-4.48-1.63,7.53,7.53,0,0,1-2.09-4.79h-2.69v6.16H451V296h3.27v6H457a8.19,8.19,0,0,1,.7-2.69,6.17,6.17,0,0,1,1.4-2,5.66,5.66,0,0,1,2-1.18,7.32,7.32,0,0,1,2.45-.4,7.19,7.19,0,0,1,2.71.5,5.46,5.46,0,0,1,2.09,1.47,6.85,6.85,0,0,1,1.33,2.43,12.22,12.22,0,0,1,0,6.74,6.85,6.85,0,0,1-1.33,2.43,5.46,5.46,0,0,1-2.09,1.48A7.21,7.21,0,0,1,463.5,311.32Zm0-2.91a2.88,2.88,0,0,0,2.31-1,4.16,4.16,0,0,0,.83-2.78v-2.24a4.16,4.16,0,0,0-.83-2.78,3.25,3.25,0,0,0-4.63,0,4.15,4.15,0,0,0-.83,2.78v2.24a4.15,4.15,0,0,0,.83,2.78A2.88,2.88,0,0,0,463.5,308.41Z" fill="#604b3b"/><polygon points="453.33 338.16 480.64 338.16 480.64 330.82 472.59 330.75 453.33 330.75 453.33 338.16" fill="#452f27"/><polygon points="590.38 341.12 617.79 378.26 590.38 415.4 424.67 415.4 424.67 341.12 590.38 341.12" fill="#beac83"/><g opacity="0.1"><polygon points="504.48 341.12 424.67 341.12 424.67 415.4 468.4 415.4 504.48 341.12" fill="#fff"/><polygon points="590.38 341.12 582.34 341.12 546.27 415.4 590.38 415.4 617.79 378.26 590.38 341.12" fill="#fff"/></g><path d="M472.45,376.85a8.26,8.26,0,0,1-3-.54,6.9,6.9,0,0,1-2.48-1.68l2.15-2.17a5.15,5.15,0,0,0,1.52,1.1,4.3,4.3,0,0,0,1.84.39,3.51,3.51,0,0,0,2-.45,1.44,1.44,0,0,0,.67-1.26v-.17a1.42,1.42,0,0,0-.52-1.23,2.78,2.78,0,0,0-1.61-.37h-2.61v-2.91h2.48q2,0,2-1.66v-.11q0-1.57-2.26-1.57a4.58,4.58,0,0,0-1.77.36,3.91,3.91,0,0,0-1.44,1l-2-2.07a6.65,6.65,0,0,1,2.29-1.61,7.22,7.22,0,0,1,2.9-.58,9,9,0,0,1,2.39.29,5.4,5.4,0,0,1,1.8.84,3.67,3.67,0,0,1,1.54,3.07,3.39,3.39,0,0,1-.25,1.35,2.79,2.79,0,0,1-.67,1,3,3,0,0,1-1,.6,4.76,4.76,0,0,1-1.22.28v.13a4.8,4.8,0,0,1,1.26.26,3.23,3.23,0,0,1,1.08.62,3.17,3.17,0,0,1,.75,1,3.23,3.23,0,0,1,.29,1.42,4.22,4.22,0,0,1-.43,1.92,4.39,4.39,0,0,1-1.22,1.48,5.72,5.72,0,0,1-1.92,1A8.66,8.66,0,0,1,472.45,376.85Z" fill="#452f27"/><path d="M490,376.59,488.92,373h-5l-1.08,3.57h-3.32l5-15h4l4.89,15Zm-3.55-12.06h-.11l-1.66,5.71h3.44Z" fill="#452f27"/><path d="M495.49,361.56h3.27v6h2.17l2.24-4.18a4,4,0,0,1,1.11-1.34,2.65,2.65,0,0,1,1.58-.44h1.33v2.91h-1.33l-1.55,2.92a2.82,2.82,0,0,1-.68.89,2.75,2.75,0,0,1-.89.48v.13a2.21,2.21,0,0,1,1,.42,2.61,2.61,0,0,1,.7.94l1.77,3.43h1.33v2.91h-1.7a2.68,2.68,0,0,1-1.5-.39,3.68,3.68,0,0,1-1.13-1.44l-2.24-4.33h-2.17v6.16h-3.27Z" fill="#452f27"/><path d="M519.28,376.59,518.2,373h-5l-1.08,3.57h-3.32l5-15h4l4.89,15Zm-3.55-12.06h-.11L514,370.24h3.44Z" fill="#452f27"/><path d="M529.25,376.85a8.26,8.26,0,0,1-3-.54,6.9,6.9,0,0,1-2.48-1.68l2.15-2.17a5.15,5.15,0,0,0,1.52,1.1,4.3,4.3,0,0,0,1.84.39,3.51,3.51,0,0,0,2-.45,1.44,1.44,0,0,0,.67-1.26v-.17a1.42,1.42,0,0,0-.52-1.23,2.78,2.78,0,0,0-1.61-.37h-2.61v-2.91h2.48q2,0,2-1.66v-.11q0-1.57-2.26-1.57a4.58,4.58,0,0,0-1.77.36,3.91,3.91,0,0,0-1.44,1l-2-2.07a6.65,6.65,0,0,1,2.29-1.61,7.22,7.22,0,0,1,2.9-.58,9,9,0,0,1,2.39.29,5.4,5.4,0,0,1,1.8.84,3.67,3.67,0,0,1,1.54,3.07,3.39,3.39,0,0,1-.25,1.35,2.79,2.79,0,0,1-.67,1,3,3,0,0,1-1,.6,4.76,4.76,0,0,1-1.22.28v.13a4.8,4.8,0,0,1,1.26.26,3.23,3.23,0,0,1,1.08.62,3.17,3.17,0,0,1,.75,1,3.23,3.23,0,0,1,.29,1.42,4.22,4.22,0,0,1-.43,1.92,4.39,4.39,0,0,1-1.22,1.48,5.72,5.72,0,0,1-1.92,1A8.66,8.66,0,0,1,529.25,376.85Z" fill="#452f27"/><path d="M546.79,376.59,545.71,373h-5l-1.08,3.57h-3.32l5-15h4l4.89,15Zm-3.55-12.06h-.11l-1.66,5.71h3.44Z" fill="#452f27"/><path d="M557.15,364.47v12.12h-3.27V364.47H549.8v-2.91h11.41v2.91Z" fill="#452f27"/><path d="M563.45,361.56h3.27V367h4a4.81,4.81,0,0,1,1.89.36,4.18,4.18,0,0,1,1.43,1,4.3,4.3,0,0,1,.92,1.52,6.07,6.07,0,0,1,0,3.91,4.32,4.32,0,0,1-.92,1.51,4.18,4.18,0,0,1-1.43,1,4.81,4.81,0,0,1-1.89.36h-7.32Zm6.93,12.19a1.66,1.66,0,0,0,1.15-.38,1.41,1.41,0,0,0,.42-1.11v-.95a1.41,1.41,0,0,0-.42-1.11,1.66,1.66,0,0,0-1.15-.38h-3.66v3.92Z" fill="#452f27"/><path d="M487,395.21h1.79a3.49,3.49,0,0,0,.6-.92,6.6,6.6,0,0,0,.44-1.41,16.43,16.43,0,0,0,.28-2.08q.1-1.22.1-2.94v-4.78h10.61v15H497.6V386h-4.16v2.33a33.81,33.81,0,0,1-.15,3.43,18.05,18.05,0,0,1-.41,2.49,7.56,7.56,0,0,1-.61,1.7,4.52,4.52,0,0,1-.76,1.08,4,4,0,0,1-1.43.95,5.59,5.59,0,0,1-1.91.28H487Z" fill="#452f27"/><path d="M504.18,383.09h3.19v7.34l-.34,3.16h.07l1.49-2.86,5-7.64h2.93v15h-3.19v-7.34l.34-3.17h-.06l-1.49,2.86-5,7.64h-2.93Z" fill="#452f27"/><path d="M518.48,395.21h1.64a3.85,3.85,0,0,0,.69-.92,6.36,6.36,0,0,0,.56-1.43,13.4,13.4,0,0,0,.37-2.09,28.3,28.3,0,0,0,.13-2.91v-4.78h10.79v12.12h2.43v6.14H532v-3.23H521.56v3.23h-3.08Zm10.89,0V386H525v2.34q0,1.48-.09,2.57a18.05,18.05,0,0,1-.24,1.89,6.91,6.91,0,0,1-.39,1.37,5.41,5.41,0,0,1-.52,1v.06Z" fill="#452f27"/><path d="M537.32,383.09h3.27v5.43h3.83a4.81,4.81,0,0,1,1.89.36,4.17,4.17,0,0,1,1.43,1,4.27,4.27,0,0,1,.92,1.52,6.07,6.07,0,0,1,0,3.91,4.29,4.29,0,0,1-.92,1.51,4.17,4.17,0,0,1-1.43,1,4.81,4.81,0,0,1-1.89.36h-7.1ZM544,395.27a1.66,1.66,0,0,0,1.15-.38,1.41,1.41,0,0,0,.42-1.11v-.95a1.41,1.41,0,0,0-.42-1.11,1.66,1.66,0,0,0-1.15-.38h-3.45v3.92Zm6.78-12.19h3.27v15h-3.27Z" fill="#452f27"/><circle cx="465.9" cy="349.19" r="4.38" fill="#4d4d4d"/><circle cx="465.43" cy="348.71" r="3.91" fill="#666"/><rect x="464.72" y="345.44" width="1.41" height="6.54" rx="0.41" ry="0.41" transform="translate(259.82 -195.3) rotate(32.45)" fill="#4d4d4d"/><g opacity="0.7"><path d="M462.86,348.66l-.23-.17a.5.5,0,0,0-.8.4,3,3,0,0,0,.44,1.48.5.5,0,0,0,.82,0l0,0a.5.5,0,0,0,0-.56,1.94,1.94,0,0,1-.27-.74A2,2,0,0,1,462.86,348.66Z" fill="gray"/><path d="M464.47,345.2a3,3,0,0,0-1.38.84.5.5,0,0,0,.13.77h0a.51.51,0,0,0,.62-.11,1.94,1.94,0,0,1,1.67-.59.5.5,0,0,0,.5-.25v0a.5.5,0,0,0-.36-.74A3,3,0,0,0,464.47,345.2Z" fill="gray"/></g><circle cx="465.9" cy="406.76" r="4.38" fill="#4d4d4d"/><circle cx="465.43" cy="406.29" r="3.91" fill="#666"/><rect x="464.72" y="403.02" width="1.41" height="6.54" rx="0.41" ry="0.41" transform="translate(290.71 -186.31) rotate(32.45)" fill="#4d4d4d"/><g opacity="0.7"><path d="M462.86,406.23l-.23-.17a.5.5,0,0,0-.8.4,3,3,0,0,0,.44,1.48.5.5,0,0,0,.82,0l0,0a.5.5,0,0,0,0-.56,1.94,1.94,0,0,1-.27-.74A2,2,0,0,1,462.86,406.23Z" fill="gray"/><path d="M464.47,402.77a3,3,0,0,0-1.38.84.5.5,0,0,0,.13.77h0a.51.51,0,0,0,.62-.11,1.94,1.94,0,0,1,1.67-.59.5.5,0,0,0,.5-.25v0a.5.5,0,0,0-.36-.74A3,3,0,0,0,464.47,402.77Z" fill="gray"/></g><path d="M471.86,376.25a8.26,8.26,0,0,1-3-.54,6.9,6.9,0,0,1-2.48-1.68l2.15-2.17A5.15,5.15,0,0,0,470,373a4.3,4.3,0,0,0,1.84.39,3.51,3.51,0,0,0,2-.45,1.44,1.44,0,0,0,.67-1.26v-.17a1.42,1.42,0,0,0-.52-1.23,2.78,2.78,0,0,0-1.61-.37h-2.61v-2.91h2.48q2,0,2-1.66v-.11q0-1.57-2.26-1.57a4.58,4.58,0,0,0-1.77.36,3.91,3.91,0,0,0-1.44,1l-2-2.07a6.65,6.65,0,0,1,2.29-1.61,7.22,7.22,0,0,1,2.9-.58,9,9,0,0,1,2.39.29,5.4,5.4,0,0,1,1.8.84,3.67,3.67,0,0,1,1.54,3.07,3.39,3.39,0,0,1-.25,1.35,2.79,2.79,0,0,1-.67,1,3,3,0,0,1-1,.6,4.76,4.76,0,0,1-1.22.28v.13a4.8,4.8,0,0,1,1.26.26,3.23,3.23,0,0,1,1.08.62,3.17,3.17,0,0,1,.75,1,3.23,3.23,0,0,1,.29,1.42,4.22,4.22,0,0,1-.43,1.92,4.39,4.39,0,0,1-1.22,1.48,5.72,5.72,0,0,1-1.92,1A8.66,8.66,0,0,1,471.86,376.25Z" fill="#604b3b"/><path d="M489.4,376l-1.08-3.57h-5L482.23,376h-3.32l5-15h4l4.89,15Zm-3.55-12.06h-.11l-1.66,5.71h3.44Z" fill="#604b3b"/><path d="M494.89,361h3.27v6h2.17l2.24-4.18a4,4,0,0,1,1.11-1.34,2.65,2.65,0,0,1,1.58-.44h1.33v2.91h-1.33l-1.55,2.92a2.82,2.82,0,0,1-.68.89,2.75,2.75,0,0,1-.89.48v.13a2.21,2.21,0,0,1,1,.42,2.61,2.61,0,0,1,.7.94l1.77,3.43h1.33V376h-1.7a2.68,2.68,0,0,1-1.5-.39,3.68,3.68,0,0,1-1.13-1.44l-2.24-4.33h-2.17V376h-3.27Z" fill="#604b3b"/><path d="M518.68,376l-1.08-3.57h-5L511.51,376H508.2l5-15h4l4.89,15Zm-3.55-12.06H515l-1.66,5.71h3.44Z" fill="#604b3b"/><path d="M528.65,376.25a8.26,8.26,0,0,1-3-.54,6.9,6.9,0,0,1-2.48-1.68l2.15-2.17a5.15,5.15,0,0,0,1.52,1.1,4.3,4.3,0,0,0,1.84.39,3.51,3.51,0,0,0,2-.45,1.44,1.44,0,0,0,.67-1.26v-.17a1.42,1.42,0,0,0-.52-1.23,2.78,2.78,0,0,0-1.61-.37h-2.61v-2.91H529q2,0,2-1.66v-.11q0-1.57-2.26-1.57A4.58,4.58,0,0,0,527,364a3.91,3.91,0,0,0-1.44,1l-2-2.07a6.65,6.65,0,0,1,2.29-1.61,7.22,7.22,0,0,1,2.9-.58,9,9,0,0,1,2.39.29,5.4,5.4,0,0,1,1.8.84,3.67,3.67,0,0,1,1.54,3.07,3.39,3.39,0,0,1-.25,1.35,2.79,2.79,0,0,1-.67,1,3,3,0,0,1-1,.6,4.76,4.76,0,0,1-1.22.28v.13a4.8,4.8,0,0,1,1.26.26,3.23,3.23,0,0,1,1.08.62,3.17,3.17,0,0,1,.75,1,3.23,3.23,0,0,1,.29,1.42,4.22,4.22,0,0,1-.43,1.92,4.39,4.39,0,0,1-1.22,1.48,5.72,5.72,0,0,1-1.92,1A8.66,8.66,0,0,1,528.65,376.25Z" fill="#604b3b"/><path d="M546.19,376l-1.08-3.57h-5L539,376h-3.32l5-15h4l4.89,15Zm-3.55-12.06h-.11l-1.66,5.71h3.44Z" fill="#604b3b"/><path d="M556.55,363.87V376h-3.27V363.87h-4.07V361h11.41v2.91Z" fill="#604b3b"/><path d="M562.86,361h3.27v5.43h4a4.81,4.81,0,0,1,1.89.36,4.18,4.18,0,0,1,1.43,1,4.3,4.3,0,0,1,.92,1.52,6.07,6.07,0,0,1,0,3.91,4.32,4.32,0,0,1-.92,1.51,4.18,4.18,0,0,1-1.43,1,4.81,4.81,0,0,1-1.89.36h-7.32Zm6.93,12.19a1.66,1.66,0,0,0,1.15-.38,1.41,1.41,0,0,0,.42-1.11v-.95a1.41,1.41,0,0,0-.42-1.11,1.66,1.66,0,0,0-1.15-.38h-3.66v3.92Z" fill="#604b3b"/><path d="M486.45,394.61h1.79a3.49,3.49,0,0,0,.6-.92,6.6,6.6,0,0,0,.44-1.41,16.43,16.43,0,0,0,.28-2.08q.1-1.22.1-2.94v-4.78h10.61v15H497V385.4h-4.16v2.33a33.81,33.81,0,0,1-.15,3.43,18.05,18.05,0,0,1-.41,2.49,7.56,7.56,0,0,1-.61,1.7,4.52,4.52,0,0,1-.76,1.08,4,4,0,0,1-1.43.95,5.59,5.59,0,0,1-1.91.28h-1.12Z" fill="#604b3b"/><path d="M503.59,382.49h3.19v7.34l-.34,3.16h.07l1.49-2.86,5-7.64h2.93v15h-3.19v-7.34L513,387H513l-1.49,2.86-5,7.64h-2.93Z" fill="#604b3b"/><path d="M517.88,394.61h1.64a3.85,3.85,0,0,0,.69-.92,6.36,6.36,0,0,0,.56-1.43,13.4,13.4,0,0,0,.37-2.09,28.3,28.3,0,0,0,.13-2.91v-4.78H532v12.12h2.43v6.14H531.4v-3.23H521v3.23h-3.08Zm10.89,0V385.4h-4.33v2.34q0,1.48-.09,2.57a18.05,18.05,0,0,1-.24,1.89,6.91,6.91,0,0,1-.39,1.37,5.41,5.41,0,0,1-.52,1v.06Z" fill="#604b3b"/><path d="M536.72,382.49H540v5.43h3.83a4.81,4.81,0,0,1,1.89.36,4.17,4.17,0,0,1,1.43,1,4.27,4.27,0,0,1,.92,1.52,6.07,6.07,0,0,1,0,3.91,4.29,4.29,0,0,1-.92,1.51,4.17,4.17,0,0,1-1.43,1,4.81,4.81,0,0,1-1.89.36h-7.1Zm6.72,12.19a1.66,1.66,0,0,0,1.15-.38,1.41,1.41,0,0,0,.42-1.11v-.95a1.41,1.41,0,0,0-.42-1.11,1.66,1.66,0,0,0-1.15-.38H540v3.92Zm6.78-12.19h3.27v15h-3.27Z" fill="#604b3b"/><polygon points="590.38 341.12 595.57 338.16 621.23 373.77 617.79 378.26 590.38 341.12" fill="#604b3b"/><polygon points="595.57 338.16 429.85 338.16 424.67 341.12 590.38 341.12 595.57 338.16" fill="#916f5d"/><rect x="453.33" y="416.09" width="27.31" height="11.94" fill="#452f27"/><path d="M248.35,201.81a9.36,9.36,0,0,1-3.53-.64,7.1,7.1,0,0,1-2.72-1.92,8.9,8.9,0,0,1-1.74-3.16,15.89,15.89,0,0,1,0-8.76,8.9,8.9,0,0,1,1.74-3.16,7.11,7.11,0,0,1,2.72-1.92,10,10,0,0,1,7.06,0,7.12,7.12,0,0,1,2.72,1.92,8.91,8.91,0,0,1,1.74,3.16,15.9,15.9,0,0,1,0,8.76,8.91,8.91,0,0,1-1.74,3.16,7.11,7.11,0,0,1-2.72,1.92A9.36,9.36,0,0,1,248.35,201.81Zm0-3.78a3.75,3.75,0,0,0,3-1.26,5.4,5.4,0,0,0,1.08-3.61v-2.91a5.4,5.4,0,0,0-1.08-3.61,4.23,4.23,0,0,0-6,0,5.4,5.4,0,0,0-1.08,3.61v2.91a5.4,5.4,0,0,0,1.08,3.61A3.75,3.75,0,0,0,248.35,198Z" fill="#fff"/><path d="M260.5,181.93h4.14v9.55l-.45,4.12h.08l1.93-3.72,6.44-9.94h3.81v19.54h-4.14v-9.55l.45-4.12h-.08l-1.93,3.72-6.44,9.94H260.5Zm8-1.18a5.07,5.07,0,0,1-3-.81,5.3,5.3,0,0,1-1.79-2.32l-.59-1.43,3.22-1.2.9,2.83a1.92,1.92,0,0,0,.53.14,4.79,4.79,0,0,0,1.46,0,1.93,1.93,0,0,0,.53-.14l.9-2.83,3.22,1.2-.59,1.43a5.3,5.3,0,0,1-1.79,2.32A5.07,5.07,0,0,1,268.54,180.76Z" fill="#fff"/><path d="M283,196.74a2.46,2.46,0,0,1,1.86.63,2.23,2.23,0,0,1,.6,1.61v.56a7.44,7.44,0,0,1-.83,3.36,7.66,7.66,0,0,1-2.17,2.69h-2.8a15.75,15.75,0,0,0,1.68-1.83,6.72,6.72,0,0,0,1.06-2A2.14,2.14,0,0,1,281,201a2.3,2.3,0,0,1-.45-1.41V199a2.23,2.23,0,0,1,.6-1.61A2.46,2.46,0,0,1,283,196.74Z" fill="#fff"/><path d="M296.06,181.93h4.26v7.76h2.83l2.91-5.44a5.15,5.15,0,0,1,1.44-1.74,3.44,3.44,0,0,1,2.06-.57h1.74v3.78h-1.74l-2,3.8a3.68,3.68,0,0,1-.88,1.16,3.55,3.55,0,0,1-1.16.63v.17a2.87,2.87,0,0,1,1.25.55,3.4,3.4,0,0,1,.91,1.22l2.3,4.46h1.74v3.78h-2.21a3.49,3.49,0,0,1-1.95-.5,4.79,4.79,0,0,1-1.47-1.88l-2.91-5.63h-2.83v8h-4.26Z" fill="#fff"/><path d="M327,201.48l-1.4-4.65h-6.52l-1.4,4.65h-4.31l6.44-19.54h5.26l6.36,19.54Zm-4.62-15.68h-.14l-2.16,7.42h4.48Z" fill="#fff"/><path d="M333.11,197.7h1.74l2.16-4.56a2.63,2.63,0,0,1,2.1-1.65v-.17a3.06,3.06,0,0,1-1.15-.6,3.94,3.94,0,0,1-.9-1.25l-1.82-3.75H333.5v-3.78h1.76a3.64,3.64,0,0,1,2.09.56,4.37,4.37,0,0,1,1.41,1.79l2.63,5.43h2.55v-7.78h4.26v7.78h2.55l2.63-5.43a4.37,4.37,0,0,1,1.41-1.79,3.64,3.64,0,0,1,2.09-.56h1.74v3.78h-1.74l-1.79,3.75a4,4,0,0,1-.9,1.25,3.06,3.06,0,0,1-1.15.6v.17a2.63,2.63,0,0,1,2.1,1.65l2.16,4.56H359v3.78H356.8a3.56,3.56,0,0,1-2-.52,4.42,4.42,0,0,1-1.44-1.92l-2.63-5.57H348.2v8h-4.26v-8H341.4L338.76,199a4.42,4.42,0,0,1-1.44,1.92,3.56,3.56,0,0,1-2,.52h-2.24Z" fill="#fff"/><path d="M362.31,201.48V181.93h13.3v3.78h-9v4h7.76v3.78h-7.76v4.23h9v3.78Z" fill="#fff"/><path d="M387.46,185.71v15.76H383.2V185.71h-5.29v-3.78h14.84v3.78Z" fill="#fff"/><path d="M402.86,201.81a9.69,9.69,0,0,1-3.58-.63,7.1,7.1,0,0,1-2.72-1.88,8.62,8.62,0,0,1-1.74-3.11,13.87,13.87,0,0,1-.62-4.35,14.3,14.3,0,0,1,.62-4.38,9.17,9.17,0,0,1,1.74-3.22,7.25,7.25,0,0,1,2.72-2,9.15,9.15,0,0,1,3.58-.67,8.31,8.31,0,0,1,4.48,1.11,7.64,7.64,0,0,1,2.83,3.49l-3.67,1.9a4.38,4.38,0,0,0-1.22-2,3.52,3.52,0,0,0-2.42-.74,3.92,3.92,0,0,0-3,1.22,5,5,0,0,0-1.13,3.54v3.14a5,5,0,0,0,1.13,3.54,3.92,3.92,0,0,0,3,1.22,3.58,3.58,0,0,0,2.51-.85,5.19,5.19,0,0,0,1.39-2.06l3.47,2a8.7,8.7,0,0,1-2.87,3.46A7.78,7.78,0,0,1,402.86,201.81Z" fill="#fff"/><path d="M412.21,197.7h1.74l1.6-2.49a3.17,3.17,0,0,1,.74-.84,2.74,2.74,0,0,1,1.16-.45v-.17a5.17,5.17,0,0,1-3.46-1.68,5.62,5.62,0,0,1-1.3-3.89,7.37,7.37,0,0,1,.42-2.55,5.76,5.76,0,0,1,1.19-2,5.22,5.22,0,0,1,1.86-1.27,6.36,6.36,0,0,1,2.44-.45h9.27v19.54H423.6v-7.17H421l-3.28,5.12a6,6,0,0,1-.77,1,3.21,3.21,0,0,1-.8.62,3,3,0,0,1-.88.31,5.77,5.77,0,0,1-1,.08h-2.07Zm11.4-7v-5.1h-4.48a2.16,2.16,0,0,0-1.5.49,1.84,1.84,0,0,0-.55,1.44v1.2a1.87,1.87,0,0,0,.55,1.47,2.16,2.16,0,0,0,1.5.49Z" fill="#fff"/><path d="M438.78,181.93h9.49a5.1,5.1,0,0,1,3.79,1.37,5,5,0,0,1,1.36,3.64,5.43,5.43,0,0,1-.29,1.9,3.67,3.67,0,0,1-.78,1.29,3,3,0,0,1-1.15.74,4.65,4.65,0,0,1-1.41.27v.17a4.73,4.73,0,0,1,1.47.25,4.2,4.2,0,0,1,1.41.8,4.42,4.42,0,0,1,1.08,1.41,4.73,4.73,0,0,1,.43,2.13,6.2,6.2,0,0,1-.38,2.17,5.54,5.54,0,0,1-1.05,1.78,4.91,4.91,0,0,1-1.6,1.19,4.69,4.69,0,0,1-2,.43H438.78Zm4.26,8h4.23a1.65,1.65,0,0,0,1.79-1.79v-.84a1.65,1.65,0,0,0-1.79-1.79H443Zm0,8h4.9a1.86,1.86,0,0,0,1.33-.46,1.7,1.7,0,0,0,.49-1.3v-1a1.7,1.7,0,0,0-.49-1.3,1.86,1.86,0,0,0-1.33-.46H443Z" fill="#fff"/><path d="M457.45,181.93h4.26V189h5a6.27,6.27,0,0,1,2.46.46,5.48,5.48,0,0,1,1.86,1.27,5.59,5.59,0,0,1,1.19,2,7.9,7.9,0,0,1,0,5.08,5.6,5.6,0,0,1-1.19,2,5.45,5.45,0,0,1-1.86,1.27,6.27,6.27,0,0,1-2.46.46h-9.24Zm8.74,15.85a2.16,2.16,0,0,0,1.5-.49,1.84,1.84,0,0,0,.55-1.44v-1.23a1.84,1.84,0,0,0-.55-1.44,2.16,2.16,0,0,0-1.5-.49h-4.48v5.1ZM475,181.93h4.26v19.54H475Z" fill="#fff"/><path d="M490.19,181.93h15.54v19.54h-4.26V185.71h-7v15.76h-4.26Z" fill="#fff"/><path d="M517.88,201.81a9.36,9.36,0,0,1-3.53-.64,7.1,7.1,0,0,1-2.72-1.92,8.89,8.89,0,0,1-1.74-3.16,15.89,15.89,0,0,1,0-8.76,8.89,8.89,0,0,1,1.74-3.16,7.11,7.11,0,0,1,2.72-1.92,10,10,0,0,1,7.06,0,7.12,7.12,0,0,1,2.72,1.92,8.9,8.9,0,0,1,1.74,3.16,15.89,15.89,0,0,1,0,8.76,8.9,8.9,0,0,1-1.74,3.16,7.11,7.11,0,0,1-2.72,1.92A9.35,9.35,0,0,1,517.88,201.81Zm0-3.78a3.75,3.75,0,0,0,3-1.26,5.4,5.4,0,0,0,1.08-3.61v-2.91a5.4,5.4,0,0,0-1.08-3.61,4.23,4.23,0,0,0-6,0,5.4,5.4,0,0,0-1.08,3.61v2.91a5.4,5.4,0,0,0,1.08,3.61A3.75,3.75,0,0,0,517.88,198Z" fill="#fff"/><path d="M537.48,185.71v15.76h-4.26V185.71h-5.29v-3.78h14.84v3.78Z" fill="#fff"/><path d="M545.68,201.48V181.93H559v3.78h-9v4h7.76v3.78h-7.76v4.23h9v3.78Z" fill="#fff"/><path d="M562.68,201.48V181.93h9.24a6.27,6.27,0,0,1,2.46.46,5.45,5.45,0,0,1,1.86,1.27,5.58,5.58,0,0,1,1.19,2,7.9,7.9,0,0,1,0,5.08,5.6,5.6,0,0,1-1.19,2,5.46,5.46,0,0,1-1.86,1.27,6.27,6.27,0,0,1-2.46.46h-5v7.06Zm4.26-10.75h4.48a2.16,2.16,0,0,0,1.5-.49,1.83,1.83,0,0,0,.55-1.44v-1.23a1.84,1.84,0,0,0-.55-1.44,2.16,2.16,0,0,0-1.5-.49h-4.48Z" fill="#fff"/><path d="M580.07,197.7h1.74l1.6-2.49a3.15,3.15,0,0,1,.74-.84,2.74,2.74,0,0,1,1.16-.45v-.17a5.17,5.17,0,0,1-3.46-1.68,5.62,5.62,0,0,1-1.3-3.89,7.39,7.39,0,0,1,.42-2.55,5.76,5.76,0,0,1,1.19-2,5.23,5.23,0,0,1,1.86-1.27,6.36,6.36,0,0,1,2.44-.45h9.27v19.54h-4.26v-7.17h-2.58l-3.28,5.12a6,6,0,0,1-.77,1,3.21,3.21,0,0,1-.8.62,3,3,0,0,1-.88.31,5.76,5.76,0,0,1-1,.08h-2.07Zm11.4-7v-5.1H587a2.16,2.16,0,0,0-1.5.49,1.84,1.84,0,0,0-.55,1.44v1.2a1.87,1.87,0,0,0,.55,1.47,2.16,2.16,0,0,0,1.5.49Z" fill="#fff"/><path d="M598.43,197.7h2.32a4.56,4.56,0,0,0,.78-1.19,8.62,8.62,0,0,0,.57-1.83,21.51,21.51,0,0,0,.36-2.7q.13-1.58.13-3.82v-6.22h13.8v19.54h-4.26V185.71h-5.4v3a43.93,43.93,0,0,1-.2,4.47,23.47,23.47,0,0,1-.53,3.23,9.77,9.77,0,0,1-.8,2.21,5.85,5.85,0,0,1-1,1.4,5.14,5.14,0,0,1-1.86,1.23,7.29,7.29,0,0,1-2.48.36h-1.46Z" fill="#fff"/><path d="M620.72,181.93h4.14v9.55l-.45,4.12h.08l1.93-3.72,6.44-9.94h3.81v19.54h-4.14v-9.55l.45-4.12h-.08L631,191.54l-6.44,9.94h-3.81Z" fill="#fff"/><path d="M648.89,201.81a9.69,9.69,0,0,1-3.58-.63,7.09,7.09,0,0,1-2.72-1.88,8.61,8.61,0,0,1-1.74-3.11,13.87,13.87,0,0,1-.62-4.35,14.3,14.3,0,0,1,.62-4.38,9.16,9.16,0,0,1,1.74-3.22,7.24,7.24,0,0,1,2.72-2,9.15,9.15,0,0,1,3.58-.67,8.31,8.31,0,0,1,4.48,1.11,7.63,7.63,0,0,1,2.83,3.49l-3.67,1.9a4.37,4.37,0,0,0-1.22-2,3.52,3.52,0,0,0-2.42-.74,3.91,3.91,0,0,0-3,1.22,5,5,0,0,0-1.13,3.54v3.14a5,5,0,0,0,1.13,3.54,3.91,3.91,0,0,0,3,1.22,3.58,3.58,0,0,0,2.51-.85,5.19,5.19,0,0,0,1.39-2.06l3.47,2a8.7,8.7,0,0,1-2.87,3.46A7.78,7.78,0,0,1,648.89,201.81Z" fill="#fff"/><path d="M659.22,181.93h4.26V189h5.26a6.28,6.28,0,0,1,2.46.46,5.48,5.48,0,0,1,1.86,1.27,5.59,5.59,0,0,1,1.19,2,7.9,7.9,0,0,1,0,5.08,5.6,5.6,0,0,1-1.19,2A5.45,5.45,0,0,1,671.2,201a6.28,6.28,0,0,1-2.46.46h-9.52Zm9,15.85a2.17,2.17,0,0,0,1.5-.49,1.84,1.84,0,0,0,.55-1.44v-1.23a1.84,1.84,0,0,0-.55-1.44,2.17,2.17,0,0,0-1.5-.49h-4.76v5.1Z" fill="#fff"/><path d="M194.4,602.85c-99.38-77.22-76-121.92-125-164.43-29.64-25.75-41.3-57.17-45.9-78-.41.2-.82.41-1.21.64,15.54-9,40.86,4,63,30.19a14.92,14.92,0,0,0,23.59-1c5.2-7.31,11.76-12.14,19.41-13.65,26.16-5.16,66.87,30.31,58.8,73.63-4.13,22.2-6.29,35.55-1.2,47.41,1.53-3.66,4-17.13,16.25-17.21,13-.08,22.64,25.06,22.67,46.21a19,19,0,0,0,6.53,14.27c5.64,4.91,11.49,9.79,15.05,15.91,37.46,64.47-5.64,142.87-8.94,148.69l.12-.22C238,672.7,230.27,630.72,194.4,602.85Z" fill="#c1e9fa"/><path d="M19.1,568.71a29.87,29.87,0,0,1,8.65-15.39,13.36,13.36,0,0,0,3.92-11q0-.36-.1-.72a13,13,0,0,0-.53-2.11,12.61,12.61,0,0,0-4.3-6,13.14,13.14,0,0,0-1.32-.88q-3.31-1.94-6.27-4a72,72,0,0,1-7.94-6.39Q10,521.18,9,520.07a43.35,43.35,0,0,1-4.56-5.59q-.76-1.13-1.4-2.25T1.89,510A23.83,23.83,0,0,1,1,507.72a16.94,16.94,0,0,1-.49-9.83c2-7.6,9.74-13,20.9-15.77a15.35,15.35,0,0,0,9.53-22.68l-.13-.23C6.08,416.68,2.28,372.74,22.32,361.1c.4-.23.8-.44,1.21-.64,4.6,20.78,16.26,52.21,45.9,78,48.93,42.51,25.59,87.22,125,164.43,35.86,27.87,43.61,69.85,43.18,102.46,0,.08-65.08-56.55-122.39-62.88a45.57,45.57,0,0,1-8.33-1.83C52.33,627.52,13.59,596.27,19.1,568.71Z" fill="#a2ddeb"/><path d="M185.61,465.32a3,3,0,1,0-1.46-2.8l-23.1,6.12L170.74,452a3,3,0,1,0-1.71-1l-9.68,16.67-6.12-23.1a3,3,0,1,0-1.91.51l6.48,24.45h0l.15.56-16.09,27.7-22.37-84.38L136.56,384l.56-.15h0l24.45-6.48a2.93,2.93,0,0,0,.95.89,3,3,0,1,0-1.07-4,2.93,2.93,0,0,0-.38,1.25L138,381.56l9.68-16.67a3,3,0,1,0-1.71-1l-9.68,16.67-6.12-23.1a2.93,2.93,0,0,0,.89-.95,3,3,0,1,0-2.8,1.45l6.48,24.45h0l.15.56-16.09,27.7-4-15.1-4.76-18-4.17-15.71.29-.51h0l12.7-21.87a3,3,0,1,0-1.71-1l-12,20.66-4.94-18.64a3,3,0,1,0-1.91.51l4.94,18.64-20.66-12a3,3,0,1,0-1,1.71l21.87,12.7h0l.51.29,4.17,15.71,4.76,18,7,26.22-28.42-16.5-.15-.56h0L84.75,380.8a2.93,2.93,0,0,0,.89-.95,3,3,0,1,0-2.8,1.46L89,404.4l-16.67-9.68a3,3,0,1,0-1,1.71L88,406.11l-23.1,6.12a2.93,2.93,0,0,0-.95-.89,3,3,0,1,0,1.45,2.8l24.45-6.48h0l.56-.15L120.51,425h0l13.75,51.87-28.42-16.5-.15-.56h0l-6.48-24.45a3,3,0,1,0-1.91.51l6.12,23.1-16.67-9.68a3,3,0,1,0-1,1.71l16.67,9.68-23.1,6.12a3,3,0,1,0,.51,1.91l24.45-6.48h0l.56-.15L135,479.56h0l21.42,80.78L128,543.82l-.15-.56h0l-6.48-24.45a2.93,2.93,0,0,0,.89-.95,3,3,0,1,0-4,1.07,2.93,2.93,0,0,0,1.25.38l6.12,23.1-16.67-9.68a3,3,0,1,0-1,1.71l16.67,9.68-23.1,6.12a3,3,0,1,0,.51,1.91l24.45-6.48h0l.56-.15L157.1,563h0l15.59,58.81-28.42-16.5-.15-.56h0l-6.48-24.45a3,3,0,1,0-1.91.51l6.12,23.1-16.67-9.68a3,3,0,1,0-1,1.71l16.67,9.68-23.1,6.12a3,3,0,1,0,.51,1.91l24.45-6.48h0l.56-.15,30.11,17.49h0l11.67,44,2.49,1.68-8.68-32.74L196,608l.56-.15h0L221,601.4a3,3,0,1,0-.51-1.91l-23.1,6.12,9.68-16.67a3,3,0,1,0-1.71-1l-9.68,16.67-6.12-23.1a2.93,2.93,0,0,0,.89-.95,3,3,0,1,0-2.8,1.45l6.48,24.45h0l.15.56-16.09,27.7-22.8-86,17.08-29.4.56-.15h0l24.45-6.48a3,3,0,1,0-.51-1.91l-23.1,6.12,9.68-16.67a3,3,0,1,0-1.71-1L172.16,516,166,492.85a2.93,2.93,0,0,0,.89-.95,3,3,0,1,0-2.8,1.45l6.48,24.45h0l.15.56-16.09,27.7-12.09-45.6,17.08-29.4.56-.15h0l24.45-6.48A2.94,2.94,0,0,0,185.61,465.32Z" fill="#8381d4"/><path d="M207.42,681.73l-10.22-6.16s3.64-93.95,3.91-144.18-26.85-198.65-26.85-198.65,31.49,118.61,35.36,203.43S207.42,681.73,207.42,681.73Z" fill="#96d0e0"/><ellipse cx="191.69" cy="372.43" rx="34.52" ry="3.08" transform="translate(-204.58 508.14) rotate(-81.67)" fill="#96d0e0"/><ellipse cx="207.39" cy="404.86" rx="51.8" ry="4.62" transform="translate(-235.53 508.52) rotate(-76.05)" fill="#96d0e0"/><ellipse cx="169.8" cy="411.07" rx="4.62" ry="51.8" transform="translate(-198.89 162.31) rotate(-33.55)" fill="#96d0e0"/><ellipse cx="215.62" cy="440.56" rx="60.77" ry="5.43" transform="translate(-263.93 543.6) rotate(-76.05)" fill="#96d0e0"/><ellipse cx="168.35" cy="447.3" rx="5.43" ry="60.77" transform="translate(-233.81 189.06) rotate(-36.67)" fill="#96d0e0"/><ellipse cx="225.35" cy="496.42" rx="64.65" ry="5.77" transform="translate(-318.2 538.46) rotate(-70.01)" fill="#96d0e0"/><ellipse cx="174.59" cy="498.26" rx="5.77" ry="64.65" transform="translate(-229.48 158.45) rotate(-30.63)" fill="#96d0e0"/><ellipse cx="231.88" cy="548.37" rx="68.75" ry="8.07" transform="translate(-363.47 542.1) rotate(-66.48)" fill="#96d0e0"/><ellipse cx="242.1" cy="592.68" rx="56.56" ry="11.86" transform="translate(-359.31 373.17) rotate(-47.73)" fill="#96d0e0"/><ellipse cx="176.11" cy="546.22" rx="6.14" ry="68.75" transform="translate(-229.47 140.17) rotate(-27.1)" fill="#96d0e0"/><ellipse cx="168.94" cy="580.46" rx="8.56" ry="68.75" transform="translate(-313.22 215.77) rotate(-36.67)" fill="#96d0e0"/><ellipse cx="247.08" cy="639.29" rx="56.56" ry="11.86" transform="translate(-354.29 310.5) rotate(-40.2)" fill="#96d0e0"/><ellipse cx="160.37" cy="629.48" rx="8.56" ry="68.75" transform="translate(-386.3 278.59) rotate(-43.01)" fill="#96d0e0"/><ellipse cx="169.66" cy="379.17" rx="3.96" ry="44.38" transform="translate(-165.18 133.33) rotate(-29.61)" fill="#96d0e0"/><path d="M218.42,688.24l-5.5-2.08s-6.63-44.68-11-68.47-30.58-91.56-30.58-91.56,25.57,53.28,35,93.06S218.42,688.24,218.42,688.24Z" fill="#8381d4"/><ellipse cx="183.15" cy="543.34" rx="1.48" ry="16.62" transform="translate(-22.98 8.29) rotate(-2.44)" fill="#8381d4"/><ellipse cx="193.49" cy="557.26" rx="24.94" ry="2.23" transform="translate(-373.65 719.54) rotate(-86.82)" fill="#8381d4"/><ellipse cx="176.27" cy="563.59" rx="2.23" ry="24.94" transform="translate(-343.6 283.51) rotate(-44.32)" fill="#8381d4"/><ellipse cx="200.6" cy="573.41" rx="29.27" ry="2.61" transform="translate(-383.06 741.89) rotate(-86.82)" fill="#8381d4"/><ellipse cx="178.84" cy="580.86" rx="2.61" ry="29.27" transform="translate(-369.97 319.73) rotate(-47.44)" fill="#8381d4"/><ellipse cx="210.23" cy="598.96" rx="31.13" ry="2.78" transform="translate(-414.68 710.48) rotate(-80.78)" fill="#8381d4"/><ellipse cx="186.38" cy="604.4" rx="2.78" ry="31.13" transform="translate(-353.11 274.28) rotate(-41.4)" fill="#8381d4"/><ellipse cx="218" cy="622.95" rx="33.11" ry="3.89" transform="translate(-437.71 698.05) rotate(-77.25)" fill="#8381d4"/><ellipse cx="226.82" cy="643" rx="27.24" ry="5.71" transform="translate(-439.94 500.43) rotate(-58.5)" fill="#8381d4"/><ellipse cx="191.42" cy="626.95" rx="2.96" ry="33.11" transform="translate(-344.54 249.51) rotate(-37.87)" fill="#8381d4"/><ellipse cx="191.11" cy="643.8" rx="4.12" ry="33.11" transform="translate(-412.36 349.13) rotate(-47.44)" fill="#8381d4"/><ellipse cx="233.37" cy="664.6" rx="27.24" ry="5.71" transform="translate(-429.87 427.4) rotate(-50.97)" fill="#8381d4"/><ellipse cx="191.46" cy="667.76" rx="4.12" ry="33.11" transform="matrix(0.59, -0.81, 0.81, 0.59, -460.4, 427.69)" fill="#8381d4"/><ellipse cx="173.33" cy="548.51" rx="1.91" ry="21.37" transform="translate(-314.06 242.96) rotate(-40.38)" fill="#8381d4"/><path d="M274.85,611.11c16.13-36,6.72-90.29-3.15-132.87-7-30.23,1.26-60.33,8.79-78.75A48.81,48.81,0,0,0,264.9,399c-39.83,4.76-29,52.63-22.58,69.35s.89,17.95-12.87,10.1c-9.4-5.36-43-11.74-46.51,18.35s55,77,40,78.91c-27.22,3.42-29.83,32.07-8.62,49.25,24.11,19.52-6.7,6.14-6.4,36.14.32,32.05,67.06,71.5,73.53,75.25C260.36,701.9,261.23,641.51,274.85,611.11Z" fill="#c1e9fa"/><path d="M332.92,677.3c24-8.41,15.45-31.15,2.86-36.07-9.22-3.6-18.19-3-10.75-8.56,28.79-21.41,55-54,35.49-73.35s-37.9,8.19-40.7,2.84,32-29.32,38.12-48.83-21.12-44-42.88-14.44c-14.33,19.43-18-14.23-9.23-33.51,13.7-30.08,1.85-60.33-25.33-65.87C273,417.92,264.69,448,271.7,478.24c9.87,42.58,19.28,96.88,3.15,132.87-13.62,30.4-14.49,90.79,6.62,125.22l.51.29S291.63,691.78,332.92,677.3Z" fill="#a2ddeb"/><path d="M307.69,576.39a2.49,2.49,0,1,0-1.05-2.4l-19.49,3.81,8.95-13.3a2.46,2.46,0,1,0-1.36-.92l-8.95,13.3L282,557.38a2.49,2.49,0,1,0-1.61.31l4,20.63h0l.09.48L269.62,600.9l-13.92-71.21,15.78-23.45.48-.09h0l20.63-4a2.44,2.44,0,0,0,.74.79,2.46,2.46,0,1,0-.67-3.42,2.44,2.44,0,0,0-.38,1l-19.49,3.81,8.95-13.3a2.46,2.46,0,1,0-1.36-.92l-8.95,13.3L267.6,483.9a2.44,2.44,0,0,0,.79-.74,2.49,2.49,0,1,0-2.4,1.05l4,20.63h0l.09.48-14.86,22.09-2.49-12.74-3-15.15-2.59-13.26.27-.4h0l11.74-17.44a2.48,2.48,0,1,0-1.36-.92L246.75,484l-3.08-15.73a2.46,2.46,0,1,0-1.61.32l3.08,15.73L228.66,473.2a2.49,2.49,0,1,0-.92,1.36l17.44,11.74h0l.4.27,2.59,13.26,3,15.15,4.33,22.13-22.66-15.25-.09-.48h0l-4-20.63a2.43,2.43,0,0,0,.79-.74,2.49,2.49,0,1,0-2.4,1.05l3.81,19.49-13.3-8.95a2.46,2.46,0,1,0-.92,1.36l13.3,8.95-19.49,3.81a2.44,2.44,0,0,0-.74-.79,2.49,2.49,0,1,0,1.05,2.4l20.63-4h0l.48-.09,24,16.16h0l8.56,43.77L241.81,567.9l-.09-.48h0l-4-20.63a2.48,2.48,0,1,0-1.61.32l3.81,19.49-13.3-8.95a2.46,2.46,0,1,0-.92,1.36L239,568l-19.49,3.81a2.49,2.49,0,1,0,.31,1.61l20.63-4h0l.48-.09,24,16.16h0l13.33,68.17-22.66-15.25-.09-.48h0l-4-20.63a2.43,2.43,0,0,0,.79-.74,2.46,2.46,0,1,0-3.42.67,2.44,2.44,0,0,0,1,.38L253.65,637l-13.3-8.95a2.46,2.46,0,1,0-.92,1.36l13.3,8.95-19.49,3.81a2.49,2.49,0,1,0,.31,1.61l20.63-4h0l.48-.09,24,16.16h0l9.7,49.63-22.66-15.25-.09-.48h0l-4-20.63a2.48,2.48,0,1,0-1.61.32l3.81,19.49L250.51,680a2.46,2.46,0,1,0-.92,1.36l13.3,8.95-19.49,3.81a2.49,2.49,0,1,0,.31,1.61l20.63-4h0l.48-.09,24,16.16h0l7.26,37.14,2,1.53-5.4-27.63,15.78-23.45.48-.09h0l20.63-4a2.48,2.48,0,1,0-.32-1.61l-19.49,3.81,8.95-13.3a2.46,2.46,0,1,0-1.36-.92l-8.95,13.3L304.57,673a2.44,2.44,0,0,0,.79-.74,2.49,2.49,0,1,0-2.4,1.05l4,20.63h0l.09.48-14.86,22.09L278,643.94l15.78-23.45.48-.09h0l20.63-4a2.48,2.48,0,1,0-.32-1.61l-19.49,3.81,8.95-13.3a2.46,2.46,0,1,0-1.36-.92l-8.95,13.3-3.81-19.49a2.44,2.44,0,0,0,.79-.74,2.49,2.49,0,1,0-2.4,1.05l4,20.63h0l.09.48-14.86,22.09-7.53-38.49,15.78-23.45.48-.09h0l20.63-4A2.44,2.44,0,0,0,307.69,576.39Z" fill="#96d0e0"/><path d="M282,736.62l6.51,4.05s10.45-69.46,16.59-102.73,42.77-128.05,42.77-128.05-35.76,74.51-49,130.15S282,736.62,282,736.62Z" fill="#8381d4"/><ellipse cx="331.33" cy="533.96" rx="23.25" ry="2.08" transform="translate(-216.26 842.24) rotate(-87.56)" fill="#8381d4"/><ellipse cx="316.86" cy="553.44" rx="3.11" ry="34.89" transform="translate(-30.21 18.43) rotate(-3.18)" fill="#8381d4"/><ellipse cx="340.95" cy="562.28" rx="34.89" ry="3.11" transform="translate(-299.55 413.37) rotate(-45.68)" fill="#8381d4"/><ellipse cx="306.92" cy="576.03" rx="3.65" ry="40.93" transform="translate(-31.48 17.91) rotate(-3.18)" fill="#8381d4"/><ellipse cx="337.35" cy="586.44" rx="40.93" ry="3.65" transform="translate(-307.77 382.64) rotate(-42.56)" fill="#8381d4"/><ellipse cx="293.45" cy="611.76" rx="3.89" ry="43.54" transform="translate(-94.25 54.94) rotate(-9.22)" fill="#8381d4"/><ellipse cx="326.8" cy="619.36" rx="43.54" ry="3.89" transform="translate(-353.91 454.93) rotate(-48.6)" fill="#8381d4"/><ellipse cx="282.59" cy="645.31" rx="5.44" ry="46.3" transform="translate(-135.49 78.3) rotate(-12.75)" fill="#8381d4"/><ellipse cx="270.25" cy="673.34" rx="7.99" ry="38.1" transform="translate(-312 240.43) rotate(-31.5)" fill="#8381d4"/><ellipse cx="319.76" cy="650.91" rx="46.3" ry="4.13" transform="translate(-390.37 503.79) rotate(-52.13)" fill="#8381d4"/><ellipse cx="320.19" cy="674.46" rx="46.3" ry="5.76" transform="translate(-371.83 394.23) rotate(-42.56)" fill="#8381d4"/><ellipse cx="261.09" cy="703.55" rx="7.99" ry="38.1" transform="translate(-384.75 321.4) rotate(-39.03)" fill="#8381d4"/><ellipse cx="319.7" cy="707.98" rx="46.3" ry="5.76" transform="translate(-356.53 325.68) rotate(-36.22)" fill="#8381d4"/><ellipse cx="345.06" cy="541.19" rx="29.89" ry="2.67" transform="translate(-290.75 453.43) rotate(-49.62)" fill="#8381d4"/><polygon points="355.86 643.34 473.64 622.44 487.41 445.72 355.86 469.04 355.86 643.34" fill="#c7c6c6"/><polygon points="580.42 678.01 472.7 634.97 487.41 445.72 624.51 489.43 580.42 678.01" fill="#c7c6c6"/><polygon points="574.31 664.92 473.64 623.36 488.37 453.78 614.36 493.57 574.31 664.92" fill="#f3edf3"/><polygon points="361.89 643.34 473.64 623.36 487.41 453.78 361.89 476.18 361.89 643.34" fill="#e5e5e5"/><path d="M373.62,474.08V489a3.51,3.51,0,0,0,4.21,3.45l64.75-13.05a3.51,3.51,0,0,1,4.21,3.52l-.16,7.44a3.51,3.51,0,0,1-3,3.4l-32.21,5a3.51,3.51,0,0,0-3,3.47h0a3.51,3.51,0,0,0,4,3.49l17.49-2.21a3.51,3.51,0,0,0,3.07-3.49v-6.57a3.51,3.51,0,0,0-4.23-3.44l-40,8.38a3.51,3.51,0,0,0-2.8,3.44l0,25.42a3.51,3.51,0,0,1-3,3.48l-10.15,1.36a3.51,3.51,0,0,0-3,3.48v18.46a3.51,3.51,0,0,0,4,3.48l16.57-2.19a3.51,3.51,0,0,0,3.06-3.46l.26-34.06a3.51,3.51,0,0,1,3.06-3.46l57.54-7.49a3.51,3.51,0,0,0,3.06-3.32l1.39-29.85a3.51,3.51,0,0,1,2.78-3.27l11-2.36a3.51,3.51,0,0,1,4.24,3.63l-2.81,52.2a3.51,3.51,0,0,1-3.17,3.31l-65.72,6.44a3.51,3.51,0,0,0-3.17,3.46l-.55,46.41a3.51,3.51,0,0,1-3,3.44L374,590.24a3.51,3.51,0,0,0-3,3.48V613a3.51,3.51,0,0,0,4,3.48l30.54-4.32a3.51,3.51,0,0,0,3-3.43l1.12-80a3.51,3.51,0,0,1,3.08-3.44l43.74-5.44a3.51,3.51,0,0,1,3.95,3.59l-.26,8.57a3.51,3.51,0,0,1-3.18,3.39L418.91,539a3.51,3.51,0,0,0-3.18,3.5v20.54a3.51,3.51,0,0,0,3.86,3.5l42.59-4.25a3.51,3.51,0,0,0,3.17-3.5V536.6a3.51,3.51,0,0,1,3.36-3.51l12.06-.52a3.51,3.51,0,0,1,.94.09l13.05,3a3.51,3.51,0,0,0,4.29-3.09L501,512.28a3.51,3.51,0,0,0-2.76-3.77l-6.09-1.32a3.51,3.51,0,0,1-2.76-3.76l2.48-27.07a3.51,3.51,0,0,1,4.51-3l24.78,7.47a3.51,3.51,0,0,1,2.46,3.89l-1.55,10.21a3.51,3.51,0,0,1-4.37,2.87l-19.83-5.25a3.51,3.51,0,0,1-2.61-3.64l.29-4.2a3.51,3.51,0,0,1,4.45-3.15l31,8.63a3.51,3.51,0,0,1,2.54,3.88l-1.59,11.16a3.51,3.51,0,0,1-4.42,2.89l-13.65-3.81a3.51,3.51,0,0,0-4.44,3l-2.08,19.28a3.51,3.51,0,0,0,2.61,3.78l20.26,5.24a3.51,3.51,0,0,0,4.35-2.85l6.78-42.88a3.51,3.51,0,0,1,4.56-2.79l41.76,13.56a3.51,3.51,0,0,1,2.35,4.1L585,527.09a3.51,3.51,0,0,1-4.53,2.58l-31.16-10.29a3.51,3.51,0,0,1-2.34-4l3-14.57a3.51,3.51,0,0,1,4.4-2.67l19.28,5.47a3.51,3.51,0,0,1,2.48,4.11l-7.25,34a3.51,3.51,0,0,1-4.42,2.64l-4.6-1.33a3.51,3.51,0,0,1-2.45-4.14l1.46-6.53a3.51,3.51,0,0,0-2.22-4.07l-5.87-2.16a3.51,3.51,0,0,0-4.67,2.68L539,568.62a3.51,3.51,0,0,0,2.29,3.93l23.47,8.24a3.51,3.51,0,0,0,4.56-2.42l5.76-21.75,4.42-17.52a3.51,3.51,0,0,1,4.84-2.35l7.72,3.43a3.51,3.51,0,0,1,2,4.09L576.3,613.39a3.51,3.51,0,0,1-4.51,2.46l-73.42-24.28a3.51,3.51,0,0,1-2.37-3.85l6.76-45.41a3.51,3.51,0,0,1,4.4-2.87l16,4.35a3.51,3.51,0,0,1,2.55,4l-4.79,29.7a3.51,3.51,0,0,0,2.34,3.89l66.66,22.61" fill="none" stroke="#ccc" stroke-miterlimit="10" stroke-width="5" opacity="0.6"/><g opacity="0.4"><circle cx="557.12" cy="512.12" r="5.42" fill="#ccc"/><circle cx="566.1" cy="553.51" r="5.42" fill="#ccc"/><circle cx="530.57" cy="574.11" r="3.83" fill="#ccc"/><circle cx="529.44" cy="564.28" r="2.51" fill="#ccc"/><circle cx="534.41" cy="552.54" r="2.51" fill="#ccc"/><circle cx="545.43" cy="580.73" r="2.51" fill="#ccc"/><circle cx="573.39" cy="587.64" r="5.42" fill="#ccc"/><circle cx="511.44" cy="550.37" r="5.42" fill="#ccc"/><circle cx="552.87" cy="561.85" r="8.35" fill="#ccc"/><circle cx="549.77" cy="621.91" r="8.35" fill="#ccc"/><circle cx="530.57" cy="618.39" r="8.35" fill="#ccc"/><circle cx="541.43" cy="640.88" r="8.35" fill="#ccc"/><circle cx="601.33" cy="511.73" r="8.35" fill="#ccc"/><circle cx="527.41" cy="528.99" r="2.03" fill="#ccc"/><circle cx="568.68" cy="508.53" r="2.03" fill="#ccc"/><circle cx="581.56" cy="506.7" r="2.03" fill="#ccc"/><circle cx="581.56" cy="517.54" r="2.03" transform="translate(23.16 1060) rotate(-85.84)" fill="#ccc"/><circle cx="576.83" cy="523.49" r="2.03" transform="translate(12.85 1060.79) rotate(-85.84)" fill="#ccc"/><circle cx="551.7" cy="533.97" r="2.03" transform="translate(-20.91 1045.44) rotate(-85.84)" fill="#ccc"/><circle cx="552.87" cy="545.81" r="2.03" transform="translate(-31.64 1057.6) rotate(-85.84)" fill="#ccc"/><circle cx="546.73" cy="550.37" r="2.03" transform="translate(-181.81 816.92) rotate(-65.29)" fill="#ccc"/><circle cx="519.36" cy="558.93" r="2.03" transform="translate(-242.58 598.77) rotate(-50.09)" fill="#ccc"/><circle cx="512.85" cy="580.73" r="2.03" transform="translate(-261.64 601.59) rotate(-50.09)" fill="#ccc"/><circle cx="507.78" cy="586.79" r="2.03" transform="translate(-268.1 599.88) rotate(-50.09)" fill="#ccc"/><circle cx="521.7" cy="588.13" r="2.03" transform="translate(-264.14 611.03) rotate(-50.09)" fill="#ccc"/><circle cx="529.44" cy="594.61" r="2.03" transform="translate(-266.33 619.29) rotate(-50.09)" fill="#ccc"/><circle cx="540.02" cy="592.85" r="2.03" transform="translate(-261.2 626.78) rotate(-50.09)" fill="#ccc"/><circle cx="551.7" cy="602.29" r="2.03" transform="translate(-264.25 639.12) rotate(-50.09)" fill="#ccc"/><circle cx="562.54" cy="602.29" r="2.03" transform="translate(-260.36 647.44) rotate(-50.09)" fill="#ccc"/><circle cx="503.42" cy="576.21" r="2.03" transform="translate(-74.92 75.24) rotate(-7.96)" fill="#ccc"/><circle cx="584.44" cy="545.81" r="2.03" transform="matrix(0.58, -0.81, 0.81, 0.58, -199.85, 701.92)" fill="#ccc"/><circle cx="583.73" cy="557.71" r="2.03" transform="translate(-209.81 706.3) rotate(-54.3)" fill="#ccc"/><circle cx="520.13" cy="520.53" r="7.28" fill="#ccc"/><circle cx="511.44" cy="567.81" r="7.28" fill="#ccc"/><circle cx="530.57" cy="513.25" r="1.13" transform="translate(-203.52 591) rotate(-50.09)" fill="#ccc"/><circle cx="514.33" cy="510.82" r="2.89" fill="#ccc"/><circle cx="497.9" cy="501.59" r="3.22" fill="#ccc"/><circle cx="516.95" cy="472.13" r="3.18" fill="#ccc"/><circle cx="501.83" cy="467.06" r="3.93" fill="#ccc"/><circle cx="500.22" cy="487.87" r="1.61" fill="#ccc"/><circle cx="383.53" cy="480.16" r="5.69" fill="#ccc"/><circle cx="396.9" cy="481.52" r="2.82" fill="#ccc"/><circle cx="407.07" cy="474.74" r="2.62" fill="#ccc"/></g><polygon points="501.83 450.32 545.43 464.22 591.58 630.26 580.42 678.01 558.82 669.38 501.83 450.32" fill="#f2f2f2" opacity="0.5"/><polygon points="557.12 468.04 570.23 472.13 605.08 572.53 601.33 586.79 557.12 468.04" fill="#f2f2f2" opacity="0.5"/><path d="M613.86,565.09h0A6,6,0,0,0,606,568l-.68,1.47a9.33,9.33,0,0,0-4-1.88c-7.22-1.48-14.88,6.15-17.12,17-1.74,8.47.31,16.41,4.7,20.23l-1.56,3.37,11.29,5.22a17.35,17.35,0,0,0,23-8.46l3.82-8.26A23.84,23.84,0,0,0,613.86,565.09Z" fill="#f1dac6"/><path d="M605.28,569.46a9.38,9.38,0,0,1,1.86,4.18c.19,2.09.25,3,.25,3s2.53-6.86,3.61-8.25a5.5,5.5,0,0,1,3.94-2,3,3,0,0,1,1.63.17s-2.72-2.24-5.65-2a5.08,5.08,0,0,0-4.48,2.59C606,568,605.28,569.46,605.28,569.46Z" fill="#f0c2a3"/><path d="M585,581.53s-1.85,10.74,2.23,15.35c2.77,3.13,8,4,9.3,3.13,0,0,10.39-8,18.12-7.9s7,7.84,9.13,6c3.89-3.42,3.89-10.94,3.89-10.94s0,5.55-2.2,9.58c-1.41,2.59-4.18,11.55-9.42,15.05a17.71,17.71,0,0,1-6.34,2.85s-7.76-10.67-13-11.44a86.66,86.66,0,0,0-10-.85,20.06,20.06,0,0,1-3.12-11.13A29.7,29.7,0,0,1,585,581.53Z" fill="#f0c2a3"/><ellipse cx="593.05" cy="579.79" rx="9.6" ry="4.6" transform="translate(-197.23 831.44) rotate(-62.02)" fill="#f6e1c9"/><ellipse cx="590.81" cy="580.15" rx="5.83" ry="2.79" transform="translate(-198.74 829.65) rotate(-62.02)" fill="#fff"/><ellipse cx="595.95" cy="572.77" rx="2.38" ry="1.14" transform="translate(-189.49 830.27) rotate(-62.02)" fill="#fff"/><path d="M530.17,773.19s-30.58,4.67-51.08,6.21c-18.08,1.36-60.92-.63-60.92-.63V566.87h39.18a72.82,72.82,0,0,1,72.82,72.82Z" fill="#333"/><rect x="566.6" y="600.72" width="40.52" height="55.66" rx="18.06" ry="18.06" transform="translate(428.94 -216.76) rotate(32.45)" fill="#333"/><path d="M598.72,609.89h0a27.83,27.83,0,0,0-38.42,8.55L547.86,638l-12.44-33.16a32.09,32.09,0,0,0-41.32-18.77h0a32.09,32.09,0,0,0-18.77,41.32l31.35,83.55A32.09,32.09,0,0,0,548,729.72h0a32,32,0,0,0,17.21-15.26l42.06-66.14A27.83,27.83,0,0,0,598.72,609.89Z" fill="#666"/><path d="M570.24,687A32,32,0,0,1,553,702.29h0a32.09,32.09,0,0,1-41.32-18.77L480.36,600c-.35-.92-.64-1.85-.9-2.78a32.06,32.06,0,0,0-4.14,30.21l31.35,83.55A32.09,32.09,0,0,0,548,729.72h0a32,32,0,0,0,17.21-15.26l42.06-66.14a27.77,27.77,0,0,0,2.83-24Z" fill="#4d4d4d"/><path d="M560.79,640.34l20-34.62a27.77,27.77,0,0,0-20.48,12.73L548.48,637h0A6.6,6.6,0,0,0,560.79,640.34Z" fill="#4d4d4d"/><path d="M480.82,589.79c10.18-10,27.86-10.88,34.58-6.63-9.65-10.36-23.92-16.29-38.39-16.29Z" fill="#4b545a"/><path d="M468.84,501.45v17.8a9.48,9.48,0,1,0,0,16.81v22.24h0a18.35,18.35,0,0,0,18.35-18.35v-38.5Z" fill="#f1cea8"/><path d="M468.84,501.45H402.77v17.83a39,39,0,0,0,39,39h27V536.05a9.43,9.43,0,0,1-4.74,1.07,9.48,9.48,0,0,1,.35-19,9.42,9.42,0,0,1,5,1.41,13.56,13.56,0,0,0,13-13.55v-4.59Z" fill="#4d4d4d"/><path d="M498.5,476.53c-2.11-5.56-8.43-11.59-21.43-11.59a26.3,26.3,0,0,0-15.21,4.39,44.2,44.2,0,0,1,25.39,32.12C497.78,493.69,501.77,485.16,498.5,476.53Z" fill="#9c2429"/><path d="M431.6,468l-.07,0h0Z" fill="#efbc7a"/><path d="M402.06,510.23a45.91,45.91,0,0,0,1.1,10,129.58,129.58,0,0,0,22.53,1.31l2.53-.09a62.83,62.83,0,0,1-2.22-6.26c-5-16.85-2.43-34,5.58-47.07h0C414.41,473.93,402.06,490.58,402.06,510.23Z" fill="#791829"/><path d="M468.84,512.57a72.27,72.27,0,0,0,18.41-11.12c-3.95-20.32-21.33-35.63-42.17-35.63A41.72,41.72,0,0,0,431.6,468l0,0A56,56,0,0,1,468.84,512.57Z" fill="#791829"/><path d="M431.58,468.09c-8,13.12-10.55,30.22-5.58,47.07a62.83,62.83,0,0,0,2.22,6.26,117.55,117.55,0,0,0,40.62-8.86A56,56,0,0,0,431.58,468.09Z" fill="#9c2429"/><path d="M473.71,477.09C469,492.16,447.64,503.53,422,503.53a81.28,81.28,0,0,1-19.11-2.23,45.94,45.94,0,0,0,.23,18.91,129.58,129.58,0,0,0,22.53,1.31c25.65-.7,48.12-8.58,61.56-20.07A44.72,44.72,0,0,0,473.71,477.09Z" fill="#1a1a1a" opacity="0.3"/><polygon points="480.2 747.6 420.23 779.13 420.23 621.02 480.81 589.79 480.2 747.6" fill="#637076"/><path d="M316.69,760.52l103.53,18.61V621L310.17,601.23V752.72A7.93,7.93,0,0,0,316.69,760.52Z" fill="#788386"/><path d="M450.25,555.89h0a54.64,54.64,0,0,0-29.41,48.47V621l60-31.22V574.43A20.91,20.91,0,0,0,450.25,555.89Z" fill="#788386"/><path d="M450.25,555.89h0a20.66,20.66,0,0,1,12.4-2.2h0L375.79,540c-33.88-6.09-65.66,20.85-65.66,55.27l0,6L420.84,621V604.35A54.64,54.64,0,0,1,450.25,555.89Z" fill="#637076"/><polygon points="405.04 739.77 392.41 736.53 392.41 677.5 405.04 680.82 405.04 739.77" fill="#969997"/><polygon points="410.5 679.64 408 681.56 408 670.79 410.5 668.87 410.5 679.64" fill="#dca975"/><polygon points="387.76 637.08 390.51 635.26 410.5 638.83 408 640.87 387.76 637.08" fill="#f1cea8"/><polygon points="387.76 656.45 390.81 655.18 410.5 659.4 408 661.32 387.76 656.45" fill="#ca915e"/><polygon points="408 652.66 408 640.87 387.76 637.08 387.76 648.13 393.01 649.31 393.01 657.72 387.76 656.45 387.76 665.64 408 670.51 408 661.32 403.15 660.15 403.15 651.58 408 652.66" fill="#f6e1c9"/><polygon points="405.11 646.83 391.06 643.95 391.06 629.65 405.11 632.16 405.11 646.83" fill="#a1a1a0"/><polygon points="391.15 643.67 389.88 644.32 405.11 647.8 405.11 646.83 391.15 643.67" fill="#ca915e"/><polygon points="391.15 643.67 389.88 644.32 389.88 640.43 391.07 640.74 391.15 643.67" fill="#dca975"/><polygon points="410.5 650.52 408 652.66 408 640.87 410.5 638.73 410.5 650.52" fill="#dca975"/><polygon points="410.5 668.59 408 670.51 408 661.32 410.5 659.4 410.5 668.59" fill="#f1cea8"/><path d="M403.15,652.51l2-.49,1.35.3a3.29,3.29,0,0,1,1.85,3v4.19L406.46,661Z" fill="#dca975"/><path d="M406.46,661l-3.31-.78v-7.66h0a4.21,4.21,0,0,1,3.31,4.12Z" fill="#f1cea8"/><polygon points="405.11 652.02 403.15 652.51 403.15 651.59 405.11 652.02" fill="#ca915e"/><path d="M393,650v.94l-2.77,2.45S390,651,393,650Z" fill="#dca975"/><path d="M393,650.92h0a2.23,2.23,0,0,0-2.77,2.17v4l2.77.68Z" fill="#f1cea8"/><polygon points="404.43 669.94 404.43 670.78 391.13 667.63 391.13 666.79 387.76 665.92 387.76 676.26 408 681.56 408 670.79 404.43 669.94" fill="#f6e1c9"/><polygon points="410.5 668.87 408 670.79 404.43 669.94 404.73 669.74 408 670.51 410.14 668.87 410.5 668.87" fill="#dca975"/><polygon points="391.77 671.78 391.15 673.65 404.43 677.09 404.43 675.12 391.77 671.78" fill="#ca915e"/><polygon points="391.95 666.65 392.02 671.09 391.15 673.65 391.13 666.79 391.95 666.65" fill="#dca975"/><polygon points="391.13 666.79 387.76 665.92 388.29 665.77 391.95 666.65 391.13 666.79" fill="#f1cea8"/><polygon points="404.43 718.13 391.79 714.89 391.79 677.31 404.43 680.63 404.43 718.13" fill="#a1a1a0"/><polygon points="404.43 675.12 391.79 671.78 391.79 667.48 404.43 670.64 404.43 675.12" fill="#a1a1a0"/><polygon points="404.43 714.1 391.79 710.82 391.79 710.49 404.43 713.77 404.43 714.1" fill="#969997"/><polygon points="404.43 708.03 391.41 704.65 391.41 695.73 404.43 699.1 404.43 708.03" fill="#969997"/><polygon points="405.19 698.93 404.43 699.1 404.43 708.03 405.19 707.91 405.19 698.93" fill="#637076"/><polygon points="391.41 695.73 391.79 695.52 391.79 695.82 391.41 695.73" fill="#ca915e"/><polygon points="328.83 715.8 317.4 712.86 317.4 659.5 328.83 662.5 328.83 715.8" fill="#969997"/><polygon points="333.76 661.43 331.5 663.17 331.5 653.43 333.76 651.69 333.76 661.43" fill="#dca975"/><polygon points="313.2 622.96 315.69 621.31 333.76 624.54 331.5 626.38 313.2 622.96" fill="#f1cea8"/><polygon points="313.2 640.47 315.96 639.32 333.76 643.13 331.5 644.87 313.2 640.47" fill="#ca915e"/><polygon points="331.5 637.04 331.5 626.38 313.2 622.96 313.2 632.95 317.95 634.01 317.95 641.61 313.2 640.47 313.2 648.78 331.5 653.18 331.5 644.87 327.12 643.82 327.12 636.06 331.5 637.04" fill="#f6e1c9"/><polygon points="328.89 631.77 316.18 629.16 316.18 616.23 328.89 618.51 328.89 631.77" fill="#a1a1a0"/><polygon points="316.27 628.91 315.12 629.5 328.89 632.65 328.89 631.77 316.27 628.91" fill="#ca915e"/><polygon points="316.27 628.91 315.12 629.5 315.12 625.99 316.19 626.26 316.27 628.91" fill="#dca975"/><polygon points="333.76 635.11 331.5 637.04 331.5 626.38 333.76 624.45 333.76 635.11" fill="#dca975"/><polygon points="333.76 651.44 331.5 653.18 331.5 644.87 333.76 643.13 333.76 651.44" fill="#f1cea8"/><path d="M327.12,636.91l1.77-.45,1.22.27a3,3,0,0,1,1.68,2.7v3.78l-1.68,1.32Z" fill="#dca975"/><path d="M330.11,644.54l-3-.71v-6.92h0a3.81,3.81,0,0,1,3,3.72Z" fill="#f1cea8"/><polygon points="328.89 636.46 327.12 636.91 327.12 636.08 328.89 636.46" fill="#ca915e"/><path d="M317.95,634.61v.85l-2.5,2.22S315.23,635.52,317.95,634.61Z" fill="#dca975"/><path d="M317.95,635.47h0a2,2,0,0,0-2.5,2v3.65l2.5.62Z" fill="#f1cea8"/><polygon points="328.27 652.67 328.27 653.42 316.25 650.58 316.25 649.81 313.2 649.03 313.2 658.38 331.5 663.17 331.5 653.43 328.27 652.67" fill="#f6e1c9"/><polygon points="333.76 651.69 331.5 653.43 328.27 652.67 328.54 652.48 331.5 653.18 333.43 651.69 333.76 651.69" fill="#dca975"/><polygon points="316.83 654.33 316.27 656.01 328.27 659.13 328.27 657.34 316.83 654.33" fill="#ca915e"/><polygon points="316.99 649.69 317.06 653.7 316.27 656.01 316.25 649.81 316.99 649.69" fill="#dca975"/><polygon points="316.25 649.81 313.2 649.03 313.68 648.9 316.99 649.69 316.25 649.81" fill="#f1cea8"/><polygon points="328.27 696.23 316.85 693.3 316.85 659.32 328.27 662.33 328.27 696.23" fill="#a1a1a0"/><polygon points="328.27 657.34 316.85 654.33 316.85 650.44 328.27 653.29 328.27 657.34" fill="#a1a1a0"/><polygon points="328.27 692.59 316.85 689.62 316.85 689.32 328.27 692.28 328.27 692.59" fill="#969997"/><polygon points="328.27 687.1 316.5 684.05 316.5 675.98 328.27 679.02 328.27 687.1" fill="#969997"/><polygon points="328.96 678.87 328.27 679.02 328.27 687.1 328.96 686.99 328.96 678.87" fill="#637076"/><polygon points="316.5 675.98 316.85 675.79 316.85 676.06 316.5 675.98" fill="#ca915e"/><path d="M318.91,553l145.58,26.51V511.12L331,486.8a33.62,33.62,0,0,0-39.64,33.08h0A33.62,33.62,0,0,0,318.91,553Z" fill="#969997"/><path d="M370.75,751.72l19.1-13.49V679.77l-3.94,2.78a35.84,35.84,0,0,0-15.16,29.27Z" fill="#637076"/><path d="M335.37,669.43l-4,2.85a35.84,35.84,0,0,0-15.08,29.22v37.93a2.45,2.45,0,0,0,2,2.41l52.49,9.89v-39.9a35.84,35.84,0,0,1,15.16-29.27l3.94-2.78Z" fill="#858d92"/><ellipse cx="464.49" cy="545.38" rx="30.38" ry="34.09" fill="#a1a1a0"/><path d="M379.37,584l-25.74-4s-3.5,2.48-5,8.63a64.61,64.61,0,0,0-1.39,8.75l26.48,4.76a45.44,45.44,0,0,1,1.68-9.1A54.5,54.5,0,0,1,379.37,584Z" fill="#666"/><path d="M420.41,503.18l12.72,2.32s-18.95,8-22.82,28.61c-4.66,24.92,9.63,37.33,9.63,37.33l-17.4-3.17s-12.77-14-6.81-37.45A40.07,40.07,0,0,1,420.41,503.18Z" fill="#788386"/><path d="M419.68,571.27s-8.53,11.4-10.34,25.22a176.79,176.79,0,0,0-1.74,21.91l-19.1-3.21a55.63,55.63,0,0,1,2.13-27.64c5.05-15,11.64-19.46,11.64-19.46Z" fill="#788386"/><path d="M347.83,490l12.72,2.32s-18.95,8-22.82,28.61c-4.66,24.92,9.63,37.33,9.63,37.33L330,555.11s-12.77-14-6.81-37.45A40.07,40.07,0,0,1,347.83,490Z" fill="#788386"/><path d="M347.11,558.11s-8.53,11.4-10.34,25.22A176.79,176.79,0,0,0,335,605.25l-20.56-3.45a69.3,69.3,0,0,1,3.59-27.39c5.05-15,11.64-19.46,11.64-19.46Z" fill="#788386"/><path d="M420.22,620.84,310.17,601.25v5.93a15.41,15.41,0,0,1,6.13,10.15l12.58,2.09c4.39-6.16,17.43-9.11,30.55-7s29.91,9.94,31.63,17.18l14.05,2.52c.62-6.15,8.64-8.25,15.11-8.31Z" fill="#637076"/><path d="M488.63,622.4c1,6.77-7.86,13.18-21.4,15.84-13.36,2.63-26.93-1.43-28-8.2s9.16-14,22.8-16.08S487.58,615.63,488.63,622.4Z" fill="#4d4d4d"/><path d="M464.48,693.45c-22.55,2-27.9-3.27-27.9-3.27v80.16h10.49a41.66,41.66,0,0,0,41.66-41.66V679.23S486.71,691.51,464.48,693.45Z" fill="#788386"/><path d="M465.73,638.06c-20.81,3.42-26.4-7.05-26.42-7.12v60.73s5.07,3.74,26.44,1.77c21.06-1.94,23-14.22,23-14.22V622.4S488.73,634.29,465.73,638.06Z" fill="#4d4d4d"/><path d="M439.31,661.28a46.23,46.23,0,0,0,31.48,5c16.75-3.21,17.92-11.57,17.92-11.57" fill="none" stroke="#1a1a1a" stroke-miterlimit="10"/><path d="M436.58,707.63s21,5.21,35.31,1.38c13.65-3.67,16.84-10.48,16.84-10.48" fill="none" stroke="#f1dac6" stroke-miterlimit="10"/><ellipse cx="468.65" cy="701.88" rx="2.15" ry="2.8" fill="#4d4d4d"/><ellipse cx="477.99" cy="699.95" rx="2.21" ry="2.56" transform="translate(-52.57 38.96) rotate(-4.42)" fill="#4d4d4d"/><path d="M477.06,698.94l-1.31.68a6.82,6.82,0,0,1-3.15.77h-2.91a1.39,1.39,0,0,0-1.39,1.39h0a1.39,1.39,0,0,0,1.39,1.39h3.59a6.82,6.82,0,0,0,3.15-.77l1.91-1a1.39,1.39,0,0,0,.62-1.82h0A1.39,1.39,0,0,0,477.06,698.94Z" fill="#f1dac6"/><path d="M480.69,732l-2.2-27.56H473l-4.08,27.15a5.93,5.93,0,1,0,11.78.41Zm-3.83,2.4a2.84,2.84,0,0,1-4.9-2.35l3.67-24.46,2,24.66A2.81,2.81,0,0,1,476.86,734.44Z" fill="#f1dac6"/><polygon points="370.75 715.34 316.27 705.14 316.27 698.98 370.75 709.19 370.75 715.34" fill="#969997"/><polygon points="389.85 701.81 370.75 715.39 370.75 709.24 389.85 695.66 389.85 701.81" fill="#969997" opacity="0.3"/><polygon points="370.75 741.39 316.27 731.19 316.27 718.24 370.75 728.45 370.75 741.39" fill="#969997"/><polygon points="389.85 727.81 370.75 741.39 370.75 728.5 389.85 714.92 389.85 727.81" fill="#969997" opacity="0.3"/><polygon points="362.75 611.7 353.43 609.93 353.43 672.92 362.75 674.69 362.75 611.7" fill="#637076"/><circle cx="475.96" cy="703.18" r="4.05" fill="#333"/><circle cx="477.49" cy="702.92" r="2.71" fill="#1a1a1a"/><circle cx="478.15" cy="702.92" r="1.86" fill="#333"/><path d="M353.43,672.92l-3.51,2.55a35.84,35.84,0,0,0-15.08,29.22v8.44l9.11,1.79v-8.38a35.84,35.84,0,0,1,15.16-29.27l3.64-2.57Z" fill="#637076"/><polygon points="343.59 746.4 335.65 744.92 335.65 733.14 343.59 734.68 343.59 746.4" fill="#5a636a"/><polygon points="347.08 733.8 345.48 735.03 345.48 728.14 347.08 727.02 347.08 733.8" fill="#dca975"/><polygon points="332.67 707.28 334.43 706.12 347.08 707.81 345.48 709.11 332.67 707.28" fill="#f1cea8"/><polygon points="332.67 719.67 334.62 718.86 347.08 720.97 345.48 722.2 332.67 719.67" fill="#ca915e"/><polygon points="345.48 716.65 345.48 709.11 332.67 707.28 332.67 714.35 336.03 715.1 336.03 720.48 332.67 719.67 332.67 725.55 345.48 727.98 345.48 722.2 342.38 721.45 342.38 715.96 345.48 716.65" fill="#f6e1c9"/><polygon points="343.63 712.92 334.78 711.67 334.78 702.52 343.77 704.13 343.63 712.92" fill="#637076"/><polygon points="334.84 711.49 334.03 711.91 343.63 713.55 343.63 712.92 334.84 711.49" fill="#ca915e"/><polygon points="334.84 711.49 334.03 711.91 334.03 709.42 334.79 709.62 334.84 711.49" fill="#dca975"/><polygon points="347.08 715.29 345.48 716.65 345.48 709.11 347.08 707.74 347.08 715.29" fill="#dca975"/><polygon points="347.08 726.85 345.48 728.08 345.48 722.2 347.08 720.97 347.08 726.85" fill="#f1cea8"/><path d="M342.38,716.56l1.25-.32.87.19a2.11,2.11,0,0,1,1.19,1.91V721l-1.19.94Z" fill="#dca975"/><path d="M344.5,722l-2.12-.5v-4.9h0a2.7,2.7,0,0,1,2.12,2.63Z" fill="#f1cea8"/><polygon points="343.63 716.25 342.38 716.56 342.38 715.97 343.63 716.25" fill="#ca915e"/><path d="M336,715.53v.6l-1.77,1.57A2.2,2.2,0,0,1,336,715.53Z" fill="#dca975"/><path d="M336,716.13h0a1.43,1.43,0,0,0-1.77,1.39v2.58l1.77.44Z" fill="#f1cea8"/><polygon points="343.2 727.72 343.2 728.25 334.83 726.83 334.85 726.2 332.67 725.73 332.67 732.35 345.48 735.03 345.48 728.14 343.2 727.72" fill="#f6e1c9"/><polygon points="347.08 727.02 345.48 728.14 343.2 727.72 343.39 727.58 345.48 727.98 346.85 727.02 347.08 727.02" fill="#dca975"/><polygon points="335.24 729.48 334.84 730.68 343.2 732.29 343.2 731.03 335.24 729.48" fill="#ca915e"/><polygon points="335.37 726.11 335.4 729.04 334.84 730.68 334.85 726.2 335.37 726.11" fill="#dca975"/><polygon points="334.85 726.2 332.67 725.73 333.01 725.64 335.37 726.11 334.85 726.2" fill="#f1cea8"/><polygon points="343.2 745.62 335.25 744.14 335.25 733.02 343.2 734.55 343.2 745.62" fill="#637076"/><polygon points="343.2 731.03 335.25 729.48 335.25 726.73 343.2 728.16 343.2 731.03" fill="#637076"/><polygon points="343.2 743.04 335.25 741.53 335.25 741.32 343.2 742.83 343.2 743.04" fill="#5a636a"/><polygon points="343.2 739.71 335.01 738.15 335.01 735.25 343.2 736.82 343.2 739.71" fill="#5a636a"/><polygon points="343.69 736.71 343.2 736.82 343.2 739.71 343.69 739.64 343.69 736.71" fill="#525351"/><polygon points="335.01 735.25 335.25 735.12 335.25 735.31 335.01 735.25" fill="#525351"/><g opacity="0.15" style="mix-blend-mode:multiply"><path d="M488.71,689.32a3.3,3.3,0,0,0,0-1.73v-8.36l-.84,2.33a34.18,34.18,0,0,1-5.32,6.09c-2.44,1.89-10.4,4.78-14.25,5.5s-12,.85-19.41.77-9.57-2.24-9.57-2.24V630.95c0-10.4,10.63-13.58,11.47-13.81-1.17.33-18.94,5.93-20.85,12.51-2,6.74,3.3,121.62-2.06,122.07s-7.64-41.3-7.64-41.3v68.72l16.35-8.8a56,56,0,0,0,18.81-.83c14.7-3.46,20-10.6,26.38-17.79C493.64,738.44,488.71,689.32,488.71,689.32Zm-8,43.93c.07,1.56-2.1,5.19-5.93,5.19-3.63,0-6.23-3.23-5.93-5.76.49-4.23,2.93-20.15,2.93-20.15s-8,22-4,28c3.47,5.22,15.15,2.52,10.25,8.27s-25.19,8.48-28.69,5.8-.55-42.65-.14-48.92,12.8-6.52,22.75-7.92a29.41,29.41,0,0,0,10.19-3.51c-1.84,6.75-3.2,15.21-3.2,15.21S480.58,730.25,480.71,733.25Z" fill="#999"/><path d="M450.78,617.13l.06,0Z" fill="#999" opacity="0.37" style="mix-blend-mode:multiply"/><path d="M420.22,623.85s-5-.41-8.5,1.38-6,2.36-6.32,5.5-.3,16.1-.3,16.1l-14-3.16,13.28,33.42v3.54l-12.63-3.32.15,5.68,9.34,34.34L392.41,715V721L405,729v10.77l-12.63-3.25-2.56-1.21v2.92l-19.1,13.49-52.49-9.89,37.13,25.65,64.83,11.66Z" fill="#999"/><path d="M464.49,511.29c-16.78,0-30.38,15.26-30.38,34.09q0,.9,0,1.79a33.78,33.78,0,0,1,1.46-8.34c-.1,1-.15,2.08-.15,3.15,0,16.12,11.65,29.18,26,29.18s26-13.06,26-29.18c0-.86,0-1.7-.1-2.54a34,34,0,0,1,1.32,9.4c0,16.35-11.42,29.7-25.8,30.57q.79,0,1.6,0c16.78,0,30.38-15.26,30.38-34.09S481.27,511.29,464.49,511.29Z" fill="#999"/><path d="M351.61,672.51l-16.24-3.08-6.54,4.82v-8.33l-.56.31-11.42-3.06v-3.85l14.65,3.85,2.26-1.74v-18.3l-2-.42s0-3.27-.12-4.16-1.55-1.82-1.55-1.82l1.39.31,2.26-1.93V624.45l-4.88-.78v-4.24s1-1.17,2.14-2.3,4.3-2.5,7.38-3.64c0,0-3.92,4.07-4,5.33s-.15,4.14-.15,4.14Z" fill="#999"/><path d="M335.37,669.43l-1.92,1.36s40.3,7.85,43.59,8.44-.14,4.27-4.47,9.39-3.67,14.28-6.3,14.56-45.16-8.23-45.82-7.65a1.3,1.3,0,0,0-.26.57A5.81,5.81,0,0,0,325,703.3l9.78,1.38,0,2.9L341.45,734l-6.2-1,.15,6.76,14.19,8,21.16,4s-.55-40.17.31-44.56,3.61-15.26,10.18-20.51l8.62-6.88Z" fill="#999"/><path d="M292.5,528.75c2.24,5.91,5.73,16.87,19.6,22.2s150.55,28.51,150.55,28.51-21.92-2.57-26.88-22.93c-4.82-19.79,2.75-28.86,2.75-28.86a37.43,37.43,0,0,0-6.28,17c-.86,9.77,2.75,21.76-2.92,20.74s-11.15-.15-13.07-6.25c-1.71-5.44-4.79-17.52.22-30.44s21.15-22.15,21.15-22.15l-4.49-1.1s-21.91,9.55-23.88,33.58c-1.75,21.37-20,12.71-31.35,11.19s-29.35-3.23-30.79-4.88-6.24-11.07-3.18-24.09c3.87-16.48,23.15-27.9,23.15-27.9l-6.52-1s-15.1,7.84-20.85,21.76c-5.59,13.56-5.26,26.37-16.59,25-11.11-1.37-19.93-2.59-24.12-5A28.89,28.89,0,0,1,292.5,528.75Z" fill="#999"/><path d="M327.12,554.5l103.15,19.17,32.38,5.79s7.35.35,11.52-1.77,6.65-3.57,6.65-3.57l-.1,40.94s-4.62-1.57-14.37-1.59-18.19,4.92-18.19,4.92-9.78-24.09-16.59-29.39c-5.74-4.47-9.77,5.19-9.77,5.19s-17.14,6-61.24-.94c-34.8-5.5-47.76-13.79-47.76-13.79S314.81,566.19,327.12,554.5Z" fill="#999"/><path d="M488.71,623.06a17.05,17.05,0,0,1-12.44,12.2c-10.54,2.8-12.33,3.47-12.33,3.47l.54,54.72s10.25.45,18.06-5.8,6.17-8.42,6.17-8.42Z" fill="#b3b3b3" style="mix-blend-mode:multiply"/><g style="mix-blend-mode:multiply"><path d="M441.9,623.06c-2,2.22-3,4.62-2.65,7a5.56,5.56,0,0,0,.16.69A11.46,11.46,0,0,1,441.9,623.06Z" fill="#b3b3b3"/><path d="M488.63,622.4c-1-6.77-13-10.55-26.59-8.44a45.63,45.63,0,0,0-12.15,3.58,19.35,19.35,0,0,1,3.17-.77c8.56-1.32,16.36,3.21,17.43,10.12.72,4.66-1.45,8.89-5.54,11.72.76-.11,1.52-.23,2.28-.38C480.77,635.57,489.68,629.17,488.63,622.4Z" fill="#b3b3b3"/></g></g><g opacity="0.5"><path d="M316.41,602.17a3.89,3.89,0,0,1-3.2-3.8v-2.77a55.85,55.85,0,0,1,17.4-40.36l-.64-.12-.15-.17h0a3.91,3.91,0,0,0-3.48,1.11,55.77,55.77,0,0,0-16.19,39.18V598a3.89,3.89,0,0,0,3.2,3.8L420.84,621v-.18Z" fill="#fff"/><path d="M423,604.35a54.58,54.58,0,0,1,8.72-29.59.9.9,0,0,0-.6-1.37h0a.91.91,0,0,0-.92.38,54.6,54.6,0,0,0-9.37,30.58v15.18a.9.9,0,0,0,1.32.8l.36-.19a.9.9,0,0,0,.49-.8Z" fill="#fff"/><path d="M318.58,760.52a7.93,7.93,0,0,1-6.53-7.81V601.57l-1.88-.34V752.72a7.93,7.93,0,0,0,6.53,7.81l103.53,18.61v-.34Z" fill="#fff"/><path d="M371.59,713.71a35.84,35.84,0,0,1,15.16-29.27l3.1-2.19v-2.48l-3.94,2.78a35.84,35.84,0,0,0-15.16,29.27v39.9l.84-.59Z" fill="#fff"/><path d="M320.78,740.68a2.45,2.45,0,0,1-2-2.41V700.35a35.84,35.84,0,0,1,15.08-29.22l2.21-1.57-.71-.14-4,2.85a35.84,35.84,0,0,0-15.08,29.22v37.93a2.45,2.45,0,0,0,2,2.41l48.66,9.26a.8.8,0,0,0,.95-.78h0a.8.8,0,0,0-.65-.78Z" fill="#fff"/><path d="M336,712v-7.35a35.84,35.84,0,0,1,15.08-29.22l3.51-2.55V610.16l-1.2-.23v63l-3.51,2.55a35.84,35.84,0,0,0-15.08,29.22V712l9.11,1.79v-.24Z" fill="#fff"/><path d="M293.71,523.8h0a33.62,33.62,0,0,1,39.64-33.08s118.87,18.15,117.13,17.83L331,486.8a33.62,33.62,0,0,0-39.64,33.08h0a33.53,33.53,0,0,0,6.2,19.45A33.52,33.52,0,0,1,293.71,523.8Z" fill="#fff"/><path d="M436.73,546.95c0-18.46,13.34-33.43,29.8-33.43a28.24,28.24,0,0,1,21.35,10.12c-5.57-7.54-14-12.34-23.4-12.34-16.78,0-30.38,15.26-30.38,34.09,0,15,8.67,27.77,20.7,32.31C444.18,572.57,436.73,560.74,436.73,546.95Z" fill="#fff"/><path d="M436.58,770.34v-1l-16.35,7.19,3.24-154.71a1.32,1.32,0,0,0-1.92-1.2h0a1.32,1.32,0,0,0-.71,1.16l-.61,157.32,16.73-8.8Z" fill="#fff"/><path d="M464.48,693.45c-22.55,2-27.9-3.27-27.9-3.27v80.16h10.49a41.55,41.55,0,0,0,31.38-14.28,38.28,38.28,0,0,1-28.22,12.4h0a9.69,9.69,0,0,1-9.69-9.69V694s4.58,3,25.42,1.15c20.54-1.81,22.76-11.33,22.76-11.33v-4.54S486.71,691.51,464.48,693.45Z" fill="#fff"/><path d="M488.63,622.4c0-.1,0-.2-.06-.3.64,6.28-7.72,12.18-20.31,14.66s-25.51-1.36-26.5-7.77,8.35-13,20.94-15.12L462,614c-13.64,2.11-23.84,9.31-22.8,16.08s14.62,10.83,28,8.2C480.77,635.57,489.68,629.17,488.63,622.4Z" fill="#fff"/><path d="M466.94,638.06c21.79-3.78,21.78-15.67,21.78-15.67s0,11.89-23,15.67a49.77,49.77,0,0,1-7.05.68A42.79,42.79,0,0,0,466.94,638.06Z" fill="#fff"/><path d="M441.9,691.68v-57.8a11,11,0,0,1-2.59-2.94v60.73s3.36,2.48,16.11,2.34C444.78,693.91,441.9,691.68,441.9,691.68Z" fill="#fff"/><ellipse cx="449.47" cy="623.3" rx="6.36" ry="2.91" transform="translate(-271.68 357.82) rotate(-33.99)" fill="#fff"/><circle cx="457.35" cy="618.58" r="1.38" fill="#fff"/><ellipse cx="446.31" cy="650.66" rx="2.36" ry="10.23" fill="#fff"/><ellipse cx="445.66" cy="669.28" rx="1.71" ry="2.5" fill="#fff"/><ellipse cx="446.31" cy="682.7" rx="2.36" ry="7.49" fill="#fff"/><path d="M480.19,702.85s0,0,0-.07a2.56,2.56,0,0,0-1.19-2.16A3.8,3.8,0,1,0,476.2,707h0a3.42,3.42,0,1,1,1.13-6.74,2.56,2.56,0,1,0,1.3,4.89,2.35,2.35,0,1,1-.28-4.48,3.43,3.43,0,0,1,1.28,1.39.86.86,0,0,0-.59-.25,1.06,1.06,0,0,0,0,2.11A1,1,0,0,0,480,703v0s0-.06,0-.1,0-.06,0-.1a1.17,1.17,0,0,0-.08-.42,3.79,3.79,0,0,0-.46-1.19A2.35,2.35,0,0,1,480.19,702.85Z" fill="#fff"/><path d="M397.11,530.94a40.92,40.92,0,0,1,20.49-26.6,40.07,40.07,0,0,0-21.87,26.49c-6,23.5,6.81,37.45,6.81,37.45l.45.08C400.16,564.44,392.15,551.1,397.11,530.94Z" fill="#fff"/><path d="M325.06,517.64a41.81,41.81,0,0,1,15.28-23.85,39.66,39.66,0,0,0-17.19,23.88c-6,23.5,6.81,37.45,6.81,37.45l.44.08C327.23,550.37,320.39,537.11,325.06,517.64Z" fill="#fff"/><path d="M347,557.91l.27.35.12,0Z" fill="#fff"/><path d="M356.34,494.63a33.13,33.13,0,0,1,4.21-2.29l-.61-.11A43,43,0,0,0,356.34,494.63Z" fill="#fff"/></g><path d="M224.37,120.85h82.26v35.91h38.32V120.85h23.58V89.5H344.95V16.41a387.12,387.12,0,0,0-38.32,13.74V89.5H256.52l30.65-50.57A389.66,389.66,0,0,0,235,69.43L224.37,86.55Z" fill="#fff"/><path d="M403.09,134.51Q420.77,160,457.48,160t54.39-25.46q17.69-25.45,17.69-71.28,0-35.18-10.44-58.34A394,394,0,0,0,395.89,4.8Q385.42,28,385.4,63.24,385.4,109.06,403.09,134.51Zm26-89q0-21.43,6.16-33.23T457.48.54q16.08,0,22.24,11.79t6.16,33.23V80.92q0,21.44-6.16,33.23t-22.24,11.79q-16.08,0-22.24-11.79t-6.16-33.23Z" fill="#fff"/><path d="M545.91,120.85h82.26v35.91h38.32V120.85h23.58V89.5H666.49V60.85a389.35,389.35,0,0,0-38.32-21.48V89.5H578.06l34.7-57.24q-13-5.66-26.5-10.4L545.91,86.55Z" fill="#fff"/></g></svg>