<svg xmlns="http://www.w3.org/2000/svg" viewBox="0 0 720 617"><title>404_final</title><g style="isolation:isolate"><circle cx="358.27" cy="308.5" r="308.5" fill="#a2ddeb"/><circle cx="358.27" cy="308.53" r="256.25" fill="#fff" opacity="0.15"/><circle cx="358.27" cy="308.53" r="204.93" fill="#fff" opacity="0.15"/><circle cx="358.27" cy="308.53" r="139.03" fill="#fff" opacity="0.15"/><g opacity="0.3"><path d="M207.76,316.14l-33.95-13.75,32.86,10.32L200,291.51l-28.29-19.3s18,8.51,25.77,11.34l-9.7-30.67-16.92-17.8,14,8.49-16.57-52.38L158.48,222l8.68-1.88-10.08,6.32-11.43,36.16,19.13-12.55-23.11,25.13-6.13,19.37c11.78-6.42,28.18-15.14,28.18-15.14l-30.32,21.91-6.5,20.55h82.69Z" fill="#fff"/><path d="M146.61,399,87.22,375,144.71,393,133,355.94,83.49,322.18s31.44,14.89,45.08,19.83l-17-53.66L82,257.21l24.45,14.85-29-91.63-17.07,54,15.18-3.29L57.95,242.18l-20,63.25L71.4,283.48,31,327.44,20.26,361.33c20.6-11.23,49.3-26.49,49.3-26.49l-53,38.32-11.37,36H149.8Z" fill="#fff"/><path d="M429.67,361.42l-37.86-15.34,36.65,11.51L421,333.95l-31.55-21.52s20,9.49,28.74,12.64l-10.82-34.21L388.49,271l15.59,9.47L385.6,222.06l-10.88,34.42,9.68-2.1-11.24,7L360.4,301.75l21.33-14-25.77,28-6.83,21.6c13.13-7.16,31.43-16.89,31.43-16.89l-33.81,24.43-7.25,22.92h92.21Z" fill="#fff"/><path d="M485.7,360.67l-42.28-17.13,40.93,12.85L476,330l-35.23-24s22.38,10.6,32.09,14.12l-12.08-38.2L439.71,259.7l17.41,10.57L436.49,205l-12.16,38.44,10.81-2.34L422.58,249l-14.24,45,23.82-15.62-28.78,31.3-7.63,24.13c14.67-8,35.09-18.86,35.09-18.86l-37.76,27.28-8.1,25.6H488Z" fill="#fff"/><path d="M573.87,360.67l-42.28-17.13,40.93,12.85L564.17,330l-35.23-24s22.38,10.6,32.09,14.12L549,281.87,527.88,259.7l17.41,10.57L524.65,205,512.5,243.47l10.81-2.34L510.75,249l-14.24,45,23.82-15.62-28.78,31.3-7.63,24.13C498.59,325.83,519,315,519,315l-37.76,27.28-8.1,25.6h103Z" fill="#fff"/><path d="M603.94,362.37,583.35,354l19.93,6.26-4.07-12.86-17.15-11.7s10.9,5.16,15.63,6.87L591.8,324l-10.26-10.8,8.48,5.15-10-31.76-5.92,18.71,5.26-1.14L573.2,308l-6.93,21.92,11.6-7.61-14,15.24-3.71,11.75c7.14-3.89,17.09-9.18,17.09-9.18L558.84,353.4l-3.94,12.46H605Z" fill="#fff"/><path d="M704.41,400.47,639.54,374.2l62.8,19.72L689.52,353.4l-54.05-36.88s34.34,16.27,49.24,21.66l-18.53-58.61-32.34-34,26.71,16.22L628.89,161.69l-18.65,59,16.58-3.6-19.26,12.08-21.85,69.08,36.55-24-44.15,48-11.71,37c22.5-12.26,53.85-28.93,53.85-28.93l-57.93,41.86-12.42,39.27h158Z" fill="#fff"/><path d="M362.13,359.24l-50.67-20.53,49.05,15.41-10-31.65-42.22-28.8s26.82,12.7,38.46,16.92l-14.48-45.78L307,238.24l20.86,12.67-24.72-78.18-14.57,46.06,13-2.81-15,9.43-17.06,54L298,260.66l-34.49,37.51-9.14,28.91c17.58-9.58,42.06-22.6,42.06-22.6l-45.25,32.7-9.7,30.68H364.85Z" fill="#fff"/><path d="M161.91,358.2l-27.4-11.1L161,355.44l-5.41-17.12-22.83-15.58s14.51,6.87,20.8,9.15l-7.83-24.76L132.1,292.76l11.28,6.85L130,257.33l-7.88,24.91,7-1.52-8.14,5.1L111.77,315l15.44-10.13-18.65,20.28-4.95,15.64c9.51-5.18,22.75-12.22,22.75-12.22l-24.47,17.68-5.25,16.59h66.74Z" fill="#fff"/><path d="M266.94,361l-40-16.22L265.66,357l-7.91-25-33.37-22.77s21.2,10,30.4,13.37l-11.44-36.18-20-21,16.49,10-19.54-61.79L208.81,250,219,247.82l-11.89,7.46-13.49,42.65,22.56-14.8L189,312.77l-7.23,22.85c13.89-7.57,33.24-17.86,33.24-17.86L179.22,343.6l-7.67,24.25h97.54Z" fill="#fff"/></g><path d="M530.23,462.07a20.62,20.62,0,0,0,2.56-9.86c0-14.54-15.75-26.33-35.19-26.33a42.56,42.56,0,0,0-22.92,6.36c-2.24-24.5-23.41-43.71-49.21-43.71a50.85,50.85,0,0,0-12.77,1.62,13.74,13.74,0,0,1-16.48-9c-7.82-23.4-23.53-39.38-41.63-39.38-7.72,0-15,2.91-21.42,8.05a28.22,28.22,0,0,1-27.89,4.49,121.76,121.76,0,0,0-44-8.06c-34.71,0-65.29,14-83.3,35.24a21.81,21.81,0,0,1-19.52,7.54,59.47,59.47,0,0,0-7.89-.52c-34.13,0-61.8,28.75-61.8,64.22a67.2,67.2,0,0,0,.66,9.32Z" fill="#a2ddeb"/><path d="M530.23,462.07s-2.93-24.46-25.89-27-36.93,13.48-36.93,13.48-3-12.51-13-13.74S434,448.33,430,448.46s-10,2.13-10,2.13,14-31.44,9-42.92-19.47-13.48-19.47-13.48,9.48,17.47-12.48,17-27.45-30.95-52.91-9.23-35.44,35.19-43.92,32.19-6.49-15-6.49-15,.5-21.08,14.47-35.24a91.59,91.59,0,0,0,19.69-30.68s-6.93,5.94-22.59,1.11-29.47-8.9-44-8.06-35.94,26.45-20,49.41,35.44,26,41.93,39.93,6.49,19.47,6.49,19.47-10.48-15.47-34.44-16.47-37.57,19.7-60.89,1.5-23-36.51-53.9-36-51.07,58-51.07,58Z" fill="#90cddf"/><path d="M625.54,462.07a97.38,97.38,0,0,0,3.25-29.47c-1.71-42.42-29.43-75.75-61.91-74.44a46.41,46.41,0,0,0-18.3,4.61c-14.79-18.88-35.17-30.22-57.22-29.33a61.18,61.18,0,0,0-27.67,8,9.93,9.93,0,0,1-13.45-3.8l-.05-.09c-27.73-48-80-69.75-116.78-48.52-24.94,14.4-36.33,44.85-32.43,77.94a11.73,11.73,0,0,1-9.9,12.87c-13.83,2.26-25.45,9.15-31.92,20.35-6.6,11.43-6.63,25.26-1.36,38.62-1.61-1.13-3.3-2.21-5.07-3.23-19.85-11.46-41.57-11-48.51,1-4.08,7.06-2.15,16.55,4.16,25.49Z" fill="#a2ddeb"/><path d="M208.37,462.07H625.54a97.38,97.38,0,0,0,3.25-29.47c0-.51,0-1-.08-1.52-10.52,5.6-25.22,9.6-37.1-1.73-21-20-38.57-7.32-58.1,11.23s-3.91-44.43-47.36-61-64.45,59.08-78.61,29.78,22-48.83,22-48.83-49.8,22-85-5.37,2.44-63,2.44-63S328.44,302.41,320.14,318s-7.32,47.36,19.53,71.29,50.78,61.52,50.78,61.52-50.29-16.11-79.1-10.5-50.29,19.77-76.66,16.84c-16-1.77-24.55-13.74-28.85-22.92a15.54,15.54,0,0,0-1.64,2.31C200.13,443.64,202.06,453.13,208.37,462.07Z" fill="#90cddf"/><path d="M520.86,475.41c99.73-48.39,87.79-91.17,137.71-118.87,30.24-16.78,46-41.72,53.78-58.79.32.25.63.5.93.77-11.74-10.62-35.94-4-59.78,14.51a13.14,13.14,0,0,1-20.14-5.19c-3.15-7.25-7.92-12.6-14.24-15.3-21.6-9.22-63.15,13.91-64.11,52.7-.49,19.88-1.07,31.78-7.63,41.07-.65-3.44-.29-15.48-10.86-17.79-11.16-2.44-24.09,17.46-28,35.68a16.7,16.7,0,0,1-8.23,11.11c-5.76,3.2-11.69,6.34-15.87,11C440.41,475,463.23,550.41,465,556l-.07-.21C470.53,527.63,484.87,492.87,520.86,475.41Z" fill="#c1e9fa"/><path d="M678.14,478a26.31,26.31,0,0,0-4.65-14.84A11.77,11.77,0,0,1,672.12,453q.1-.3.22-.6a11.48,11.48,0,0,1,.84-1.72,11.1,11.1,0,0,1,4.79-4.35,11.58,11.58,0,0,1,1.3-.52q3.21-1.07,6.13-2.31a63.39,63.39,0,0,0,8-4.06q1.21-.73,2.32-1.49a38.18,38.18,0,0,0,4.95-4q.86-.83,1.62-1.69t1.4-1.73a21,21,0,0,0,1.17-1.77,14.92,14.92,0,0,0,2.22-8.38c-.35-6.92-6-13-15.13-17.4a13.52,13.52,0,0,1-4.07-21.28l.16-.17c29.07-32.15,40.37-69.31,25.23-83-.3-.27-.61-.52-.93-.77-7.75,17.07-23.55,42-53.78,58.79-49.92,27.7-38,70.48-137.71,118.87-36,17.46-50.33,52.22-55.92,80.4,0,.08,66.4-36.84,116.94-31.83a40.14,40.14,0,0,0,7.51-.06C638.77,522.6,677.86,502.76,678.14,478Z" fill="#a2ddeb"/><path d="M553.13,362.25a2.57,2.57,0,1,1,1.72-2.1l18.35,9.27L568,353.67a2.55,2.55,0,1,1,1.61-.53l5.18,15.76,9.27-18.35a2.58,2.58,0,1,1,1.52.77l-9.82,19.42h0l-.23.45,8.6,26.18,33.88-67-9.13-27.79-.45-.23h0L589,292.5a2.52,2.52,0,0,1-1,.58,2.55,2.55,0,1,1,1.63-3.22,2.52,2.52,0,0,1,.1,1.12l18.35,9.27L603,284.5a2.55,2.55,0,1,1,1.61-.53l5.18,15.76L619,281.38a2.52,2.52,0,0,1-.58-1,2.57,2.57,0,1,1,2.1,1.72l-9.82,19.42h0l-.23.45,8.6,26.18,6.06-12,7.21-14.26,6.31-12.48-.16-.48h0l-6.79-20.67a2.57,2.57,0,1,1,1.61-.53l6.42,19.53,7.48-14.8a2.55,2.55,0,1,1,1.52.77l-7.48,14.8,19.53-6.42a2.57,2.57,0,1,1,.53,1.61l-20.67,6.79h0l-.48.16-6.31,12.48L626.7,317,616.18,337.8,643,329l.23-.45h0l9.82-19.42a2.52,2.52,0,0,1-.58-1,2.57,2.57,0,1,1,2.1,1.72l-9.27,18.35L661.08,323a2.55,2.55,0,1,1,.53,1.61l-15.76,5.18,18.35,9.27a2.52,2.52,0,0,1,1-.58,2.57,2.57,0,1,1-1.72,2.1L644,330.81h0l-.45-.23-28.46,9.35h0l-20.82,41.2,26.86-8.82.23-.45h0l9.82-19.42a2.57,2.57,0,1,1,1.52.77l-9.27,18.35,15.76-5.18a2.55,2.55,0,1,1,.53,1.62L624,373.17l18.35,9.27a2.57,2.57,0,1,1-.77,1.52l-19.42-9.82h0l-.45-.23-28.46,9.35h0l-32.43,64.16,26.86-8.82.23-.45h0l9.82-19.42a2.52,2.52,0,0,1-.58-1,2.55,2.55,0,1,1,3.22,1.63,2.52,2.52,0,0,1-1.12.1l-9.27,18.35,15.76-5.18a2.55,2.55,0,1,1,.53,1.62l-15.76,5.18,18.35,9.27a2.57,2.57,0,1,1-.77,1.52l-19.42-9.82h0l-.45-.23-28.46,9.35h0l-23.61,46.71,26.86-8.82.23-.45h0L573,467.57a2.57,2.57,0,1,1,1.52.77l-9.27,18.35L581,481.51a2.55,2.55,0,1,1,.53,1.62l-15.76,5.18,18.35,9.27a2.57,2.57,0,1,1-.77,1.52l-19.42-9.82h0l-.45-.23L535,498.4h0l-17.67,35-2.39,1,13.14-26L519,480.52l-.45-.23h0l-19.42-9.82a2.57,2.57,0,1,1,.77-1.52l18.35,9.27L513,462.47a2.55,2.55,0,1,1,1.61-.53l5.18,15.76,9.27-18.35a2.52,2.52,0,0,1-.58-1,2.57,2.57,0,1,1,2.1,1.72l-9.82,19.42h0l-.23.45,8.6,26.18,34.52-68.29-9.13-27.79-.45-.23h0L534.69,400a2.57,2.57,0,1,1,.77-1.52l18.35,9.27L548.63,392a2.55,2.55,0,1,1,1.61-.53l5.18,15.76,9.27-18.35a2.52,2.52,0,0,1-.58-1,2.57,2.57,0,1,1,2.1,1.72l-9.82,19.42h0l-.23.45,8.6,26.18,18.31-36.22L574,371.71l-.45-.23h0l-19.42-9.82A2.53,2.53,0,0,1,553.13,362.25Z" fill="#96d0e0"/><path d="M498.22,583.57l9.21-4.9s14.05-81.18,22.4-121.66,55.5-155.32,55.5-155.32-45.58,90.1-63.16,157.72A993.22,993.22,0,0,0,498.22,583.57Z" fill="#8381d4"/><ellipse cx="564.53" cy="330.67" rx="28.4" ry="2.54" transform="translate(198.74 873.1) rotate(-86.37)" fill="#8381d4"/><ellipse cx="546.36" cy="354.09" rx="3.81" ry="42.62" transform="translate(-11.95 19.15) rotate(-1.99)" fill="#8381d4"/><ellipse cx="575.56" cy="365.51" rx="42.62" ry="3.81" transform="translate(-91.18 508.08) rotate(-44.49)" fill="#8381d4"/><ellipse cx="533.65" cy="381.43" rx="4.46" ry="50" transform="matrix(1, -0.03, 0.03, 1, -12.9, 18.73)" fill="#8381d4"/><ellipse cx="570.55" cy="394.92" rx="50" ry="4.46" transform="translate(-118.64 475.58) rotate(-41.37)" fill="#8381d4"/><ellipse cx="516.29" cy="424.74" rx="4.75" ry="53.19" transform="translate(-54.26 76.28) rotate(-8.03)" fill="#8381d4"/><ellipse cx="556.83" cy="434.87" rx="53.19" ry="4.75" transform="translate(-140.16 550.5) rotate(-47.41)" fill="#8381d4"/><ellipse cx="502.17" cy="465.44" rx="6.64" ry="56.57" transform="translate(-83.09 110.07) rotate(-11.56)" fill="#8381d4"/><ellipse cx="486.38" cy="499.36" rx="9.76" ry="46.54" transform="translate(-185.52 313.68) rotate(-30.31)" fill="#8381d4"/><ellipse cx="547.43" cy="473.22" rx="56.57" ry="5.05" transform="translate(-164.98 600.09) rotate(-50.94)" fill="#8381d4"/><ellipse cx="547.36" cy="502" rx="56.57" ry="7.04" transform="translate(-195.19 486.97) rotate(-41.37)" fill="#8381d4"/><ellipse cx="474.43" cy="536.03" rx="9.76" ry="46.54" transform="translate(-229.06 403.67) rotate(-37.83)" fill="#8381d4"/><ellipse cx="545.9" cy="542.93" rx="56.57" ry="7.04" transform="translate(-212.74 411.61) rotate(-35.02)" fill="#8381d4"/><ellipse cx="581.12" cy="339.85" rx="36.52" ry="3.26" transform="translate(-58.74 549.07) rotate(-48.43)" fill="#8381d4"/><path d="M457.15,500.59c-7.32-34,10.7-79,27-113.91,11.56-24.77,9.93-52.21,6.81-69.46a43,43,0,0,1,13.52,2.4c33.45,11.38,15.34,50.64,6.79,63.88s-4,15.3,9.25,11.05c9.08-2.91,39.19-2.27,36.72,24.31s-61.42,56.34-48.9,60.69c22.83,7.92,19.85,33.08-1.57,44-24.34,12.42,4.65,6.51-1.08,32.31-6.13,27.56-71.22,51.18-77.47,53.23C452.68,583.28,463.34,529.27,457.15,500.59Z" fill="#c1e9fa"/><path d="M395,547c-19.12-11.63-7.63-29.67,4.12-31.6,8.6-1.42,16.23.71,10.83-5.41-20.9-23.71-37.52-56.57-17.18-69.68s31.16,14,34.55,9.88-22.25-31.11-23.93-49,26.22-34,39.58-4.62c8.8,19.36,18.12-9,14.07-27.19-6.31-28.42,9.42-52.32,33.86-52.13,3.12,17.25,4.75,44.69-6.81,69.46-16.28,34.89-34.3,80-27,113.91,6.19,28.68-4.47,82.69-29,108.51l-.49.16S428,567,395,547Z" fill="#a2ddeb"/><path d="M435.2,464.67a2.19,2.19,0,1,1,1.35-1.88l16.1,6.84-5.28-13.09a2.17,2.17,0,1,1,1.34-.54L454,469.09l6.84-16.1a2.19,2.19,0,1,1,1.33.57l-7.24,17h0l-.17.39,8.77,21.74,25-58.81-9.31-23.09-.39-.17h0l-17-7.24a2.14,2.14,0,0,1-.78.55,2.17,2.17,0,1,1,1.2-2.82,2.15,2.15,0,0,1,.15.94l16.1,6.84-5.28-13.09a2.17,2.17,0,1,1,1.34-.54l5.28,13.09,6.84-16.1a2.15,2.15,0,0,1-.55-.78,2.19,2.19,0,1,1,1.88,1.35l-7.24,17h0l-.17.39L489.33,432l4.47-10.52L499.12,409l4.65-10.95-.16-.4h0l-6.93-17.17a2.19,2.19,0,1,1,1.34-.54l6.55,16.22,5.52-13a2.17,2.17,0,1,1,1.33.57l-5.52,13,16.22-6.55a2.19,2.19,0,1,1,.54,1.34l-17.17,6.93h0l-.4.16-4.65,10.95-5.32,12.51-7.77,18.28,22.31-9,.17-.39h0l7.24-17a2.14,2.14,0,0,1-.55-.78,2.19,2.19,0,1,1,1.88,1.35l-6.84,16.1,13.09-5.28a2.17,2.17,0,1,1,.54,1.34l-13.09,5.28,16.1,6.84a2.15,2.15,0,0,1,.78-.55,2.19,2.19,0,1,1-1.35,1.88l-17-7.24h0l-.39-.17-23.64,9.54h0l-15.37,36.15,22.31-9,.17-.39h0l7.24-17a2.19,2.19,0,1,1,1.33.57l-6.84,16.1,13.09-5.28a2.17,2.17,0,1,1,.54,1.34L496,470l16.1,6.84a2.19,2.19,0,1,1-.57,1.33l-17-7.24h0l-.39-.17-23.64,9.54h0l-23.93,56.3,22.31-9,.17-.39h0l7.24-17a2.14,2.14,0,0,1-.55-.78,2.17,2.17,0,1,1,2.82,1.2,2.15,2.15,0,0,1-.94.15l-6.84,16.1,13.09-5.28a2.17,2.17,0,1,1,.54,1.34l-13.09,5.28,16.1,6.84a2.19,2.19,0,1,1-.57,1.33l-17-7.24h0l-.39-.17-23.64,9.54h0l-17.42,41,22.31-9,.17-.39h0L458,553a2.19,2.19,0,1,1,1.33.57l-6.84,16.1,13.09-5.28a2.17,2.17,0,1,1,.54,1.34L453,571l16.1,6.84a2.19,2.19,0,1,1-.57,1.33l-17-7.24h0l-.39-.17-23.64,9.54h0l-13,30.68-1.7.31,9.43-22.18L412.83,567l-.39-.17h0l-17-7.24a2.19,2.19,0,1,1,.57-1.33l16.1,6.84L406.78,552a2.17,2.17,0,1,1,1.34-.54l5.28,13.09,6.84-16.1a2.15,2.15,0,0,1-.55-.78,2.19,2.19,0,1,1,1.88,1.35l-7.24,17h0l-.17.39,8.77,21.75,25.47-59.93-9.31-23.09-.39-.17h0l-17-7.24a2.19,2.19,0,1,1,.57-1.33l16.1,6.84-5.28-13.09a2.17,2.17,0,1,1,1.34-.54l5.28,13.09,6.84-16.1a2.15,2.15,0,0,1-.55-.78,2.19,2.19,0,1,1,1.88,1.35l-7.24,17h0l-.17.39,8.77,21.75,13.51-31.79-9.31-23.09-.39-.17h0l-17-7.24A2.15,2.15,0,0,1,435.2,464.67Z" fill="#8381d4"/><path d="M427.91,609.17l-6.24,1.37s3.75-62.57,4.53-92.36S412.74,400,412.74,400s17.21,70.73,18.45,121.09S427.91,609.17,427.91,609.17Z" fill="#96d0e0"/><ellipse cx="422.58" cy="423.8" rx="20.48" ry="1.83" transform="matrix(0.17, -0.99, 0.99, 0.17, -65.29, 770.43)" fill="#96d0e0"/><ellipse cx="431.49" cy="443.22" rx="30.73" ry="2.74" transform="translate(-109.07 743.93) rotate(-74.86)" fill="#96d0e0"/><ellipse cx="409.12" cy="446.44" rx="2.74" ry="30.73" transform="matrix(0.84, -0.54, 0.54, 0.84, -175.4, 288.25)" fill="#96d0e0"/><ellipse cx="435.93" cy="464.5" rx="36.05" ry="3.22" transform="translate(-126.33 763.94) rotate(-74.86)" fill="#96d0e0"/><ellipse cx="407.81" cy="467.91" rx="3.22" ry="36.05" transform="translate(-195.85 323.55) rotate(-35.48)" fill="#96d0e0"/><ellipse cx="441.01" cy="497.75" rx="38.35" ry="3.42" transform="translate(-182.48 729.06) rotate(-68.81)" fill="#96d0e0"/><ellipse cx="410.88" cy="498.21" rx="3.42" ry="38.35" transform="translate(-191.79 266.22) rotate(-29.43)" fill="#96d0e0"/><ellipse cx="444.25" cy="528.64" rx="40.78" ry="4.79" transform="translate(-221.72 711.13) rotate(-65.28)" fill="#96d0e0"/><ellipse cx="449.76" cy="555.05" rx="33.55" ry="7.04" transform="translate(-262.49 499.66) rotate(-46.54)" fill="#96d0e0"/><ellipse cx="411.19" cy="526.68" rx="3.64" ry="40.78" transform="translate(-188.77 232.54) rotate(-25.9)" fill="#96d0e0"/><ellipse cx="406.52" cy="546.89" rx="5.08" ry="40.78" transform="translate(-241.93 337.46) rotate(-35.48)" fill="#96d0e0"/><ellipse cx="452.13" cy="582.75" rx="33.55" ry="7.04" transform="translate(-266 414.51) rotate(-39.01)" fill="#96d0e0"/><ellipse cx="400.83" cy="575.86" rx="5.08" ry="40.78" transform="translate(-281.86 413.95) rotate(-41.82)" fill="#96d0e0"/><ellipse cx="409.43" cy="427.52" rx="2.35" ry="26.33" transform="translate(-154.11 246.34) rotate(-28.42)" fill="#96d0e0"/><rect x="354.75" y="166.96" width="24.73" height="356.15" fill="#604b3b"/><path d="M354.75,167v9.19a12.34,12.34,0,0,1,4-.66h0a12.36,12.36,0,0,1,12.36,12.36V502.21a12.36,12.36,0,0,1-12.36,12.36h0a12.34,12.34,0,0,1-4-.66v9.19h24.73V167Z" fill="#452f27" opacity="0.54"/><ellipse cx="367.11" cy="166.96" rx="12.36" ry="3.09" fill="#916f5d"/><polygon points="395.18 186.52 239.27 186.52 234.58 189.19 390.49 189.19 395.18 186.52" fill="#916f5d"/><polygon points="234.58 189.19 209.76 222.82 234.58 256.45 390.49 256.45 390.49 189.19 234.58 189.19" fill="#beac83"/><polygon points="395.18 253.77 390.49 256.45 390.49 189.19 395.18 186.52 395.18 253.77" fill="#604b3b"/><g opacity="0.12"><polygon points="299.95 189.19 234.58 189.19 209.76 222.82 234.58 256.45 261.13 256.45 299.95 189.19" fill="#fff"/><polygon points="375.17 189.19 336.34 256.45 390.49 256.45 390.49 189.19 375.17 189.19" fill="#fff"/></g><path d="M249.57,206.07h6.61a3.55,3.55,0,0,1,2.64,1,3.45,3.45,0,0,1,.95,2.53,3.8,3.8,0,0,1-.2,1.33,2.56,2.56,0,0,1-.55.9,2.09,2.09,0,0,1-.8.52,3.22,3.22,0,0,1-1,.19v.12a3.28,3.28,0,0,1,1,.18,2.91,2.91,0,0,1,1,.56,3.08,3.08,0,0,1,.75,1,3.29,3.29,0,0,1,.3,1.48,4.33,4.33,0,0,1-.26,1.51,3.86,3.86,0,0,1-.73,1.24,3.41,3.41,0,0,1-1.11.83,3.26,3.26,0,0,1-1.4.3h-7.21Zm3,5.57h2.94a1.15,1.15,0,0,0,1.25-1.25v-.58a1.15,1.15,0,0,0-1.25-1.25h-2.94Zm0,5.54h3.41a1.3,1.3,0,0,0,.93-.32,1.19,1.19,0,0,0,.34-.91v-.66a1.18,1.18,0,0,0-.34-.91,1.29,1.29,0,0,0-.93-.32h-3.41Z" fill="#452f27"/><path d="M262.57,219.67V206.07h9.26v2.63h-6.3v2.77h5.4v2.63h-5.4V217h6.3v2.63Z" fill="#452f27"/><path d="M274.4,219.67V206.07h6.43a4.37,4.37,0,0,1,1.71.32,3.83,3.83,0,0,1,1.3.89,3.9,3.9,0,0,1,.83,1.38,5.5,5.5,0,0,1,0,3.54,3.91,3.91,0,0,1-.83,1.36,3.8,3.8,0,0,1-1.3.89,4.37,4.37,0,0,1-1.71.32h-3.47v4.91Zm3-7.49h3.12a1.5,1.5,0,0,0,1-.34,1.28,1.28,0,0,0,.38-1V210a1.28,1.28,0,0,0-.38-1,1.5,1.5,0,0,0-1-.34h-3.12Z" fill="#452f27"/><path d="M295.34,214.1h-5.18v5.58h-3V206.07h3v5.4h5.18v-5.4h3v13.61h-3Z" fill="#452f27"/><path d="M302.12,217h2.38l.29-.74L300,206.07h3.12l1.91,4.23L306.2,213h.06l1-2.73,1.68-4.21h2.9L307,217.76a4.15,4.15,0,0,1-.48.89,2.41,2.41,0,0,1-.61.59,2.28,2.28,0,0,1-.81.33,5.11,5.11,0,0,1-1.06.1h-1.95Z" fill="#452f27"/><path d="M319.33,208.7v11h-3v-11h-3.68v-2.63H323v2.63Z" fill="#452f27"/><path d="M325,206.07h3V211h3.66a4.38,4.38,0,0,1,1.72.32,3.81,3.81,0,0,1,1.3.89,3.9,3.9,0,0,1,.83,1.37,5.5,5.5,0,0,1,0,3.54,3.9,3.9,0,0,1-.83,1.36,3.8,3.8,0,0,1-1.3.89,4.38,4.38,0,0,1-1.72.32H325Zm6.28,11a1.5,1.5,0,0,0,1-.34,1.28,1.28,0,0,0,.38-1v-.86a1.28,1.28,0,0,0-.38-1,1.5,1.5,0,0,0-1-.34H328v3.55Z" fill="#452f27"/><path d="M343.45,219.91a6.73,6.73,0,0,1-2.5-.44,4.94,4.94,0,0,1-1.89-1.31,6,6,0,0,1-1.21-2.16,9.66,9.66,0,0,1-.43-3,10,10,0,0,1,.43-3.05,6.38,6.38,0,0,1,1.21-2.24,5,5,0,0,1,1.89-1.37,6.38,6.38,0,0,1,2.5-.47,5.77,5.77,0,0,1,3.12.77,5.31,5.31,0,0,1,2,2.43L346,210.36a3,3,0,0,0-.85-1.37,2.44,2.44,0,0,0-1.69-.52,2.73,2.73,0,0,0-2.1.85,3.49,3.49,0,0,0-.79,2.47V214a3.49,3.49,0,0,0,.79,2.47,2.73,2.73,0,0,0,2.1.85,2.49,2.49,0,0,0,1.74-.59,3.61,3.61,0,0,0,1-1.43l2.42,1.4a6,6,0,0,1-2,2.41A5.41,5.41,0,0,1,343.45,219.91Z" fill="#452f27"/><path d="M350,217h1.21l1.11-1.73a2.17,2.17,0,0,1,.52-.58,1.91,1.91,0,0,1,.81-.31v-.12a3.6,3.6,0,0,1-2.41-1.17,3.91,3.91,0,0,1-.91-2.71,5.12,5.12,0,0,1,.29-1.77,4,4,0,0,1,.83-1.37,3.64,3.64,0,0,1,1.3-.89,4.43,4.43,0,0,1,1.7-.31h6.45v13.61h-3v-5h-1.79l-2.28,3.57a4.16,4.16,0,0,1-.54.72,2.26,2.26,0,0,1-.56.43,2.12,2.12,0,0,1-.61.21,4,4,0,0,1-.71.06H350Zm7.93-4.85v-3.55h-3.12a1.5,1.5,0,0,0-1,.34,1.28,1.28,0,0,0-.38,1v.84a1.3,1.3,0,0,0,.38,1,1.5,1.5,0,0,0,1,.34Z" fill="#452f27"/><path d="M253.21,233.59H248v5.58h-3V225.56h3V231h5.18v-5.4h3v13.61h-3Z" fill="#452f27"/><path d="M267.56,239.17l-1-3.24H262l-1,3.24h-3l4.48-13.61h3.67l4.42,13.61Zm-3.22-10.92h-.1l-1.5,5.17h3.12Z" fill="#452f27"/><path d="M277.13,225.56h8v2.63h-5v11h-3Z" fill="#452f27"/><path d="M284.87,236.53h1.62a3.17,3.17,0,0,0,.55-.83,6,6,0,0,0,.4-1.28,14.78,14.78,0,0,0,.25-1.88q.09-1.1.09-2.66v-4.33h9.61v13.61h-3v-11h-3.76v2.11a30.69,30.69,0,0,1-.14,3.11,16.48,16.48,0,0,1-.37,2.25,6.83,6.83,0,0,1-.55,1.54,4.08,4.08,0,0,1-.69,1,3.58,3.58,0,0,1-1.3.86,5.07,5.07,0,0,1-1.73.25h-1Z" fill="#452f27"/><path d="M308.77,239.17l-1-3.24h-4.54l-1,3.24h-3l4.48-13.61h3.67l4.42,13.61Zm-3.22-10.92h-.1l-1.5,5.17h3.12Z" fill="#452f27"/><path d="M313.74,225.56h6.61a3.55,3.55,0,0,1,2.64,1,3.45,3.45,0,0,1,.95,2.53,3.8,3.8,0,0,1-.2,1.33,2.56,2.56,0,0,1-.55.9,2.09,2.09,0,0,1-.8.52,3.22,3.22,0,0,1-1,.19v.12a3.28,3.28,0,0,1,1,.18,2.91,2.91,0,0,1,1,.56,3.08,3.08,0,0,1,.75,1,3.29,3.29,0,0,1,.3,1.48,4.33,4.33,0,0,1-.26,1.51,3.86,3.86,0,0,1-.73,1.24,3.41,3.41,0,0,1-1.11.83,3.26,3.26,0,0,1-1.4.3h-7.21Zm3,5.57h2.94a1.15,1.15,0,0,0,1.25-1.25v-.58a1.15,1.15,0,0,0-1.25-1.25H316.7Zm0,5.54h3.41a1.3,1.3,0,0,0,.93-.32,1.19,1.19,0,0,0,.34-.91v-.66a1.18,1.18,0,0,0-.34-.91,1.29,1.29,0,0,0-.93-.32H316.7Z" fill="#452f27"/><path d="M334.89,233.59H329.7v5.58h-3V225.56h3V231h5.18v-5.4h3v13.61h-3Z" fill="#452f27"/><path d="M341.67,236.53H344l.29-.74-4.76-10.23h3.12l1.91,4.23,1.13,2.71h.06l1-2.73,1.68-4.21h2.9l-4.79,11.7a4.15,4.15,0,0,1-.48.89,2.41,2.41,0,0,1-.61.59,2.28,2.28,0,0,1-.81.33,5.11,5.11,0,0,1-1.06.1h-1.95Z" fill="#452f27"/><path d="M364.5,239.4a5.67,5.67,0,0,1-4.05-1.47,6.82,6.82,0,0,1-1.89-4.34h-2.44v5.58h-3V225.56h3V231h2.48a7.41,7.41,0,0,1,.63-2.44,5.6,5.6,0,0,1,1.27-1.77,5.14,5.14,0,0,1,1.78-1.07,6.62,6.62,0,0,1,2.22-.36,6.51,6.51,0,0,1,2.46.45,5,5,0,0,1,1.89,1.34,6.18,6.18,0,0,1,1.21,2.2,11,11,0,0,1,0,6.1,6.18,6.18,0,0,1-1.21,2.2A4.94,4.94,0,0,1,367,239,6.51,6.51,0,0,1,364.5,239.4Zm0-2.63a2.61,2.61,0,0,0,2.09-.88,3.76,3.76,0,0,0,.75-2.51v-2a3.76,3.76,0,0,0-.75-2.51,2.94,2.94,0,0,0-4.19,0,3.76,3.76,0,0,0-.75,2.51v2a3.76,3.76,0,0,0,.75,2.51A2.61,2.61,0,0,0,364.5,236.77Z" fill="#452f27"/><circle cx="367.62" cy="198.49" r="4.06" fill="#4d4d4d"/><circle cx="367.18" cy="198.06" r="3.62" fill="#666"/><rect x="366.52" y="195.02" width="1.31" height="6.07" rx="0.65" ry="0.65" transform="translate(163.63 -166.1) rotate(32.45)" fill="#4d4d4d"/><g opacity="0.7"><path d="M364.79,198l-.21-.16a.46.46,0,0,0-.74.37,2.76,2.76,0,0,0,.41,1.37.46.46,0,0,0,.76,0l0,0a.46.46,0,0,0,0-.52,1.8,1.8,0,0,1-.25-.69A1.83,1.83,0,0,1,364.79,198Z" fill="gray"/><path d="M366.29,194.79a2.75,2.75,0,0,0-1.28.78.46.46,0,0,0,.12.72h0a.47.47,0,0,0,.58-.1,1.8,1.8,0,0,1,1.55-.55.46.46,0,0,0,.46-.23v0a.46.46,0,0,0-.34-.69A2.75,2.75,0,0,0,366.29,194.79Z" fill="gray"/></g><circle cx="370.28" cy="247.7" r="4.06" fill="#4d4d4d"/><circle cx="369.84" cy="247.27" r="3.62" fill="#666"/><rect x="369.18" y="244.23" width="1.31" height="6.07" rx="0.65" ry="0.65" transform="translate(190.44 -159.84) rotate(32.45)" fill="#4d4d4d"/><g opacity="0.7"><path d="M367.45,247.21l-.21-.16a.46.46,0,0,0-.74.37,2.76,2.76,0,0,0,.41,1.37.46.46,0,0,0,.76,0l0,0a.46.46,0,0,0,0-.52,1.8,1.8,0,0,1-.25-.69A1.83,1.83,0,0,1,367.45,247.21Z" fill="gray"/><path d="M368.95,244a2.75,2.75,0,0,0-1.28.78.46.46,0,0,0,.12.72h0a.47.47,0,0,0,.58-.1,1.8,1.8,0,0,1,1.55-.55.46.46,0,0,0,.46-.23v0a.46.46,0,0,0-.34-.69A2.75,2.75,0,0,0,368.95,244Z" fill="gray"/></g><path d="M249,205.53h6.61a3.55,3.55,0,0,1,2.64,1,3.45,3.45,0,0,1,.95,2.53,3.8,3.8,0,0,1-.2,1.33,2.56,2.56,0,0,1-.55.9,2.09,2.09,0,0,1-.8.52,3.22,3.22,0,0,1-1,.19v.12a3.28,3.28,0,0,1,1,.18,2.91,2.91,0,0,1,1,.56,3.08,3.08,0,0,1,.75,1,3.29,3.29,0,0,1,.3,1.48,4.33,4.33,0,0,1-.26,1.51,3.86,3.86,0,0,1-.73,1.24,3.41,3.41,0,0,1-1.11.83,3.26,3.26,0,0,1-1.4.3H249Zm3,5.57h2.94a1.15,1.15,0,0,0,1.25-1.25v-.58a1.15,1.15,0,0,0-1.25-1.25H252Zm0,5.54h3.41a1.3,1.3,0,0,0,.93-.32,1.19,1.19,0,0,0,.34-.91v-.66a1.18,1.18,0,0,0-.34-.91,1.29,1.29,0,0,0-.93-.32H252Z" fill="#604b3b"/><path d="M262,219.13V205.53h9.26v2.63H265v2.77h5.4v2.63H265v2.94h6.3v2.63Z" fill="#604b3b"/><path d="M273.86,219.13V205.53h6.43a4.37,4.37,0,0,1,1.71.32,3.83,3.83,0,0,1,1.3.89,3.9,3.9,0,0,1,.83,1.38,5.5,5.5,0,0,1,0,3.54,3.91,3.91,0,0,1-.83,1.36,3.8,3.8,0,0,1-1.3.89,4.37,4.37,0,0,1-1.71.32h-3.47v4.91Zm3-7.49h3.12a1.5,1.5,0,0,0,1-.34,1.28,1.28,0,0,0,.38-1v-.86a1.28,1.28,0,0,0-.38-1,1.5,1.5,0,0,0-1-.34h-3.12Z" fill="#604b3b"/><path d="M294.8,213.56h-5.18v5.58h-3V205.53h3v5.4h5.18v-5.4h3v13.61h-3Z" fill="#604b3b"/><path d="M301.58,216.5H304l.29-.74-4.76-10.23h3.12l1.91,4.23,1.13,2.71h.06l1-2.73,1.68-4.21h2.9l-4.79,11.7a4.15,4.15,0,0,1-.48.89,2.41,2.41,0,0,1-.61.59,2.28,2.28,0,0,1-.81.33,5.11,5.11,0,0,1-1.06.1h-1.95Z" fill="#604b3b"/><path d="M318.79,208.16v11h-3v-11h-3.68v-2.63h10.33v2.63Z" fill="#604b3b"/><path d="M324.5,205.53h3v4.91h3.66a4.38,4.38,0,0,1,1.72.32,3.81,3.81,0,0,1,1.3.89A3.9,3.9,0,0,1,335,213a5.5,5.5,0,0,1,0,3.54,3.9,3.9,0,0,1-.83,1.36,3.8,3.8,0,0,1-1.3.89,4.38,4.38,0,0,1-1.72.32H324.5Zm6.28,11a1.5,1.5,0,0,0,1-.34,1.28,1.28,0,0,0,.38-1v-.86a1.28,1.28,0,0,0-.38-1,1.5,1.5,0,0,0-1-.34h-3.31v3.55Z" fill="#604b3b"/><path d="M342.9,219.37a6.73,6.73,0,0,1-2.5-.44,4.94,4.94,0,0,1-1.89-1.31,6,6,0,0,1-1.21-2.16,9.66,9.66,0,0,1-.43-3,10,10,0,0,1,.43-3.05,6.38,6.38,0,0,1,1.21-2.24,5,5,0,0,1,1.89-1.37,6.38,6.38,0,0,1,2.5-.47,5.77,5.77,0,0,1,3.12.77,5.31,5.31,0,0,1,2,2.43l-2.55,1.33a3,3,0,0,0-.85-1.37,2.44,2.44,0,0,0-1.69-.52,2.73,2.73,0,0,0-2.1.85,3.49,3.49,0,0,0-.79,2.47v2.18a3.49,3.49,0,0,0,.79,2.47,2.73,2.73,0,0,0,2.1.85,2.49,2.49,0,0,0,1.74-.59,3.61,3.61,0,0,0,1-1.43l2.42,1.4a6,6,0,0,1-2,2.41A5.41,5.41,0,0,1,342.9,219.37Z" fill="#604b3b"/><path d="M349.41,216.5h1.21l1.11-1.73a2.17,2.17,0,0,1,.52-.58,1.91,1.91,0,0,1,.81-.31v-.12a3.6,3.6,0,0,1-2.41-1.17,3.91,3.91,0,0,1-.91-2.71,5.12,5.12,0,0,1,.29-1.77,4,4,0,0,1,.83-1.37,3.64,3.64,0,0,1,1.3-.89,4.43,4.43,0,0,1,1.7-.31h6.45v13.61h-3v-5h-1.79l-2.28,3.57a4.16,4.16,0,0,1-.54.72,2.26,2.26,0,0,1-.56.43,2.12,2.12,0,0,1-.61.21,4,4,0,0,1-.71.06h-1.44Zm7.93-4.85V208.1h-3.12a1.5,1.5,0,0,0-1,.34,1.28,1.28,0,0,0-.38,1v.84a1.3,1.3,0,0,0,.38,1,1.5,1.5,0,0,0,1,.34Z" fill="#604b3b"/><path d="M252.67,233h-5.18v5.58h-3V225h3v5.4h5.18V225h3v13.61h-3Z" fill="#604b3b"/><path d="M267,238.62l-1-3.24H261.5l-1,3.24h-3L262,225h3.67l4.42,13.61Zm-3.22-10.92h-.1l-1.5,5.17h3.12Z" fill="#604b3b"/><path d="M276.59,225h8v2.63h-5v11h-3Z" fill="#604b3b"/><path d="M284.33,236h1.62a3.17,3.17,0,0,0,.55-.83,6,6,0,0,0,.4-1.28,14.78,14.78,0,0,0,.25-1.88q.09-1.1.09-2.66V225h9.61v13.61h-3v-11h-3.76v2.11a30.69,30.69,0,0,1-.14,3.11,16.48,16.48,0,0,1-.37,2.25,6.83,6.83,0,0,1-.55,1.54,4.08,4.08,0,0,1-.69,1,3.58,3.58,0,0,1-1.3.86,5.07,5.07,0,0,1-1.73.25h-1Z" fill="#604b3b"/><path d="M308.23,238.62l-1-3.24h-4.54l-1,3.24h-3L303.22,225h3.67l4.42,13.61ZM305,227.71h-.1l-1.5,5.17h3.12Z" fill="#604b3b"/><path d="M313.2,225h6.61a3.55,3.55,0,0,1,2.64,1,3.45,3.45,0,0,1,.95,2.53,3.8,3.8,0,0,1-.2,1.33,2.56,2.56,0,0,1-.55.9,2.09,2.09,0,0,1-.8.52,3.22,3.22,0,0,1-1,.19v.12a3.28,3.28,0,0,1,1,.18,2.91,2.91,0,0,1,1,.56,3.08,3.08,0,0,1,.75,1,3.29,3.29,0,0,1,.3,1.48,4.33,4.33,0,0,1-.26,1.51,3.86,3.86,0,0,1-.73,1.24,3.41,3.41,0,0,1-1.11.83,3.26,3.26,0,0,1-1.4.3H313.2Zm3,5.57h2.94a1.15,1.15,0,0,0,1.25-1.25v-.58a1.15,1.15,0,0,0-1.25-1.25h-2.94Zm0,5.54h3.41a1.3,1.3,0,0,0,.93-.32,1.19,1.19,0,0,0,.34-.91v-.66a1.18,1.18,0,0,0-.34-.91,1.29,1.29,0,0,0-.93-.32h-3.41Z" fill="#604b3b"/><path d="M334.35,233h-5.18v5.58h-3V225h3v5.4h5.18V225h3v13.61h-3Z" fill="#604b3b"/><path d="M341.13,236h2.38l.29-.74L339,225h3.12l1.91,4.23L345.2,232h.06l1-2.73,1.68-4.21h2.9L346,236.71a4.15,4.15,0,0,1-.48.89,2.41,2.41,0,0,1-.61.59,2.28,2.28,0,0,1-.81.33,5.11,5.11,0,0,1-1.06.1h-1.95Z" fill="#604b3b"/><path d="M364,238.86a5.67,5.67,0,0,1-4.05-1.47A6.82,6.82,0,0,1,358,233h-2.44v5.58h-3V225h3v5.4H358a7.41,7.41,0,0,1,.63-2.44,5.6,5.6,0,0,1,1.27-1.77,5.14,5.14,0,0,1,1.78-1.07,6.62,6.62,0,0,1,2.22-.36,6.51,6.51,0,0,1,2.46.45,5,5,0,0,1,1.89,1.34,6.18,6.18,0,0,1,1.21,2.2,11,11,0,0,1,0,6.1,6.18,6.18,0,0,1-1.21,2.2,4.94,4.94,0,0,1-1.89,1.33A6.51,6.51,0,0,1,364,238.86Zm0-2.63a2.61,2.61,0,0,0,2.09-.88,3.76,3.76,0,0,0,.75-2.51v-2a3.76,3.76,0,0,0-.75-2.51,2.94,2.94,0,0,0-4.19,0,3.76,3.76,0,0,0-.75,2.51v2a3.76,3.76,0,0,0,.75,2.51A2.61,2.61,0,0,0,364,236.23Z" fill="#604b3b"/><polygon points="354.75 263.16 379.48 263.16 379.48 256.52 372.18 256.45 354.75 256.45 354.75 263.16" fill="#452f27"/><polygon points="478.83 265.84 503.65 299.46 478.83 333.09 328.8 333.09 328.8 265.84 478.83 265.84" fill="#beac83"/><g opacity="0.1"><polygon points="401.06 265.84 328.8 265.84 328.8 333.09 368.39 333.09 401.06 265.84" fill="#fff"/><polygon points="478.83 265.84 471.56 265.84 438.89 333.09 478.83 333.09 503.65 299.46 478.83 265.84" fill="#fff"/></g><path d="M372.06,298.19a7.51,7.51,0,0,1-2.75-.49,6.25,6.25,0,0,1-2.24-1.52l1.95-2a4.68,4.68,0,0,0,1.37,1,3.89,3.89,0,0,0,1.67.35,3.18,3.18,0,0,0,1.77-.41,1.3,1.3,0,0,0,.6-1.14v-.16a1.28,1.28,0,0,0-.47-1.11,2.52,2.52,0,0,0-1.46-.34h-2.36v-2.63h2.24q1.81,0,1.81-1.5v-.1q0-1.42-2-1.42a4.16,4.16,0,0,0-1.6.32,3.56,3.56,0,0,0-1.31.91l-1.79-1.87a6,6,0,0,1,2.08-1.46,6.54,6.54,0,0,1,2.62-.53,8.14,8.14,0,0,1,2.16.26,4.91,4.91,0,0,1,1.63.76,3.45,3.45,0,0,1,1,1.2,3.41,3.41,0,0,1,.36,1.58,3,3,0,0,1-.22,1.22,2.54,2.54,0,0,1-.6.87,2.74,2.74,0,0,1-.9.55,4.32,4.32,0,0,1-1.1.25v.12a4.34,4.34,0,0,1,1.14.23,2.9,2.9,0,0,1,1,.57,2.87,2.87,0,0,1,.68.92,2.92,2.92,0,0,1,.26,1.29,3.82,3.82,0,0,1-.39,1.73,4,4,0,0,1-1.1,1.34,5.16,5.16,0,0,1-1.73.88A7.84,7.84,0,0,1,372.06,298.19Z" fill="#452f27"/><path d="M387.95,298l-1-3.24h-4.54l-1,3.24h-3l4.48-13.61h3.67L391,298ZM384.73,287h-.1l-1.5,5.17h3.12Z" fill="#452f27"/><path d="M392.92,284.35h3v5.4h2l2-3.79a3.57,3.57,0,0,1,1-1.21,2.4,2.4,0,0,1,1.43-.4h1.21V287h-1.21l-1.4,2.64a2.56,2.56,0,0,1-.61.81,2.49,2.49,0,0,1-.81.44V291a2,2,0,0,1,.87.38,2.36,2.36,0,0,1,.63.85l1.6,3.11h1.21V298h-1.54a2.43,2.43,0,0,1-1.35-.35,3.33,3.33,0,0,1-1-1.31l-2-3.92h-2V298h-3Z" fill="#452f27"/><path d="M414.46,298l-1-3.24h-4.54L408,298h-3l4.48-13.61h3.67L417.54,298ZM411.24,287h-.1l-1.5,5.17h3.12Z" fill="#452f27"/><path d="M423.48,298.19a7.51,7.51,0,0,1-2.75-.49,6.25,6.25,0,0,1-2.24-1.52l1.95-2a4.68,4.68,0,0,0,1.37,1,3.89,3.89,0,0,0,1.67.35,3.18,3.18,0,0,0,1.77-.41,1.3,1.3,0,0,0,.6-1.14v-.16a1.28,1.28,0,0,0-.47-1.11,2.52,2.52,0,0,0-1.46-.34h-2.36v-2.63h2.24q1.81,0,1.81-1.5v-.1q0-1.42-2-1.42a4.16,4.16,0,0,0-1.6.32,3.56,3.56,0,0,0-1.31.91l-1.79-1.87a6,6,0,0,1,2.08-1.46,6.54,6.54,0,0,1,2.62-.53,8.14,8.14,0,0,1,2.16.26,4.91,4.91,0,0,1,1.63.76,3.45,3.45,0,0,1,1,1.2,3.41,3.41,0,0,1,.36,1.58,3,3,0,0,1-.22,1.22,2.54,2.54,0,0,1-.6.87,2.74,2.74,0,0,1-.9.55,4.32,4.32,0,0,1-1.1.25v.12a4.34,4.34,0,0,1,1.14.23,2.9,2.9,0,0,1,1,.57,2.87,2.87,0,0,1,.68.92,2.92,2.92,0,0,1,.26,1.29,3.82,3.82,0,0,1-.39,1.73,4,4,0,0,1-1.1,1.34,5.16,5.16,0,0,1-1.73.88A7.84,7.84,0,0,1,423.48,298.19Z" fill="#452f27"/><path d="M439.37,298l-1-3.24h-4.54l-1,3.24h-3l4.48-13.61H438L442.45,298ZM436.15,287h-.1l-1.5,5.17h3.12Z" fill="#452f27"/><path d="M448.74,287v11h-3V287H442.1v-2.63h10.33V287Z" fill="#452f27"/><path d="M454.45,284.35h3v4.91h3.66a4.38,4.38,0,0,1,1.72.32,3.81,3.81,0,0,1,1.3.89,3.9,3.9,0,0,1,.83,1.37,5.5,5.5,0,0,1,0,3.54,3.9,3.9,0,0,1-.83,1.36,3.8,3.8,0,0,1-1.3.89,4.38,4.38,0,0,1-1.72.32h-6.63Zm6.28,11a1.5,1.5,0,0,0,1-.34,1.28,1.28,0,0,0,.38-1v-.86a1.28,1.28,0,0,0-.38-1,1.5,1.5,0,0,0-1-.34h-3.31v3.55Z" fill="#452f27"/><path d="M385.28,314.81h1.62a3.17,3.17,0,0,0,.55-.83,6,6,0,0,0,.4-1.28,14.78,14.78,0,0,0,.25-1.88q.09-1.1.09-2.66v-4.33h9.61v13.61h-3v-11h-3.76v2.11a30.69,30.69,0,0,1-.14,3.11,16.48,16.48,0,0,1-.37,2.25,6.83,6.83,0,0,1-.55,1.54,4.08,4.08,0,0,1-.69,1,3.58,3.58,0,0,1-1.3.86,5.07,5.07,0,0,1-1.73.25h-1Z" fill="#452f27"/><path d="M400.79,303.84h2.88v6.65l-.31,2.87h.06l1.34-2.59,4.48-6.92h2.65v13.61H409V310.8l.31-2.87h-.06l-1.35,2.59-4.48,6.92h-2.65Z" fill="#452f27"/><path d="M413.73,314.81h1.48a3.48,3.48,0,0,0,.62-.83,5.74,5.74,0,0,0,.51-1.3,12,12,0,0,0,.33-1.89,25.52,25.52,0,0,0,.12-2.63v-4.33h9.77v11h2.2v5.56H426v-2.92h-9.45v2.92h-2.79Zm9.86,0v-8.34h-3.92v2.12q0,1.34-.08,2.32a16.56,16.56,0,0,1-.21,1.71,6.19,6.19,0,0,1-.35,1.24,4.84,4.84,0,0,1-.47.88v.06Z" fill="#452f27"/><path d="M430.79,303.84h3v4.91h3.47a4.37,4.37,0,0,1,1.71.32,3.81,3.81,0,0,1,1.3.89,3.91,3.91,0,0,1,.83,1.37,5.5,5.5,0,0,1,0,3.54,3.91,3.91,0,0,1-.83,1.36,3.8,3.8,0,0,1-1.3.89,4.37,4.37,0,0,1-1.71.32h-6.43Zm6.08,11a1.5,1.5,0,0,0,1-.34,1.28,1.28,0,0,0,.38-1v-.86a1.28,1.28,0,0,0-.38-1,1.5,1.5,0,0,0-1-.34h-3.12v3.55Zm6.14-11h3v13.61h-3Z" fill="#452f27"/><circle cx="366.13" cy="273.14" r="3.96" fill="#4d4d4d"/><circle cx="365.7" cy="272.72" r="3.54" fill="#666"/><rect x="365.06" y="269.75" width="1.28" height="5.93" rx="0.41" ry="0.41" transform="matrix(0.84, 0.54, -0.54, 0.84, 203.46, -153.65)" fill="#4d4d4d"/><g opacity="0.7"><path d="M363.37,272.66l-.21-.15a.45.45,0,0,0-.72.37,2.69,2.69,0,0,0,.4,1.34.45.45,0,0,0,.75,0v0a.45.45,0,0,0,0-.5,1.76,1.76,0,0,1-.24-.67A1.79,1.79,0,0,1,363.37,272.66Z" fill="gray"/><path d="M364.83,269.53a2.69,2.69,0,0,0-1.25.76.45.45,0,0,0,.11.7h0a.46.46,0,0,0,.56-.1,1.75,1.75,0,0,1,1.51-.54.45.45,0,0,0,.45-.22v0a.45.45,0,0,0-.33-.67A2.68,2.68,0,0,0,364.83,269.53Z" fill="gray"/></g><circle cx="366.13" cy="325.27" r="3.96" fill="#4d4d4d"/><circle cx="365.7" cy="324.84" r="3.54" fill="#666"/><rect x="365.06" y="321.88" width="1.28" height="5.93" rx="0.41" ry="0.41" transform="matrix(0.84, 0.54, -0.54, 0.84, 231.43, -145.51)" fill="#4d4d4d"/><g opacity="0.7"><path d="M363.37,324.79l-.21-.15a.45.45,0,0,0-.72.37,2.69,2.69,0,0,0,.4,1.34.45.45,0,0,0,.75,0v0a.45.45,0,0,0,0-.5,1.76,1.76,0,0,1-.24-.67A1.79,1.79,0,0,1,363.37,324.79Z" fill="gray"/><path d="M364.83,321.66a2.69,2.69,0,0,0-1.25.76.45.45,0,0,0,.11.7h0a.46.46,0,0,0,.56-.1,1.75,1.75,0,0,1,1.51-.54.45.45,0,0,0,.45-.22v0a.45.45,0,0,0-.33-.67A2.68,2.68,0,0,0,364.83,321.66Z" fill="gray"/></g><path d="M371.52,297.65a7.51,7.51,0,0,1-2.75-.49,6.25,6.25,0,0,1-2.24-1.52l1.95-2a4.68,4.68,0,0,0,1.37,1,3.89,3.89,0,0,0,1.67.35,3.18,3.18,0,0,0,1.77-.41,1.3,1.3,0,0,0,.6-1.14v-.16a1.28,1.28,0,0,0-.47-1.11,2.52,2.52,0,0,0-1.46-.34h-2.36v-2.63h2.24q1.81,0,1.81-1.5v-.1q0-1.42-2-1.42a4.16,4.16,0,0,0-1.6.32,3.56,3.56,0,0,0-1.31.91l-1.79-1.87A6,6,0,0,1,369,284.1a6.54,6.54,0,0,1,2.62-.53,8.14,8.14,0,0,1,2.16.26,4.91,4.91,0,0,1,1.63.76,3.45,3.45,0,0,1,1,1.2,3.41,3.41,0,0,1,.36,1.58,3,3,0,0,1-.22,1.22,2.54,2.54,0,0,1-.6.87,2.74,2.74,0,0,1-.9.55,4.32,4.32,0,0,1-1.1.25v.12a4.34,4.34,0,0,1,1.14.23,2.9,2.9,0,0,1,1,.57,2.87,2.87,0,0,1,.68.92,2.92,2.92,0,0,1,.26,1.29,3.82,3.82,0,0,1-.39,1.73,4,4,0,0,1-1.1,1.34,5.16,5.16,0,0,1-1.73.88A7.84,7.84,0,0,1,371.52,297.65Z" fill="#604b3b"/><path d="M387.4,297.41l-1-3.24h-4.54l-1,3.24h-3l4.48-13.61h3.67l4.42,13.61Zm-3.22-10.92h-.1l-1.5,5.17h3.12Z" fill="#604b3b"/><path d="M392.38,283.81h3v5.4h2l2-3.79a3.57,3.57,0,0,1,1-1.21,2.4,2.4,0,0,1,1.43-.4H403v2.63h-1.21l-1.4,2.64a2.56,2.56,0,0,1-.61.81,2.49,2.49,0,0,1-.81.44v.12a2,2,0,0,1,.87.38,2.36,2.36,0,0,1,.63.85l1.6,3.11h1.21v2.63h-1.54a2.43,2.43,0,0,1-1.35-.35,3.33,3.33,0,0,1-1-1.31l-2-3.92h-2v5.58h-3Z" fill="#604b3b"/><path d="M413.91,297.41l-1-3.24H408.4l-1,3.24h-3l4.48-13.61h3.67L417,297.41ZM410.7,286.5h-.1l-1.5,5.17h3.12Z" fill="#604b3b"/><path d="M422.94,297.65a7.51,7.51,0,0,1-2.75-.49,6.25,6.25,0,0,1-2.24-1.52l1.95-2a4.68,4.68,0,0,0,1.37,1,3.89,3.89,0,0,0,1.67.35,3.18,3.18,0,0,0,1.77-.41,1.3,1.3,0,0,0,.6-1.14v-.16a1.28,1.28,0,0,0-.47-1.11,2.52,2.52,0,0,0-1.46-.34H421v-2.63h2.24q1.81,0,1.81-1.5v-.1q0-1.42-2-1.42a4.16,4.16,0,0,0-1.6.32,3.56,3.56,0,0,0-1.31.91l-1.79-1.87a6,6,0,0,1,2.08-1.46,6.54,6.54,0,0,1,2.62-.53,8.14,8.14,0,0,1,2.16.26,4.91,4.91,0,0,1,1.63.76,3.45,3.45,0,0,1,1,1.2,3.41,3.41,0,0,1,.36,1.58,3,3,0,0,1-.22,1.22,2.54,2.54,0,0,1-.6.87,2.74,2.74,0,0,1-.9.55,4.32,4.32,0,0,1-1.1.25v.12a4.34,4.34,0,0,1,1.14.23,2.9,2.9,0,0,1,1,.57,2.87,2.87,0,0,1,.68.92,2.92,2.92,0,0,1,.26,1.29,3.82,3.82,0,0,1-.39,1.73,4,4,0,0,1-1.1,1.34,5.16,5.16,0,0,1-1.73.88A7.84,7.84,0,0,1,422.94,297.65Z" fill="#604b3b"/><path d="M438.83,297.41l-1-3.24h-4.54l-1,3.24h-3l4.48-13.61h3.67l4.42,13.61Zm-3.22-10.92h-.1l-1.5,5.17h3.12Z" fill="#604b3b"/><path d="M448.2,286.44v11h-3v-11h-3.68v-2.63h10.33v2.63Z" fill="#604b3b"/><path d="M453.91,283.81h3v4.91h3.66a4.38,4.38,0,0,1,1.72.32,3.81,3.81,0,0,1,1.3.89,3.9,3.9,0,0,1,.83,1.37,5.5,5.5,0,0,1,0,3.54,3.9,3.9,0,0,1-.83,1.36,3.8,3.8,0,0,1-1.3.89,4.38,4.38,0,0,1-1.72.32h-6.63Zm6.28,11a1.5,1.5,0,0,0,1-.34,1.28,1.28,0,0,0,.38-1v-.86a1.28,1.28,0,0,0-.38-1,1.5,1.5,0,0,0-1-.34h-3.31v3.55Z" fill="#604b3b"/><path d="M384.73,314.27h1.62a3.17,3.17,0,0,0,.55-.83,6,6,0,0,0,.4-1.28,14.78,14.78,0,0,0,.25-1.88q.09-1.1.09-2.66V303.3h9.61V316.9h-3v-11h-3.76V308a30.69,30.69,0,0,1-.14,3.11,16.48,16.48,0,0,1-.37,2.25,6.83,6.83,0,0,1-.55,1.54,4.08,4.08,0,0,1-.69,1,3.58,3.58,0,0,1-1.3.86,5.07,5.07,0,0,1-1.73.25h-1Z" fill="#604b3b"/><path d="M400.25,303.3h2.88v6.65l-.31,2.87h.06l1.34-2.59,4.48-6.92h2.65V316.9h-2.88v-6.65l.31-2.87h-.06L407.38,310l-4.48,6.92h-2.65Z" fill="#604b3b"/><path d="M413.19,314.27h1.48a3.48,3.48,0,0,0,.62-.83,5.74,5.74,0,0,0,.51-1.3,12,12,0,0,0,.33-1.89,25.52,25.52,0,0,0,.12-2.63V303.3H426v11h2.2v5.56h-2.79V316.9H416v2.92h-2.79Zm9.86,0v-8.34h-3.92V308q0,1.34-.08,2.32a16.56,16.56,0,0,1-.21,1.71,6.19,6.19,0,0,1-.35,1.24,4.84,4.84,0,0,1-.47.88v.06Z" fill="#604b3b"/><path d="M430.25,303.3h3v4.91h3.47a4.37,4.37,0,0,1,1.71.32,3.81,3.81,0,0,1,1.3.89,3.91,3.91,0,0,1,.83,1.37,5.5,5.5,0,0,1,0,3.54,3.91,3.91,0,0,1-.83,1.36,3.8,3.8,0,0,1-1.3.89,4.37,4.37,0,0,1-1.71.32h-6.43Zm6.08,11a1.5,1.5,0,0,0,1-.34,1.28,1.28,0,0,0,.38-1v-.86a1.28,1.28,0,0,0-.38-1,1.5,1.5,0,0,0-1-.34h-3.12v3.55Zm6.14-11h3V316.9h-3Z" fill="#604b3b"/><polygon points="478.83 265.84 483.53 263.16 506.76 295.4 503.65 299.46 478.83 265.84" fill="#604b3b"/><polygon points="483.53 263.16 333.49 263.16 328.8 265.84 478.83 265.84 483.53 263.16" fill="#916f5d"/><rect x="354.75" y="333.72" width="24.73" height="10.81" fill="#452f27"/><path d="M183.93,154.89a7.87,7.87,0,0,1-3-.54,6,6,0,0,1-2.29-1.62,7.51,7.51,0,0,1-1.46-2.67,13.4,13.4,0,0,1,0-7.39,7.5,7.5,0,0,1,1.46-2.67,6,6,0,0,1,2.29-1.62,8.41,8.41,0,0,1,5.95,0,6,6,0,0,1,2.29,1.62,7.5,7.5,0,0,1,1.46,2.67,13.4,13.4,0,0,1,0,7.39,7.51,7.51,0,0,1-1.46,2.67,6,6,0,0,1-2.29,1.62A7.88,7.88,0,0,1,183.93,154.89Zm0-3.19a3.16,3.16,0,0,0,2.54-1.06,4.55,4.55,0,0,0,.91-3v-2.45a4.56,4.56,0,0,0-.91-3,3.56,3.56,0,0,0-5.08,0,4.56,4.56,0,0,0-.91,3v2.45a4.55,4.55,0,0,0,.91,3A3.16,3.16,0,0,0,183.93,151.7Z" fill="#fff"/><path d="M194.17,138.13h3.49v8l-.38,3.47h.07l1.63-3.14,5.43-8.38h3.21V154.6h-3.49v-8l.38-3.47h-.07l-1.63,3.14-5.43,8.38h-3.21Zm6.77-1a4.28,4.28,0,0,1-2.53-.68,4.46,4.46,0,0,1-1.51-2l-.5-1.2,2.72-1,.76,2.38a1.61,1.61,0,0,0,.45.12,4,4,0,0,0,1.23,0,1.62,1.62,0,0,0,.45-.12l.76-2.38,2.72,1-.5,1.2a4.47,4.47,0,0,1-1.51,2A4.28,4.28,0,0,1,200.94,137.14Z" fill="#fff"/><path d="M213.15,150.61a2.08,2.08,0,0,1,1.57.53,1.88,1.88,0,0,1,.51,1.36V153a6.28,6.28,0,0,1-.7,2.83,6.44,6.44,0,0,1-1.83,2.27h-2.36a13.29,13.29,0,0,0,1.42-1.55,5.66,5.66,0,0,0,.9-1.71,1.8,1.8,0,0,1-1.2-.65,1.94,1.94,0,0,1-.38-1.19v-.47a1.88,1.88,0,0,1,.51-1.36A2.08,2.08,0,0,1,213.15,150.61Z" fill="#fff"/><path d="M224.15,138.13h3.59v6.54h2.38l2.45-4.59a4.34,4.34,0,0,1,1.22-1.47,2.91,2.91,0,0,1,1.74-.48H237v3.19h-1.46l-1.7,3.2a3.09,3.09,0,0,1-.74,1,3,3,0,0,1-1,.53v.14a2.4,2.4,0,0,1,1.05.46,2.86,2.86,0,0,1,.77,1l1.94,3.76h1.46v3.19h-1.86a2.94,2.94,0,0,1-1.64-.42,4,4,0,0,1-1.24-1.58l-2.45-4.74h-2.38v6.75h-3.59Z" fill="#fff"/><path d="M250.23,154.6,249,150.69h-5.5l-1.18,3.92h-3.63l5.43-16.48h4.44L254,154.6Zm-3.9-13.22h-.12l-1.82,6.26h3.78Z" fill="#fff"/><path d="M255.37,151.42h1.46l1.82-3.85a2.22,2.22,0,0,1,1.77-1.39V146a2.57,2.57,0,0,1-1-.51,3.31,3.31,0,0,1-.75-1.05l-1.53-3.16h-1.46v-3.19h1.49a3.07,3.07,0,0,1,1.76.47,3.68,3.68,0,0,1,1.19,1.51l2.22,4.58h2.15v-6.56h3.59v6.56h2.15l2.22-4.58a3.68,3.68,0,0,1,1.19-1.51,3.07,3.07,0,0,1,1.76-.47h1.46v3.19h-1.46l-1.51,3.16a3.33,3.33,0,0,1-.76,1.05,2.57,2.57,0,0,1-1,.51v.14a2.22,2.22,0,0,1,1.77,1.39l1.82,3.85h1.46v3.19h-1.89a3,3,0,0,1-1.66-.44,3.71,3.71,0,0,1-1.22-1.62l-2.22-4.7H268.1v6.75h-3.59v-6.75h-2.15l-2.22,4.7a3.72,3.72,0,0,1-1.22,1.62,3,3,0,0,1-1.66.44h-1.89Z" fill="#fff"/><path d="M280,154.6V138.13h11.21v3.19h-7.62v3.35h6.54v3.19h-6.54v3.56h7.62v3.19Z" fill="#fff"/><path d="M301.19,141.31V154.6H297.6V141.31h-4.46v-3.19h12.51v3.19Z" fill="#fff"/><path d="M314.17,154.89a8.17,8.17,0,0,1-3-.53,6,6,0,0,1-2.29-1.58,7.28,7.28,0,0,1-1.46-2.62,11.69,11.69,0,0,1-.52-3.67,12.07,12.07,0,0,1,.52-3.69,7.74,7.74,0,0,1,1.46-2.71,6.11,6.11,0,0,1,2.29-1.66,7.71,7.71,0,0,1,3-.57,7,7,0,0,1,3.78.93,6.43,6.43,0,0,1,2.38,2.94l-3.09,1.61a3.67,3.67,0,0,0-1-1.66,3,3,0,0,0-2-.63,3.3,3.3,0,0,0-2.54,1,4.23,4.23,0,0,0-1,3v2.64a4.22,4.22,0,0,0,1,3,3.3,3.3,0,0,0,2.54,1,3,3,0,0,0,2.11-.72,4.37,4.37,0,0,0,1.17-1.73l2.93,1.7a7.32,7.32,0,0,1-2.42,2.91A6.56,6.56,0,0,1,314.17,154.89Z" fill="#fff"/><path d="M322.06,151.42h1.46l1.35-2.1a2.64,2.64,0,0,1,.63-.71,2.31,2.31,0,0,1,1-.38v-.14a4.36,4.36,0,0,1-2.91-1.42,4.74,4.74,0,0,1-1.1-3.28,6.21,6.21,0,0,1,.35-2.15,4.83,4.83,0,0,1,1-1.67,4.41,4.41,0,0,1,1.57-1.07,5.38,5.38,0,0,1,2.05-.38h7.81V154.6h-3.59v-6h-2.17l-2.76,4.32a5,5,0,0,1-.65.87,2.69,2.69,0,0,1-.67.52,2.49,2.49,0,0,1-.74.26,4.86,4.86,0,0,1-.86.07h-1.75Zm9.61-5.88v-4.3h-3.78a1.82,1.82,0,0,0-1.26.41,1.55,1.55,0,0,0-.46,1.22v1a1.58,1.58,0,0,0,.46,1.24,1.82,1.82,0,0,0,1.26.41Z" fill="#fff"/><path d="M344.46,138.13h8a4.3,4.3,0,0,1,3.2,1.16,4.17,4.17,0,0,1,1.15,3.07,4.58,4.58,0,0,1-.25,1.6,3.08,3.08,0,0,1-.66,1.09,2.54,2.54,0,0,1-1,.63,3.92,3.92,0,0,1-1.19.22V146a4,4,0,0,1,1.24.21,3.53,3.53,0,0,1,1.19.67,3.71,3.71,0,0,1,.91,1.19,4,4,0,0,1,.37,1.79,5.23,5.23,0,0,1-.32,1.83,4.66,4.66,0,0,1-.89,1.5,4.12,4.12,0,0,1-1.35,1,3.94,3.94,0,0,1-1.7.37h-8.73Zm3.59,6.75h3.56a1.39,1.39,0,0,0,1.51-1.51v-.71a1.39,1.39,0,0,0-1.51-1.51H348Zm0,6.7h4.13a1.57,1.57,0,0,0,1.12-.39,1.43,1.43,0,0,0,.41-1.1v-.8a1.43,1.43,0,0,0-.41-1.1,1.57,1.57,0,0,0-1.12-.39H348Z" fill="#fff"/><path d="M360.2,138.13h3.59v5.95H368a5.28,5.28,0,0,1,2.08.39,4.59,4.59,0,0,1,1.57,1.07,4.72,4.72,0,0,1,1,1.66,6.64,6.64,0,0,1,0,4.28,4.73,4.73,0,0,1-1,1.65,4.62,4.62,0,0,1-1.57,1.07,5.29,5.29,0,0,1-2.08.39H360.2Zm7.36,13.36a1.82,1.82,0,0,0,1.26-.41,1.55,1.55,0,0,0,.46-1.22v-1a1.55,1.55,0,0,0-.46-1.22,1.82,1.82,0,0,0-1.26-.41h-3.78v4.3ZM375,138.13h3.59V154.6H375Z" fill="#fff"/><path d="M387.79,138.13h13.1V154.6h-3.59V141.31h-5.93V154.6h-3.59Z" fill="#fff"/><path d="M411.14,154.89a7.87,7.87,0,0,1-3-.54,6,6,0,0,1-2.29-1.62,7.51,7.51,0,0,1-1.46-2.67,13.4,13.4,0,0,1,0-7.39,7.5,7.5,0,0,1,1.46-2.67,6,6,0,0,1,2.29-1.62,8.41,8.41,0,0,1,5.95,0A6,6,0,0,1,416.4,140a7.5,7.5,0,0,1,1.46,2.67,13.4,13.4,0,0,1,0,7.39,7.51,7.51,0,0,1-1.46,2.67,6,6,0,0,1-2.29,1.62A7.88,7.88,0,0,1,411.14,154.89Zm0-3.19a3.16,3.16,0,0,0,2.54-1.06,4.55,4.55,0,0,0,.91-3v-2.45a4.56,4.56,0,0,0-.91-3,3.56,3.56,0,0,0-5.08,0,4.56,4.56,0,0,0-.91,3v2.45a4.55,4.55,0,0,0,.91,3A3.16,3.16,0,0,0,411.14,151.7Z" fill="#fff"/><path d="M427.66,141.31V154.6h-3.59V141.31h-4.46v-3.19h12.51v3.19Z" fill="#fff"/><path d="M434.58,154.6V138.13h11.21v3.19h-7.62v3.35h6.54v3.19h-6.54v3.56h7.62v3.19Z" fill="#fff"/><path d="M448.91,154.6V138.13h7.79a5.28,5.28,0,0,1,2.08.39,4.59,4.59,0,0,1,1.57,1.07,4.72,4.72,0,0,1,1,1.66,6.64,6.64,0,0,1,0,4.28,4.73,4.73,0,0,1-1,1.65,4.62,4.62,0,0,1-1.57,1.07,5.29,5.29,0,0,1-2.08.39h-4.2v5.95Zm3.59-9.06h3.78a1.82,1.82,0,0,0,1.26-.41,1.55,1.55,0,0,0,.46-1.22v-1a1.55,1.55,0,0,0-.46-1.22,1.82,1.82,0,0,0-1.26-.41h-3.78Z" fill="#fff"/><path d="M463.56,151.42H465l1.35-2.1a2.64,2.64,0,0,1,.63-.71,2.31,2.31,0,0,1,1-.38v-.14a4.36,4.36,0,0,1-2.91-1.42,4.74,4.74,0,0,1-1.1-3.28,6.21,6.21,0,0,1,.35-2.15,4.83,4.83,0,0,1,1-1.67,4.41,4.41,0,0,1,1.57-1.07,5.38,5.38,0,0,1,2.05-.38h7.81V154.6h-3.59v-6H471l-2.76,4.32a5,5,0,0,1-.65.87,2.69,2.69,0,0,1-.67.52,2.49,2.49,0,0,1-.74.26,4.86,4.86,0,0,1-.86.07h-1.75Zm9.61-5.88v-4.3h-3.78a1.82,1.82,0,0,0-1.26.41,1.55,1.55,0,0,0-.46,1.22v1a1.58,1.58,0,0,0,.46,1.24,1.82,1.82,0,0,0,1.26.41Z" fill="#fff"/><path d="M479,151.42h2a3.82,3.82,0,0,0,.66-1,7.15,7.15,0,0,0,.48-1.55,17.93,17.93,0,0,0,.31-2.28q.11-1.33.11-3.22v-5.24H494.2V154.6h-3.59V141.31h-4.56v2.55a37.36,37.36,0,0,1-.16,3.77,20,20,0,0,1-.45,2.73,8.27,8.27,0,0,1-.67,1.86,4.92,4.92,0,0,1-.84,1.18,4.33,4.33,0,0,1-1.57,1,6.13,6.13,0,0,1-2.09.31H479Z" fill="#fff"/><path d="M497.84,138.13h3.49v8l-.38,3.47H501l1.63-3.14,5.43-8.38h3.21V154.6H507.8v-8l.38-3.47h-.07l-1.63,3.14L501,154.6h-3.21Z" fill="#fff"/><path d="M521.58,154.89a8.17,8.17,0,0,1-3-.53,6,6,0,0,1-2.29-1.58,7.28,7.28,0,0,1-1.46-2.62,11.69,11.69,0,0,1-.52-3.67,12.07,12.07,0,0,1,.52-3.69,7.74,7.74,0,0,1,1.46-2.71,6.11,6.11,0,0,1,2.29-1.66,7.71,7.71,0,0,1,3-.57,7,7,0,0,1,3.78.93,6.43,6.43,0,0,1,2.38,2.94l-3.09,1.61a3.67,3.67,0,0,0-1-1.66,3,3,0,0,0-2-.63,3.3,3.3,0,0,0-2.54,1,4.23,4.23,0,0,0-1,3v2.64a4.22,4.22,0,0,0,1,3,3.3,3.3,0,0,0,2.54,1,3,3,0,0,0,2.11-.72,4.37,4.37,0,0,0,1.17-1.73l2.93,1.7a7.32,7.32,0,0,1-2.42,2.91A6.56,6.56,0,0,1,521.58,154.89Z" fill="#fff"/><path d="M530.29,138.13h3.59v5.95h4.44a5.28,5.28,0,0,1,2.08.39,4.6,4.6,0,0,1,1.57,1.07,4.72,4.72,0,0,1,1,1.66,6.66,6.66,0,0,1,0,4.28,4.73,4.73,0,0,1-1,1.65,4.63,4.63,0,0,1-1.57,1.07,5.3,5.3,0,0,1-2.08.39h-8Zm7.6,13.36a1.82,1.82,0,0,0,1.26-.41,1.55,1.55,0,0,0,.46-1.22v-1a1.55,1.55,0,0,0-.46-1.22,1.82,1.82,0,0,0-1.26-.41h-4v4.3Z" fill="#fff"/><path d="M153.79,476.92c-78.62-61.09-60.16-96.45-98.87-130.09a113.93,113.93,0,0,1-36.31-61.67c-.32.16-.65.32-1,.51C30,278.52,50,288.85,67.48,309.55a11.8,11.8,0,0,0,18.66-.81c4.12-5.78,9.3-9.6,15.36-10.79,20.7-4.08,52.9,24,46.52,58.25-3.27,17.56-5,28.12-.95,37.5,1.21-2.9,3.14-13.55,12.86-13.61,10.26-.06,17.91,19.83,17.93,36.56A15,15,0,0,0,183,427.93c4.46,3.89,9.09,7.74,11.91,12.59,29.64,51-4.46,113-7.07,117.63l.1-.17C188.29,532.18,182.17,499,153.79,476.92Z" fill="#c1e9fa"/><path d="M15.11,449.91A23.63,23.63,0,0,1,22,437.74a10.57,10.57,0,0,0,3.1-8.67q0-.29-.08-.57a10.31,10.31,0,0,0-.42-1.67,10,10,0,0,0-3.4-4.72,10.4,10.4,0,0,0-1-.7q-2.62-1.54-5-3.17a56.94,56.94,0,0,1-6.28-5.06q-.92-.87-1.76-1.74A34.29,34.29,0,0,1,3.51,407q-.6-.89-1.11-1.78t-.91-1.78a18.85,18.85,0,0,1-.7-1.78,13.4,13.4,0,0,1-.39-7.77c1.59-6,7.71-10.28,16.53-12.47a12.14,12.14,0,0,0,7.54-17.94l-.1-.18c-19.56-33.66-22.57-68.42-6.72-77.63.31-.18.64-.35,1-.51a113.93,113.93,0,0,0,36.31,61.67c38.71,33.63,20.25,69,98.87,130.09,28.37,22,34.5,55.26,34.16,81.06,0,.07-51.48-44.74-96.82-49.74a36.05,36.05,0,0,1-6.59-1.45C41.4,496.43,10.75,471.72,15.11,449.91Z" fill="#a2ddeb"/><path d="M143.4,368.12a2.37,2.37,0,1,0-1.15-2.22L124,370.74l7.66-13.19a2.34,2.34,0,1,0-1.35-.79L122.62,370l-4.85-18.27a2.37,2.37,0,1,0-1.51.4l5.13,19.34h0l.12.45-12.73,21.91L91.08,327l13.51-23.26.45-.12h0l19.34-5.13a2.32,2.32,0,0,0,.75.71,2.34,2.34,0,1,0-.85-3.2,2.32,2.32,0,0,0-.3,1l-18.27,4.85,7.66-13.19a2.34,2.34,0,1,0-1.35-.78l-7.66,13.19L99.51,282.8a2.32,2.32,0,0,0,.71-.75A2.37,2.37,0,1,0,98,283.2l5.13,19.34h0l.12.45L90.52,324.9,87.35,313l-3.77-14.2-3.3-12.43.23-.4h0l10.05-17.3a2.37,2.37,0,1,0-1.35-.78l-9.5,16.35-3.91-14.74a2.34,2.34,0,1,0-1.51.4l3.91,14.74-16.35-9.5a2.37,2.37,0,1,0-.79,1.35l17.3,10.05h0l.4.23,3.3,12.43,3.77,14.2,5.5,20.74L68.86,321l-.12-.45h0l-5.13-19.34a2.32,2.32,0,0,0,.71-.75,2.37,2.37,0,1,0-2.22,1.15l4.85,18.27-13.19-7.66a2.34,2.34,0,1,0-.79,1.35l13.19,7.66-18.27,4.85a2.32,2.32,0,0,0-.75-.71,2.37,2.37,0,1,0,1.15,2.22l19.34-5.13h0l.45-.12,23.82,13.84h0l10.88,41L80.3,364.2l-.12-.45h0L75,344.41a2.37,2.37,0,1,0-1.51.4l4.85,18.27-13.19-7.66a2.34,2.34,0,1,0-.78,1.35l13.19,7.66-18.27,4.85a2.37,2.37,0,1,0,.4,1.51l19.34-5.13h0l.45-.12,23.82,13.84h0l16.94,63.91L97.81,430.22l-.12-.45h0l-5.13-19.34a2.32,2.32,0,0,0,.71-.75,2.34,2.34,0,1,0-3.2.85,2.32,2.32,0,0,0,1,.3l4.85,18.27L82.7,421.45a2.34,2.34,0,1,0-.78,1.35l13.19,7.66-18.27,4.85a2.37,2.37,0,1,0,.4,1.51l19.34-5.13h0l.45-.12,23.82,13.84h0l12.34,46.52-22.48-13.06-.12-.45h0l-5.13-19.34a2.37,2.37,0,1,0-1.51.4l4.85,18.27L95.6,470.09a2.34,2.34,0,1,0-.78,1.35L108,479.1,89.73,484a2.37,2.37,0,1,0,.4,1.51l19.34-5.13h0l.45-.12,23.82,13.84h0L143,528.86l2,1.33-6.87-25.9L151.59,481l.45-.12h0l19.34-5.13a2.37,2.37,0,1,0-.4-1.51l-18.27,4.85,7.66-13.19a2.34,2.34,0,1,0-1.35-.78l-7.66,13.19-4.85-18.27a2.32,2.32,0,0,0,.71-.75,2.37,2.37,0,1,0-2.22,1.15l5.13,19.34h0l.12.45-12.73,21.91-18-68L133,410.87l.45-.12h0l19.34-5.13a2.37,2.37,0,1,0-.4-1.51L134.1,409l7.66-13.19a2.34,2.34,0,1,0-1.35-.78l-7.66,13.19-4.85-18.27a2.32,2.32,0,0,0,.71-.75,2.37,2.37,0,1,0-2.22,1.15l5.13,19.34h0l.12.45L118.91,432l-9.57-36.08,13.51-23.26.45-.12h0l19.34-5.13A2.32,2.32,0,0,0,143.4,368.12Z" fill="#8381d4"/><path d="M160.65,539.32l-8.09-4.88s2.88-74.32,3.1-114.06-21.24-157.15-21.24-157.15,24.91,93.83,28,160.94S160.65,539.32,160.65,539.32Z" fill="#96d0e0"/><ellipse cx="148.21" cy="294.63" rx="27.31" ry="2.44" transform="translate(-164.79 398.59) rotate(-81.67)" fill="#96d0e0"/><ellipse cx="160.63" cy="320.29" rx="40.98" ry="3.66" transform="translate(-188.94 398.96) rotate(-76.05)" fill="#96d0e0"/><ellipse cx="130.89" cy="325.2" rx="3.66" ry="40.98" transform="matrix(0.83, -0.55, 0.55, 0.83, -157.91, 126.5)" fill="#96d0e0"/><ellipse cx="167.14" cy="348.53" rx="48.08" ry="4.29" transform="translate(-211.41 426.71) rotate(-76.05)" fill="#96d0e0"/><ellipse cx="129.74" cy="353.86" rx="4.29" ry="48.08" transform="translate(-185.65 147.51) rotate(-36.67)" fill="#96d0e0"/><ellipse cx="174.84" cy="392.72" rx="51.14" ry="4.57" transform="translate(-254 422.74) rotate(-70.01)" fill="#96d0e0"/><ellipse cx="134.68" cy="394.17" rx="4.57" ry="51.14" transform="translate(-182.03 123.6) rotate(-30.63)" fill="#96d0e0"/><ellipse cx="180" cy="433.82" rx="54.39" ry="6.39" transform="translate(-289.61 425.71) rotate(-66.48)" fill="#96d0e0"/><ellipse cx="188.09" cy="468.88" rx="44.75" ry="9.38" transform="translate(-285.38 292.67) rotate(-47.73)" fill="#96d0e0"/><ellipse cx="135.88" cy="432.12" rx="4.86" ry="54.39" transform="translate(-181.91 109.32) rotate(-27.1)" fill="#96d0e0"/><ellipse cx="130.21" cy="459.21" rx="6.77" ry="54.39" transform="translate(-248.47 168.64) rotate(-36.67)" fill="#96d0e0"/><ellipse cx="192.02" cy="505.75" rx="44.75" ry="9.38" transform="translate(-281.09 243.42) rotate(-40.2)" fill="#96d0e0"/><ellipse cx="123.43" cy="497.99" rx="6.77" ry="54.39" transform="translate(-306.53 218.05) rotate(-43.01)" fill="#96d0e0"/><ellipse cx="130.78" cy="299.96" rx="3.13" ry="35.11" transform="matrix(0.87, -0.49, 0.49, 0.87, -131.13, 103.78)" fill="#96d0e0"/><path d="M169.36,544.47,165,542.82s-5.24-35.35-8.72-54.17-24.19-72.43-24.19-72.43,20.23,42.15,27.72,73.62A424,424,0,0,1,169.36,544.47Z" fill="#8381d4"/><ellipse cx="141.45" cy="429.84" rx="1.17" ry="13.15" transform="translate(-18.18 6.41) rotate(-2.44)" fill="#8381d4"/><ellipse cx="149.63" cy="440.86" rx="19.73" ry="1.76" transform="translate(-298.84 565.8) rotate(-86.82)" fill="#8381d4"/><ellipse cx="136.01" cy="445.86" rx="1.76" ry="19.73" transform="translate(-272.8 221.89) rotate(-44.32)" fill="#8381d4"/><ellipse cx="155.25" cy="453.63" rx="23.15" ry="2.07" transform="translate(-306.29 583.48) rotate(-86.82)" fill="#8381d4"/><ellipse cx="138.04" cy="459.52" rx="2.07" ry="23.15" transform="translate(-293.8 250.4) rotate(-47.44)" fill="#8381d4"/><ellipse cx="162.87" cy="473.85" rx="24.63" ry="2.2" transform="translate(-330.95 558.67) rotate(-80.78)" fill="#8381d4"/><ellipse cx="144.01" cy="478.15" rx="2.2" ry="24.63" transform="translate(-280.21 214.71) rotate(-41.4)" fill="#8381d4"/><ellipse cx="169.02" cy="492.82" rx="26.19" ry="3.08" transform="translate(-348.96 548.87) rotate(-77.25)" fill="#8381d4"/><ellipse cx="176" cy="508.68" rx="21.55" ry="4.52" transform="translate(-349.68 392.96) rotate(-58.5)" fill="#8381d4"/><ellipse cx="147.99" cy="495.99" rx="2.34" ry="26.19" transform="matrix(0.79, -0.61, 0.61, 0.79, -273.29, 195.28)" fill="#8381d4"/><ellipse cx="147.75" cy="509.31" rx="3.26" ry="26.19" transform="translate(-327.33 273.67) rotate(-47.44)" fill="#8381d4"/><ellipse cx="181.18" cy="525.77" rx="21.55" ry="4.52" transform="translate(-341.35 335.45) rotate(-50.97)" fill="#8381d4"/><ellipse cx="148.03" cy="528.27" rx="3.26" ry="26.19" transform="matrix(0.59, -0.81, 0.81, 0.59, -365.63, 335.57)" fill="#8381d4"/><ellipse cx="133.68" cy="433.93" rx="1.51" ry="16.91" transform="translate(-249.27 189.98) rotate(-40.38)" fill="#8381d4"/><path d="M214,483.46C226.76,455,219.31,412,211.5,378.34c-5.54-23.92,1-47.72,7-62.3a38.61,38.61,0,0,0-12.33-.41c-31.51,3.77-22.9,41.64-17.86,54.86s.7,14.2-10.18,8c-7.44-4.24-34-9.29-36.79,14.52S184.76,454,173,455.44c-21.53,2.71-23.6,25.37-6.82,39,19.07,15.44-5.3,4.86-5.07,28.59.25,25.36,53.06,56.57,58.17,59.53C202.53,555.28,203.22,507.5,214,483.46Z" fill="#c1e9fa"/><path d="M259.94,535.81c19-6.65,12.23-24.65,2.26-28.53-7.29-2.85-14.39-2.39-8.51-6.77,22.77-16.94,43.51-42.72,28.08-58s-30,6.48-32.2,2.24,25.34-23.19,30.15-38.63S263,371.32,245.8,394.67c-11.33,15.37-14.25-11.26-7.3-26.51,10.84-23.79,1.46-47.73-20-52.11-6,14.57-12.5,38.38-7,62.3C219.31,412,226.76,455,214,483.46c-10.78,24-11.46,71.82,5.24,99.06l.4.23S227.27,547.28,259.94,535.81Z" fill="#a2ddeb"/><path d="M240,456a2,2,0,1,0-.83-1.9l-15.42,3,7.08-10.52a1.95,1.95,0,1,0-1.08-.73l-7.08,10.52-3-15.42a2,2,0,1,0-1.28.25l3.19,16.32h0l.07.38-11.76,17.47-11-56.33,12.48-18.55.38-.07h0L228,397.22a1.93,1.93,0,0,0,.58.63,1.95,1.95,0,1,0-.53-2.7,1.93,1.93,0,0,0-.3.8l-15.42,3,7.08-10.52a1.95,1.95,0,1,0-1.08-.73l-7.08,10.52-3-15.42a1.93,1.93,0,0,0,.63-.58,2,2,0,1,0-1.9.83l3.19,16.32h0l.07.38-11.76,17.47-2-10.08-2.34-12-2.05-10.49.21-.32h0l9.28-13.8a2,2,0,1,0-1.08-.73l-8.77,13-2.43-12.44a1.95,1.95,0,1,0-1.28.25l2.43,12.44-13-8.77a2,2,0,1,0-.73,1.08l13.8,9.29h0l.32.21,2.05,10.49,2.34,12,3.42,17.51-17.93-12.06-.07-.38h0l-3.19-16.32a1.92,1.92,0,0,0,.63-.58,2,2,0,1,0-1.9.83l3,15.42-10.52-7.08a1.95,1.95,0,1,0-.73,1.08l10.52,7.08-15.42,3a1.93,1.93,0,0,0-.58-.63,2,2,0,1,0,.83,1.9L179.63,414h0l.38-.07,19,12.78h0l6.77,34.63-17.93-12.06-.07-.38h0l-3.19-16.32a2,2,0,1,0-1.28.25l3,15.42-10.52-7.08a1.95,1.95,0,1,0-.73,1.08l10.52,7.08-15.42,3a2,2,0,1,0,.25,1.27l16.32-3.19h0l.38-.07,19,12.78h0l10.55,53.93L198.75,505l-.07-.38h0l-3.19-16.32a1.92,1.92,0,0,0,.63-.58,1.95,1.95,0,1,0-2.7.53,1.93,1.93,0,0,0,.8.3l3,15.42-10.52-7.08A1.95,1.95,0,1,0,186,498L196.5,505l-15.42,3a2,2,0,1,0,.25,1.28l16.32-3.19h0l.38-.07,19,12.78h0l7.68,39.26L206.78,546l-.07-.38h0l-3.19-16.32a2,2,0,1,0-1.28.25l3,15.42-10.52-7.08A1.95,1.95,0,1,0,194,539l10.52,7.08-15.42,3a2,2,0,1,0,.25,1.27l16.32-3.19h0l.38-.07,19,12.78h0l5.75,29.38,1.56,1.21-4.27-21.86,12.48-18.55L241,550h0l16.32-3.19a2,2,0,1,0-.25-1.27l-15.42,3L248.68,538a1.95,1.95,0,1,0-1.08-.73l-7.08,10.52-3-15.42a1.93,1.93,0,0,0,.63-.58,2,2,0,1,0-1.9.83L239.43,549h0l.07.38-11.76,17.47-11.22-57.4L229,490.87l.38-.07h0l16.32-3.19a2,2,0,1,0-.25-1.27l-15.42,3,7.08-10.52a1.95,1.95,0,1,0-1.08-.73l-7.08,10.52-3-15.42a1.93,1.93,0,0,0,.63-.58,2,2,0,1,0-1.9.83l3.19,16.32h0l.07.38-11.76,17.47-6-30.45,12.48-18.55.38-.07h0l16.32-3.19A1.93,1.93,0,0,0,240,456Z" fill="#96d0e0"/><path d="M219.64,582.75l5.15,3.21s8.27-55,13.12-81.27,33.83-101.3,33.83-101.3-28.29,58.95-38.76,103S219.64,582.75,219.64,582.75Z" fill="#8381d4"/><ellipse cx="258.67" cy="422.42" rx="18.39" ry="1.64" transform="translate(-174.38 662.87) rotate(-87.56)" fill="#8381d4"/><ellipse cx="247.23" cy="437.83" rx="2.46" ry="27.6" transform="translate(-23.91 14.39) rotate(-3.18)" fill="#8381d4"/><ellipse cx="266.28" cy="444.83" rx="27.6" ry="2.46" transform="translate(-238.01 324.56) rotate(-45.68)" fill="#8381d4"/><ellipse cx="239.36" cy="455.7" rx="2.89" ry="32.38" transform="translate(-24.91 13.98) rotate(-3.18)" fill="#8381d4"/><ellipse cx="263.44" cy="463.93" rx="32.38" ry="2.89" transform="translate(-244.39 300.38) rotate(-42.56)" fill="#8381d4"/><ellipse cx="228.71" cy="483.97" rx="3.08" ry="34.44" transform="translate(-74.61 42.91) rotate(-9.22)" fill="#8381d4"/><ellipse cx="255.09" cy="489.98" rx="34.44" ry="3.08" transform="translate(-281.15 357.31) rotate(-48.6)" fill="#8381d4"/><ellipse cx="220.12" cy="510.51" rx="4.3" ry="36.63" transform="translate(-107.27 61.19) rotate(-12.75)" fill="#8381d4"/><ellipse cx="210.35" cy="532.69" rx="6.32" ry="30.14" transform="translate(-247.33 188.41) rotate(-31.5)" fill="#8381d4"/><ellipse cx="249.52" cy="514.94" rx="36.63" ry="3.27" transform="translate(-310.15 395.83) rotate(-52.13)" fill="#8381d4"/><ellipse cx="249.87" cy="533.57" rx="36.63" ry="4.56" transform="translate(-295.06 309.55) rotate(-42.56)" fill="#8381d4"/><ellipse cx="203.11" cy="556.59" rx="6.32" ry="30.14" transform="translate(-305.15 252.1) rotate(-39.03)" fill="#8381d4"/><ellipse cx="249.47" cy="560.09" rx="36.63" ry="4.56" transform="translate(-282.72 255.62) rotate(-36.22)" fill="#8381d4"/><ellipse cx="269.54" cy="428.14" rx="23.64" ry="2.11" transform="translate(-231.23 356.09) rotate(-49.62)" fill="#8381d4"/><polygon points="278.09 508.95 371.26 492.42 382.15 352.62 278.09 371.06 278.09 508.95" fill="#c7c6c6"/><polygon points="455.74 536.38 370.52 502.33 382.15 352.62 490.61 387.19 455.74 536.38" fill="#c7c6c6"/><polygon points="450.9 526.03 371.26 493.14 382.91 358.99 482.59 390.47 450.9 526.03" fill="#f3edf3"/><polygon points="282.85 508.95 371.26 493.14 382.15 358.99 282.85 376.71 282.85 508.95" fill="#e5e5e5"/><path d="M292.13,375.05v11.83a2.78,2.78,0,0,0,3.33,2.73l51.22-10.33a2.78,2.78,0,0,1,3.33,2.78l-.13,5.88a2.78,2.78,0,0,1-2.35,2.69l-25.48,4a2.78,2.78,0,0,0-2.35,2.75h0a2.78,2.78,0,0,0,3.13,2.76l13.84-1.75a2.78,2.78,0,0,0,2.43-2.76v-5.2a2.78,2.78,0,0,0-3.35-2.72l-31.68,6.63a2.78,2.78,0,0,0-2.21,2.72l0,20.11a2.78,2.78,0,0,1-2.41,2.75l-8,1.08a2.78,2.78,0,0,0-2.41,2.76v14.61a2.78,2.78,0,0,0,3.14,2.76l13.11-1.73a2.78,2.78,0,0,0,2.42-2.74l.21-26.95A2.78,2.78,0,0,1,310.3,407L355.82,401a2.78,2.78,0,0,0,2.42-2.63l1.1-23.61a2.78,2.78,0,0,1,2.2-2.59l8.72-1.87a2.78,2.78,0,0,1,3.36,2.87l-2.23,41.29a2.78,2.78,0,0,1-2.51,2.62l-52,5.09a2.78,2.78,0,0,0-2.51,2.73l-.44,36.71a2.78,2.78,0,0,1-2.41,2.72l-19.1,2.56A2.78,2.78,0,0,0,290,469.7v15.24a2.78,2.78,0,0,0,3.17,2.75l24.16-3.42a2.78,2.78,0,0,0,2.39-2.71l.89-63.3a2.78,2.78,0,0,1,2.44-2.72l34.61-4.31a2.78,2.78,0,0,1,3.12,2.84l-.2,6.78a2.78,2.78,0,0,1-2.51,2.68L328,426.42a2.78,2.78,0,0,0-2.52,2.77v16.25a2.78,2.78,0,0,0,3.06,2.77l33.69-3.37a2.78,2.78,0,0,0,2.5-2.77V424.51a2.78,2.78,0,0,1,2.66-2.78l9.54-.41a2.78,2.78,0,0,1,.74.07L388,423.77a2.78,2.78,0,0,0,3.39-2.45l1.52-16.05a2.78,2.78,0,0,0-2.18-3l-4.82-1a2.78,2.78,0,0,1-2.18-3l2-21.42a2.78,2.78,0,0,1,3.57-2.41l19.61,5.91a2.78,2.78,0,0,1,1.95,3.08l-1.22,8.08a2.78,2.78,0,0,1-3.46,2.27l-15.69-4.15a2.78,2.78,0,0,1-2.06-2.88l.23-3.32a2.78,2.78,0,0,1,3.52-2.49l24.49,6.83a2.78,2.78,0,0,1,2,3.07l-1.26,8.83a2.78,2.78,0,0,1-3.5,2.29l-10.8-3a2.78,2.78,0,0,0-3.51,2.38l-1.65,15.25a2.78,2.78,0,0,0,2.07,3l16,4.15a2.78,2.78,0,0,0,3.44-2.26l5.37-33.93a2.78,2.78,0,0,1,3.61-2.21l33,10.73a2.78,2.78,0,0,1,1.86,3.25L459.37,417a2.78,2.78,0,0,1-3.59,2l-24.65-8.14a2.78,2.78,0,0,1-1.85-3.2l2.38-11.52a2.78,2.78,0,0,1,3.48-2.11l15.25,4.33a2.78,2.78,0,0,1,2,3.25l-5.73,26.92a2.78,2.78,0,0,1-3.49,2.09l-3.64-1.05a2.78,2.78,0,0,1-1.94-3.28l1.15-5.17a2.78,2.78,0,0,0-1.75-3.22l-4.64-1.71a2.78,2.78,0,0,0-3.7,2.12L423,449.84A2.78,2.78,0,0,0,424.8,453l18.57,6.52a2.78,2.78,0,0,0,3.61-1.91l4.56-17.21L455,426.5a2.78,2.78,0,0,1,3.83-1.86l6.11,2.71a2.78,2.78,0,0,1,1.56,3.23l-14,54.67a2.78,2.78,0,0,1-3.57,1.95L390.83,468a2.78,2.78,0,0,1-1.88-3L394.3,429a2.78,2.78,0,0,1,3.48-2.27l12.66,3.44a2.78,2.78,0,0,1,2,3.13l-3.79,23.49a2.78,2.78,0,0,0,1.85,3.08l52.74,17.88" fill="none" stroke="#ccc" stroke-miterlimit="10" stroke-width="5" opacity="0.6"/><g opacity="0.4"><circle cx="437.3" cy="405.14" r="4.29" fill="#ccc"/><circle cx="444.41" cy="437.88" r="4.29" fill="#ccc"/><circle cx="416.3" cy="454.18" r="3.03" fill="#ccc"/><circle cx="415.4" cy="446.41" r="1.98" fill="#ccc"/><circle cx="419.33" cy="437.12" r="1.98" fill="#ccc"/><circle cx="428.06" cy="459.42" r="1.98" fill="#ccc"/><circle cx="450.17" cy="464.88" r="4.29" fill="#ccc"/><circle cx="401.17" cy="435.4" r="4.29" fill="#ccc"/><circle cx="433.94" cy="444.49" r="6.6" fill="#ccc"/><circle cx="431.49" cy="492" r="6.6" fill="#ccc"/><circle cx="416.3" cy="489.21" r="6.6" fill="#ccc"/><circle cx="424.89" cy="507" r="6.6" fill="#ccc"/><circle cx="472.28" cy="404.83" r="6.6" fill="#ccc"/><circle cx="413.8" cy="418.48" r="1.61" fill="#ccc"/><circle cx="446.45" cy="402.31" r="1.61" fill="#ccc"/><circle cx="456.64" cy="400.85" r="1.61" fill="#ccc"/><circle cx="456.64" cy="409.43" r="1.61" transform="translate(15.13 835.14) rotate(-85.84)" fill="#ccc"/><circle cx="452.9" cy="414.13" r="1.61" transform="translate(6.97 835.77) rotate(-85.84)" fill="#ccc"/><circle cx="433.01" cy="422.43" r="1.61" transform="translate(-19.74 823.62) rotate(-85.84)" fill="#ccc"/><circle cx="433.94" cy="431.8" r="1.61" transform="matrix(0.07, -1, 1, 0.07, -28.22, 833.24)" fill="#ccc"/><circle cx="429.08" cy="435.4" r="1.61" transform="translate(-145.83 643.14) rotate(-65.29)" fill="#ccc"/><circle cx="407.43" cy="442.17" r="1.61" transform="translate(-193.14 471.05) rotate(-50.09)" fill="#ccc"/><circle cx="402.28" cy="459.42" r="1.61" transform="translate(-208.22 473.28) rotate(-50.09)" fill="#ccc"/><circle cx="398.27" cy="464.22" r="1.61" transform="translate(-213.33 471.93) rotate(-50.09)" fill="#ccc"/><circle cx="409.28" cy="465.27" r="1.61" transform="translate(-210.2 480.75) rotate(-50.09)" fill="#ccc"/><circle cx="415.4" cy="470.4" r="1.61" transform="translate(-211.93 487.29) rotate(-50.09)" fill="#ccc"/><circle cx="423.77" cy="469.01" r="1.61" transform="translate(-207.87 493.21) rotate(-50.09)" fill="#ccc"/><circle cx="433.01" cy="476.47" r="1.61" transform="translate(-210.28 502.97) rotate(-50.09)" fill="#ccc"/><circle cx="441.59" cy="476.47" r="1.61" transform="translate(-207.2 509.55) rotate(-50.09)" fill="#ccc"/><circle cx="394.82" cy="455.84" r="1.61" transform="translate(-59.3 59.05) rotate(-7.96)" fill="#ccc"/><circle cx="458.92" cy="431.8" r="1.61" transform="translate(-159.54 552.5) rotate(-54.3)" fill="#ccc"/><circle cx="458.35" cy="441.21" r="1.61" transform="matrix(0.58, -0.81, 0.81, 0.58, -167.41, 555.96)" fill="#ccc"/><circle cx="408.04" cy="411.8" r="5.76" fill="#ccc"/><circle cx="401.17" cy="449.2" r="5.76" fill="#ccc"/><circle cx="416.3" cy="406.04" r="0.89" transform="translate(-162.24 464.9) rotate(-50.09)" fill="#ccc"/><circle cx="403.45" cy="404.11" r="2.29" fill="#ccc"/><circle cx="390.45" cy="396.81" r="2.55" fill="#ccc"/><circle cx="405.52" cy="373.5" r="2.52" fill="#ccc"/><circle cx="393.56" cy="369.49" r="3.11" fill="#ccc"/><circle cx="392.29" cy="385.96" r="1.28" fill="#ccc"/><circle cx="299.97" cy="379.86" r="4.5" fill="#ccc"/><circle cx="310.55" cy="380.94" r="2.23" fill="#ccc"/><circle cx="318.6" cy="375.57" r="2.07" fill="#ccc"/></g><polygon points="393.56 356.25 428.06 367.25 464.57 498.6 455.74 536.38 438.64 529.55 393.56 356.25" fill="#f2f2f2" opacity="0.5"/><polygon points="437.3 370.27 447.68 373.5 475.24 452.93 472.28 464.22 437.3 370.27" fill="#f2f2f2" opacity="0.5"/><path d="M482.19,447h0a4.7,4.7,0,0,0-6.25,2.29l-.54,1.17a7.38,7.38,0,0,0-3.13-1.49c-5.71-1.17-11.77,4.87-13.54,13.49-1.38,6.7.25,13,3.72,16l-1.23,2.67,8.93,4.13a13.72,13.72,0,0,0,18.22-6.69l3-6.53A18.86,18.86,0,0,0,482.19,447Z" fill="#f1dac6"/><path d="M475.4,450.5a7.42,7.42,0,0,1,1.47,3.31c.15,1.66.2,2.38.2,2.38s2-5.43,2.86-6.53a4.35,4.35,0,0,1,3.12-1.59,2.41,2.41,0,0,1,1.29.14,7.28,7.28,0,0,0-4.47-1.6,4,4,0,0,0-3.55,2C475.94,449.34,475.4,450.5,475.4,450.5Z" fill="#f0c2a3"/><path d="M459.37,460.06s-1.46,8.5,1.77,12.15c2.19,2.48,6.31,3.13,7.36,2.48,0,0,8.22-6.31,14.33-6.25s5.53,6.21,7.23,4.72c3.08-2.71,3.08-8.65,3.08-8.65a18.42,18.42,0,0,1-1.74,7.58c-1.12,2-3.31,9.14-7.45,11.91a14,14,0,0,1-5,2.25s-6.14-8.44-10.29-9.05a68.56,68.56,0,0,0-7.9-.67,15.87,15.87,0,0,1-2.47-8.81A23.5,23.5,0,0,1,459.37,460.06Z" fill="#f0c2a3"/><ellipse cx="465.73" cy="458.68" rx="7.59" ry="3.64" transform="translate(-157.85 654.72) rotate(-62.02)" fill="#f6e1c9"/><ellipse cx="463.95" cy="458.97" rx="4.61" ry="2.21" transform="translate(-159.05 653.31) rotate(-62.02)" fill="#fff"/><ellipse cx="468.02" cy="453.12" rx="1.88" ry="0.9" transform="translate(-151.73 653.8) rotate(-62.02)" fill="#fff"/><path d="M416,611.68s-24.19,3.69-40.41,4.91c-14.3,1.08-48.19-.5-48.19-.5V448.45h31A57.61,57.61,0,0,1,416,506.06Z" fill="#333"/><rect x="444.8" y="475.23" width="32.06" height="44.04" rx="15.95" ry="15.95" transform="matrix(0.84, 0.54, -0.54, 0.84, 338.8, -169.63)" fill="#333"/><path d="M470.21,482.49h0a22,22,0,0,0-30.39,6.76L430,504.73l-9.84-26.23a25.39,25.39,0,0,0-32.69-14.85h0a25.39,25.39,0,0,0-14.85,32.69l24.8,66.1a25.39,25.39,0,0,0,32.69,14.85h0a25.29,25.29,0,0,0,13.61-12.07L477,512.89A22,22,0,0,0,470.21,482.49Z" fill="#666"/><path d="M447.68,543.52a25.29,25.29,0,0,1-13.61,12.07h0a25.39,25.39,0,0,1-32.69-14.85l-24.8-66.1c-.27-.73-.51-1.47-.71-2.2a25.36,25.36,0,0,0-3.27,23.9l24.8,66.1a25.39,25.39,0,0,0,32.69,14.85h0a25.29,25.29,0,0,0,13.61-12.07L477,512.89a22,22,0,0,0,2.24-19Z" fill="#4d4d4d"/><path d="M440.21,506.58,456,479.19a22,22,0,0,0-16.2,10.07L430.46,504h0A5.22,5.22,0,0,0,440.21,506.58Z" fill="#4d4d4d"/><path d="M376.94,466.59c8.06-7.93,22-8.61,27.36-5.25a41.85,41.85,0,0,0-30.37-12.89Z" fill="#4b545a"/><path d="M367.46,396.7v14.08a7.5,7.5,0,1,0,0,13.3v17.59h0A14.52,14.52,0,0,0,382,427.15V396.7Z" fill="#f1cea8"/><path d="M367.46,396.7H315.19v14.1a30.87,30.87,0,0,0,30.87,30.87h21.4V424.08a7.46,7.46,0,0,1-3.75.85,7.5,7.5,0,0,1,.28-15,7.46,7.46,0,0,1,3.93,1.12,10.73,10.73,0,0,0,10.27-10.72V396.7Z" fill="#4d4d4d"/><path d="M390.92,377c-1.67-4.4-6.67-9.17-17-9.17a20.81,20.81,0,0,0-12,3.47A35,35,0,0,1,382,396.7C390.36,390.56,393.51,383.81,390.92,377Z" fill="#9c2429"/><path d="M338,370.28l-.05,0h0Z" fill="#efbc7a"/><path d="M314.63,403.65a36.32,36.32,0,0,0,.87,7.89,102.51,102.51,0,0,0,17.82,1l2-.07a49.7,49.7,0,0,1-1.75-5A46.38,46.38,0,0,1,338,370.31h0A35.06,35.06,0,0,0,314.63,403.65Z" fill="#791829"/><path d="M367.46,405.49A57.17,57.17,0,0,0,382,396.7c-3.12-16.08-16.87-28.19-33.36-28.19A33,33,0,0,0,338,370.28l0,0A44.32,44.32,0,0,1,367.46,405.49Z" fill="#791829"/><path d="M338,370.31a46.38,46.38,0,0,0-4.41,37.24,49.7,49.7,0,0,0,1.75,5,93,93,0,0,0,32.13-7A44.32,44.32,0,0,0,338,370.31Z" fill="#9c2429"/><path d="M371.31,377.43c-3.75,11.92-20.62,20.92-40.88,20.92a64.3,64.3,0,0,1-15.11-1.77,36.34,36.34,0,0,0,.18,15,102.51,102.51,0,0,0,17.82,1c20.29-.56,38.07-6.79,48.7-15.88A35.38,35.38,0,0,0,371.31,377.43Z" fill="#1a1a1a" opacity="0.3"/><polygon points="376.45 591.43 329 616.38 329 491.29 376.94 466.59 376.45 591.43" fill="#637076"/><path d="M247.1,601.66,329,616.38V491.29l-87.07-15.65V595.48A6.27,6.27,0,0,0,247.1,601.66Z" fill="#788386"/><path d="M352.75,439.77h0a43.23,43.23,0,0,0-23.26,38.34v13.19l47.45-24.7V454.44A16.54,16.54,0,0,0,352.75,439.77Z" fill="#788386"/><path d="M352.75,439.77h0a16.35,16.35,0,0,1,9.81-1.74h0l-68.71-10.86c-26.8-4.82-51.94,16.49-51.94,43.72l0,4.75,87.55,15.65V478.11A43.23,43.23,0,0,1,352.75,439.77Z" fill="#637076"/><polygon points="316.99 585.24 307 582.67 307 535.98 316.99 538.61 316.99 585.24" fill="#969997"/><polygon points="321.31 537.66 319.33 539.19 319.33 530.67 321.31 529.14 321.31 537.66" fill="#dca975"/><polygon points="303.32 504 305.5 502.56 321.31 505.38 319.33 506.99 303.32 504" fill="#f1cea8"/><polygon points="303.32 519.32 305.73 518.32 321.31 521.65 319.33 523.18 303.32 519.32" fill="#ca915e"/><polygon points="319.33 516.32 319.33 506.99 303.32 504 303.32 512.74 307.47 513.67 307.47 520.32 303.32 519.32 303.32 526.59 319.33 530.45 319.33 523.18 315.5 522.25 315.5 515.47 319.33 516.32" fill="#f6e1c9"/><polygon points="317.05 511.71 305.93 509.43 305.93 498.12 317.05 500.11 317.05 511.71" fill="#a1a1a0"/><polygon points="306 509.21 305 509.72 317.05 512.48 317.05 511.71 306 509.21" fill="#ca915e"/><polygon points="306 509.21 305 509.72 305 506.65 305.94 506.89 306 509.21" fill="#dca975"/><polygon points="321.31 514.63 319.33 516.32 319.33 506.99 321.31 505.31 321.31 514.63" fill="#dca975"/><polygon points="321.31 528.92 319.33 530.45 319.33 523.18 321.31 521.65 321.31 528.92" fill="#f1cea8"/><path d="M315.5,516.21l1.55-.39,1.07.24a2.61,2.61,0,0,1,1.47,2.37v3.31l-1.47,1.16Z" fill="#dca975"/><path d="M318.11,522.89l-2.62-.62v-6.06h0a3.33,3.33,0,0,1,2.62,3.26Z" fill="#f1cea8"/><polygon points="317.05 515.82 315.5 516.21 315.5 515.48 317.05 515.82" fill="#ca915e"/><path d="M307.47,514.2v.74l-2.19,1.94A2.72,2.72,0,0,1,307.47,514.2Z" fill="#dca975"/><path d="M307.47,514.95h0a1.77,1.77,0,0,0-2.19,1.71v3.19l2.19.54Z" fill="#f1cea8"/><polygon points="316.5 530 316.5 530.66 305.99 528.17 305.99 527.5 303.32 526.81 303.32 535 319.33 539.19 319.33 530.67 316.5 530" fill="#f6e1c9"/><polygon points="321.31 529.14 319.33 530.67 316.5 530 316.74 529.83 319.33 530.45 321.02 529.14 321.31 529.14" fill="#dca975"/><polygon points="306.49 531.45 306 532.93 316.5 535.65 316.5 534.09 306.49 531.45" fill="#ca915e"/><polygon points="306.63 527.39 306.69 530.9 306 532.93 305.99 527.5 306.63 527.39" fill="#dca975"/><polygon points="305.99 527.5 303.32 526.81 303.74 526.7 306.63 527.39 305.99 527.5" fill="#f1cea8"/><polygon points="316.5 568.12 306.51 565.55 306.51 535.82 316.5 538.45 316.5 568.12" fill="#a1a1a0"/><polygon points="316.5 534.09 306.51 531.45 306.51 528.05 316.5 530.55 316.5 534.09" fill="#a1a1a0"/><polygon points="316.5 564.93 306.51 562.33 306.51 562.07 316.5 564.67 316.5 564.93" fill="#969997"/><polygon points="316.5 560.13 306.21 557.46 306.21 550.39 316.5 553.06 316.5 560.13" fill="#969997"/><polygon points="317.11 552.93 316.5 553.06 316.5 560.13 317.11 560.03 317.11 552.93" fill="#637076"/><polygon points="306.21 550.39 306.51 550.23 306.51 550.47 306.21 550.39" fill="#ca915e"/><polygon points="256.7 566.27 247.66 563.95 247.66 521.74 256.7 524.11 256.7 566.27" fill="#969997"/><polygon points="260.6 523.26 258.81 524.64 258.81 516.93 260.6 515.56 260.6 523.26" fill="#dca975"/><polygon points="244.33 492.83 246.31 491.53 260.6 494.08 258.81 495.53 244.33 492.83" fill="#f1cea8"/><polygon points="244.33 506.68 246.52 505.77 260.6 508.79 258.81 510.16 244.33 506.68" fill="#ca915e"/><polygon points="258.81 503.97 258.81 495.53 244.33 492.83 244.33 500.73 248.09 501.57 248.09 507.58 244.33 506.68 244.33 513.25 258.81 516.74 258.81 510.16 255.34 509.33 255.34 503.19 258.81 503.97" fill="#f6e1c9"/><polygon points="256.74 499.8 246.69 497.74 246.69 487.51 256.74 489.31 256.74 499.8" fill="#a1a1a0"/><polygon points="246.76 497.54 245.85 498 256.74 500.5 256.74 499.8 246.76 497.54" fill="#ca915e"/><polygon points="246.76 497.54 245.85 498 245.85 495.22 246.7 495.44 246.76 497.54" fill="#dca975"/><polygon points="260.6 502.44 258.81 503.97 258.81 495.53 260.6 494 260.6 502.44" fill="#dca975"/><polygon points="260.6 515.36 258.81 516.74 258.81 510.16 260.6 508.79 260.6 515.36" fill="#f1cea8"/><path d="M255.34,503.86l1.4-.35,1,.21a2.36,2.36,0,0,1,1.33,2.14v3l-1.33,1Z" fill="#dca975"/><path d="M257.71,509.9l-2.37-.56v-5.48h0a3,3,0,0,1,2.37,2.94Z" fill="#f1cea8"/><polygon points="256.74 503.51 255.34 503.86 255.34 503.2 256.74 503.51" fill="#ca915e"/><path d="M248.09,502v.67l-2,1.75A2.45,2.45,0,0,1,248.09,502Z" fill="#dca975"/><path d="M248.09,502.72h0a1.6,1.6,0,0,0-2,1.55v2.89l2,.49Z" fill="#f1cea8"/><polygon points="256.25 516.33 256.25 516.93 246.75 514.67 246.75 514.07 244.33 513.45 244.33 520.85 258.81 524.64 258.81 516.93 256.25 516.33" fill="#f6e1c9"/><polygon points="260.6 515.56 258.81 516.93 256.25 516.33 256.47 516.18 258.81 516.74 260.34 515.56 260.6 515.56" fill="#dca975"/><polygon points="247.2 517.64 246.76 518.98 256.25 521.44 256.25 520.03 247.2 517.64" fill="#ca915e"/><polygon points="247.33 513.97 247.38 517.15 246.76 518.98 246.75 514.07 247.33 513.97" fill="#dca975"/><polygon points="246.75 514.07 244.33 513.45 244.71 513.35 247.33 513.97 246.75 514.07" fill="#f1cea8"/><polygon points="256.25 550.8 247.22 548.47 247.22 521.6 256.25 523.97 256.25 550.8" fill="#a1a1a0"/><polygon points="256.25 520.03 247.22 517.65 247.22 514.57 256.25 516.83 256.25 520.03" fill="#a1a1a0"/><polygon points="256.25 547.91 247.22 545.56 247.22 545.33 256.25 547.67 256.25 547.91" fill="#969997"/><polygon points="256.25 543.57 246.95 541.16 246.95 534.77 256.25 537.18 256.25 543.57" fill="#969997"/><polygon points="256.81 537.06 256.25 537.18 256.25 543.57 256.81 543.48 256.81 537.06" fill="#637076"/><polygon points="246.95 534.77 247.22 534.63 247.22 534.84 246.95 534.77" fill="#ca915e"/><path d="M248.85,437.45l115.17,21V404.35L258.38,385.11A26.6,26.6,0,0,0,227,411.28h0A26.6,26.6,0,0,0,248.85,437.45Z" fill="#969997"/><path d="M289.86,594.69,305,584V537.77l-3.11,2.2a28.35,28.35,0,0,0-12,23.16Z" fill="#637076"/><path d="M261.87,529.59l-3.18,2.26A28.35,28.35,0,0,0,246.76,555v30a1.94,1.94,0,0,0,1.58,1.9l41.52,7.82V563.13a28.35,28.35,0,0,1,12-23.16l3.11-2.2Z" fill="#858d92"/><ellipse cx="364.02" cy="431.45" rx="24.04" ry="26.97" fill="#a1a1a0"/><path d="M296.68,462l-20.37-3.17s-2.77,2-3.94,6.83a51.11,51.11,0,0,0-1.1,6.92l21,3.77a36,36,0,0,1,1.33-7.2A43.11,43.11,0,0,1,296.68,462Z" fill="#666"/><path d="M329.14,398.07l10.07,1.83s-15,6.29-18,22.64c-3.69,19.71,7.62,29.53,7.62,29.53L315,449.56s-10.1-11-5.38-29.63A31.7,31.7,0,0,1,329.14,398.07Z" fill="#788386"/><path d="M328.57,451.94s-6.75,9-8.18,20A139.86,139.86,0,0,0,319,489.22l-15.11-2.54a44,44,0,0,1,1.69-21.86c4-11.89,9.21-15.39,9.21-15.39Z" fill="#788386"/><path d="M271.73,387.66l10.07,1.83s-15,6.29-18,22.64c-3.69,19.71,7.62,29.53,7.62,29.53l-13.77-2.51s-10.1-11-5.38-29.63A31.7,31.7,0,0,1,271.73,387.66Z" fill="#788386"/><path d="M271.16,441.53s-6.75,9-8.18,20a139.86,139.86,0,0,0-1.38,17.34l-16.26-2.73a54.82,54.82,0,0,1,2.84-21.67c4-11.89,9.21-15.39,9.21-15.39Z" fill="#788386"/><path d="M329,491.15l-87.07-15.5v4.69a12.19,12.19,0,0,1,4.85,8l10,1.66c3.47-4.87,13.79-7.2,24.17-5.51s23.66,7.86,25,13.59l11.12,2c.49-4.86,6.83-6.52,12-6.58Z" fill="#637076"/><path d="M383.12,492.38c.83,5.36-6.22,10.42-16.93,12.53s-21.31-1.13-22.13-6.49,7.25-11,18-12.72S382.29,487,383.12,492.38Z" fill="#4d4d4d"/><path d="M364,548.59c-17.84,1.56-22.07-2.58-22.07-2.58v63.41h8.3a33,33,0,0,0,33-33V537.35S381.6,547.06,364,548.59Z" fill="#788386"/><path d="M365,504.78c-16.46,2.7-20.89-5.58-20.9-5.63v48s4,3,20.91,1.4c16.66-1.54,18.17-11.25,18.17-11.25v-45S383.2,501.79,365,504.78Z" fill="#4d4d4d"/><path d="M344.1,523.14A36.58,36.58,0,0,0,369,527.07c13.25-2.54,14.18-9.15,14.18-9.15" fill="none" stroke="#1a1a1a" stroke-miterlimit="10"/><path d="M341.94,559.81s16.65,4.12,27.93,1.09c10.8-2.9,13.32-8.29,13.32-8.29" fill="none" stroke="#f1dac6" stroke-miterlimit="10"/><ellipse cx="367.31" cy="555.26" rx="1.7" ry="2.22" fill="#4d4d4d"/><ellipse cx="374.7" cy="553.74" rx="1.75" ry="2.02" transform="translate(-41.6 30.55) rotate(-4.42)" fill="#4d4d4d"/><path d="M374,552.94l-1,.54a5.39,5.39,0,0,1-2.49.61h-2.31a1.1,1.1,0,0,0-1.1,1.1h0a1.1,1.1,0,0,0,1.1,1.1H371a5.39,5.39,0,0,0,2.49-.61l1.51-.79a1.1,1.1,0,0,0,.49-1.44h0A1.1,1.1,0,0,0,374,552.94Z" fill="#f1dac6"/><path d="M376.84,579.12l-1.74-21.81h-4.35l-3.23,21.48a4.69,4.69,0,1,0,9.32.32Zm-3,1.9a2.25,2.25,0,0,1-3.87-1.86l2.91-19.35,1.56,19.51A2.22,2.22,0,0,1,373.81,581Z" fill="#f1dac6"/><polygon points="289.86 565.91 246.76 557.84 246.76 552.97 289.86 561.04 289.86 565.91" fill="#969997"/><polygon points="304.97 555.21 289.86 565.96 289.86 561.09 304.97 550.34 304.97 555.21" fill="#969997" opacity="0.3"/><polygon points="289.86 586.52 246.76 578.45 246.76 568.21 289.86 576.28 289.86 586.52" fill="#969997"/><polygon points="304.97 575.77 289.86 586.52 289.86 576.33 304.97 565.58 304.97 575.77" fill="#969997" opacity="0.3"/><polygon points="283.53 483.92 276.16 482.52 276.16 532.35 283.53 533.75 283.53 483.92" fill="#637076"/><circle cx="373.09" cy="556.29" r="3.21" fill="#333"/><circle cx="374.3" cy="556.09" r="2.15" fill="#1a1a1a"/><circle cx="374.83" cy="556.09" r="1.47" fill="#333"/><path d="M276.16,532.35l-2.78,2a28.35,28.35,0,0,0-11.93,23.11v6.68l7.21,1.42v-6.63a28.35,28.35,0,0,1,12-23.16l2.88-2Z" fill="#637076"/><polygon points="268.38 590.49 262.09 589.31 262.09 580 268.38 581.21 268.38 590.49" fill="#5a636a"/><polygon points="271.14 580.52 269.87 581.49 269.87 576.04 271.14 575.15 271.14 580.52" fill="#dca975"/><polygon points="259.74 559.53 261.13 558.61 271.14 559.95 269.87 560.98 259.74 559.53" fill="#f1cea8"/><polygon points="259.74 569.34 261.28 568.7 271.14 570.36 269.87 571.34 259.74 569.34" fill="#ca915e"/><polygon points="269.87 566.95 269.87 560.98 259.74 559.53 259.74 565.13 262.4 565.72 262.4 569.98 259.74 569.34 259.74 573.99 269.87 575.91 269.87 571.34 267.42 570.75 267.42 566.4 269.87 566.95" fill="#f6e1c9"/><polygon points="268.41 564 261.4 563.01 261.4 555.77 268.52 557.04 268.41 564" fill="#637076"/><polygon points="261.45 562.87 260.81 563.2 268.41 564.49 268.41 564 261.45 562.87" fill="#ca915e"/><polygon points="261.45 562.87 260.81 563.2 260.81 561.23 261.41 561.38 261.45 562.87" fill="#dca975"/><polygon points="271.14 565.87 269.87 566.95 269.87 560.98 271.14 559.9 271.14 565.87" fill="#dca975"/><polygon points="271.14 575.01 269.87 575.99 269.87 571.34 271.14 570.36 271.14 575.01" fill="#f1cea8"/><path d="M267.42,566.88l1-.25.68.15a1.67,1.67,0,0,1,.94,1.51v2.12l-.94.74Z" fill="#dca975"/><path d="M269.1,571.15l-1.67-.4v-3.88h0A2.13,2.13,0,0,1,269.1,569Z" fill="#f1cea8"/><polygon points="268.41 566.63 267.42 566.88 267.42 566.41 268.41 566.63" fill="#ca915e"/><path d="M262.4,566.06v.48l-1.4,1.24A1.74,1.74,0,0,1,262.4,566.06Z" fill="#dca975"/><path d="M262.4,566.54h0a1.13,1.13,0,0,0-1.4,1.1v2l1.4.35Z" fill="#f1cea8"/><polygon points="268.06 575.7 268.06 576.12 261.44 575 261.46 574.5 259.74 574.13 259.74 579.37 269.87 581.49 269.87 576.04 268.06 575.7" fill="#f6e1c9"/><polygon points="271.14 575.15 269.87 576.04 268.06 575.7 268.22 575.6 269.87 575.91 270.96 575.15 271.14 575.15" fill="#dca975"/><polygon points="261.77 577.1 261.45 578.04 268.06 579.32 268.06 578.32 261.77 577.1" fill="#ca915e"/><polygon points="261.88 574.43 261.9 576.75 261.45 578.04 261.46 574.5 261.88 574.43" fill="#dca975"/><polygon points="261.46 574.5 259.74 574.13 260 574.06 261.88 574.43 261.46 574.5" fill="#f1cea8"/><polygon points="268.06 589.87 261.78 588.69 261.78 579.9 268.06 581.11 268.06 589.87" fill="#637076"/><polygon points="268.06 578.32 261.78 577.1 261.78 574.92 268.06 576.05 268.06 578.32" fill="#637076"/><polygon points="268.06 587.83 261.78 586.63 261.78 586.47 268.06 587.66 268.06 587.83" fill="#5a636a"/><polygon points="268.06 585.19 261.58 583.95 261.58 581.66 268.06 582.9 268.06 585.19" fill="#5a636a"/><polygon points="268.45 582.82 268.06 582.9 268.06 585.19 268.45 585.13 268.45 582.82" fill="#525351"/><polygon points="261.58 581.66 261.78 581.56 261.78 581.71 261.58 581.66" fill="#525351"/><g opacity="0.15" style="mix-blend-mode:multiply"><path d="M383.18,545.33a2.61,2.61,0,0,0,0-1.37v-6.61l-.67,1.84a27,27,0,0,1-4.21,4.82c-1.93,1.5-8.22,3.78-11.28,4.35s-9.49.68-15.36.61-7.57-1.77-7.57-1.77v-48c0-8.22,8.41-10.74,9.07-10.93-.93.26-15,4.69-16.5,9.9s2.61,96.21-1.63,96.57S329,562,329,562v54.36l12.94-7a44.34,44.34,0,0,0,14.88-.66c11.63-2.73,15.79-8.39,20.87-14.07C387.08,584.19,383.18,545.33,383.18,545.33Zm-6.33,34.75a4.83,4.83,0,0,1-4.69,4.11c-2.87,0-4.93-2.55-4.69-4.56.39-3.35,2.32-15.94,2.32-15.94s-6.33,17.4-3.19,22.13c2.74,4.13,12,2,8.11,6.54s-19.93,6.71-22.7,4.59-.43-33.74-.11-38.7,10.13-5.15,18-6.26a23.27,23.27,0,0,0,8.06-2.78c-1.46,5.34-2.54,12-2.54,12S376.75,577.71,376.85,580.08Z" fill="#999"/><path d="M353.17,488.22h0Z" fill="#999" opacity="0.37" style="mix-blend-mode:multiply"/><path d="M329,493.53a14.73,14.73,0,0,0-6.72,1.09c-2.77,1.41-4.76,1.87-5,4.35s-.24,12.74-.24,12.74l-11-2.5,10.5,26.44v2.8l-10-2.63.12,4.49L314,567.48l-7-1.8v4.68l10,6.36v8.52l-10-2.57-2-1V584l-15.11,10.67-41.52-7.82,29.37,20.29L329,616.38Z" fill="#999"/><path d="M364,404.49c-13.28,0-24,12.07-24,27q0,.71,0,1.42a26.72,26.72,0,0,1,1.15-6.59c-.08.82-.12,1.65-.12,2.49,0,12.75,9.21,23.08,20.58,23.08s20.58-10.34,20.58-23.08c0-.68,0-1.35-.08-2a26.91,26.91,0,0,1,1,7.44c0,12.93-9,23.5-20.41,24.18q.63,0,1.27,0c13.28,0,24-12.07,24-27S377.29,404.49,364,404.49Z" fill="#999"/><path d="M274.72,532l-12.85-2.44-5.17,3.81v-6.59l-.44.24-9-2.42v-3l11.59,3,1.79-1.38V508.79l-1.56-.33s0-2.59-.1-3.29-1.23-1.44-1.23-1.44l1.1.24,1.79-1.53V494l-3.86-.62V490s.77-.93,1.69-1.82,3.4-2,5.84-2.88c0,0-3.1,3.22-3.16,4.21s-.12,3.27-.12,3.27Z" fill="#999"/><path d="M261.87,529.59l-1.52,1.08s31.88,6.21,34.48,6.68-.11,3.38-3.54,7.43-2.9,11.29-5,11.52-35.73-6.51-36.25-6.05a1,1,0,0,0-.2.45,4.6,4.6,0,0,0,3.84,5.7l7.74,1.09,0,2.29,5.28,20.94-4.91-.81.12,5.35,11.22,6.3,16.74,3.15s-.43-31.78.24-35.25,2.86-12.07,8.05-16.23l6.82-5.45Z" fill="#999"/><path d="M228,418.3c1.77,4.67,4.53,13.35,15.51,17.56s119.1,22.55,119.1,22.55-17.34-2-21.26-18.14c-3.81-15.65,2.17-22.83,2.17-22.83a29.61,29.61,0,0,0-5,13.47c-.68,7.73,2.17,17.22-2.31,16.41s-8.82-.11-10.34-4.94c-1.35-4.3-3.79-13.86.17-24.08s16.73-17.53,16.73-17.53l-3.55-.87s-17.33,7.55-18.89,26.56c-1.39,16.9-15.85,10.06-24.8,8.85s-23.22-2.55-24.36-3.86-4.94-8.76-2.52-19.06c3.06-13,18.32-22.08,18.32-22.08l-5.16-.82s-11.95,6.2-16.49,17.22c-4.42,10.73-4.16,20.86-13.12,19.75-8.79-1.09-15.77-2.05-19.08-4A22.86,22.86,0,0,1,228,418.3Z" fill="#999"/><path d="M255.34,438.67,337,453.83l25.61,4.58s5.81.28,9.11-1.4,5.26-2.82,5.26-2.82l-.08,32.39s-3.65-1.24-11.37-1.26a31.94,31.94,0,0,0-14.39,3.89S343.36,470.17,338,466c-4.54-3.54-7.73,4.1-7.73,4.1s-13.56,4.76-48.45-.75C254.26,465,244,458.42,244,458.42S245.61,447.91,255.34,438.67Z" fill="#999"/><path d="M383.18,492.91a13.49,13.49,0,0,1-9.84,9.65c-8.34,2.22-9.75,2.74-9.75,2.74l.43,43.29s8.11.35,14.29-4.59,4.88-6.66,4.88-6.66Z" fill="#b3b3b3" style="mix-blend-mode:multiply"/><g style="mix-blend-mode:multiply"><path d="M346.15,492.91c-1.6,1.76-2.39,3.66-2.1,5.52a4.4,4.4,0,0,0,.12.55A9.06,9.06,0,0,1,346.15,492.91Z" fill="#b3b3b3"/><path d="M383.12,492.38c-.83-5.36-10.25-8.34-21-6.68a36.1,36.1,0,0,0-9.62,2.83,15.3,15.3,0,0,1,2.51-.61c6.77-1,12.94,2.54,13.79,8,.57,3.69-1.15,7-4.38,9.28.6-.08,1.2-.18,1.8-.3C376.9,502.81,383.95,497.74,383.12,492.38Z" fill="#b3b3b3"/></g></g><g opacity="0.5"><path d="M246.88,476.38a3.07,3.07,0,0,1-2.53-3v-2.19a44.18,44.18,0,0,1,13.76-31.93l-.5-.09-.12-.14h0a3.09,3.09,0,0,0-2.76.88,44.12,44.12,0,0,0-12.81,31v2.19a3.07,3.07,0,0,0,2.53,3l85,15.2v-.14Z" fill="#fff"/><path d="M331.2,478.11a43.18,43.18,0,0,1,6.9-23.41.71.71,0,0,0-.48-1.08h0a.72.72,0,0,0-.72.3,43.2,43.2,0,0,0-7.41,24.19v12a.72.72,0,0,0,1,.63l.28-.15a.72.72,0,0,0,.39-.63Z" fill="#fff"/><path d="M248.59,601.66a6.27,6.27,0,0,1-5.16-6.18V475.91l-1.49-.27V595.48a6.27,6.27,0,0,0,5.16,6.18L329,616.38v-.27Z" fill="#fff"/><path d="M290.53,564.62a28.35,28.35,0,0,1,12-23.16l2.45-1.73v-2l-3.11,2.2a28.35,28.35,0,0,0-12,23.16v31.56l.66-.47Z" fill="#fff"/><path d="M250.33,586a1.94,1.94,0,0,1-1.58-1.9v-30a28.35,28.35,0,0,1,11.93-23.11l1.75-1.24-.56-.11-3.18,2.26A28.35,28.35,0,0,0,246.76,555v30a1.94,1.94,0,0,0,1.58,1.9l38.5,7.33a.63.63,0,0,0,.75-.62h0a.63.63,0,0,0-.51-.62Z" fill="#fff"/><path d="M262.4,563.29v-5.81a28.35,28.35,0,0,1,11.93-23.11l2.78-2V482.7l-1-.18v49.83l-2.78,2a28.35,28.35,0,0,0-11.93,23.11v5.81l7.21,1.42v-.19Z" fill="#fff"/><path d="M228.92,414.38h0a26.6,26.6,0,0,1,31.36-26.17s94,14.36,92.67,14.11l-94.57-17.21A26.6,26.6,0,0,0,227,411.28h0a26.53,26.53,0,0,0,4.91,15.39A26.52,26.52,0,0,1,228.92,414.38Z" fill="#fff"/><path d="M342.06,432.69c0-14.61,10.56-26.45,23.58-26.45a22.34,22.34,0,0,1,16.89,8A23.07,23.07,0,0,0,364,404.49c-13.28,0-24,12.07-24,27,0,11.89,6.86,22,16.38,25.56C348,453,342.06,443.6,342.06,432.69Z" fill="#fff"/><path d="M341.94,609.42v-.77L329,614.34l2.57-122.39A1,1,0,0,0,330,491h0a1,1,0,0,0-.56.92L329,616.38l13.23-7Z" fill="#fff"/><path d="M364,548.59c-17.84,1.56-22.07-2.58-22.07-2.58v63.41h8.3a32.87,32.87,0,0,0,24.83-11.3,30.28,30.28,0,0,1-22.32,9.81h0a7.67,7.67,0,0,1-7.67-7.67V549s3.63,2.36,20.11.91c16.25-1.43,18-9,18-9v-3.59S381.6,547.06,364,548.59Z" fill="#fff"/><path d="M383.12,492.38c0-.08,0-.16,0-.24.51,5-6.11,9.64-16.07,11.6s-20.18-1.07-21-6.15,6.61-10.28,16.57-12l-.52.07c-10.79,1.67-18.86,7.36-18,12.72s11.57,8.57,22.13,6.49S383.95,497.74,383.12,492.38Z" fill="#fff"/><path d="M366,504.78c17.24-3,17.23-12.39,17.23-12.39s0,9.41-18.18,12.39a39.37,39.37,0,0,1-5.58.53A33.85,33.85,0,0,0,366,504.78Z" fill="#fff"/><path d="M346.15,547.19V501.47a8.73,8.73,0,0,1-2-2.32v48s2.65,2,12.75,1.85C348.42,549,346.15,547.19,346.15,547.19Z" fill="#fff"/><ellipse cx="352.14" cy="493.1" rx="5.03" ry="2.3" transform="translate(-215.51 281.15) rotate(-33.99)" fill="#fff"/><circle cx="358.37" cy="489.36" r="1.09" fill="#fff"/><ellipse cx="349.64" cy="514.74" rx="1.87" ry="8.09" fill="#fff"/><ellipse cx="349.12" cy="529.48" rx="1.35" ry="1.97" fill="#fff"/><ellipse cx="349.64" cy="540.09" rx="1.87" ry="5.92" fill="#fff"/><path d="M376.44,556s0,0,0-.06a2,2,0,0,0-.94-1.71,3,3,0,1,0-2.22,5h0a2.71,2.71,0,1,1,.89-5.33,2,2,0,1,0,1,3.86,1.86,1.86,0,1,1-.22-3.55,2.72,2.72,0,0,1,1,1.1.68.68,0,0,0-.47-.2.84.84,0,0,0,0,1.67.77.77,0,0,0,.73-.72v0s0-.05,0-.08,0,0,0-.08a.93.93,0,0,0-.06-.33,3,3,0,0,0-.37-.94A1.86,1.86,0,0,1,376.44,556Z" fill="#fff"/><path d="M310.72,420a32.37,32.37,0,0,1,16.21-21,31.7,31.7,0,0,0-17.3,21c-4.72,18.59,5.38,29.63,5.38,29.63l.35.06C313.13,446.54,306.79,436,310.72,420Z" fill="#fff"/><path d="M253.72,409.51a33.08,33.08,0,0,1,12.09-18.87,31.37,31.37,0,0,0-13.6,18.89c-4.72,18.59,5.38,29.63,5.38,29.63l.35.06C255.43,435.4,250,424.91,253.72,409.51Z" fill="#fff"/><path d="M271.06,441.37l.21.27.1,0Z" fill="#fff"/><path d="M278.46,391.3a26.21,26.21,0,0,1,3.33-1.81l-.49-.09A34,34,0,0,0,278.46,391.3Z" fill="#fff"/></g><path d="M175.79,95.53h65.08v28.41h30.31V95.53h18.65V70.73H271.18V12.48a306.17,306.17,0,0,0-30.31,10.66V70.73H201.23l24.89-41.06a308.14,308.14,0,0,0-40.66,23.23L175.79,68.4Z" fill="#fff"/><path d="M317.18,106.34q14,20.14,43,20.14t43-20.14q14-20.14,14-56.39,0-27.53-8.07-45.75a311.09,311.09,0,0,0-97.58-.69Q303.2,21.92,303.19,50,303.19,86.2,317.18,106.34ZM337.74,36q0-17,4.88-26.29T360.21.35q12.72,0,17.59,9.33T382.68,36v28q0,17-4.88,26.29t-17.59,9.33q-12.72,0-17.59-9.33t-4.88-26.29Z" fill="#fff"/><path d="M430.16,95.53h65.08v28.41h30.31V95.53h18.65V70.73H525.56V49.26A308.06,308.06,0,0,0,495.24,32V70.73H455.6l27-44.61q-10.27-4.53-20.91-8.32L430.16,68.4Z" fill="#fff"/></g></svg>