<svg xmlns="http://www.w3.org/2000/svg" width="40" height="39.969" viewBox="0 0 40 39.969">
  <metadata><?xpacket begin="﻿" id="W5M0MpCehiHzreSzNTczkc9d"?>
<x:xmpmeta xmlns:x="adobe:ns:meta/" x:xmptk="Adobe XMP Core 5.6-c138 79.159824, 2016/09/14-01:09:01        ">
   <rdf:RDF xmlns:rdf="http://www.w3.org/1999/02/22-rdf-syntax-ns#">
      <rdf:Description rdf:about=""/>
   </rdf:RDF>
</x:xmpmeta>
                                                                                                    
                                                                                                    
                                                                                                    
                                                                                                    
                                                                                                    
                                                                                                    
                                                                                                    
                                                                                                    
                                                                                                    
                                                                                                    
                                                                                                    
                                                                                                    
                                                                                                    
                                                                                                    
                                                                                                    
                                                                                                    
                                                                                                    
                                                                                                    
                                                                                                    
                                                                                                    
                           
<?xpacket end="w"?></metadata>
<defs>
    <style>
      .cls-1 {
        fill: #76c9e3;
        fill-rule: evenodd;
      }
    </style>
  </defs>
  <path id="_3" data-name="3" class="cls-1" d="M991.505,988.73v0.008a2.589,2.589,0,0,1-2.587,2.584h-7.249a2.588,2.588,0,0,1-2.586-2.584V988.73a6.215,6.215,0,0,1,3.859-5.744,4.269,4.269,0,1,1,4.7,0A6.217,6.217,0,0,1,991.505,988.73Zm-3.114-9.3a3.1,3.1,0,1,0-3.1,3.1A3.1,3.1,0,0,0,988.391,979.428Zm-3.1,4.266a5.043,5.043,0,0,0-5.039,5.036v0.008a1.415,1.415,0,0,0,1.414,1.413h7.249a1.416,1.416,0,0,0,1.415-1.413V988.73A5.043,5.043,0,0,0,985.294,983.694Zm1.951-2.644a4.131,4.131,0,0,1-3.9,0,0.586,0.586,0,0,1,.564-1.027,2.957,2.957,0,0,0,2.774,0A0.586,0.586,0,1,1,987.245,981.05Zm-0.993-2.126a0.5,0.5,0,1,1,.5-0.5A0.5,0.5,0,0,1,986.252,978.924Zm-1.917,0a0.5,0.5,0,1,1,.5-0.5A0.5,0.5,0,0,1,984.335,978.924Zm27.065,10.469H997.962a0.586,0.586,0,1,1,0-1.171H1011.4A0.586,0.586,0,1,1,1011.4,989.393Zm0-2.8H997.962a0.586,0.586,0,1,1,0-1.171H1011.4A0.586,0.586,0,1,1,1011.4,986.6Zm-13.438-6.1a0.586,0.586,0,1,1,0-1.171h6.718a0.586,0.586,0,1,1,0,1.171h-6.718Zm14.028,2.72a0.592,0.592,0,0,1-.59.586H997.962a0.586,0.586,0,1,1,0-1.171H1011.4A0.591,0.591,0,0,1,1011.99,983.213Zm2.42-8.8a0.585,0.585,0,0,1,.59.585v20.825a0.585,0.585,0,0,1-.59.586h-6.17a5.786,5.786,0,0,1,.95,2.381l0.36-.068a0.579,0.579,0,0,1,.61.275l3.06,5.109a0.592,0.592,0,0,1,0,.59,0.573,0.573,0,0,1-.51.3H1010a0.585,0.585,0,1,1,0-1.17h1.68l-2.31-3.878-0.58.108h-0.01l-7.78,1.46,1.26,2.31h5.27a0.585,0.585,0,0,1,0,1.17h-5.62a0.582,0.582,0,0,1-.51-0.31l-1.644-3.01H999.68a8.741,8.741,0,0,1-2.218-.28,9.131,9.131,0,0,1-2.078-.83,7.637,7.637,0,0,0-3.725-.972h-9.681a1.161,1.161,0,0,1-1.158-1.161,3.383,3.383,0,0,1,.669-2.024h-5.9a0.586,0.586,0,0,1-.586-0.586v-3.318a0.586,0.586,0,0,1,1.172,0v2.733h6.9a3.337,3.337,0,0,1,1.127-.2h6.331a2.83,2.83,0,0,1,2.4-1.329h1.49V972.446H976.172v17.539a0.586,0.586,0,0,1-1.172,0v-24.37a0.586,0.586,0,0,1,.586-0.586h38.824a0.585,0.585,0,0,1,.59.586v6.909a0.585,0.585,0,1,1-1.17,0v-0.078H995.586v21.271h5.934a9.075,9.075,0,0,1,5.6,1.525h6.71V975A0.583,0.583,0,0,1,1014.41,974.417Zm-0.58-3.142V966.2H976.172v5.075h37.658Zm-7.28,25.014-0.03-.026a7.673,7.673,0,0,0-5-1.375h-8.6a1.659,1.659,0,0,0-1.65,1.5c2.128,0.064,5.681.278,6.843,0.993a12.525,12.525,0,0,1,1.127.817,0.586,0.586,0,1,1-.726.919,12.026,12.026,0,0,0-1.014-.739c-0.671-.412-3.192-0.735-6.424-0.824a1.011,1.011,0,0,1-.985-1.011,2.959,2.959,0,0,1,.019-0.327H984.2a2.214,2.214,0,0,0-2.2,2.21h9.667a8.85,8.85,0,0,1,4.3,1.116,8,8,0,0,0,1.8.727,7.794,7.794,0,0,0,1.923.24h0.37l7.99-1.5A4.326,4.326,0,0,0,1006.55,996.289Zm-27.37-29.347a1.757,1.757,0,1,1-1.758,1.756A1.759,1.759,0,0,1,979.18,966.942Zm0,2.342a0.586,0.586,0,1,0-.586-0.586A0.587,0.587,0,0,0,979.18,969.284Zm4.687-2.342a1.757,1.757,0,1,1-1.758,1.756A1.759,1.759,0,0,1,983.867,966.942Zm0,2.342a0.586,0.586,0,1,0-.586-0.586A0.587,0.587,0,0,0,983.867,969.284Zm4.688-2.342A1.757,1.757,0,1,1,986.8,968.7,1.759,1.759,0,0,1,988.555,966.942Zm0,2.342a0.586,0.586,0,1,0-.586-0.586A0.587,0.587,0,0,0,988.555,969.284Z" transform="translate(-975 -965.031)"/>
</svg>
