<svg xmlns="http://www.w3.org/2000/svg" width="40.03" height="39.969" viewBox="0 0 40.03 39.969">
  <metadata><?xpacket begin="﻿" id="W5M0MpCehiHzreSzNTczkc9d"?>
<x:xmpmeta xmlns:x="adobe:ns:meta/" x:xmptk="Adobe XMP Core 5.6-c138 79.159824, 2016/09/14-01:09:01        ">
   <rdf:RDF xmlns:rdf="http://www.w3.org/1999/02/22-rdf-syntax-ns#">
      <rdf:Description rdf:about=""/>
   </rdf:RDF>
</x:xmpmeta>
                                                                                                    
                                                                                                    
                                                                                                    
                                                                                                    
                                                                                                    
                                                                                                    
                                                                                                    
                                                                                                    
                                                                                                    
                                                                                                    
                                                                                                    
                                                                                                    
                                                                                                    
                                                                                                    
                                                                                                    
                                                                                                    
                                                                                                    
                                                                                                    
                                                                                                    
                                                                                                    
                           
<?xpacket end="w"?></metadata>
<defs>
    <style>
      .cls-1 {
        fill: #76c9e3;
        fill-rule: evenodd;
      }
    </style>
  </defs>
  <path id="_4" data-name="4" class="cls-1" d="M1210,992.821v0.469a2.935,2.935,0,0,1-2.93,2.927h-3.97a5.683,5.683,0,0,1,1.09,2.577l0.36-.068a0.579,0.579,0,0,1,.61.275l3.06,5.109a0.592,0.592,0,0,1,0,.59,0.573,0.573,0,0,1-.51.3h-10.8a0.582,0.582,0,0,1-.51-0.31l-1.64-3.01h-0.08a8.773,8.773,0,0,1-2.22-.28,9.315,9.315,0,0,1-2.08-.83,7.6,7.6,0,0,0-3.72-.972H1185a0.586,0.586,0,1,1,0-1.171h1.66a8.825,8.825,0,0,1,4.29,1.116,8.064,8.064,0,0,0,1.81.727,7.711,7.711,0,0,0,1.92.24h0.37l7.99-1.5a4.3,4.3,0,0,0-1.7-2.89,0.188,0.188,0,0,1-.05-0.034,8.029,8.029,0,0,0-4.77-1.2h-8.6a1.663,1.663,0,0,0-1.51.982,1.874,1.874,0,0,0-.14.519c2.13,0.064,5.68.278,6.85,0.993a12.908,12.908,0,0,1,1.12.817,0.584,0.584,0,1,1-.72.919,11.759,11.759,0,0,0-1.02-.739c-0.67-.412-3.19-0.735-6.42-0.824a1.012,1.012,0,0,1-.7-0.306,1.029,1.029,0,0,1-.28-0.705c0-.11,0-0.219.01-0.327h-5.91a2.218,2.218,0,0,0-2.21,2.21h5.51a0.586,0.586,0,1,1,0,1.171h-5.52a1.162,1.162,0,0,1-1.16-1.161,3.36,3.36,0,0,1,.83-2.22h-3.72a2.935,2.935,0,0,1-2.93-2.927v-0.469a1.21,1.21,0,0,1,1.21-1.21h1.64a2.129,2.129,0,0,1-.23-0.975V977.5a0.585,0.585,0,1,1,1.17,0v13.135a0.979,0.979,0,0,0,.98.975h30.46a0.979,0.979,0,0,0,.98-0.975v-0.289l-0.7-.367-1.53.8a1.158,1.158,0,0,1-1.22-.091,1.071,1.071,0,0,1-.24-0.245h-26.97a0.585,0.585,0,0,1-.59-0.585V972.932l-0.47-.244-0.7.367V975a0.585,0.585,0,1,1-1.17,0v-1.4a1.22,1.22,0,0,1-.19.017,1.158,1.158,0,0,1-1.14-1.344l0.29-1.679-1.23-1.19a1.149,1.149,0,0,1,.64-1.959l1.71-.246,0.76-1.531a1.149,1.149,0,0,1,1.03-.638,1.163,1.163,0,0,1,1.04.639l0.76,1.53,1.71,0.246a1.16,1.16,0,0,1,.92.747h26.31a2.148,2.148,0,0,1,2.15,2.147V984.5l1.63,0.235a1.15,1.15,0,0,1,.64,1.96l-1.23,1.189,0.29,1.68a1.157,1.157,0,0,1-1.34,1.325,2.193,2.193,0,0,1-.22.721h1.64A1.21,1.21,0,0,1,1210,992.821Zm-14,8.7,1.26,2.31h9.42l-2.31-3.878Zm-19.89-33.164a1.168,1.168,0,0,1-.87-0.626l-0.75-1.51-0.75,1.51a1.15,1.15,0,0,1-.87.626l-1.67.24,1.21,1.164a1.138,1.138,0,0,1,.33,1.019l-0.28,1.65,0.46-.244c0.01,0,.01,0,0.01,0l1.03-.537a1.166,1.166,0,0,1,1.07,0l0.78,0.408a0.03,0.03,0,0,1,.02.013l0.7,0.362-0.29-1.65a1.143,1.143,0,0,1,.34-1.019l1.2-1.164Zm30.1,1.982a0.979,0.979,0,0,0-.98-0.976h-26.56a0.14,0.14,0,0,1-.04.041l-1.17,1.13H1200a0.586,0.586,0,1,1,0,1.171h-22.41l0.1,0.568a1.136,1.136,0,0,1-.45,1.121,1.159,1.159,0,0,1-1.11.142v15.734h26.23l0.24-1.384-1.23-1.189a1.144,1.144,0,0,1,.63-1.96l1.71-.246,0.16-.312V971.7h-1.35a0.586,0.586,0,1,1,0-1.171h1.93a0.585,0.585,0,0,1,.59.586v11.3a1.159,1.159,0,0,1,1.17.14V970.338Zm1.33,19.383-0.28-1.65a1.137,1.137,0,0,1,.33-1.019l1.21-1.164-1.67-.24a1.166,1.166,0,0,1-.82-0.533c-0.01-.023-0.03-0.048-0.04-0.073,0-.007-0.01-0.013-0.01-0.02l-0.75-1.51-0.76,1.51a1.134,1.134,0,0,1-.86.626l-1.67.24,1.2,1.164a1.144,1.144,0,0,1,.34,1.019l-0.29,1.65,1.5-.783a1.166,1.166,0,0,1,1.07,0l1.03,0.537s0,0,.01,0Zm-36.33,3.061a0.041,0.041,0,0,0-.04.039v0.469a1.76,1.76,0,0,0,1.76,1.756h12.6a2.819,2.819,0,0,1,2.39-1.329h8.6a9.422,9.422,0,0,1,5.33,1.329h5.22a1.76,1.76,0,0,0,1.76-1.756v-0.469a0.041,0.041,0,0,0-.04-0.039h-37.58Zm29.37-11.467a2.135,2.135,0,0,0-.01.451,1.9,1.9,0,0,1-.17,1.123,1.956,1.956,0,0,1-.89.717,1.686,1.686,0,0,0-.38.225,2.049,2.049,0,0,0-.23.378,1.582,1.582,0,0,1-1.84,1.068,1.75,1.75,0,0,0-.45.008,1.8,1.8,0,0,0-.37.209,1.617,1.617,0,0,1-2.17,0,1.578,1.578,0,0,0-.37-0.209,1.8,1.8,0,0,0-.45-0.008,1.582,1.582,0,0,1-1.84-1.068,1.6,1.6,0,0,0-.23-0.378,1.62,1.62,0,0,0-.37-0.226,1.563,1.563,0,0,1-1.07-1.839,1.624,1.624,0,0,0-.01-0.451,1.992,1.992,0,0,0-.21-0.371,1.6,1.6,0,0,1,0-2.163,1.964,1.964,0,0,0,.21-0.372,1.616,1.616,0,0,0,.01-0.45,1.565,1.565,0,0,1,1.07-1.84,1.62,1.62,0,0,0,.37-0.226,1.6,1.6,0,0,0,.23-0.378,1.582,1.582,0,0,1,1.84-1.068,1.705,1.705,0,0,0,.45-0.008,1.605,1.605,0,0,0,.37-0.208,1.614,1.614,0,0,1,2.17,0,1.841,1.841,0,0,0,.37.208,1.705,1.705,0,0,0,.45.008,1.582,1.582,0,0,1,1.84,1.068,2.015,2.015,0,0,0,.23.378,1.722,1.722,0,0,0,.38.226,1.956,1.956,0,0,1,.89.717,1.9,1.9,0,0,1,.17,1.123,2.125,2.125,0,0,0,.01.45,1.964,1.964,0,0,0,.21.372,1.6,1.6,0,0,1,0,2.163A1.992,1.992,0,0,0,1200.58,981.315Zm-0.77-1.89a2.5,2.5,0,0,1-.36-0.713,2.566,2.566,0,0,1-.05-0.818,1.4,1.4,0,0,0-.01-0.471,1.477,1.477,0,0,0-.41-0.258,2.444,2.444,0,0,1-.68-0.444,2.638,2.638,0,0,1-.45-0.68,0.5,0.5,0,0,0-.72-0.424,2.593,2.593,0,0,1-.82-0.046,2.532,2.532,0,0,1-.72-0.362,1.261,1.261,0,0,0-.43-0.226,1.207,1.207,0,0,0-.44.226,2,2,0,0,1-1.53.408,1.37,1.37,0,0,0-.48.019,1.3,1.3,0,0,0-.25.405,2.4,2.4,0,0,1-.45.68,2.308,2.308,0,0,1-.68.444,1.269,1.269,0,0,0-.4.258,1.348,1.348,0,0,0-.02.471,2.566,2.566,0,0,1-.05.818,2.5,2.5,0,0,1-.36.713,0.531,0.531,0,0,0,0,.875,2.5,2.5,0,0,1,.36.713,2.564,2.564,0,0,1,.05.818,1.348,1.348,0,0,0,.02.471,1.269,1.269,0,0,0,.4.257,2.348,2.348,0,0,1,.68.444,2.417,2.417,0,0,1,.45.68,1.309,1.309,0,0,0,.25.406,1.421,1.421,0,0,0,.48.019c0.1-.006.21-0.012,0.32-0.012a1.824,1.824,0,0,1,.49.058,2.532,2.532,0,0,1,.72.362,1.224,1.224,0,0,0,.44.226,1.279,1.279,0,0,0,.43-0.226,2.532,2.532,0,0,1,.72-0.362,2.564,2.564,0,0,1,.82-0.046,1.36,1.36,0,0,0,.47-0.019,1.309,1.309,0,0,0,.25-0.406,2.655,2.655,0,0,1,.45-0.68,2.49,2.49,0,0,1,.68-0.444,1.477,1.477,0,0,0,.41-0.257,1.4,1.4,0,0,0,.01-0.471,2.564,2.564,0,0,1,.05-0.818,2.5,2.5,0,0,1,.36-0.713A0.531,0.531,0,0,0,1199.81,979.425Zm-6.01,2.624a0.609,0.609,0,0,1-.42.172,0.569,0.569,0,0,1-.41-0.172,0.583,0.583,0,0,1,0-.828l3.55-3.546a0.577,0.577,0,0,1,.82,0,0.583,0.583,0,0,1,0,.828Zm-0.39-3.347a0.586,0.586,0,1,1,0-1.171A0.586,0.586,0,0,1,1193.41,978.7Zm3.49,2.32a0.586,0.586,0,1,1-.58.586A0.586,0.586,0,0,1,1196.9,981.022Zm-11.59,4h-6.25a0.586,0.586,0,0,1,0-1.171h6.25A0.586,0.586,0,1,1,1185.31,985.022Zm0-2.266h-6.25a0.586,0.586,0,0,1,0-1.171h6.25A0.586,0.586,0,1,1,1185.31,982.756Zm0-2.267h-6.25a0.586,0.586,0,0,1,0-1.171h6.25A0.586,0.586,0,1,1,1185.31,980.489Zm0-2.267h-6.25a0.586,0.586,0,0,1,0-1.171h6.25A0.586,0.586,0,1,1,1185.31,978.222Zm0-2.267h-6.25a0.586,0.586,0,0,1,0-1.171h6.25A0.586,0.586,0,1,1,1185.31,975.955Z" transform="translate(-1170 -965.031)"/>
</svg>
