<svg xmlns="http://www.w3.org/2000/svg" width="40" height="40" viewBox="0 0 40 40">
  <metadata><?xpacket begin="﻿" id="W5M0MpCehiHzreSzNTczkc9d"?>
<x:xmpmeta xmlns:x="adobe:ns:meta/" x:xmptk="Adobe XMP Core 5.6-c138 79.159824, 2016/09/14-01:09:01        ">
   <rdf:RDF xmlns:rdf="http://www.w3.org/1999/02/22-rdf-syntax-ns#">
      <rdf:Description rdf:about=""/>
   </rdf:RDF>
</x:xmpmeta>
                                                                                                    
                                                                                                    
                                                                                                    
                                                                                                    
                                                                                                    
                                                                                                    
                                                                                                    
                                                                                                    
                                                                                                    
                                                                                                    
                                                                                                    
                                                                                                    
                                                                                                    
                                                                                                    
                                                                                                    
                                                                                                    
                                                                                                    
                                                                                                    
                                                                                                    
                                                                                                    
                           
<?xpacket end="w"?></metadata>
<defs>
    <style>
      .cls-1 {
        fill: #76c9e3;
        fill-rule: evenodd;
      }
    </style>
  </defs>
  <path id="_5" data-name="5" class="cls-1" d="M624.329,1107.13h-6.711a0.693,0.693,0,0,1-.672-0.71v-3.57h-5.718a6.681,6.681,0,0,1-.26,1.34,7.654,7.654,0,0,1-1.1,2.2l1.239,1.19c0.026,0.03.05,0.06,0.073,0.09a1.569,1.569,0,0,1,.192,1.57,1.217,1.217,0,0,1-1.132.75h-24.16a1.055,1.055,0,0,1-.976-0.62,1.762,1.762,0,0,1,.313-1.7l1.065-1.23a7.536,7.536,0,0,1-1.463-4.02,7.117,7.117,0,0,1,.716-3.49l7.647-16.07-4.544-9.68a0.742,0.742,0,0,1-.067-0.39,0.689,0.689,0,0,1,.738-0.64l2.892,0.35-0.274-1.65a0.775,0.775,0,0,1,.1-0.53,0.651,0.651,0,0,1,.931-0.19l3.724,2.64,4.366-1.99a0.625,0.625,0,0,1,.465-0.03,0.728,0.728,0,0,1,.44.9l-0.112.38,3.269-1.27a0.658,0.658,0,0,1,.5.02,0.734,0.734,0,0,1,.347.94l-4.56,11.09,7.13,12.9h12.251a2.774,2.774,0,0,1,2.685,2.85v1.43h0.671a0.7,0.7,0,0,1,.671.72v5.71A0.692,0.692,0,0,1,624.329,1107.13Zm-14.214,1.43-1.164-1.12a6.882,6.882,0,0,1-1.614,1.12h2.778Zm-23.653,0h2.511a6.908,6.908,0,0,1-1.564-1.08Zm6.182-34.6-2.062-.24,3.121,6.64Zm4.435,0.28a0.636,0.636,0,0,1-.637-0.07l-2.723-1.93,1.643,9.9h2.3l2.773-9.43Zm7.215-1.56-2.758,1.06-2.468,8.4H600.4Zm-3.839,10.89h-0.793l1.162,5.56-1.31.31-1.225-5.87h-1.648L595,1089.38a0.325,0.325,0,0,0,.073.31,0.277,0.277,0,0,0,.409,0l1.524-1.63,0.949,1.01-1.523,1.63a1.571,1.571,0,0,1-1.622.43,1.757,1.757,0,0,1-1.1-2.16l1.521-5.4h-0.7l-7.612,16.01a5.569,5.569,0,0,0-.575,2.74,5.928,5.928,0,0,0,3.345,5.03l-0.5,1.21h17.9l-0.5-1.21a5.82,5.82,0,0,0,3.075-3.57h0a5.491,5.491,0,0,0,.192-0.93h-5.906a6.991,6.991,0,0,1-2.457,2.61,6.5,6.5,0,0,1-9.167-2.61,7.387,7.387,0,0,1,2.456-9.75,6.485,6.485,0,0,1,9.168,2.61h3.2Zm3.069,13.57a0.687,0.687,0,0,1-.665-0.62,5.539,5.539,0,0,0-2.317-2.36,5.223,5.223,0,0,0-7.2,2.58,5.876,5.876,0,0,0,2.423,7.65,5.22,5.22,0,0,0,7.2-2.57,0.659,0.659,0,0,1,.6-0.4h13.379v-0.71a0.7,0.7,0,0,1,.672-0.72h0.671v-1.43a2.922,2.922,0,0,1,.373-1.42H603.524Zm18.791,1.42a1.344,1.344,0,1,0-2.684,0v1.43h2.684v-1.43Zm1.343,2.86h-5.369v4.28h5.369v-4.28Zm-2.014,2.86H620.3v-1.43h1.342v1.43Zm-12.08-5.72h6.04v1.43h-6.04v-1.43Zm-3.356,0h2.014v1.43h-2.014v-1.43Zm-2.684,0h1.342v1.43h-1.342v-1.43Zm-6.04-.71a0.692,0.692,0,0,0,.671.71,2.02,2.02,0,0,1,1.9,1.43,2.184,2.184,0,0,1-1.227,2.73v0.84h-1.342v-0.71h-1.343v-1.43h2.014a0.716,0.716,0,0,0,0-1.43,2.025,2.025,0,0,1-1.9-1.42,2.176,2.176,0,0,1,1.228-2.73v-0.85h1.342v0.72h1.342v1.43h-2.013A0.692,0.692,0,0,0,597.484,1097.85Zm25.5-3.57H609.564a2.08,2.08,0,0,1-2.013-2.14v-19.99a2.08,2.08,0,0,1,2.013-2.14h13.423a2.08,2.08,0,0,1,2.013,2.14v19.99A2.08,2.08,0,0,1,622.987,1094.28Zm-14.094-2.14a0.692,0.692,0,0,0,.671.71h6.04v-5.71h-6.711v5Zm0-6.43H615.6V1080h-6.711v5.71Zm14.765-13.56a0.687,0.687,0,0,0-.671-0.71H609.564a0.686,0.686,0,0,0-.671.71v6.42h14.765v-6.42Zm0,7.85h-6.712v5.71h6.712V1080Zm0,7.14h-6.712v5.71h6.041a0.693,0.693,0,0,0,.671-0.71v-5Zm-5.369,2.14h4.026v1.43h-4.026v-1.43Zm1.342-1.07h1.342v0.72h-1.342v-0.72Zm1.342,3.57h-1.342v-0.71h1.342v0.71Zm1.342-8.21h-4.026v-1.43h4.026v1.43Zm-11.409-10.71h10.738a0.7,0.7,0,0,1,.671.72v2.85a0.7,0.7,0,0,1-.671.72H610.906a0.7,0.7,0,0,1-.671-0.72v-2.85A0.7,0.7,0,0,1,610.906,1072.86Zm0.671,2.86h9.4v-1.43h-9.4v1.43Zm1.343,9.28h-1.343v-1.43h-1.342v-1.43h1.342v-1.42h1.343v1.42h1.342v1.43H612.92V1085Zm0.278,7.1-0.949-1.01-0.949,1.01-0.949-1.01,0.949-1.01-0.949-1.01,0.949-1.01,0.949,1.01,0.949-1.01,0.949,1.01-0.949,1.01,0.949,1.01Z" transform="translate(-585 -1070)"/>
</svg>
