<svg xmlns="http://www.w3.org/2000/svg" width="40" height="40" viewBox="0 0 40 40">
  <metadata><?xpacket begin="﻿" id="W5M0MpCehiHzreSzNTczkc9d"?>
<x:xmpmeta xmlns:x="adobe:ns:meta/" x:xmptk="Adobe XMP Core 5.6-c138 79.159824, 2016/09/14-01:09:01        ">
   <rdf:RDF xmlns:rdf="http://www.w3.org/1999/02/22-rdf-syntax-ns#">
      <rdf:Description rdf:about=""/>
   </rdf:RDF>
</x:xmpmeta>
                                                                                                    
                                                                                                    
                                                                                                    
                                                                                                    
                                                                                                    
                                                                                                    
                                                                                                    
                                                                                                    
                                                                                                    
                                                                                                    
                                                                                                    
                                                                                                    
                                                                                                    
                                                                                                    
                                                                                                    
                                                                                                    
                                                                                                    
                                                                                                    
                                                                                                    
                                                                                                    
                           
<?xpacket end="w"?></metadata>
<defs>
    <style>
      .cls-1 {
        fill: #76c9e3;
        fill-rule: evenodd;
      }
    </style>
  </defs>
  <path id="_6" data-name="6" class="cls-1" d="M819.469,1097.25l-2.737-.57a0.146,0.146,0,0,1-.121-0.1,0.152,0.152,0,0,1,.017-0.15l1.587-2.26a0.639,0.639,0,0,0-.077-0.83l-2.5-2.46a0.677,0.677,0,0,0-.849-0.07l-2.3,1.55a0.175,0.175,0,0,1-.233-0.04,0.219,0.219,0,0,1-.025-0.06l-0.575-2.69a0.668,0.668,0,0,0-.654-0.52h-1v-7.73a8.69,8.69,0,0,1,3.655,1.09,0.672,0.672,0,0,0,.8-0.11,3.1,3.1,0,0,1,2.164-.87h0.028a2.984,2.984,0,0,1,2.1.87,0.667,0.667,0,0,0,.481.2,0.715,0.715,0,0,0,.207-0.03,0.652,0.652,0,0,0,.454-0.53,10.512,10.512,0,0,0-9.071-11.84,10.636,10.636,0,0,0-12.053,8.91,10.346,10.346,0,0,0,0,2.93,0.668,0.668,0,0,0,1.142.36,2.984,2.984,0,0,1,2.1-.87h0.029a3.1,3.1,0,0,1,2.164.87,0.67,0.67,0,0,0,.8.11,8.7,8.7,0,0,1,3.658-1.09v7.73h-1a0.667,0.667,0,0,0-.653.52l-0.575,2.69a0.169,0.169,0,0,1-.1.12,0.175,0.175,0,0,1-.157-0.02l-2.3-1.56a0.679,0.679,0,0,0-.849.08l-1.151,1.13a41.757,41.757,0,0,0-3.478-2.83,0.7,0.7,0,0,0-.373-0.12l3.833-4.84a0.647,0.647,0,0,0-.117-0.92,0.683,0.683,0,0,0-.57-0.12l-4.106,1.01,0.885-2.09a0.649,0.649,0,0,0-.363-0.85,0.658,0.658,0,0,0-.515,0l-4.333,1.83-3.7-2.43a0.675,0.675,0,0,0-.924.18,0.648,0.648,0,0,0-.068.6l0.8,2.03-3.324-.93a0.673,0.673,0,0,0-.823.45,0.664,0.664,0,0,0,.094.56l3.928,5.51h-0.053a0.712,0.712,0,0,0-.4.13c-2.044,1.5-8.266,6.07-8.266,11,0,8.22,7.609,9.17,13.333,9.17,4,0,7-.57,9.143-1.72l0.552,0.54a0.666,0.666,0,0,0,.849.08l2.3-1.56a0.173,0.173,0,0,1,.231.04,0.2,0.2,0,0,1,.026.06l0.575,2.69a0.667,0.667,0,0,0,.653.52H811a0.668,0.668,0,0,0,.653-0.52l0.575-2.69a0.171,0.171,0,0,1,.1-0.12,0.175,0.175,0,0,1,.157.02l2.3,1.56a0.666,0.666,0,0,0,.849-0.08l2.5-2.45a0.654,0.654,0,0,0,.077-0.84l-1.587-2.26a0.149,0.149,0,0,1-.017-0.15,0.161,0.161,0,0,1,.121-0.1l2.738-.57a0.654,0.654,0,0,0,.53-0.64v-3.27A0.654,0.654,0,0,0,819.469,1097.25Zm-0.8-16.71v0.08a4.478,4.478,0,0,0-2-.5,4.608,4.608,0,0,0-2,.46v-0.04c0-3.64-.9-6.78-2.3-8.65A9.171,9.171,0,0,1,818.665,1080.54Zm-14.666,0v0.04a4.608,4.608,0,0,0-2-.46,4.485,4.485,0,0,0-2,.5v-0.08a9.174,9.174,0,0,1,6.3-8.65C804.9,1073.76,804,1076.9,804,1080.54Zm1.334,0.24v-0.24c0-5.4,2.107-9.16,4-9.16s4,3.76,4,9.16v0.24A10.192,10.192,0,0,0,805.333,1080.78Zm-5.712,4.13-3.281,4.14H795l1.424-3.35Zm-7.325-.55a0.708,0.708,0,0,0,.633.06l3.157-1.33-2.531,5.96h-1.1l-2.416-6.17Zm-5.339-.07,2.482,0.7,1.59,4.06h-0.682Zm6.376,23.75c-8.3,0-12-2.42-12-7.86,0-2.8,2.542-6.1,7.556-9.82h1.548l-1.512,4.95a1.585,1.585,0,0,0,1.088,1.98,1.623,1.623,0,0,0,1.611-.4l1.514-1.48-0.943-.93-1.514,1.49a0.291,0.291,0,0,1-.406,0,0.274,0.274,0,0,1-.073-0.28l1.627-5.33h1.637l1.217,5.38,1.3-.28-1.155-5.1h2.946q1.645,1.215,3.156,2.58l-0.4.39a0.655,0.655,0,0,0-.078.84l1.588,2.26a0.151,0.151,0,0,1,.017.15,0.146,0.146,0,0,1-.121.1l-2.739.57a0.655,0.655,0,0,0-.534.64v3.27a0.654,0.654,0,0,0,.529.64l2.739,0.57a0.163,0.163,0,0,1,.121.1,0.149,0.149,0,0,1-.017.15l-1.587,2.26a0.654,0.654,0,0,0,.077.84l0.966,0.95A19.273,19.273,0,0,1,793.333,1108.04Zm25.332-7.41-2.209.46a1.473,1.473,0,0,0-1.159,1.74,1.407,1.407,0,0,0,.233.54l1.269,1.81-1.712,1.68-1.845-1.24a1.509,1.509,0,0,0-2.087.37,1.422,1.422,0,0,0-.233.54l-0.464,2.16h-2.251l-0.467-2.17a1.507,1.507,0,0,0-2.318-.91l-1.844,1.25-1.712-1.68,1.267-1.81a1.458,1.458,0,0,0-.384-2.05,1.529,1.529,0,0,0-.543-0.23l-2.207-.46v-2.21l2.21-.46a1.464,1.464,0,0,0,1.159-1.74,1.447,1.447,0,0,0-.233-0.53l-1.269-1.81,1.712-1.69,1.846,1.25a1.518,1.518,0,0,0,2.085-.38,1.431,1.431,0,0,0,.233-0.53l0.467-2.17h2.251l0.466,2.17a1.51,1.51,0,0,0,1.775,1.14,1.533,1.533,0,0,0,.544-0.23l1.842-1.25,1.712,1.69-1.267,1.81a1.458,1.458,0,0,0,.384,2.05,1.529,1.529,0,0,0,.543.23l2.209,0.45Zm-6.445-2.74a3.227,3.227,0,0,1,.446,1.64H814a4.477,4.477,0,0,0-.625-2.29Zm-2.888,4.91a3.275,3.275,0,1,1,0-6.55,3.345,3.345,0,0,1,1.842.55l0.738-1.09a4.715,4.715,0,0,0-6.468,1.28,4.542,4.542,0,0,0,1.308,6.36,4.727,4.727,0,0,0,6.468-1.29q0.081-.12.153-0.24l-1.154-.66A3.358,3.358,0,0,1,809.332,1102.8ZM794,1098.87h-1.334v0.78a1.952,1.952,0,0,0-1.219,2.5,1.982,1.982,0,0,0,1.886,1.3,0.667,0.667,0,0,1,.667.66,0.658,0.658,0,0,1-.667.65h-2v1.31h1.333v0.66H794v-0.78a1.952,1.952,0,0,0,1.219-2.5,1.982,1.982,0,0,0-1.886-1.3,0.667,0.667,0,0,1-.667-0.66,0.658,0.658,0,0,1,.667-0.65h2v-1.31H794v-0.66Z" transform="translate(-780 -1070)"/>
</svg>
