<?xml version="1.0" encoding="utf-8"?>
<!-- Generator: Adobe Illustrator 21.0.0, SVG Export Plug-In . SVG Version: 6.00 Build 0)  -->
<svg version="1.1" id="Слой_1" xmlns="http://www.w3.org/2000/svg" xmlns:xlink="http://www.w3.org/1999/xlink" x="0px" y="0px"
	 viewBox="0 0 200 145" style="enable-background:new 0 0 200 145;" xml:space="preserve">
<style type="text/css">
	.st0{fill:#6E6C6C;}
	.st1{fill:#F5F5F5;}
	.st2{fill:#D2BFE7;}
	.st3{fill:#C1AAE6;}
	.st4{fill:#F2F2F2;}
	.st5{fill:#E6E6E6;}
	.st6{fill:#FFFFFF;}
	.st7{fill:none;}
</style>
<title>methods_icons</title>
<path class="st0" d="M45.2,127.6c-0.2,0-0.4-0.1-0.5-0.2c-0.3-0.3-0.5-0.7-0.8-1c-0.2-0.3-0.1-0.7,0.1-0.9c0.3-0.2,0.7-0.1,0.9,0.1
	l0,0c0.2,0.3,0.5,0.7,0.8,1c0.2,0.3,0.1,0.7-0.1,0.9C45.4,127.6,45.3,127.6,45.2,127.6L45.2,127.6z"/>
<path class="st0" d="M43,124.6c-0.2,0-0.4-0.1-0.5-0.3c-0.4-0.7-0.8-1.4-1.2-2.2c-0.2-0.3,0-0.7,0.3-0.8c0.3-0.2,0.7,0,0.8,0.3l0,0
	c0.4,0.7,0.8,1.4,1.2,2.1c0.2,0.3,0.2,0.7-0.1,0.9C43.3,124.6,43.2,124.6,43,124.6L43,124.6z M40.8,120.1c-0.3,0-0.5-0.2-0.6-0.4
	c-0.3-0.8-0.6-1.6-0.8-2.4c-0.1-0.3,0.1-0.7,0.4-0.8c0.3-0.1,0.7,0.1,0.8,0.4c0.2,0.8,0.5,1.5,0.8,2.3c0.1,0.3,0,0.7-0.4,0.8
	C40.9,120.1,40.9,120.1,40.8,120.1L40.8,120.1z M39.4,115.4c-0.3,0-0.5-0.2-0.6-0.5c-0.2-0.8-0.3-1.7-0.4-2.5c0-0.3,0.2-0.7,0.6-0.7
	c0.3,0,0.7,0.2,0.7,0.6c0.1,0.8,0.2,1.6,0.4,2.4c0.1,0.3-0.1,0.7-0.5,0.7c0,0,0,0,0,0L39.4,115.4z M38.8,110.5
	c-0.3,0-0.6-0.3-0.6-0.6c0-0.2,0-0.5,0-0.7v-1.8c0-0.3,0.3-0.6,0.6-0.6s0.6,0.3,0.6,0.6l0,0v1.8c0,0.2,0,0.4,0,0.7
	C39.5,110.2,39.2,110.5,38.8,110.5L38.8,110.5z M38.8,105.6c-0.3,0-0.6-0.3-0.6-0.6l0,0v-2.5c0-0.3,0.3-0.6,0.6-0.6s0.6,0.3,0.6,0.6
	l0,0v2.5C39.4,105.3,39.2,105.6,38.8,105.6L38.8,105.6z M38.8,100.6c-0.3,0-0.6-0.3-0.6-0.6l0,0v-2.5c0-0.3,0.3-0.6,0.6-0.6
	s0.6,0.3,0.6,0.6v2.5C39.5,100.3,39.2,100.6,38.8,100.6C38.9,100.6,38.9,100.6,38.8,100.6L38.8,100.6z M38.8,95.7
	c-0.3,0-0.6-0.3-0.6-0.6l0,0v-2.5c0-0.3,0.3-0.6,0.6-0.6s0.6,0.3,0.6,0.6v2.5C39.5,95.4,39.2,95.7,38.8,95.7L38.8,95.7z M38.8,90.7
	c-0.3,0-0.6-0.3-0.6-0.6l0,0v-2.5c0-0.3,0.3-0.6,0.6-0.6s0.6,0.3,0.6,0.6v2.5C39.5,90.5,39.2,90.7,38.8,90.7L38.8,90.7z M38.8,85.8
	c-0.3,0-0.6-0.3-0.6-0.6l0,0v-2.5c0-0.3,0.3-0.6,0.6-0.6s0.6,0.3,0.6,0.6v2.5C39.5,85.5,39.2,85.8,38.8,85.8L38.8,85.8z M38.8,80.9
	c-0.3,0-0.6-0.3-0.6-0.6l0,0v-2.5c0-0.3,0.3-0.6,0.6-0.6s0.6,0.3,0.6,0.6v2.5C39.5,80.6,39.2,80.9,38.8,80.9L38.8,80.9z M38.8,75.9
	c-0.3,0-0.6-0.3-0.6-0.6l0,0v-2.5c0-0.3,0.3-0.6,0.6-0.6s0.6,0.3,0.6,0.6v2.5C39.5,75.7,39.2,75.9,38.8,75.9L38.8,75.9z M38.8,71
	c-0.3,0-0.6-0.3-0.6-0.6l0,0v-2.5c0-0.3,0.3-0.6,0.6-0.6s0.6,0.3,0.6,0.6v2.5C39.5,70.7,39.2,71,38.8,71L38.8,71z M38.8,66
	c-0.3,0-0.6-0.3-0.6-0.6l0,0V63c0-0.3,0.3-0.6,0.6-0.6s0.6,0.3,0.6,0.6v2.5C39.5,65.8,39.2,66,38.8,66L38.8,66z"/>
<path class="st0" d="M66.9,138c-8.6,0-16.8-3.9-22.2-10.6c-0.2-0.3-0.2-0.7,0.1-0.9c0.3-0.2,0.7-0.2,0.9,0.1
	c9.5,11.7,26.7,13.6,38.4,4.1c6.5-5.2,10.2-13.1,10.2-21.4V50.5c0-0.3,0.3-0.6,0.6-0.6s0.6,0.3,0.6,0.6v58.7
	C95.5,125.1,82.7,138,66.9,138C66.9,138,66.9,138,66.9,138z"/>
<path class="st1" d="M118,77.3v26H72.9v-26H118z M85.8,92.6V81h-9v11.6H85.8z"/>
<path class="st2" d="M118,72.5v4.8H72.9v-4.8H118z M115.1,75c0-0.5-0.4-0.9-0.9-0.9c-0.5,0-0.9,0.4-0.9,0.9c0,0.5,0.4,0.9,0.9,0.9
	l0,0C114.7,75.9,115.1,75.5,115.1,75z M112.6,75c0-0.5-0.4-0.9-0.9-0.9c-0.5,0-0.9,0.4-0.9,0.9c0,0.5,0.4,0.9,0.9,0.9l0,0
	C112.2,75.9,112.6,75.5,112.6,75C112.6,75,112.6,75,112.6,75z M110,75c0-0.5-0.4-0.9-0.9-0.9c-0.5,0-0.9,0.4-0.9,0.9
	c0,0.5,0.4,0.9,0.9,0.9l0,0C109.6,75.9,110,75.5,110,75z"/>
<circle class="st0" cx="114.2" cy="75" r="0.9"/>
<circle class="st0" cx="111.7" cy="75" r="0.9"/>
<circle class="st0" cx="109.1" cy="75" r="0.9"/>
<rect x="76.8" y="81" class="st3" width="9" height="11.7"/>
<path class="st0" d="M118,103.9H72.9c-0.3,0-0.6-0.3-0.6-0.6V72.5c0-0.3,0.3-0.6,0.6-0.6H118c0.3,0,0.6,0.3,0.6,0.6v30.8
	C118.6,103.6,118.3,103.9,118,103.9z M73.5,102.7h44V73h-44V102.7z"/>
<path class="st0" d="M118,77.8H72.9c-0.3,0-0.6-0.3-0.6-0.6c0-0.3,0.3-0.6,0.6-0.6H118c0.3,0,0.6,0.3,0.6,0.6
	C118.6,77.6,118.3,77.8,118,77.8z"/>
<path class="st0" d="M85.8,93.3h-9c-0.3,0-0.6-0.3-0.6-0.6c0,0,0,0,0,0V81c0-0.3,0.3-0.6,0.6-0.6c0,0,0,0,0,0h9
	c0.3,0,0.6,0.3,0.6,0.6c0,0,0,0,0,0v11.6C86.4,93,86.1,93.3,85.8,93.3C85.8,93.3,85.8,93.3,85.8,93.3z M77.4,92h7.8V81.6h-7.8V92z"
	/>
<path class="st0" d="M114.8,81.5H89.9c-0.3,0-0.6-0.3-0.6-0.6c0-0.3,0.3-0.6,0.6-0.6h24.9c0.3,0,0.6,0.3,0.6,0.6
	C115.4,81.3,115.1,81.5,114.8,81.5z"/>
<path class="st0" d="M114.8,84.2H89.9c-0.3,0-0.6-0.3-0.6-0.6c0-0.3,0.3-0.6,0.6-0.6h24.9c0.3,0,0.6,0.3,0.6,0.6
	C115.4,84,115.1,84.2,114.8,84.2z"/>
<path class="st0" d="M114.8,87.2H89.9c-0.3,0-0.6-0.3-0.6-0.6c0-0.3,0.3-0.6,0.6-0.6h24.9c0.3,0,0.6,0.3,0.6,0.6
	C115.4,86.9,115.1,87.2,114.8,87.2z"/>
<path class="st0" d="M114.8,90.2H89.9c-0.3,0-0.6-0.3-0.6-0.6c0-0.3,0.3-0.6,0.6-0.6h24.9c0.3,0,0.6,0.3,0.6,0.6
	C115.4,89.9,115.1,90.2,114.8,90.2z"/>
<path class="st0" d="M114.8,93.1H89.9c-0.3,0-0.6-0.3-0.6-0.6c0-0.3,0.3-0.6,0.6-0.6h24.9c0.3,0,0.6,0.3,0.6,0.6
	C115.4,92.9,115.1,93.1,114.8,93.1z"/>
<path class="st0" d="M114.8,96.1H76.8c-0.3,0-0.6-0.3-0.6-0.6c0-0.3,0.3-0.6,0.6-0.6h38.1c0.3,0,0.6,0.3,0.6,0.6
	C115.4,95.8,115.1,96.1,114.8,96.1z"/>
<path class="st0" d="M114.8,99H76.8c-0.3,0-0.6-0.3-0.6-0.6c0-0.3,0.3-0.6,0.6-0.6h38.1c0.3,0,0.6,0.3,0.6,0.6
	C115.4,98.7,115.1,99,114.8,99z"/>
<g>
	<circle class="st4" cx="64.6" cy="132.1" r="12.3"/>
	<path class="st0" d="M77.5,132.1c0,7.1-5.8,12.9-12.9,12.9c-7.1,0-12.9-5.8-12.9-12.9c0-7.1,5.8-12.9,12.9-12.9c0,0,0,0,0,0
		C71.8,119.2,77.5,125,77.5,132.1z M52.8,132.1c0,6.5,5.3,11.8,11.8,11.8c6.5,0,11.8-5.3,11.8-11.8c0-6.5-5.3-11.8-11.8-11.8
		C58.1,120.3,52.8,125.6,52.8,132.1z"/>
	<polygon class="st2" points="66.7,138.6 72.4,135.6 66.7,132.7 66.7,134.2 56.8,134.2 56.8,137.1 66.7,137.1 	"/>
	<path class="st0" d="M73.1,135.6c0,0.2-0.1,0.5-0.3,0.6l-5.8,3c-0.3,0.2-0.7,0-0.8-0.3c0-0.1-0.1-0.2-0.1-0.3v-0.8h-9.3
		c-0.3,0-0.6-0.3-0.6-0.6l0,0v-3c0-0.3,0.3-0.6,0.6-0.6l0,0h9.2v-0.8c0-0.3,0.3-0.6,0.6-0.6c0.1,0,0.2,0,0.3,0.1l5.8,2.9
		C72.9,135.2,73.1,135.4,73.1,135.6L73.1,135.6z M67.3,137.5l3.8-1.9l-3.8-1.9v0.4c0,0.3-0.3,0.6-0.6,0.6l0,0h-9.3v1.7h9.2
		c0.3,0,0.6,0.3,0.6,0.6l0,0L67.3,137.5z"/>
	<path class="st0" d="M73,126.8v3c0,0.3-0.3,0.6-0.6,0.6h-9.3v0.9c0,0.3-0.3,0.6-0.6,0.6c-0.1,0-0.2,0-0.2-0.1l-5.8-2.9
		c-0.2-0.1-0.3-0.3-0.3-0.5l0,0c0-0.2,0.1-0.4,0.3-0.5l5.8-3c0.3-0.1,0.6,0,0.8,0.2c0,0.1,0.1,0.2,0.1,0.3v0.9h9.3
		C72.8,126.2,73,126.4,73,126.8C73,126.8,73,126.8,73,126.8z M71.9,129.2v-1.8h-9.3c-0.3,0-0.6-0.3-0.6-0.6v-0.5l-4,2l4,2v-0.5
		c0-0.3,0.3-0.6,0.6-0.6L71.9,129.2z"/>
</g>
<polygon class="st3" points="121.4,15.5 121.4,49 99.9,39.1 99.9,25.4 "/>
<polygon class="st3" points="83.7,25.4 99.9,25.4 99.9,39.1 98.7,39.1 95.5,39.1 86.6,39.1 83.7,39.1 83.7,37.9 83.7,26.5 "/>
<path class="st0" d="M99.9,39.7H83.7c-0.3,0-0.6-0.3-0.6-0.6l0,0V25.4c0-0.3,0.3-0.6,0.6-0.6l0,0h16.1c0.3,0,0.6,0.3,0.6,0.6
	c0,0,0,0,0,0v13.7C100.5,39.4,100.2,39.7,99.9,39.7C99.9,39.7,99.9,39.7,99.9,39.7z M84.4,38.5h14.9V26H84.4L84.4,38.5z"/>
<polygon class="st2" points="99,52.5 99.6,54.8 99,52.5 "/>
<polygon class="st1" points="99,52.5 99.6,54.8 90.7,54.8 90.1,52.5 "/>
<polygon class="st5" points="97,44.8 99,52.5 90.1,52.5 88.6,46.9 86.6,39.1 95.5,39.1 "/>
<polygon class="st1" points="90.1,52.5 90.7,54.8 88.5,54.8 88.5,52.5 "/>
<rect x="80.4" y="26.5" class="st5" width="3.3" height="11.4"/>
<path class="st0" d="M83.7,27.1c-0.3,0-0.6-0.3-0.6-0.6c0,0,0,0,0,0v-1.1c0-0.3,0.3-0.6,0.6-0.6l0,0h16.1c0.3,0,0.6,0.3,0.6,0.6
	s-0.3,0.6-0.6,0.6H84.4v0.5C84.4,26.9,84.1,27.2,83.7,27.1C83.7,27.2,83.7,27.2,83.7,27.1z"/>
<path class="st0" d="M86.6,39.7h-2.9c-0.3,0-0.6-0.3-0.6-0.6l0,0v-1.2c0-0.3,0.3-0.6,0.6-0.6s0.6,0.3,0.6,0.6v0.5h2.2
	c0.3,0,0.6,0.3,0.6,0.6S87,39.7,86.6,39.7z"/>
<path class="st0" d="M99.9,39.7h-4.3c-0.3,0-0.6-0.3-0.6-0.6s0.3-0.6,0.6-0.6h4.3c0.3,0,0.6,0.3,0.6,0.6S100.2,39.7,99.9,39.7z"/>
<path class="st0" d="M121.4,49.6c-0.1,0-0.2,0-0.3-0.1l-21.5-9.9c-0.2-0.1-0.4-0.3-0.4-0.6V25.4c0-0.2,0.1-0.5,0.4-0.6l21.5-9.9
	c0.3-0.1,0.7,0,0.8,0.3s0,0.7-0.3,0.8l-21.2,9.8v12.9l21.2,9.8c0.3,0.1,0.5,0.5,0.3,0.8C121.9,49.5,121.7,49.6,121.4,49.6
	L121.4,49.6z"/>
<path class="st0" d="M83.7,38.6h-3.3c-0.3,0-0.6-0.3-0.6-0.6l0,0V26.5c0-0.3,0.3-0.6,0.6-0.6l0,0h3.3c0.3,0,0.6,0.3,0.6,0.6
	c0,0,0,0,0,0v11.4C84.4,38.3,84.1,38.6,83.7,38.6C83.7,38.6,83.7,38.6,83.7,38.6z M81,37.3h2.1V27.1H81V37.3z"/>
<path class="st0" d="M124.8,51.6h-3.3c-0.3,0-0.6-0.3-0.6-0.6l0,0V13.5c0-0.3,0.3-0.6,0.6-0.6l0,0h3.3c0.3,0,0.6,0.3,0.6,0.6
	c0,0,0,0,0,0V51C125.3,51.3,125.1,51.6,124.8,51.6z M122,50.3h2.1V14.1H122V50.3z"/>
<path class="st0" d="M99,53.1c-0.3,0-0.5-0.2-0.6-0.5l-3.4-13h-7.6l3.2,12.7c0.1,0.3-0.1,0.7-0.4,0.8c-0.3,0.1-0.7-0.1-0.8-0.4
	L86,39.2c-0.1-0.3,0.1-0.7,0.5-0.8c0,0,0.1,0,0.1,0h8.9c0.3,0,0.5,0.2,0.6,0.5l3.4,13.4c0.1,0.3-0.1,0.7-0.4,0.8c0,0,0,0,0,0
	L99,53.1z"/>
<path class="st0" d="M100.3,45.5H97c-0.3,0-0.6-0.3-0.6-0.6s0.3-0.6,0.6-0.6h1.9c-1.1-1.6-1.4-3.5-0.8-5.3c0.1-0.3,0.4-0.5,0.8-0.4
	c0.3,0.1,0.5,0.4,0.4,0.8c-0.6,1.8,0,3.8,1.4,5.1c0.3,0.2,0.3,0.6,0.1,0.9C100.7,45.4,100.5,45.5,100.3,45.5L100.3,45.5z"/>
<path class="st0" d="M99.6,55.4H88.5c-0.3,0-0.6-0.3-0.6-0.6l0,0v-2.3c0-0.3,0.3-0.6,0.6-0.6l0,0H99c0.3,0,0.6,0.2,0.7,0.5l0.5,2.3
	c0.1,0.3-0.1,0.7-0.5,0.8C99.7,55.4,99.6,55.4,99.6,55.4L99.6,55.4z M89.1,54.2h9.6l-0.2-1h-9.4V54.2z"/>
<path class="st0" d="M97.5,27.9H86.3c-0.3,0-0.6-0.3-0.6-0.6s0.3-0.6,0.6-0.6h11.2c0.3,0,0.6,0.3,0.6,0.6S97.8,27.9,97.5,27.9z"/>
<path class="st0" d="M112.1,118h-1.4c-0.3,0-0.6-0.3-0.6-0.6s0.3-0.6,0.6-0.6h1.4c0.3,0,0.6,0.3,0.6,0.6S112.5,118,112.1,118z"/>
<path class="st0" d="M118.9,118H115c-0.3,0-0.6-0.3-0.6-0.6s0.3-0.6,0.6-0.6h3.9c0.3,0,0.6,0.3,0.6,0.6S119.3,118,118.9,118
	L118.9,118z"/>
<path class="st0" d="M81.4,12.4H80c-0.3,0-0.6-0.3-0.6-0.6s0.3-0.6,0.6-0.6h1.4c0.3,0,0.6,0.3,0.6,0.6S81.8,12.4,81.4,12.4
	L81.4,12.4z"/>
<path class="st0" d="M77.1,12.4h-3.9c-0.3,0-0.6-0.3-0.6-0.6s0.3-0.6,0.6-0.6h3.9c0.3,0,0.6,0.3,0.6,0.6S77.5,12.4,77.1,12.4z"/>
<path class="st0" d="M81.1,8.4h-1.4c-0.3,0-0.6-0.3-0.6-0.6c0-0.3,0.3-0.6,0.6-0.6h1.4c0.3,0,0.6,0.3,0.6,0.6
	C81.7,8.2,81.4,8.4,81.1,8.4L81.1,8.4z"/>
<path class="st0" d="M87.9,8.4H84c-0.3,0-0.6-0.3-0.6-0.6c0-0.3,0.3-0.6,0.6-0.6h3.9c0.3,0,0.6,0.3,0.6,0.6
	C88.5,8.2,88.3,8.4,87.9,8.4L87.9,8.4z"/>
<path class="st0" d="M57.2,113h-1.4c-0.3,0-0.6-0.3-0.6-0.6s0.3-0.6,0.6-0.6h1.4c0.3,0,0.6,0.3,0.6,0.6S57.5,113,57.2,113z"/>
<path class="st0" d="M64,113h-4c-0.3,0-0.6-0.3-0.6-0.6s0.3-0.6,0.6-0.6h4c0.3,0,0.6,0.3,0.6,0.6S64.3,113,64,113z"/>
<path class="st0" d="M28.5,145h-1.4c-0.3,0-0.6-0.3-0.6-0.6s0.3-0.6,0.6-0.6h1.4c0.3,0,0.6,0.3,0.6,0.6S28.9,145,28.5,145z"/>
<path class="st0" d="M35.3,145h-3.9c-0.3,0-0.6-0.3-0.6-0.6s0.3-0.6,0.6-0.6l0,0h3.9c0.3,0,0.6,0.3,0.6,0.6S35.7,145,35.3,145
	L35.3,145z"/>
<path class="st0" d="M144,28.4h-1.4c-0.3,0-0.6-0.3-0.6-0.6s0.3-0.6,0.6-0.6l0,0h1.4c0.3,0,0.6,0.3,0.6,0.6S144.3,28.4,144,28.4z"/>
<path class="st0" d="M140.4,28.4h-3.9c-0.3,0-0.6-0.3-0.6-0.6s0.3-0.6,0.6-0.6l0,0h3.9c0.3,0,0.6,0.3,0.6,0.6S140.7,28.4,140.4,28.4
	z"/>
<path class="st0" d="M151.4,28.4h-3.9c-0.3,0-0.6-0.3-0.6-0.6s0.3-0.6,0.6-0.6h3.9c0.3,0,0.6,0.3,0.6,0.6S151.8,28.4,151.4,28.4z"/>
<path class="st0" d="M148.2,35.7h-1.4c-0.3,0-0.6-0.3-0.6-0.6s0.3-0.6,0.6-0.6h1.4c0.3,0,0.6,0.3,0.6,0.6S148.6,35.7,148.2,35.7z"/>
<path class="st0" d="M137.3,35.7h-6.7c-0.3,0-0.6-0.3-0.6-0.6s0.3-0.6,0.6-0.6h6.7c0.3,0,0.6,0.3,0.6,0.6S137.7,35.7,137.3,35.7
	L137.3,35.7z"/>
<path class="st0" d="M144,35.7h-3.9c-0.3,0-0.6-0.3-0.6-0.6s0.3-0.6,0.6-0.6h3.9c0.3,0,0.6,0.3,0.6,0.6S144.3,35.7,144,35.7z"/>
<path class="st0" d="M140.8,44.4h-1.4c-0.3,0-0.6-0.3-0.6-0.6s0.3-0.6,0.6-0.6l0,0h1.4c0.3,0,0.6,0.3,0.6,0.6S141.2,44.4,140.8,44.4
	z"/>
<path class="st0" d="M147.6,44.4h-3.9c-0.3,0-0.6-0.3-0.6-0.6s0.3-0.6,0.6-0.6h3.9c0.3,0,0.6,0.3,0.6,0.6S148,44.4,147.6,44.4z"/>
<path class="st0" d="M135.9,40.1H132c-0.3,0-0.6-0.3-0.6-0.6s0.3-0.6,0.6-0.6h3.9c0.3,0,0.6,0.3,0.6,0.6S136.3,40.1,135.9,40.1
	L135.9,40.1z"/>
<polygon class="st2" points="191.7,23.1 191.7,46 178.4,34.2 "/>
<polygon class="st1" points="191.7,23.1 178.4,34.2 171.9,39.5 165.4,34.2 152.2,23.1 "/>
<polygon class="st2" points="191.7,46 152.2,46 165.4,34.2 171.9,39.5 178.4,34.2 "/>
<polygon class="st2" points="165.4,34.2 152.2,46 152.2,23.1 "/>
<path class="st0" d="M191.7,46.6h-39.5c-0.3,0-0.6-0.3-0.6-0.6V23.1c0-0.3,0.3-0.6,0.6-0.6h39.5c0.3,0,0.6,0.3,0.6,0.6V46
	C192.3,46.3,192,46.6,191.7,46.6z M152.8,45.4h38.3V23.8h-38.3L152.8,45.4z"/>
<path class="st0" d="M171.9,40.2c-0.1,0-0.3,0-0.4-0.1l-19.8-16.4c-0.3-0.2-0.3-0.6-0.1-0.9c0.2-0.3,0.6-0.3,0.9-0.1l19.4,16.1
	l19.4-16.1c0.3-0.2,0.7-0.2,0.9,0.1c0.2,0.3,0.2,0.7-0.1,0.9l0,0L172.3,40C172.2,40.1,172.1,40.2,171.9,40.2z"/>
<path class="st0" d="M152.2,46.6c-0.3,0-0.6-0.3-0.6-0.6c0-0.2,0.1-0.4,0.2-0.5L165,33.7c0.3-0.2,0.7-0.2,0.9,0s0.2,0.7-0.1,0.9l0,0
	l-13.2,11.8C152.5,46.6,152.3,46.6,152.2,46.6z"/>
<path class="st0" d="M191.7,46.6c-0.2,0-0.3-0.1-0.4-0.2L178,34.6c-0.3-0.2-0.3-0.6-0.1-0.9s0.6-0.3,0.9,0l0,0l13.3,11.8
	c0.3,0.2,0.3,0.6,0.1,0.9C192,46.5,191.9,46.6,191.7,46.6L191.7,46.6z"/>
<circle class="st3" cx="186.7" cy="126.5" r="13.3"/>
<path class="st1" d="M182.7,120.4c0.8-0.5,1.7-0.9,2.6-1.1l0,0l0.4-1.9h2l0.4,1.9l0,0c0.9,0.2,1.8,0.6,2.6,1.1l1.6-1l1.4,1.4l-1,1.6
	c0.5,0.8,0.9,1.7,1.1,2.6l1.9,0.4v2l-1.9,0.4c-0.2,0.9-0.6,1.8-1.1,2.6l1,1.6l-1.4,1.4l-1.6-1c-0.8,0.5-1.7,0.9-2.6,1.1l-0.4,1.9h-2
	l-0.4-1.9c-0.9-0.2-1.8-0.6-2.6-1.1l-1.6,1l-1.4-1.4l1-1.6c-0.5-0.8-0.9-1.7-1.1-2.6l-1.9-0.4v-2l1.9-0.4c0.2-0.9,0.6-1.8,1.1-2.6
	l-1-1.6l1.4-1.4L182.7,120.4z M189.4,126.5c0-1.5-1.2-2.7-2.7-2.7c-1.5,0-2.7,1.2-2.7,2.7c0,1.5,1.2,2.7,2.7,2.7
	S189.4,128,189.4,126.5L189.4,126.5z"/>
<path class="st0" d="M182.7,121c-0.3,0-0.6-0.3-0.5-0.6c0-0.3,0.3-0.6,0.6-0.5c0.3,0,0.5,0.2,0.5,0.5C183.2,120.7,183,121,182.7,121
	L182.7,121z"/>
<path class="st0" d="M187.7,136.1h-2c-0.3,0-0.5-0.2-0.6-0.4l-0.4-1.5c-0.8-0.2-1.5-0.5-2.2-0.9l-1.3,0.8c-0.2,0.1-0.5,0.1-0.7-0.1
	l-1.4-1.4c-0.2-0.2-0.2-0.5-0.1-0.7l0.8-1.3c-0.4-0.7-0.7-1.4-0.9-2.2l-1.5-0.4c-0.3-0.1-0.4-0.3-0.4-0.6v-2c0-0.3,0.2-0.5,0.4-0.6
	l1.5-0.3c0.2-0.8,0.5-1.5,0.9-2.2l-0.8-1.3c-0.1-0.2-0.1-0.5,0.1-0.7l1.4-1.4c0.2-0.2,0.5-0.2,0.7-0.1l1.3,0.8
	c0.7-0.4,1.4-0.7,2.2-0.9l0.4-1.5c0.1-0.3,0.3-0.4,0.6-0.4h2c0.3,0,0.5,0.2,0.6,0.4l0.4,1.5c0.8,0.2,1.5,0.5,2.2,0.9l1.3-0.8
	c0.2-0.1,0.5-0.1,0.7,0.1l1.4,1.4c0.2,0.2,0.2,0.5,0.1,0.7l-0.8,1.3c0.4,0.7,0.7,1.4,0.9,2.2l1.5,0.3c0.3,0.1,0.4,0.3,0.4,0.6v2
	c0,0.3-0.2,0.5-0.4,0.5l-1.5,0.4c-0.2,0.8-0.5,1.5-0.9,2.2l0.8,1.3c0.1,0.2,0.1,0.5-0.1,0.7l-1.4,1.4c-0.2,0.2-0.5,0.2-0.7,0.1
	l-1.3-0.8c-0.7,0.4-1.4,0.7-2.2,0.9l-0.4,1.5C188.2,135.9,188,136.1,187.7,136.1z M186.2,135h1.1l0.3-1.4c0.1-0.2,0.2-0.4,0.4-0.4
	c0.9-0.2,1.7-0.5,2.4-1c0.2-0.1,0.4-0.1,0.6,0l1.3,0.8l0.8-0.8l-0.8-1.2c-0.1-0.2-0.1-0.4,0-0.6c0.5-0.7,0.8-1.6,1-2.4
	c0-0.2,0.2-0.4,0.4-0.4l1.4-0.3V126l-1.4-0.3c-0.2-0.1-0.4-0.2-0.4-0.4c-0.2-0.9-0.5-1.7-1-2.4c-0.1-0.2-0.1-0.4,0-0.6l0.8-1.3
	l-0.8-0.8l-1.3,0.8c-0.2,0.1-0.4,0.1-0.6,0c-0.7-0.5-1.6-0.8-2.4-1c-0.3,0-0.5-0.3-0.5-0.5l-0.3-1.3h-1.1l-0.3,1.4
	c0,0.3-0.2,0.5-0.4,0.5c-0.9,0.2-1.7,0.5-2.4,1c-0.2,0.1-0.4,0.1-0.6,0l-1.3-0.8l-0.8,0.8l0.8,1.3c0.1,0.2,0.1,0.4,0,0.6
	c-0.5,0.7-0.8,1.6-1,2.4c0,0.2-0.2,0.4-0.4,0.4l-1.4,0.3v1l1.4,0.3c0.2,0,0.4,0.2,0.4,0.4c0.2,0.9,0.5,1.7,1,2.4
	c0.1,0.2,0.1,0.4,0,0.6l-0.8,1.3l0.8,0.8l1.3-0.8c0.2-0.1,0.4-0.1,0.6,0c0.7,0.5,1.6,0.8,2.4,1c0.2,0,0.4,0.2,0.4,0.4L186.2,135z"/>
<path class="st0" d="M186.7,129.8c-1.8,0-3.3-1.5-3.3-3.3c0-1.8,1.5-3.3,3.3-3.3c1.8,0,3.3,1.5,3.3,3.3
	C190,128.3,188.5,129.8,186.7,129.8z M186.7,124.3c-1.2,0-2.2,1-2.2,2.1s1,2.2,2.1,2.2s2.2-1,2.2-2.1c0,0,0,0,0,0
	C188.9,125.3,187.9,124.3,186.7,124.3C186.7,124.3,186.7,124.3,186.7,124.3L186.7,124.3z"/>
<path class="st0" d="M181.5,127c-0.3,0-0.6-0.3-0.6-0.6c0-3.2,2.6-5.7,5.7-5.7c0.3,0,0.6,0.3,0.6,0.6c0,0.3-0.3,0.6-0.6,0.6
	c-2.6,0-4.6,2.1-4.6,4.6C182.1,126.7,181.8,127,181.5,127L181.5,127z"/>
<rect x="184.6" y="10.5" class="st6" width="7.2" height="7.2"/>
<path class="st0" d="M191.8,18.3h-7.2c-0.3,0-0.6-0.3-0.6-0.6v-7.2c0-0.3,0.3-0.6,0.6-0.6h7.2c0.3,0,0.6,0.3,0.6,0.6v7.2
	C192.3,18,192.1,18.3,191.8,18.3z M185.1,17.1h6.1V11h-6.1V17.1z"/>
<line class="st7" x1="184.6" y1="10.5" x2="191.8" y2="17.7"/>
<path class="st0" d="M191.8,18.3c-0.1,0-0.3-0.1-0.4-0.2l-7.2-7.2c-0.2-0.2-0.2-0.6,0-0.8c0.2-0.2,0.6-0.2,0.8,0l7.2,7.2
	c0.2,0.2,0.3,0.5,0.1,0.8C192.2,18.2,192,18.3,191.8,18.3L191.8,18.3z"/>
<line class="st7" x1="184.6" y1="17.7" x2="191.8" y2="10.5"/>
<path class="st0" d="M184.6,18.3c-0.3,0-0.6-0.2-0.6-0.5c0-0.2,0.1-0.4,0.2-0.5l7.2-7.2c0.2-0.2,0.6-0.2,0.8,0
	c0.2,0.2,0.2,0.6,0,0.8l0,0l-7.2,7.2C184.9,18.2,184.7,18.3,184.6,18.3z"/>
<path class="st0" d="M155.3,93.5h-1.4c-0.4,0-0.6-0.3-0.6-0.6c0-0.4,0.3-0.6,0.6-0.6c0,0,0,0,0,0h1.4c0.4,0,0.6,0.3,0.6,0.6
	C155.9,93.2,155.7,93.5,155.3,93.5C155.3,93.5,155.3,93.5,155.3,93.5z"/>
<path class="st0" d="M150.9,93.5h-4c-0.4,0-0.6-0.3-0.6-0.6c0-0.4,0.3-0.6,0.6-0.6c0,0,0,0,0,0h4c0.4,0,0.6,0.3,0.6,0.6
	C151.5,93.2,151.3,93.5,150.9,93.5C150.9,93.5,150.9,93.5,150.9,93.5z"/>
<path class="st0" d="M154.9,89.5h-1.4c-0.4,0-0.6-0.3-0.6-0.6c0-0.4,0.3-0.6,0.6-0.6c0,0,0,0,0,0h1.4c0.4,0,0.6,0.3,0.6,0.6
	C155.6,89.2,155.3,89.5,154.9,89.5C154.9,89.5,154.9,89.5,154.9,89.5z"/>
<path class="st0" d="M161.9,89.5h-4c-0.4,0-0.6-0.3-0.6-0.6c0-0.4,0.3-0.6,0.6-0.6h4c0.4,0,0.6,0.3,0.6,0.6
	C162.5,89.2,162.2,89.5,161.9,89.5z"/>
<rect x="176.6" y="85.1" class="st6" width="7.4" height="7.4"/>
<path class="st0" d="M184,93.1h-7.4c-0.3,0-0.6-0.3-0.6-0.6l0,0v-7.4c0-0.3,0.3-0.6,0.6-0.6l0,0h7.4c0.3,0,0.6,0.3,0.6,0.6l0,0v7.4
	C184.6,92.8,184.3,93.1,184,93.1z M177.2,91.9h6.2v-6.2h-6.2V91.9z"/>
<line class="st7" x1="176.6" y1="85.1" x2="184" y2="92.5"/>
<path class="st0" d="M184,93.1c-0.2,0-0.3-0.1-0.4-0.2l-7.4-7.4c-0.2-0.3-0.1-0.6,0.1-0.8c0.2-0.1,0.5-0.1,0.7,0l7.4,7.4
	c0.2,0.2,0.2,0.6,0,0.8C184.3,93.1,184.2,93.1,184,93.1L184,93.1z"/>
<line class="st7" x1="176.6" y1="92.5" x2="184" y2="85.1"/>
<path class="st0" d="M176.6,93.1c-0.3,0-0.6-0.2-0.6-0.6c0-0.2,0.1-0.3,0.2-0.4l7.4-7.4c0.3-0.2,0.6-0.1,0.8,0.1
	c0.1,0.2,0.1,0.5,0,0.7l-7.4,7.4C176.9,93,176.8,93.1,176.6,93.1z"/>
<circle class="st3" cx="27.8" cy="78.7" r="26.2"/>
<rect x="0.7" y="63.4" class="st3" width="26.9" height="39.4"/>
<path class="st0" d="M27.6,103.4H0.7c-0.4,0-0.7-0.3-0.7-0.7V63.4c0-0.4,0.3-0.7,0.7-0.7h26.9c0.4,0,0.7,0.3,0.7,0.7l0,0v39.4
	C28.3,103.1,28,103.4,27.6,103.4z M1.4,102.1h25.5v-38H1.4V102.1z"/>
<polygon class="st1" points="19.4,71.2 19.4,110.6 39.2,110.6 39.2,103.4 46.3,103.4 46.3,71.2 "/>
<path class="st0" d="M39.2,111.2H19.4c-0.4,0-0.7-0.3-0.7-0.7V71.2c0-0.4,0.3-0.7,0.7-0.7c0,0,0,0,0,0h26.9c0.4,0,0.7,0.3,0.7,0.7
	v32.2c0,0.4-0.3,0.7-0.7,0.7h-6.5v6.5C39.9,110.9,39.5,111.2,39.2,111.2C39.2,111.2,39.2,111.2,39.2,111.2z M20.2,109.9h18.3v-6.5
	c0-0.4,0.3-0.7,0.7-0.7h6.5V71.9H20.1L20.2,109.9z"/>
<polygon class="st1" points="46.3,103.4 39.2,110.6 39.2,103.4 "/>
<path class="st0" d="M39.2,111.2c-0.4,0-0.7-0.3-0.7-0.7v-7.2c0-0.4,0.3-0.7,0.7-0.7h7.2c0.4,0,0.7,0.3,0.7,0.7
	c0,0.2-0.1,0.4-0.2,0.5l-7.2,7.2C39.5,111.2,39.3,111.2,39.2,111.2z M39.8,104.1v4.8l4.8-4.8H39.8z"/>
<path class="st0" d="M27.8,84.6H11c-0.4,0-0.7-0.3-0.7-0.7c0-0.4,0.3-0.7,0.7-0.7h16.8c0.4,0,0.7,0.3,0.7,0.7
	C28.5,84.3,28.2,84.6,27.8,84.6z"/>
<path class="st0" d="M22.8,87.4c-0.4,0-0.7-0.3-0.7-0.7c0-0.3,0.1-0.5,0.4-0.6l3.9-2.3l-3.9-2.3c-0.3-0.2-0.4-0.6-0.3-0.9
	c0.2-0.3,0.6-0.4,0.9-0.3l5,2.9c0.3,0.2,0.4,0.6,0.3,0.9c-0.1,0.1-0.2,0.2-0.3,0.3l-5,2.9C23.1,87.4,23,87.4,22.8,87.4z"/>
<path class="st0" d="M27.8,92.8H11c-0.4,0-0.7-0.3-0.7-0.7c0-0.4,0.3-0.7,0.7-0.7h16.8c0.4,0,0.7,0.3,0.7,0.7
	C28.5,92.5,28.2,92.8,27.8,92.8z"/>
<path class="st0" d="M16,95.7c-0.1,0-0.2,0-0.4-0.1l-5-2.9c-0.3-0.2-0.4-0.6-0.3-0.9c0.1-0.1,0.2-0.2,0.3-0.3l5-2.9
	c0.3-0.2,0.8-0.1,0.9,0.3c0.2,0.3,0.1,0.8-0.3,0.9l-3.9,2.3l3.9,2.3c0.3,0.2,0.5,0.6,0.3,0.9C16.5,95.5,16.2,95.7,16,95.7L16,95.7z"
	/>
<path class="st0" d="M38.9,113.6c-0.3,0-0.6-0.3-0.6-0.6v-1.3c0-0.3,0.3-0.6,0.6-0.6s0.6,0.3,0.6,0.6v1.2
	C39.5,113.3,39.2,113.6,38.9,113.6C38.9,113.6,38.9,113.6,38.9,113.6z"/>
<path class="st0" d="M29.9,116c-0.6,0-1.2-0.3-1.5-0.8c-0.3-0.3-0.4-0.4-0.6-0.4s-0.3,0.1-0.6,0.4c-0.6,0.9-1.7,1.1-2.6,0.5
	c-0.2-0.1-0.4-0.3-0.5-0.5c-0.3-0.3-0.4-0.4-0.6-0.4s-0.3,0.1-0.6,0.4c-0.5,0.9-1.7,1.1-2.5,0.6c-0.2-0.1-0.4-0.3-0.6-0.6
	c-0.3-0.3-0.4-0.4-0.6-0.4s-0.3,0.1-0.6,0.4c-0.5,0.9-1.7,1.1-2.5,0.6c-0.2-0.1-0.4-0.3-0.6-0.6c-0.3-0.3-0.4-0.4-0.6-0.4
	s-0.3,0.1-0.6,0.4c-0.5,0.9-1.7,1.1-2.5,0.6c-0.2-0.1-0.4-0.3-0.6-0.6c-0.3-0.3-0.4-0.4-0.6-0.4c-0.3,0-0.6-0.3-0.6-0.6
	s0.3-0.6,0.6-0.6c0.6,0,1.2,0.3,1.6,0.8c0.3,0.3,0.4,0.4,0.6,0.4s0.3-0.1,0.6-0.4c0.5-0.9,1.7-1.1,2.5-0.6c0.2,0.1,0.4,0.3,0.6,0.6
	c0.3,0.3,0.4,0.4,0.6,0.4s0.3-0.1,0.6-0.4c0.5-0.9,1.7-1.1,2.5-0.6c0.2,0.1,0.4,0.3,0.6,0.6c0.3,0.3,0.4,0.4,0.6,0.4
	s0.3-0.1,0.6-0.4c0.5-0.9,1.7-1.1,2.5-0.6c0.2,0.1,0.4,0.3,0.6,0.6c0.3,0.3,0.4,0.4,0.6,0.4s0.3-0.1,0.6-0.4
	c0.6-0.9,1.7-1.1,2.6-0.5c0.2,0.1,0.4,0.3,0.5,0.5c0.3,0.3,0.4,0.4,0.6,0.4c0.3,0,0.6,0.3,0.6,0.6S30.3,116,29.9,116L29.9,116z"/>
</svg>
