<svg xmlns="http://www.w3.org/2000/svg" viewBox="0 0 154 47">
  <defs>
    <style>
      .cls-1{fill:#fff;}
    </style>
  </defs>
  <path class="cls-1" d="M40 21.95H22.82v2h15l-6 7.47a.13.13 0 0 0 0 .13l.78 1.72a.13.13 0 0 0 .22 0l7.95-9.72z"/>
  <path class="cls-1" d="M9.11 20.75L13.48 25a.14.14 0 0 0 .22 0l.82-1.21a.14.14 0 0 0 0-.18l-4.56-4.9H3.37L11 11.06h19l7.65 7.65H25.41l1.87-2.37a.19.19 0 0 0 0-.24l-1-1.26a.19.19 0 0 0-.3 0l-3.11 3.88v2h17.2l.72-1.72-9.69-9.68-.72-.32H10.61l-.72.3L.18 19l.72 1.75zM12.38 7.73h2.48a.14.14 0 0 0 .1 0l5.52-5.52L26 7.69a.14.14 0 0 0 .1 0h2.48a.14.14 0 0 0 .1-.24L21.43.22A.76.76 0 0 0 20.9 0h-.82a.76.76 0 0 0-.54.22l-7.26 7.26a.14.14 0 0 0 .1.25z"/>
  <path class="cls-1" d="M25.85 32.83h-2v5.57a.13.13 0 0 0 .23.09l1.65-1.94a.65.65 0 0 0 .16-.42v-1.26h3l-7.4 8.41V19h-2.18l-5.38 8.9-5.34-5.52-.76-.38H.78L0 23.73l17.94 20.84a.1.1 0 0 0 .18-.07v-2.45a.82.82 0 0 0-.2-.54L3 24.08h4.38l5.82 6L15 30l4.44-7v22.9l1 1h.06l.76-.34 10.62-12.03-.76-1.7zM76.32 18.49a4.45 4.45 0 0 1-.4 1.93 4.36 4.36 0 0 1-1.09 1.44 4.77 4.77 0 0 1-1.58.91 5.74 5.74 0 0 1-1.88.31H66V8.9h5.35a5.92 5.92 0 0 1 1.88.3 4.6 4.6 0 0 1 1.57.88 4.28 4.28 0 0 1 1.08 1.44 4.57 4.57 0 0 1 .4 2zm-2.39-4.57a3.23 3.23 0 0 0-.26-1.36 2.4 2.4 0 0 0-.69-.9 2.82 2.82 0 0 0-1-.49 3.92 3.92 0 0 0-1.05-.17h-2.55v10h2.55a3.78 3.78 0 0 0 1-.15 2.81 2.81 0 0 0 1-.49 2.59 2.59 0 0 0 .71-.89 3 3 0 0 0 .28-1.36zM148.9 11v12.07h-2.34V11h-3.93V8.9h10.18V11zM55.72 34.46l3.61-7.6h1v10.58h-1.08v-8l-3.1 6.4h-.84l-3.13-6.3h-.06l-.12 7.9h-1.07V26.86h1l3.69 7.6zM81 34a3.59 3.59 0 0 1-.27 1.41 3.28 3.28 0 0 1-.73 1.08 3.23 3.23 0 0 1-1.12.7 4 4 0 0 1-1.42.25h-3.94V26.86h3.95a4 4 0 0 1 1.43.25 3.21 3.21 0 0 1 1.11.69 3.11 3.11 0 0 1 .72 1.09 3.76 3.76 0 0 1 .27 1.42zm-1.11-3.48a3 3 0 0 0-.23-1.25A2.27 2.27 0 0 0 78.21 28a3.15 3.15 0 0 0-.94-.15H74.6v8.65h2.58a3.48 3.48 0 0 0 1-.14 2.32 2.32 0 0 0 .82-.46 2.49 2.49 0 0 0 .63-.83 2.86 2.86 0 0 0 .25-1.25zM84.55 37.44V26.86h1.07v10.58zM110.23 37.24a5.18 5.18 0 0 1-1.75.31 4.53 4.53 0 0 1-1.48-.25 3.57 3.57 0 0 1-1.21-.71 3.27 3.27 0 0 1-.81-1.11 3.47 3.47 0 0 1-.29-1.44v-3.82a3.28 3.28 0 0 1 1.11-2.52 3.6 3.6 0 0 1 1.2-.7 4.73 4.73 0 0 1 1.54-.25 5.42 5.42 0 0 1 1.55.21 4 4 0 0 1 1.31.66l-.55.84a3.13 3.13 0 0 0-1.07-.54 4.33 4.33 0 0 0-1.24-.18 3.52 3.52 0 0 0-1 .15 2.68 2.68 0 0 0-.9.48 2.3 2.3 0 0 0-.64.84 2.92 2.92 0 0 0-.24 1.24v3.38a3 3 0 0 0 .23 1.24 2.4 2.4 0 0 0 .61.84 2.45 2.45 0 0 0 .87.49 3.26 3.26 0 0 0 1 .16 5 5 0 0 0 1-.12 3.05 3.05 0 0 0 1.25-.63v-2.15h-1.77v-1h2.84v3.58a3.9 3.9 0 0 1-1.56 1zM116 37.44h-1.08V26.86h4.27a3 3 0 0 1 1.34.28 2.82 2.82 0 0 1 .93.71 2.88 2.88 0 0 1 .55 1 4.83 4.83 0 0 1 .18 1.28 7 7 0 0 1-.13 1.34 3 3 0 0 1-.38.83 3.19 3.19 0 0 1-.62.69 2.7 2.7 0 0 1-.86.48l2 4H121l-1.87-3.78H116zm0-9.58v4.81h3a2.38 2.38 0 0 0 .84-.15 2 2 0 0 0 .68-.41 1.91 1.91 0 0 0 .45-.65 5.16 5.16 0 0 0 .16-1.32 3.19 3.19 0 0 0-.16-1 2 2 0 0 0-.45-.67 1.9 1.9 0 0 0-.68-.42 2.38 2.38 0 0 0-.84-.15zM132.7 34a3.64 3.64 0 0 1-.28 1.47 3.23 3.23 0 0 1-.79 1.11 3.47 3.47 0 0 1-1.21.71 4.64 4.64 0 0 1-1.53.25 4.53 4.53 0 0 1-1.56-.25 3.49 3.49 0 0 1-1.2-.71 3.18 3.18 0 0 1-.77-1.11 3.74 3.74 0 0 1-.28-1.47v-3.7a3.75 3.75 0 0 1 .27-1.44 3.18 3.18 0 0 1 .77-1.12 3.51 3.51 0 0 1 1.2-.73 4.47 4.47 0 0 1 1.56-.26 4.42 4.42 0 0 1 1.55.26 3.59 3.59 0 0 1 1.21.73 3.2 3.2 0 0 1 .78 1.12 3.66 3.66 0 0 1 .28 1.44zm-1.08-3.56a3 3 0 0 0-.22-1.21 2.36 2.36 0 0 0-.6-.84 2.47 2.47 0 0 0-.87-.49 3.33 3.33 0 0 0-1-.16 3.46 3.46 0 0 0-1.07.16 2.39 2.39 0 0 0-.87.49 2.34 2.34 0 0 0-.58.84 3.09 3.09 0 0 0-.21 1.21v3.43a2.94 2.94 0 0 0 .23 1.23 2.3 2.3 0 0 0 .61.83 2.51 2.51 0 0 0 .88.48 3.39 3.39 0 0 0 1 .15 3.56 3.56 0 0 0 1.05-.15 2.3 2.3 0 0 0 .87-.48 2.4 2.4 0 0 0 .59-.84 3 3 0 0 0 .22-1.21zM143.17 35.53a3.17 3.17 0 0 1-.81 1.09 3.62 3.62 0 0 1-1.22.69 4.59 4.59 0 0 1-1.49.24 4.64 4.64 0 0 1-1.51-.24 3.52 3.52 0 0 1-1.21-.69 3.22 3.22 0 0 1-.8-1.09 3.45 3.45 0 0 1-.29-1.45v-7.22h1.08v7a3 3 0 0 0 .22 1.23 2.25 2.25 0 0 0 .61.83 2.53 2.53 0 0 0 .88.48 3.53 3.53 0 0 0 2.06 0 2.45 2.45 0 0 0 .88-.48 2.37 2.37 0 0 0 .61-.83 3 3 0 0 0 .23-1.23v-7h1.08v7.23a3.41 3.41 0 0 1-.32 1.44zM153.84 30.33a4.76 4.76 0 0 1-.2 1.35 3 3 0 0 1-1.51 1.7 2.72 2.72 0 0 1-1.25.28h-3.2v3.78h-1.08V26.86h4.28a2.93 2.93 0 0 1 1.31.28 2.83 2.83 0 0 1 .93.71 2.87 2.87 0 0 1 .54 1 6.42 6.42 0 0 1 .18 1.48zm-1.08 0a4.56 4.56 0 0 0-.16-1.23 2 2 0 0 0-.45-.67 2 2 0 0 0-.67-.43 2.17 2.17 0 0 0-.81-.15h-3v4.81h3a2.26 2.26 0 0 0 .81-.15 2.06 2.06 0 0 0 .67-.41 1.83 1.83 0 0 0 .45-.65 3.69 3.69 0 0 0 .17-1.12zM57.62 8.9h-2.39l-4.96 14.17h2.5l2.54-7.89 1.05-3.46h.09l1.09 3.6 2.49 7.75h2.55L57.62 8.9zM87.04 8.9h-2.39l-4.96 14.17h2.49l2.55-7.89 1.05-3.46h.08l1.09 3.6 2.49 7.75h2.55L87.04 8.9zM119.45 8.9h-2.38l-4.96 14.17h2.49l2.55-7.89 1.05-3.46h.08l1.09 3.6 2.49 7.75h2.55L119.45 8.9zM136.69 8.9v9.79h-.09l-2.29-3.51-3.97-5.92-.24-.36h-2.18v14.36h2.42v-9.92h.06l2.19 3.36 4.1 6.11.27.38h2.1V8.9h-2.37zM107.13 8.9l-1.05.02L102 20.65 97.91 8.92l-1.05-.02h-1.45v14.09h2.36v-7.25l2.98 8.48.48 1.39h1.53l.49-1.39 3.04-8.67v7.44h2.36V8.9h-1.52zM93.47 26.86h-1.14q-.92 2.67-1.83 5.29t-1.83 5.29h1.13l.83-2.44.37-1 .42-1.24.54-1.64.54-1.64.39-1.23q.14.45.4 1.23l.55 1.64.55 1.64q.26.78.4 1.24l.34 1q.22.61.42 1.23t.45 1.21h1.17zM63.65 26.86v6.8h6.11v-.98h-5.04v-4.84h5.87v-.98h-6.94zM63.65 36.47h6.94v.97h-6.94z"/>
</svg>
