<svg version="1.1" xmlns="http://www.w3.org/2000/svg" xmlns:xlink="http://www.w3.org/1999/xlink" width="46" height="11"><defs/><g><path fill="rgb(112,229,236)" stroke="none" paint-order="stroke fill markers" fill-rule="evenodd" d=" M 39.38941192626953 1.9998624324798584 C 39.38941192626953 1.9998624324798584 35.422203063964844 5.828034162521362 35.422203063964844 5.828034162521362 C 35.422203063964844 5.828034162521362 31.454879760742188 1.9998624324798584 31.454879760742188 1.9998624324798584 C 31.454879760742188 1.9998624324798584 27.480804443359375 5.834623098373413 27.480804443359375 5.834623098373413 C 27.480804443359375 5.834623098373413 23.506614685058594 1.9998624324798584 23.506614685058594 1.9998624324798584 C 23.506614685058594 1.9998624324798584 19.53253936767578 5.834623098373413 19.53253936767578 5.834623098373413 C 19.53253936767578 5.834623098373413 15.558349609375 1.9998624324798584 15.558349609375 1.9998624324798584 C 15.558349609375 1.9998624324798584 11.584159851074219 5.834623098373413 11.584159851074219 5.834623098373413 C 11.584159851074219 5.834623098373413 7.610084533691406 1.9998624324798584 7.610084533691406 1.9998624324798584 C 7.610084533691406 1.9998624324798584 1.9996185302734375 7.413614511489868 1.9996185302734375 7.413614511489868 C 1.9996185302734375 7.413614511489868 3.6434478759765625 9.000057697296143 3.6434478759765625 9.000057697296143 C 3.6434478759765625 9.000057697296143 7.610084533691406 5.172513484954834 7.610084533691406 5.172513484954834 C 7.610084533691406 5.172513484954834 11.576606750488281 9.000057697296143 11.576606750488281 9.000057697296143 C 11.576606750488281 9.000057697296143 11.584159851074219 8.992762804031372 11.584159851074219 8.992762804031372 C 11.584159851074219 8.992762804031372 11.591827392578125 9.000057697296143 11.591827392578125 9.000057697296143 C 11.591827392578125 9.000057697296143 15.558349609375 5.172513484954834 15.558349609375 5.172513484954834 C 15.558349609375 5.172513484954834 19.524871826171875 9.000057697296143 19.524871826171875 9.000057697296143 C 19.524871826171875 9.000057697296143 19.53253936767578 8.992762804031372 19.53253936767578 8.992762804031372 C 19.53253936767578 8.992762804031372 19.54009246826172 9.000057697296143 19.54009246826172 9.000057697296143 C 19.54009246826172 9.000057697296143 23.506614685058594 5.172513484954834 23.506614685058594 5.172513484954834 C 23.506614685058594 5.172513484954834 27.47313690185547 9.000057697296143 27.47313690185547 9.000057697296143 C 27.47313690185547 9.000057697296143 27.480804443359375 8.992762804031372 27.480804443359375 8.992762804031372 C 27.480804443359375 8.992762804031372 27.488357543945312 9.000057697296143 27.488357543945312 9.000057697296143 C 27.488357543945312 9.000057697296143 31.454879760742188 5.172513484954834 31.454879760742188 5.172513484954834 C 31.454879760742188 5.172513484954834 35.42151641845703 9.000057697296143 35.42151641845703 9.000057697296143 C 35.42151641845703 9.000057697296143 35.422203063964844 8.999430179595947 35.422203063964844 8.999430179595947 C 35.422203063964844 8.999430179595947 35.422889709472656 9.000057697296143 35.422889709472656 9.000057697296143 C 35.422889709472656 9.000057697296143 39.38941192626953 5.172513484954834 39.38941192626953 5.172513484954834 C 39.38941192626953 5.172513484954834 43.356048583984375 9.000057697296143 43.356048583984375 9.000057697296143 C 43.356048583984375 9.000057697296143 44.99999237060547 7.413614511489868 44.99999237060547 7.413614511489868 C 44.99999237060547 7.413614511489868 39.38941192626953 1.9998624324798584 39.38941192626953 1.9998624324798584 Z"/></g></svg>