<svg xmlns="http://www.w3.org/2000/svg" viewBox="0 0 200 145"><title>methods_icons</title><path d="M168.16,17.06a1.32,1.32,0,0,1,1.32-1.32h14.17A1.32,1.32,0,0,1,185,17.06V35.85a2.66,2.66,0,0,1-1.12,2l-6.17,3.87a2.3,2.3,0,0,1-2.23,0l-6.17-3.87a2.66,2.66,0,0,1-1.12-2Z" fill="#fff"/><path d="M176.56,42.62a2.73,2.73,0,0,1-1.43-.38L169,38.37a3.26,3.26,0,0,1-1.39-2.52V17.06a1.91,1.91,0,0,1,1.91-1.91h14.17a1.91,1.91,0,0,1,1.91,1.91V35.85a3.26,3.26,0,0,1-1.39,2.52L178,42.24A2.73,2.73,0,0,1,176.56,42.62Zm-7.09-26.28a.73.73,0,0,0-.73.73V35.85a2.09,2.09,0,0,0,.84,1.52l6.17,3.87a1.73,1.73,0,0,0,1.6,0l6.17-3.87a2.09,2.09,0,0,0,.84-1.52V17.06a.73.73,0,0,0-.73-.73Z" fill="#6e6c6c"/><path d="M176.56,38.75A2.74,2.74,0,1,1,179.3,36,2.74,2.74,0,0,1,176.56,38.75Zm0-4.28A1.55,1.55,0,1,0,178.11,36,1.55,1.55,0,0,0,176.56,34.46Z" fill="#6e6c6c"/><path d="M176.56,59.68a.59.59,0,0,1-.59-.59V36a.59.59,0,1,1,1.19,0V59.08A.59.59,0,0,1,176.56,59.68Z" fill="#6e6c6c"/><path d="M185.13,71.42a.59.59,0,0,1-.59-.59V50.76a1.55,1.55,0,1,0-3.1,0v8.32a2.74,2.74,0,1,1-5.47,0,.59.59,0,1,1,1.19,0,1.55,1.55,0,1,0,3.1,0V50.76a2.74,2.74,0,0,1,5.47,0V70.82A.59.59,0,0,1,185.13,71.42Z" fill="#6e6c6c"/><g opacity="0.5"><circle cx="96.19" cy="79.13" r="18.04" fill="#f5f5f5"/></g><path d="M186.05,69.23V96.68H138.49V69.23Zm-34,16.21V73.13h-9.49V85.44Z" fill="#f5f5f5"/><path d="M186.05,64.16v5.07H138.49V64.16Zm-3,2.64a1,1,0,1,0-1,1A1,1,0,0,0,183,66.79Zm-2.65,0a1,1,0,1,0-1,1A1,1,0,0,0,180.36,66.79Zm-2.74,0a1,1,0,1,0-1,1A1,1,0,0,0,177.62,66.79Z" fill="#d2bfe7"/><circle cx="182.04" cy="66.8" r="0.97" fill="#6e6c6c"/><circle cx="179.39" cy="66.8" r="0.97" fill="#6e6c6c"/><circle cx="176.65" cy="66.8" r="0.97" fill="#6e6c6c"/><rect x="142.59" y="73.13" width="9.49" height="12.31" fill="#c1aae6"/><path d="M186.05,97.27H138.49a.59.59,0,0,1-.59-.59V64.16a.59.59,0,0,1,.59-.59h47.56a.59.59,0,0,1,.59.59V96.68A.59.59,0,0,1,186.05,97.27Zm-47-1.19h46.37V64.75H139.09Z" fill="#6e6c6c"/><path d="M186.05,69.82H138.49a.59.59,0,0,1,0-1.19h47.56a.59.59,0,0,1,0,1.19Z" fill="#6e6c6c"/><path d="M152.07,86.1h-9.49a.66.66,0,0,1-.66-.66V73.13a.66.66,0,0,1,.66-.66h9.49a.66.66,0,0,1,.66.66V85.44A.66.66,0,0,1,152.07,86.1Zm-8.83-1.32h8.17v-11h-8.17Z" fill="#6e6c6c"/><path d="M182.74,73.72H156.49a.59.59,0,1,1,0-1.19h26.25a.59.59,0,0,1,0,1.19Z" fill="#6e6c6c"/><path d="M182.74,76.57H156.49a.59.59,0,1,1,0-1.19h26.25a.59.59,0,0,1,0,1.19Z" fill="#6e6c6c"/><path d="M182.74,79.69H156.49a.59.59,0,1,1,0-1.19h26.25a.59.59,0,0,1,0,1.19Z" fill="#6e6c6c"/><path d="M182.74,82.81H156.49a.59.59,0,1,1,0-1.19h26.25a.59.59,0,0,1,0,1.19Z" fill="#6e6c6c"/><path d="M182.74,85.93H156.49a.59.59,0,1,1,0-1.19h26.25a.59.59,0,0,1,0,1.19Z" fill="#6e6c6c"/><path d="M182.74,89H142.59a.59.59,0,1,1,0-1.19h40.15a.59.59,0,0,1,0,1.19Z" fill="#6e6c6c"/><path d="M182.74,92.17H142.59a.59.59,0,1,1,0-1.19h40.15a.59.59,0,0,1,0,1.19Z" fill="#6e6c6c"/><circle cx="163.12" cy="126.88" r="13.03" fill="#f2f2f2"/><path d="M163.12,140.5a13.62,13.62,0,1,1,13.62-13.62A13.63,13.63,0,0,1,163.12,140.5Zm0-26a12.43,12.43,0,1,0,12.43,12.43A12.45,12.45,0,0,0,163.12,114.45Z" fill="#6e6c6c"/><polygon points="156.29 129.05 159.41 135.13 162.45 129.05 160.94 129.05 160.94 118.63 157.81 118.63 157.81 129.05 156.29 129.05" fill="#d2bfe7"/><path d="M159.41,135.79a.66.66,0,0,1-.59-.36l-3.12-6.08a.66.66,0,0,1,.59-1h.85v-9.76a.66.66,0,0,1,.66-.66h3.13a.66.66,0,0,1,.66.66v9.76h.85a.66.66,0,0,1,.59,1l-3,6.08a.66.66,0,0,1-.59.36Zm-2-6.08,2,4,2-4h-.45a.66.66,0,0,1-.66-.66v-9.76h-1.81v9.76a.66.66,0,0,1-.66.66Z" fill="#6e6c6c"/><path d="M168.75,135.72h-3.13a.59.59,0,0,1-.59-.59V125.3h-.92a.59.59,0,0,1-.53-.86l3-6.08a.59.59,0,0,1,.53-.33h0a.59.59,0,0,1,.53.32l3.12,6.08a.59.59,0,0,1-.53.86h-.92v9.83A.59.59,0,0,1,168.75,135.72Zm-2.54-1.19h1.94v-9.83a.59.59,0,0,1,.59-.59h.54l-2.14-4.17-2.09,4.17h.55a.59.59,0,0,1,.59.59Z" fill="#6e6c6c"/><path d="M109.53,143.07a2.07,2.07,0,0,1-1.64-.89c-.28-.33-.39-.43-.64-.43s-.36.11-.64.43a1.95,1.95,0,0,1-3.27,0c-.28-.33-.39-.43-.63-.43s-.35.1-.63.43a1.95,1.95,0,0,1-3.27,0c-.28-.32-.39-.43-.63-.43s-.35.1-.63.43a1.94,1.94,0,0,1-3.27,0c-.28-.32-.39-.43-.63-.43s-.35.1-.63.43a1.95,1.95,0,0,1-3.27,0c-.28-.32-.39-.43-.63-.43a.66.66,0,1,1,0-1.32,2.06,2.06,0,0,1,1.63.89c.28.32.39.43.63.43s.35-.1.63-.43a1.95,1.95,0,0,1,3.27,0c.28.33.39.43.63.43s.35-.1.63-.43a1.94,1.94,0,0,1,3.27,0c.28.32.39.43.63.43s.35-.1.63-.43a1.95,1.95,0,0,1,3.27,0c.28.32.39.43.63.43s.36-.11.64-.43a1.95,1.95,0,0,1,3.27,0c.28.33.39.43.64.43a.66.66,0,1,1,0,1.32Z" fill="#6e6c6c"/><path d="M160.86,109.28a2.06,2.06,0,0,1-1.63-.89c-.28-.33-.39-.43-.64-.43s-.36.11-.64.43a1.95,1.95,0,0,1-3.27,0c-.28-.33-.39-.43-.63-.43s-.35.1-.63.43a1.95,1.95,0,0,1-3.27,0c-.28-.32-.39-.43-.63-.43s-.35.1-.63.43a1.94,1.94,0,0,1-3.27,0c-.28-.33-.39-.43-.63-.43s-.35.1-.63.43a1.95,1.95,0,0,1-3.27,0c-.28-.32-.39-.43-.63-.43a.66.66,0,0,1,0-1.32,2.06,2.06,0,0,1,1.63.89c.28.32.39.43.63.43s.35-.1.63-.43a1.95,1.95,0,0,1,3.27,0c.28.32.39.43.63.43s.35-.1.63-.43a1.94,1.94,0,0,1,3.27,0c.28.33.39.43.63.43s.35-.1.63-.43a1.95,1.95,0,0,1,3.27,0c.28.33.39.43.63.43s.36-.1.64-.43a1.95,1.95,0,0,1,3.27,0c.28.33.39.43.64.43a.66.66,0,1,1,0,1.32Z" fill="#6e6c6c"/><path d="M134,60.66H132.5a.66.66,0,1,1,0-1.32H134a.66.66,0,0,1,0,1.32Z" fill="#6e6c6c"/><path d="M129.45,60.66h-4.12a.66.66,0,0,1,0-1.32h4.12a.66.66,0,0,1,0,1.32Z" fill="#6e6c6c"/><path d="M133.59,56.51h-1.48a.66.66,0,0,1,0-1.32h1.48a.66.66,0,1,1,0,1.32Z" fill="#6e6c6c"/><path d="M140.76,56.51h-4.12a.66.66,0,0,1,0-1.32h4.12a.66.66,0,1,1,0,1.32Z" fill="#6e6c6c"/><path d="M9.31,17.44H7.83a.66.66,0,1,1,0-1.32H9.31a.66.66,0,1,1,0,1.32Z" fill="#6e6c6c"/><path d="M4.78,17.44H.66a.66.66,0,1,1,0-1.32H4.78a.66.66,0,1,1,0,1.32Z" fill="#6e6c6c"/><path d="M8.92,13.29H7.44a.66.66,0,0,1,0-1.32H8.92a.66.66,0,0,1,0,1.32Z" fill="#6e6c6c"/><path d="M16.09,13.29H12A.66.66,0,0,1,12,12h4.12a.66.66,0,0,1,0,1.32Z" fill="#6e6c6c"/><path d="M192.05,43.94h-1.48a.66.66,0,0,1,0-1.32h1.48a.66.66,0,1,1,0,1.32Z" fill="#6e6c6c"/><path d="M199.22,43.94H195.1a.66.66,0,0,1,0-1.32h4.12a.66.66,0,0,1,0,1.32Z" fill="#6e6c6c"/><path d="M96.19,104.67c-.8,0-1.61,0-2.41-.11a.66.66,0,1,1,.12-1.31c.76.07,1.53.1,2.29.1h.28a.65.65,0,0,1,.67.65.66.66,0,0,1-.65.67Zm4.22-.35a.66.66,0,0,1-.11-1.31,24.52,24.52,0,0,0,2.5-.56.66.66,0,1,1,.35,1.27,25.84,25.84,0,0,1-2.64.59ZM90,103.9l-.16,0a25.88,25.88,0,0,1-2.58-.8.66.66,0,1,1,.46-1.24,24.54,24.54,0,0,0,2.45.76.66.66,0,0,1-.16,1.3Zm16.74-1.5a.66.66,0,0,1-.27-1.26,24.71,24.71,0,0,0,2.28-1.18.66.66,0,0,1,.67,1.14,26,26,0,0,1-2.4,1.25A.65.65,0,0,1,106.69,102.4Zm-22.85-.93a.65.65,0,0,1-.32-.08,26.07,26.07,0,0,1-2.29-1.44A.66.66,0,1,1,82,98.86a24.61,24.61,0,0,0,2.17,1.37.66.66,0,0,1-.32,1.23Zm28.42-2.54a.66.66,0,0,1-.42-1.17,24.91,24.91,0,0,0,1.9-1.73.66.66,0,0,1,.94.93,26.26,26.26,0,0,1-2,1.82A.66.66,0,0,1,112.26,98.92Zm-33.7-1.38a.66.66,0,0,1-.46-.19,26.28,26.28,0,0,1-1.84-2,.66.66,0,1,1,1-.85A25,25,0,0,0,79,96.41a.66.66,0,0,1-.46,1.13Zm38.19-3.41a.66.66,0,0,1-.53-1,24.91,24.91,0,0,0,1.39-2.16.66.66,0,0,1,1.14.66,26.1,26.1,0,0,1-1.47,2.27A.66.66,0,0,1,116.76,94.13ZM74.48,92.4a.66.66,0,0,1-.56-.32,26,26,0,0,1-1.27-2.38.66.66,0,0,1,1.19-.56A24.71,24.71,0,0,0,75,91.4a.66.66,0,0,1-.56,1Zm45.41-4.06a.66.66,0,0,1-.62-.89,24.51,24.51,0,0,0,.79-2.44.66.66,0,0,1,1.27.34,26,26,0,0,1-.83,2.57A.66.66,0,0,1,119.88,88.35Zm-48-2a.66.66,0,0,1-.63-.48,26.13,26.13,0,0,1-.62-2.63.66.66,0,0,1,1.3-.23,24.76,24.76,0,0,0,.58,2.5.66.66,0,0,1-.45.82ZM121.4,82h-.07a.66.66,0,0,1-.59-.72,25.09,25.09,0,0,0,.13-2.56q0-.56,0-1.11a.66.66,0,1,1,1.32-.06q0,.58,0,1.17a26.45,26.45,0,0,1-.14,2.7A.66.66,0,0,1,121.4,82ZM70.85,79.89a.66.66,0,0,1-.66-.64q0-.29,0-.58c0-.71,0-1.42.09-2.12a.66.66,0,1,1,1.31.11c-.05.66-.08,1.34-.08,2q0,.28,0,.55a.66.66,0,0,1-.64.67ZM121,74.26a.66.66,0,0,1-.65-.53,24.65,24.65,0,0,0-.64-2.48.66.66,0,0,1,1.26-.4,26,26,0,0,1,.67,2.62.66.66,0,0,1-.51.78Zm-49.48-.9-.16,0a.66.66,0,0,1-.49-.8A25.78,25.78,0,0,1,71.68,70a.66.66,0,1,1,1.24.44,24.46,24.46,0,0,0-.73,2.46A.66.66,0,0,1,71.55,73.36ZM118.9,68a.66.66,0,0,1-.59-.37A24.76,24.76,0,0,0,117,65.45a.66.66,0,1,1,1.11-.71,26.12,26.12,0,0,1,1.33,2.35.66.66,0,0,1-.59,1Zm-45-.82a.66.66,0,0,1-.58-1,26,26,0,0,1,1.41-2.3.66.66,0,1,1,1.09.75,24.75,24.75,0,0,0-1.34,2.19A.66.66,0,0,1,73.91,67.22Zm41.33-4.63a.66.66,0,0,1-.5-.22,25,25,0,0,0-1.79-1.84.66.66,0,0,1,.9-1,26.3,26.3,0,0,1,1.89,1.94.66.66,0,0,1-.49,1.09Zm-37.46-.69a.66.66,0,0,1-.48-1.11,26.37,26.37,0,0,1,2-1.87.66.66,0,1,1,.86,1,25.08,25.08,0,0,0-1.86,1.77A.66.66,0,0,1,77.77,61.91Zm32.53-3.65a.66.66,0,0,1-.37-.11,24.74,24.74,0,0,0-2.2-1.32.66.66,0,1,1,.62-1.17,26.12,26.12,0,0,1,2.32,1.39.66.66,0,0,1-.37,1.21Zm-27.43-.5a.66.66,0,0,1-.35-1.22,26.13,26.13,0,0,1,2.37-1.3.66.66,0,1,1,.57,1.19,24.77,24.77,0,0,0-2.25,1.24A.66.66,0,0,1,82.86,57.76Zm21.55-2.42a.66.66,0,0,1-.21,0,24.64,24.64,0,0,0-2.47-.7.66.66,0,0,1,.29-1.28,26,26,0,0,1,2.6.74.66.66,0,0,1-.21,1.28Zm-15.56-.28a.66.66,0,0,1-.19-1.29,25.89,25.89,0,0,1,2.63-.64.66.66,0,0,1,.25,1.3A24.52,24.52,0,0,0,89,55ZM98,54h0a25.45,25.45,0,0,0-2.57,0,.66.66,0,1,1,0-1.32,26.52,26.52,0,0,1,2.7,0A.66.66,0,0,1,98,54Z" fill="#6e6c6c"/><rect x="117.61" y="74.74" width="7.86" height="7.86" fill="#f2f2f2"/><path d="M125.47,83.18h-7.86a.59.59,0,0,1-.59-.59V74.74a.59.59,0,0,1,.59-.59h7.86a.59.59,0,0,1,.59.59v7.86A.59.59,0,0,1,125.47,83.18ZM118.2,82h6.67V75.33H118.2Z" fill="#6e6c6c"/><rect x="92.26" y="99.45" width="7.86" height="7.86" fill="#f2f2f2"/><path d="M100.12,107.9H92.26a.59.59,0,0,1-.59-.59V99.45a.59.59,0,0,1,.59-.59h7.86a.59.59,0,0,1,.59.59v7.86A.59.59,0,0,1,100.12,107.9Zm-7.26-1.19h6.67V100H92.85Z" fill="#6e6c6c"/><rect x="92.26" y="49.39" width="7.86" height="7.86" fill="#f2f2f2"/><path d="M100.12,57.84H92.26a.59.59,0,0,1-.59-.59V49.39a.59.59,0,0,1,.59-.59h7.86a.59.59,0,0,1,.59.59v7.86A.59.59,0,0,1,100.12,57.84Zm-7.26-1.19h6.67V50H92.85Z" fill="#6e6c6c"/><path d="M101.24,40.59H85.59a3.23,3.23,0,0,1-3.23-3.23V3.23A3.23,3.23,0,0,1,85.59,0h15.65a3.23,3.23,0,0,1,3.23,3.23V37.37A3.23,3.23,0,0,1,101.24,40.59ZM85.59,1.19a2,2,0,0,0-2,2V37.37a2,2,0,0,0,2,2h15.65a2,2,0,0,0,2-2V3.23a2,2,0,0,0-2-2Z" fill="#6e6c6c"/><rect x="82.95" y="4.55" width="20.93" height="30.43" fill="#d2bfe7"/><path d="M103.88,35.64H83a.66.66,0,0,1-.66-.66V4.55A.66.66,0,0,1,83,3.89h20.93a.66.66,0,0,1,.66.66V35A.66.66,0,0,1,103.88,35.64ZM83.61,34.32h19.61V5.21H83.61Z" fill="#6e6c6c"/><path d="M95.43,3.11h-4a.59.59,0,0,1,0-1.19h4a.59.59,0,1,1,0,1.19Z" fill="#6e6c6c"/><circle cx="93.33" cy="37.38" r="1.15" fill="#c1aae6"/><path d="M93.33,38.86a1.48,1.48,0,1,1,1.48-1.48A1.48,1.48,0,0,1,93.33,38.86Zm0-2.31a.82.82,0,1,0,.82.82A.82.82,0,0,0,93.33,36.56Z" fill="#6e6c6c"/><path d="M109.42,34.88a3.69,3.69,0,0,0-.76-2.55,2.24,2.24,0,0,0-1.72-.69,2.55,2.55,0,0,0-1.65.55l0-.32a2.63,2.63,0,0,0-2.68-2,2.69,2.69,0,0,0-1.93.73h0a2.63,2.63,0,0,0-2.68-2,2.71,2.71,0,0,0-1.91.71V18.82a2.7,2.7,0,0,0-5.4,0v16a9.47,9.47,0,0,0-1.85-2.26,3.41,3.41,0,0,0-1.53-.87l-.88-.15-.24.86a2,2,0,0,0-.06.53v9.12c-.16.74-1.64,8.38,6.11,11.42.75.26,1,.42,1,2.23v1h10.37l1.15,0-.17-1.14c0-.12.23-.61,1.17-1.43l.13-.14c.6-.76,3.57-4.72,3.57-8Z" fill="#f5f5f5"/><path d="M100.28,32.56a.59.59,0,0,1-.59-.59V30.71a1.79,1.79,0,0,0-3.43,0v.88a.59.59,0,1,1-1.19,0v-.94a.58.58,0,0,1,0-.1,3,3,0,0,1,5.78,0,.58.58,0,0,1,0,.1V32A.59.59,0,0,1,100.28,32.56Z" fill="#6e6c6c"/><path d="M104.9,34.49a.59.59,0,0,1-.59-.59V32a1.79,1.79,0,0,0-3.44,0,.59.59,0,0,1-1.17-.19,3,3,0,0,1,5.78,0,.58.58,0,0,1,0,.1v1.93A.59.59,0,0,1,104.9,34.49Z" fill="#6e6c6c"/><path d="M93.6,56.26a.59.59,0,0,1-.59-.59c0-1.68-.2-1.82-.88-2.05-7.73-3-6.4-10.76-6.22-11.62V32.9a1.68,1.68,0,0,1,.27-1,1.08,1.08,0,0,1,.9-.45c1.84,0,4.57,3.77,4.57,5.75a.59.59,0,1,1-1.19,0c0-1.18-1.2-3-2.3-3.92a2.52,2.52,0,0,0-1-.64,1,1,0,0,0,0,.27v9.16a.6.6,0,0,1,0,.14c-.07.31-1.69,7.5,5.46,10.31,1.42.49,1.65,1.33,1.65,3.17A.59.59,0,0,1,93.6,56.26Z" fill="#6e6c6c"/><path d="M91.06,41.27a.59.59,0,0,1-.59-.59V18.81a.63.63,0,0,1,0-.07,2.9,2.9,0,0,1,5.8,0h0V31.59a.59.59,0,1,1-1.19,0V18.9a.59.59,0,0,1,0-.07s0,0,0-.06a1.71,1.71,0,0,0-3.43,0h0V40.68A.59.59,0,0,1,91.06,41.27Z" fill="#6e6c6c"/><path d="M104.15,56.19a.59.59,0,0,1-.58-.46c-.16-.73.72-1.68,1.5-2.36.35-.44,3.36-4.38,3.36-7.42V39.33a.57.57,0,0,1,0-.08V34.79a2.77,2.77,0,0,0-.5-1.85,1.28,1.28,0,0,0-1-.38,1.43,1.43,0,0,0-1.49,1.1V34a.59.59,0,1,1-1.19,0V33.6a.58.58,0,0,1,0-.1,2.61,2.61,0,0,1,2.67-2.13,2.46,2.46,0,0,1,1.87.76,4,4,0,0,1,.81,2.7v4.34a.57.57,0,0,1,0,.08v6.69c0,3.63-3.51,8-3.66,8.2l-.08.08a4.93,4.93,0,0,0-1.15,1.3.59.59,0,0,1-.46.64Zm.58-.72h0Z" fill="#6e6c6c"/><path d="M93.22,12.71a.59.59,0,0,1-.59-.59V10.26a.59.59,0,1,1,1.19,0v1.86A.59.59,0,0,1,93.22,12.71Z" fill="#6e6c6c"/><path d="M90.17,13.53a.59.59,0,0,1-.51-.3l-.93-1.61a.59.59,0,1,1,1-.59l.93,1.61a.59.59,0,0,1-.51.89Z" fill="#6e6c6c"/><path d="M87.93,15.77a.59.59,0,0,1-.3-.08L86,14.75a.59.59,0,0,1,.59-1l1.61.93a.59.59,0,0,1-.3,1.11Z" fill="#6e6c6c"/><path d="M87.12,18.82H85.25a.59.59,0,0,1,0-1.19h1.86a.59.59,0,1,1,0,1.19Z" fill="#6e6c6c"/><path d="M86.32,22.81A.59.59,0,0,1,86,21.7l1.61-.93a.59.59,0,0,1,.59,1l-1.61.93A.59.59,0,0,1,86.32,22.81Z" fill="#6e6c6c"/><path d="M100.13,22.81a.59.59,0,0,1-.3-.08l-1.61-.93a.59.59,0,1,1,.59-1l1.61.93a.59.59,0,0,1-.3,1.11Z" fill="#6e6c6c"/><path d="M101.19,18.82H99.33a.59.59,0,1,1,0-1.19h1.86a.59.59,0,0,1,0,1.19Z" fill="#6e6c6c"/><path d="M98.51,15.77a.59.59,0,0,1-.3-1.11l1.61-.93a.59.59,0,1,1,.59,1l-1.61.93A.59.59,0,0,1,98.51,15.77Z" fill="#6e6c6c"/><path d="M96.28,13.53a.59.59,0,0,1-.51-.89L96.7,11a.59.59,0,0,1,1,.59l-.93,1.61A.59.59,0,0,1,96.28,13.53Z" fill="#6e6c6c"/><rect x="89.24" y="55.59" width="19.79" height="9.16" fill="#c1aae6"/><path d="M109,65.41H89.24a.66.66,0,0,1-.66-.66V55.59a.66.66,0,0,1,.66-.66H109a.66.66,0,0,1,.66.66v9.16A.66.66,0,0,1,109,65.41ZM89.9,64.1h18.47V56.25H89.9Z" fill="#6e6c6c"/><path d="M88.29,126.65h-.73a.66.66,0,1,1,0-1.32h.73a7.37,7.37,0,0,0,1.73-.21.66.66,0,0,1,.31,1.28A8.68,8.68,0,0,1,88.29,126.65Zm-3.37,0H82.29a.66.66,0,1,1,0-1.32h2.64a.66.66,0,1,1,0,1.32Zm-5.27,0H77a.66.66,0,1,1,0-1.32h2.64a.66.66,0,1,1,0,1.32Zm-5.27,0H71.74a.66.66,0,1,1,0-1.32h2.64a.66.66,0,1,1,0,1.32Zm18.21-1.26a.66.66,0,0,1-.36-1.21A7.34,7.34,0,0,0,94,122.56a.66.66,0,0,1,1,.82,8.66,8.66,0,0,1-2.11,1.9A.66.66,0,0,1,92.59,125.39Zm3.22-4.05a.66.66,0,0,1-.62-.88,7.3,7.3,0,0,0,.42-2.37.63.63,0,0,1,.67-.65.66.66,0,0,1,.65.67,8.62,8.62,0,0,1-.5,2.8A.66.66,0,0,1,95.82,121.34Zm.46-5.22a.66.66,0,0,1-.66-.66v-2.64a.66.66,0,0,1,1.32,0v2.64A.66.66,0,0,1,96.28,116.12Zm0-5.27a.66.66,0,0,1-.66-.66v-2.64a.66.66,0,1,1,1.32,0v2.64A.66.66,0,0,1,96.28,110.85Zm0-5.28a.66.66,0,0,1-.66-.66h0a.66.66,0,1,1,.66.66Z" fill="#6e6c6c"/><path d="M145.27,79.32h-2.64a.66.66,0,0,1,0-1.32h2.64a.66.66,0,0,1,0,1.32Zm-5.27,0h-2.64a.66.66,0,1,1,0-1.32H140a.66.66,0,1,1,0,1.32Zm-5.27,0h-2.64a.66.66,0,0,1,0-1.32h2.64a.66.66,0,0,1,0,1.32Zm-5.27,0h-2.64a.66.66,0,1,1,0-1.32h2.64a.66.66,0,1,1,0,1.32Zm-5.27,0h-2.64a.66.66,0,0,1,0-1.32h2.64a.66.66,0,0,1,0,1.32Z" fill="#6e6c6c"/><circle cx="38" cy="67.77" r="13.02" fill="#f2f2f2"/><path d="M38,81.39A13.62,13.62,0,1,1,51.62,67.77,13.63,13.63,0,0,1,38,81.39Zm0-26A12.43,12.43,0,1,0,50.43,67.77,12.45,12.45,0,0,0,38,55.34Z" fill="#6e6c6c"/><polygon points="40.17 74.6 46.25 71.48 40.17 68.44 40.17 69.95 29.75 69.95 29.75 73.08 40.17 73.08 40.17 74.6" fill="#d2bfe7"/><path d="M40.17,75.19a.59.59,0,0,1-.59-.59v-.92H29.75a.59.59,0,0,1-.59-.59V70a.59.59,0,0,1,.59-.59h9.83v-.92a.59.59,0,0,1,.86-.53l6.08,3a.59.59,0,0,1,0,1.06l-6.08,3.12A.59.59,0,0,1,40.17,75.19Zm-9.83-2.7h9.83a.59.59,0,0,1,.59.59v.54l4.17-2.14L40.76,69.4V70a.59.59,0,0,1-.59.59H30.34Z" fill="#6e6c6c"/><path d="M35.83,67.38a.59.59,0,0,1-.27-.06l-6.08-3a.59.59,0,0,1,0-1.06l6.08-3.12a.59.59,0,0,1,.86.53v.92h9.83a.59.59,0,0,1,.59.59v3.13a.59.59,0,0,1-.59.59H36.42v.92a.59.59,0,0,1-.59.59Zm-4.77-3.64,4.17,2.09v-.55a.59.59,0,0,1,.59-.59h9.83V62.74H35.83a.59.59,0,0,1-.59-.59V61.6Z" fill="#6e6c6c"/><path d="M71.72,136H4.28a.59.59,0,0,1-.59-.59V98.06a3.44,3.44,0,0,1,3.44-3.44H68.88a3.44,3.44,0,0,1,3.44,3.44v37.32A.59.59,0,0,1,71.72,136ZM4.87,134.79H71.13V98.06a2.26,2.26,0,0,0-2.25-2.25H7.13a2.26,2.26,0,0,0-2.25,2.25Z" fill="#6e6c6c"/><path d="M69,142.34H7a7,7,0,0,1-7-7,.59.59,0,0,1,.59-.59H75.41a.59.59,0,0,1,.59.59A7,7,0,0,1,69,142.34ZM1.22,136A5.78,5.78,0,0,0,7,141.16H69A5.78,5.78,0,0,0,74.79,136Z" fill="#6e6c6c"/><path d="M67.72,132.22H8.28a.59.59,0,0,1-.59-.59V102.29a3.44,3.44,0,0,1,3.44-3.44H64.87a3.44,3.44,0,0,1,3.44,3.44v29.34A.59.59,0,0,1,67.72,132.22ZM8.88,131H67.13V102.29A2.26,2.26,0,0,0,64.87,100H11.13a2.26,2.26,0,0,0-2.25,2.25Z" fill="#6e6c6c"/><path d="M51.86,126.58H24.14a.59.59,0,0,1-.59-.59v-19.5a.59.59,0,0,1,.59-.59H51.86a.59.59,0,0,1,.59.59V126A.59.59,0,0,1,51.86,126.58Zm-27.13-1.19H51.27V107.08H24.73Z" fill="#6e6c6c"/><path d="M49.51,114.92h-23a.59.59,0,0,1-.59-.59v-2.67a.59.59,0,0,1,.59-.59h23a.59.59,0,0,1,.59.59v2.67A.59.59,0,0,1,49.51,114.92Zm-22.43-1.19H48.92v-1.48H27.08Z" fill="#6e6c6c"/><path d="M49.51,119.39h-23a.59.59,0,0,1-.59-.59v-2.56a.59.59,0,0,1,.59-.59h23a.59.59,0,0,1,.59.59v2.56A.59.59,0,0,1,49.51,119.39Zm-22.43-1.19H48.92v-1.37H27.08Z" fill="#6e6c6c"/><rect x="26.49" y="120.82" width="23.02" height="2.8" fill="#c1aae6"/><path d="M49.51,124.28h-23a.66.66,0,0,1-.66-.66v-2.8a.66.66,0,0,1,.66-.66h23a.66.66,0,0,1,.66.66v2.8A.66.66,0,0,1,49.51,124.28ZM27.15,123h21.7v-1.48H27.15Z" fill="#6e6c6c"/><path d="M46.41,138.34H29.59a2.79,2.79,0,0,1-2.79-2.79.59.59,0,0,1,.59-.59H48.61a.59.59,0,0,1,.59.59A2.79,2.79,0,0,1,46.41,138.34Zm-18.32-2.2a1.61,1.61,0,0,0,1.49,1H46.41a1.61,1.61,0,0,0,1.49-1Z" fill="#6e6c6c"/></svg>