<svg xmlns="http://www.w3.org/2000/svg" viewBox="0 0 320 485"><title>404_final</title><g style="isolation:isolate"><path d="M320,60.39a242,242,0,0,0-319.93,0V424.56a242,242,0,0,0,319.93,0Z" fill="#a2ddeb"/><path d="M160,41.09A200.84,200.84,0,0,0,.11,120.25V224.41c9-80.44,77.15-143,159.92-143,82.94,0,151.21,62.8,160,143.47V120.3A200.85,200.85,0,0,0,160,41.09Z" fill="#fff" opacity="0.15"/><path d="M160,403.57C77.26,403.57,9.09,341,.11,260.59V364.75a201.14,201.14,0,0,0,319.89,0h0V260.1C311.24,340.78,243,403.57,160,403.57Z" fill="#fff" opacity="0.15"/><path d="M160,81.43C77.26,81.43,9.09,144,.11,224.41v36.19c9,80.44,77.15,143,159.92,143,82.94,0,151.21-62.8,160-143.47V224.9C311.24,144.22,243,81.43,160,81.43Z" fill="#fff" opacity="0.15"/><path d="M160,81.43C77.26,81.43,9.09,144,.11,224.41v36.19c9,80.44,77.15,143,159.92,143,82.94,0,151.21-62.8,160-143.47V224.9C311.24,144.22,243,81.43,160,81.43Z" fill="#fff" opacity="0.15"/><ellipse cx="160.03" cy="242.5" rx="109.18" ry="109.27" fill="#fff" opacity="0.15"/><g opacity="0.3"><path d="M41.83,248.48,15.17,237.67,41,245.79l-5.27-16.67L13.5,214s14.11,6.69,20.24,8.91l-7.62-24.11-13.29-14,11,6.67-13-41.17L3.13,174.52,9.94,173,2,178,0,201.86l8.07-5.3-8,8.7V223.5l7.17-3.86L.07,224.83,0,253H43.26Z" fill="#fff"/><path d="M216.1,284.07,186.37,272l28.78,9-5.87-18.59-24.77-16.92s15.74,7.46,22.57,9.94l-8.49-26.88L183.76,213,196,220.45l-14.51-45.91-8.55,27.05,7.6-1.65-8.83,5.54-10,31.69,16.75-11-20.24,22-5.37,17c10.31-5.63,24.68-13.27,24.68-13.27L151,271.11l-5.69,18H217.7Z" fill="#fff"/><path d="M260.1,283.48,226.9,270,259,280.12l-6.56-20.76-27.67-18.89s17.58,8.33,25.2,11.1l-9.49-30L224,204.12l13.67,8.31-16.2-51.27-9.55,30.21,8.49-1.84-9.86,6.19L199.35,231.1l18.71-12.28-22.6,24.6-6,19C201,256.1,217,247.56,217,247.56L187.38,269,181,289.12h80.87Z" fill="#fff"/><path d="M320,279.69,296.14,270l23.86,7.5V258.19l-25.94-17.72s17.58,8.33,25.2,11.1l-9.49-30-16.55-17.43,13.67,8.31-16.2-51.27-9.55,30.21,8.49-1.84-9.86,6.19L268.59,231.1l18.71-12.28-22.6,24.6-6,19c11.52-6.28,27.56-14.82,27.56-14.82L256.61,269l-6.36,20.12H320Z" fill="#fff"/><path d="M163.06,282.36l-39.79-16.13,38.52,12.11-7.86-24.87-33.16-22.64s21.06,10,30.2,13.3l-11.37-36-19.83-20.88,16.38,10-19.42-61.45L105.3,172l10.17-2.21-11.82,7.42-13.4,42.41,22.42-14.72L85.59,234.35l-7.18,22.73c13.8-7.53,33-17.76,33-17.76L75.9,265l-7.62,24.11h96.91Z" fill="#fff"/><path d="M88.3,283.78,56.86,271l30.44,9.57-6.21-19.66L54.88,243s16.65,7.89,23.87,10.51l-9-28.44L54.09,208.61,67,216.48,51.7,167.92l-9,28.61,8-1.75-9.34,5.86L30.76,234.17l17.72-11.63-21.41,23.3-5.68,18c10.91-6,26.1-14,26.1-14L19.42,270.07l-6,19.06H90Z" fill="#fff"/></g><path d="M136.17,277.63a72,72,0,0,1-15.46,24.11c-11,11.14-11.37,27.7-11.37,27.7s-1.57,9.41,5.1,11.77,14.5-8.24,34.49-25.3,24.3,6.86,41.55,7.26,9.8-13.34,9.8-13.34,11.37,1.57,15.29,10.59-7.06,33.74-7.06,33.74a35.62,35.62,0,0,1,7.84-1.67c3.14-.1,11.37-11.67,19.21-10.7s10.19,10.8,10.19,10.8,11-12.55,29-10.59,20.33,21.18,20.33,21.18a16.22,16.22,0,0,0,2-7.75c0-11.43-12.37-20.69-27.63-20.69a33.4,33.4,0,0,0-18,5c-1.76-19.25-18.38-34.35-38.64-34.35a39.9,39.9,0,0,0-10,1.27,10.79,10.79,0,0,1-12.94-7.07c-6.14-18.39-18.48-30.95-32.69-30.95A26.75,26.75,0,0,0,140.33,275a22.49,22.49,0,0,1-14,5C133.08,280.27,136.17,277.63,136.17,277.63Z" fill="#a2ddeb"/><path d="M100.2,273.54c5.87,1.19,11.86,3,18.23,5A92.67,92.67,0,0,0,100.2,273.54Z" fill="#a2ddeb"/><path d="M31.34,345.92c18.32,14.3,29-2,47.82-1.18s27,12.95,27,12.95,0-4.32-5.1-15.3S80.72,329.05,68.18,311s4.25-38.18,15.68-38.84c-27.25,0-51.27,11-65.42,27.7a17.12,17.12,0,0,1-15.33,5.93q-1.49-.2-3-.3v13.31C13.77,322.49,16.37,334.23,31.34,345.92Z" fill="#a2ddeb"/><path d="M118.42,278.5A21.61,21.61,0,0,0,126.3,280,31.69,31.69,0,0,1,118.42,278.5Z" fill="#90cddf"/><path d="M83.86,272.17a98.74,98.74,0,0,1,16.34,1.37A63.13,63.13,0,0,0,83.86,272.17Z" fill="#90cddf"/><path d="M274.74,342c-18-2-29,10.59-29,10.59s-2.35-9.83-10.19-10.8-16.07,10.59-19.21,10.7a35.62,35.62,0,0,0-7.84,1.67s11-24.71,7.06-33.74-15.29-10.59-15.29-10.59,7.45,13.73-9.8,13.34-21.56-24.32-41.55-7.26-27.83,27.66-34.49,25.3-5.1-11.77-5.1-11.77.39-16.57,11.37-27.7a72,72,0,0,0,15.46-24.11s-3.09,2.64-9.87,2.33a21.61,21.61,0,0,1-7.87-1.46c-6.37-2-12.35-3.77-18.23-5a98.74,98.74,0,0,0-16.34-1.37C72.43,272.83,55.64,293,68.18,311S96,331.4,101.1,342.39s5.1,15.3,5.1,15.3-8.23-12.16-27-12.95-29.5,15.48-47.82,1.18c-15-11.69-17.56-23.43-31.23-27.11v44.37h295S292.77,344,274.74,342Z" fill="#90cddf"/><path d="M63,359.34c20.7,2.3,37.58-8.83,60.2-13.24s62.11,8.25,62.11,8.25S166.51,324.8,145.43,306s-21.86-43.75-15.34-56,21.09-20.34,21.09-20.34-29.52,28-1.92,49.5S216,283.36,216,283.36s-28.37,15.35-17.25,38.38,27.61-36.46,61.73-23.41,21.86,62.55,37.19,48c7.66-7.28,14.94-13.42,22.35-15.77V281.88a36.8,36.8,0,0,0-10.52,3.26c-11.62-14.84-27.62-23.75-44.93-23a48,48,0,0,0-21.73,6.27,7.8,7.8,0,0,1-10.56-3l0-.07c-21.77-37.75-62.84-54.82-91.71-38.14C120.91,238.47,112,262.41,115,288.41a9.22,9.22,0,0,1-7.77,10.11c-10.86,1.77-20,7.19-25.06,16-5.18,9-5.21,19.86-1.07,30.35-1.27-.89-2.59-1.74-4-2.54-15-8.69-31.44-8.66-37.48-.16q.31-.44.66-.85C43.71,348.54,50.46,357.95,63,359.34Z" fill="#a2ddeb"/><path d="M39,343.14q.28-.48.6-.93C39.43,342.51,39.23,342.82,39,343.14Z" fill="#a2ddeb"/><path d="M39.65,342.21l0,0Z" fill="#90cddf"/><path d="M297.65,346.3c-15.34,14.58-3.07-34.92-37.19-48s-50.61,46.43-61.73,23.41S216,283.36,216,283.36s-39.11,17.27-66.72-4.22,1.92-49.5,1.92-49.5-14.57,8.06-21.09,20.34-5.75,37.22,15.34,56,39.88,48.35,39.88,48.35-39.49-12.66-62.11-8.25S83.69,361.65,63,359.34c-12.53-1.39-19.28-10.8-22.66-18q-.35.41-.66.85l0,0q-.32.45-.6.93c-3.2,5.55-1.69,13,3.27,20H320V330.52C312.58,332.88,305.3,339,297.65,346.3Z" fill="#90cddf"/><path d="M243.85,437l-.05-.17h0Z" fill="#c1e9fa"/><path d="M287.71,373.66A249.46,249.46,0,0,0,320,355.17V251.61a42.11,42.11,0,0,0-5.47,19.75c-.39,15.63-.84,25-6,32.28-.51-2.7-.23-12.17-8.53-14-8.76-1.92-18.91,13.72-22,28a13.13,13.13,0,0,1-6.46,8.73c-4.52,2.52-9.18,5-12.47,8.62-34.23,37.88-17,96.31-15.32,101.81C248.19,414.71,259.45,387.39,287.71,373.66Z" fill="#c1e9fa"/><path d="M287.71,373.66c-28.26,13.73-39.52,41-43.91,63.2h0c0,.05,39.72-22,76.2-25V355.17A249.46,249.46,0,0,1,287.71,373.66Z" fill="#a2ddeb"/><path d="M320,412.33a179.66,179.66,0,0,0-15.8,9.86,269.34,269.34,0,0,0-24.7,19.29c1-5.62,2.23-12.64,3.61-20.35,7-4.21,17.66-12.36,29.06-22.41,2.78-2.45,5.39-4.92,7.83-7.35V378.49a180.4,180.4,0,0,0-15.13,11.92c-7.67,6.76-14.45,13.31-19.61,18.82l1.22-6.69c5.82-5.4,15.17-15.75,25.18-28.09,3-3.72,5.81-7.4,8.34-10.92V353.1c-4.5,4.65-9.51,10.17-14.5,16.34-6.74,8.32-12.67,16.16-17.06,22.48,1.43-7.69,2.85-15.21,4.18-22,5.68-4.49,15.48-14,26.09-25.58L320,342.9v-10.7c-2.23,2.22-4.5,4.58-6.78,7.06-7.66,8.34-14.3,16.16-18.91,22.15l.45-2.22a249.6,249.6,0,0,1,6.94-24.57A187.31,187.31,0,0,0,320,320.79v-9.07c-6.27,5.68-11.73,11-15.73,15.17,2-5.76,4.08-11.78,6.27-17.86a118.32,118.32,0,0,0,9.45-7.68v-7.48c-2.45,2.58-4.65,5-6.53,7.15,1.71-4.62,3.43-9.23,5.14-13.73.42-.32.89-.71,1.39-1.14v-26c-.42,6.8-.53,12.88-.35,16.93-2.84,6.45-5.83,13.4-8.81,20.64.16-5.5.13-12.22-.12-19.48a191.05,191.05,0,0,0-4.15-33.38,191,191,0,0,0-1.83,33.58c.42,12,1.34,22.51,2.4,28.39-1.95,4.9-3.87,9.89-5.73,14.9.16-6.29.12-13.87-.16-22a224.15,224.15,0,0,0-4.87-39.16,224.17,224.17,0,0,0-2.14,39.4c.5,14.38,1.62,26.93,2.89,33.74-2.52,7.31-4.83,14.56-6.81,21.57-.54-6.39-1.39-13.9-2.52-21.92a238.42,238.42,0,0,0-9.53-40.88,238.46,238.46,0,0,0,2.14,41.92c2,14.26,4.43,26.75,6.46,34.06-1.72,6.93-3.3,13.68-4.73,20.17-.87-6.92-2.23-15.09-4-23.8a195.17,195.17,0,0,0-14-42.51,195.21,195.21,0,0,0,3.79,44.61c3.47,17,7.62,31.47,10.76,38.31q-.51,2.55-1,5a139.12,139.12,0,0,0-10.44-21.58,95.66,95.66,0,0,0-25.06-27.71A95.76,95.76,0,0,0,254,396.36c7.61,13,15.8,23.26,21,26.7a1.11,1.11,0,0,0,.17.87c-1.1,6.3-2,11.93-2.75,16.73-2.76-6.35-8.13-15.06-15.12-24.06a95.63,95.63,0,0,0-28.47-24.19A95.74,95.74,0,0,0,245.2,426c10.16,13.09,20.55,22.72,25.81,24.33-.74,5.34-1.07,8.33-1.07,8.33l7.24-3.85.68-3.9c7.29-3.15,19.48-10.39,32.7-19.67,3.36-2.36,6.51-4.76,9.45-7.14Z" fill="#8381d4"/><path d="M320,383.36,299.66,390l18.54-36.71h0l1.79-.59v-1.41l-.95.31.95-1.88v-3l-25.76,51-6.75-20.57.18-.35h0l7.71-15.26a2,2,0,1,0-1.19-.6l-7.28,14.42-4.06-12.39a2,2,0,1,0-1.27.42l4.06,12.39-14.41-7.29a2,2,0,0,0-2.6-2.16,2,2,0,1,0,2,3.35l15.25,7.72h0l.35.18,7.17,21.84L283.06,420l1.88-.76,13.88-27.47h0l21.18-7Z" fill="#96d0e0"/><path d="M313,284.72a2,2,0,0,0,.75-.46l6.2,3.14v-1.5l-5.59-2.83a2,2,0,1,0-1.35,1.65Z" fill="#96d0e0"/><path d="M297.82,314.88a2,2,0,0,0,.75-.46l15.25,7.72h0l.35.18L320,340.07v-4.28l-4.56-13.89.18-.35h0l4.38-8.68v-3l-5.15,10.19-4.06-12.39a2,2,0,1,0-1.27.42l4.06,12.39-14.41-7.29a2,2,0,1,0-1.35,1.65Z" fill="#96d0e0"/><path d="M237.68,393.45c-5.75-26.69,8.4-62.11,21.19-89.53,9.08-19.47,7.8-41,5.35-54.59a33.74,33.74,0,0,1,10.62,1.89c26.26,8.94,12,39.8,5.34,50.21s-3.17,12,7.26,8.69c7.13-2.28,30.78-1.78,28.84,19.11s-48.23,44.29-38.4,47.7c17.93,6.22,15.59,26-1.23,34.59-19.11,9.76,3.65,5.12-.85,25.4-4.81,21.66-55.93,40.23-60.84,41.84C234.17,458.45,242.54,416,237.68,393.45Z" fill="#c1e9fa"/><path d="M188.9,429.94c-15-9.14-6-23.32,3.24-24.84,6.75-1.11,12.75.56,8.5-4.25-16.41-18.63-29.47-44.46-13.5-54.77s24.47,11,27.14,7.76-17.47-24.45-18.79-38.54,20.59-26.74,31.08-3.63c6.91,15.22,14.23-7.05,11.05-21.37-5-22.33,7.4-41.12,26.59-41,2.45,13.56,3.73,35.12-5.35,54.59-12.78,27.42-26.94,62.85-21.19,89.53,4.86,22.54-3.51,65-22.74,85.28l-.38.12S214.76,445.68,188.9,429.94Z" fill="#a2ddeb"/><path d="M220.44,365.22a1.72,1.72,0,1,1,1.06-1.48l12.64,5.38L230,358.83a1.7,1.7,0,1,1,1.05-.43l4.15,10.29L240.57,356a1.72,1.72,0,1,1,1,.44l-5.69,13.39h0l-.13.31,6.89,17.09,19.63-46.23L255,322.91l-.31-.13h0l-13.38-5.69a1.68,1.68,0,0,1-.61.43,1.72,1.72,0,1,1,1.06-1.48l12.64,5.38-4.15-10.29a1.7,1.7,0,1,1,1.05-.43L255.46,321l5.37-12.65a1.69,1.69,0,0,1-.43-.61,1.72,1.72,0,1,1,1.48,1.06l-5.69,13.39h0l-.13.31L263,339.58l3.51-8.27,4.18-9.83,3.66-8.61-.13-.31h0l-5.44-13.5a1.69,1.69,0,0,1-.74-.13,1.7,1.7,0,1,1,2.23-.9,1.69,1.69,0,0,1-.44.61l5.14,12.75,4.34-10.21a1.7,1.7,0,1,1,1,.44L276,311.83l12.74-5.14a1.72,1.72,0,1,1,.43,1.05l-13.49,5.45h0l-.31.13-3.66,8.61-4.18,9.83-6.1,14.36L278.93,339l.13-.31h0l5.69-13.39a1.68,1.68,0,0,1-.43-.61,1.7,1.7,0,1,1,2.22.94,1.69,1.69,0,0,1-.74.12l-5.37,12.65,10.28-4.15a1.7,1.7,0,1,1,.42,1.05l-10.28,4.15,12.64,5.38a1.69,1.69,0,0,1,.61-.43,1.72,1.72,0,1,1-1.06,1.48l-13.38-5.69h0l-.31-.13-18.57,7.5h0L248.72,376l17.52-7.07.13-.31h0l5.69-13.39a1.72,1.72,0,1,1,1,.44l-5.37,12.65L278,364.17a1.7,1.7,0,1,1,.42,1.05l-10.28,4.15,12.64,5.38a1.72,1.72,0,1,1-.44,1L267,370.11h0l-.31-.13-18.57,7.5h0l-18.8,44.25,17.52-7.07.13-.31h0l5.69-13.39a1.68,1.68,0,0,1-.43-.61,1.7,1.7,0,1,1,2.22.94,1.68,1.68,0,0,1-.74.12L248.31,414l10.28-4.15A1.7,1.7,0,1,1,259,411l-10.28,4.15,12.64,5.38a1.72,1.72,0,1,1-.44,1l-13.38-5.69h0l-.31-.13-18.57,7.5h0L215,455.41l17.52-7.07.13-.31h0l5.69-13.39a1.72,1.72,0,1,1,1,.44L234,447.73l10.28-4.15a1.7,1.7,0,1,1,.42,1.05l-10.28,4.15,12.64,5.38a1.72,1.72,0,1,1-.44,1l-13.38-5.69h0l-.31-.13-18.57,7.5h0L204.13,481l-1.34.24,7.4-17.43-7.31-18.15-.31-.13h0l-13.38-5.69a1.69,1.69,0,0,1-2.83-.51,1.7,1.7,0,1,1,3.27-.53l12.64,5.38-4.15-10.29a1.7,1.7,0,1,1,1.05-.43l4.15,10.29,5.37-12.65a1.69,1.69,0,0,1-.43-.61,1.72,1.72,0,1,1,1.48,1.06l-5.69,13.39h0l-.13.31,6.89,17.09,20-47.1-7.31-18.15-.31-.13h0l-13.38-5.69a1.69,1.69,0,0,1-2.83-.51,1.7,1.7,0,1,1,3.27-.53l12.64,5.38-4.15-10.29a1.7,1.7,0,1,1,1.05-.43L224,395.16l5.37-12.65a1.69,1.69,0,0,1-.43-.61,1.72,1.72,0,1,1,1.48,1.06l-5.69,13.39h0l-.13.31,6.89,17.09,10.61-25-7.31-18.15-.31-.13h0l-13.38-5.69A1.69,1.69,0,0,1,220.44,365.22Z" fill="#8381d4"/><path d="M214.72,478.8l-4.9,1.08s2.95-49.18,3.56-72.59-10.58-92.86-10.58-92.86S216.32,370,217.29,409.6A534.11,534.11,0,0,1,214.72,478.8Z" fill="#96d0e0"/><ellipse cx="210.53" cy="333.1" rx="16.09" ry="1.44" transform="translate(-152.83 485.56) rotate(-80.47)" fill="#96d0e0"/><ellipse cx="217.53" cy="348.36" rx="24.15" ry="2.15" transform="translate(-175.59 467.24) rotate(-74.84)" fill="#96d0e0"/><ellipse cx="199.96" cy="350.9" rx="2.15" ry="24.14" transform="translate(-156.81 161.62) rotate(-32.38)" fill="#96d0e0"/><ellipse cx="221.02" cy="365.09" rx="28.33" ry="2.53" transform="translate(-189.16 482.96) rotate(-74.84)" fill="#96d0e0"/><ellipse cx="198.93" cy="367.77" rx="2.53" ry="28.33" transform="translate(-176.59 183.88) rotate(-35.5)" fill="#96d0e0"/><ellipse cx="225.01" cy="391.22" rx="30.14" ry="2.69" transform="translate(-221.11 459.49) rotate(-68.8)" fill="#96d0e0"/><ellipse cx="201.35" cy="391.58" rx="2.69" ry="30.14" transform="translate(-166.53 149.63) rotate(-29.46)" fill="#96d0e0"/><ellipse cx="227.54" cy="415.5" rx="32.05" ry="3.76" transform="translate(-245.05 448.3) rotate(-65.26)" fill="#96d0e0"/><path d="M227.86,432.45c-10,10.57-16.33,20.84-14.12,22.95s12.13-4.77,22.14-15.34A69,69,0,0,0,250,417.11,68.93,68.93,0,0,0,227.86,432.45Z" fill="#96d0e0"/><ellipse cx="201.59" cy="413.96" rx="2.86" ry="32.05" transform="translate(-160.68 129.77) rotate(-25.92)" fill="#96d0e0"/><ellipse cx="197.92" cy="429.85" rx="3.99" ry="32.05" transform="translate(-212.82 194.83) rotate(-35.5)" fill="#96d0e0"/><path d="M230.26,453.73c-11.31,9.17-18.92,18.52-17,20.9s12.64-3.13,24-12.3a69,69,0,0,0,17-20.9A68.91,68.91,0,0,0,230.26,453.73Z" fill="#96d0e0"/><ellipse cx="193.45" cy="452.61" rx="3.99" ry="32.04" transform="translate(-252.6 244.48) rotate(-41.84)" fill="#96d0e0"/><ellipse cx="200.2" cy="336.02" rx="1.85" ry="20.69" transform="translate(-135.85 135.87) rotate(-28.44)" fill="#96d0e0"/><rect x="156.84" y="122.05" width="22.46" height="323.79" fill="#604b3b"/><path d="M156.84,122v8.35a11.2,11.2,0,0,1,3.61-.6h0A11.24,11.24,0,0,1,171.68,141V426.84a11.24,11.24,0,0,1-11.23,11.24h0a11.2,11.2,0,0,1-3.61-.6v8.35H179.3V122Z" fill="#452f27" opacity="0.54"/><ellipse cx="168.07" cy="122.05" rx="11.23" ry="2.81" fill="#916f5d"/><polygon points="193.57 139.83 51.95 139.83 47.68 142.26 189.31 142.26 193.57 139.83" fill="#916f5d"/><polygon points="47.68 142.26 25.15 172.84 47.68 203.41 189.31 203.41 189.31 142.26 47.68 142.26" fill="#beac83"/><polygon points="193.57 200.97 189.31 203.41 189.31 142.26 193.57 139.83 193.57 200.97" fill="#604b3b"/><g opacity="0.12"><polygon points="107.07 142.26 47.68 142.26 25.15 172.84 47.68 203.41 71.8 203.41 107.07 142.26" fill="#fff"/><polygon points="175.39 142.26 140.12 203.41 189.31 203.41 189.31 142.26 175.39 142.26" fill="#fff"/></g><path d="M61.3,157.6h6a3.22,3.22,0,0,1,2.4.87,3.13,3.13,0,0,1,.86,2.3,3.45,3.45,0,0,1-.19,1.21,2.32,2.32,0,0,1-.5.82,1.91,1.91,0,0,1-.73.47,3,3,0,0,1-.89.17v.11a3,3,0,0,1,.93.16,2.64,2.64,0,0,1,.89.5,2.8,2.8,0,0,1,.68.9,3,3,0,0,1,.27,1.35,3.93,3.93,0,0,1-.24,1.37,3.51,3.51,0,0,1-.66,1.13,3.11,3.11,0,0,1-1,.75,3,3,0,0,1-1.28.27H61.3ZM64,162.67h2.67a1,1,0,0,0,1.13-1.13V161a1,1,0,0,0-1.13-1.13H64Zm0,5h3.1a1.18,1.18,0,0,0,.84-.29,1.08,1.08,0,0,0,.31-.82V166a1.08,1.08,0,0,0-.31-.82,1.18,1.18,0,0,0-.84-.29H64Z" fill="#452f27"/><path d="M73.11,170V157.6h8.41V160H75.8v2.52h4.9v2.39H75.8v2.68h5.72V170Z" fill="#452f27"/><path d="M83.86,170V157.6H89.7a4,4,0,0,1,1.56.29,3.46,3.46,0,0,1,1.18.81,3.52,3.52,0,0,1,.75,1.25,5,5,0,0,1,0,3.22,3.54,3.54,0,0,1-.75,1.24,3.46,3.46,0,0,1-1.18.81,4,4,0,0,1-1.56.29H86.55V170Zm2.69-6.8h2.83a1.37,1.37,0,0,0,.95-.31,1.16,1.16,0,0,0,.34-.91v-.78a1.16,1.16,0,0,0-.34-.91,1.37,1.37,0,0,0-.95-.31H86.55Z" fill="#452f27"/><path d="M102.88,164.9H98.17V170H95.47V157.6h2.69v4.91h4.71V157.6h2.69V170h-2.69Z" fill="#452f27"/><path d="M109,167.58h2.16l.26-.67-4.32-9.3H110l1.73,3.85,1,2.46h.05l.9-2.48,1.52-3.83h2.64l-4.36,10.63a3.8,3.8,0,0,1-.43.81,2.19,2.19,0,0,1-.56.54,2.08,2.08,0,0,1-.73.3,4.64,4.64,0,0,1-1,.09H109Z" fill="#452f27"/><path d="M124.67,160v10H122V160h-3.35V157.6H128V160Z" fill="#452f27"/><path d="M129.86,157.6h2.69v4.47h3.33a4,4,0,0,1,1.56.29,3.47,3.47,0,0,1,1.18.81,3.54,3.54,0,0,1,.75,1.25,5,5,0,0,1,0,3.22,3.55,3.55,0,0,1-.75,1.24,3.47,3.47,0,0,1-1.18.81,4,4,0,0,1-1.56.29h-6Zm5.7,10a1.36,1.36,0,0,0,.95-.31,1.16,1.16,0,0,0,.35-.91v-.78a1.16,1.16,0,0,0-.35-.91,1.36,1.36,0,0,0-.95-.31h-3v3.23Z" fill="#452f27"/><path d="M146.57,170.19a6.11,6.11,0,0,1-2.27-.4,4.49,4.49,0,0,1-1.72-1.19,5.47,5.47,0,0,1-1.1-2,8.79,8.79,0,0,1-.39-2.75,9.06,9.06,0,0,1,.39-2.77,5.79,5.79,0,0,1,1.1-2,4.57,4.57,0,0,1,1.72-1.25,5.79,5.79,0,0,1,2.27-.42,5.25,5.25,0,0,1,2.83.7,4.83,4.83,0,0,1,1.79,2.21l-2.32,1.21a2.75,2.75,0,0,0-.77-1.25,2.22,2.22,0,0,0-1.53-.47,2.48,2.48,0,0,0-1.9.77,3.18,3.18,0,0,0-.72,2.24v2a3.18,3.18,0,0,0,.72,2.24,2.48,2.48,0,0,0,1.9.77,2.26,2.26,0,0,0,1.58-.54,3.28,3.28,0,0,0,.88-1.3l2.2,1.28a5.49,5.49,0,0,1-1.81,2.19A4.91,4.91,0,0,1,146.57,170.19Z" fill="#452f27"/><path d="M152.49,167.58h1.1l1-1.58a2,2,0,0,1,.47-.53,1.74,1.74,0,0,1,.73-.28v-.11a3.27,3.27,0,0,1-2.19-1.06,3.56,3.56,0,0,1-.82-2.46,4.65,4.65,0,0,1,.27-1.61,3.64,3.64,0,0,1,.75-1.25,3.31,3.31,0,0,1,1.18-.81,4,4,0,0,1,1.54-.28h5.86V170h-2.69v-4.54h-1.63L156,168.68a3.78,3.78,0,0,1-.49.66,2.05,2.05,0,0,1-.5.39,1.92,1.92,0,0,1-.56.2,3.65,3.65,0,0,1-.65.05h-1.31Zm7.21-4.41v-3.23h-2.83a1.37,1.37,0,0,0-.95.31,1.16,1.16,0,0,0-.35.91v.76a1.19,1.19,0,0,0,.35.93,1.37,1.37,0,0,0,.95.31Z" fill="#452f27"/><path d="M64.61,182.63H59.9v5.07H57.21V175.32H59.9v4.91h4.71v-4.91H67.3v12.37H64.61Z" fill="#452f27"/><path d="M77.64,187.69l-.88-2.94H72.63l-.88,2.94H69l4.07-12.37h3.33l4,12.37Zm-2.92-9.92h-.09l-1.36,4.7H76.1Z" fill="#452f27"/><path d="M86.34,175.32H93.6v2.39H89v10H86.34Z" fill="#452f27"/><path d="M93.37,185.3h1.47a2.86,2.86,0,0,0,.5-.75,5.44,5.44,0,0,0,.36-1.16,13.76,13.76,0,0,0,.23-1.71q.08-1,.08-2.42v-3.93h8.73v12.37H102v-10H98.63v1.91a28.08,28.08,0,0,1-.12,2.83,15,15,0,0,1-.34,2,6.2,6.2,0,0,1-.5,1.4,3.72,3.72,0,0,1-.63.89,3.25,3.25,0,0,1-1.18.78,4.6,4.6,0,0,1-1.57.23h-.92Z" fill="#452f27"/><path d="M115.07,187.69l-.88-2.94h-4.13l-.88,2.94h-2.73l4.07-12.37h3.33l4,12.37Zm-2.92-9.92h-.09l-1.36,4.7h2.83Z" fill="#452f27"/><path d="M119.59,175.32h6a3.22,3.22,0,0,1,2.4.87,3.13,3.13,0,0,1,.86,2.3,3.45,3.45,0,0,1-.19,1.21,2.32,2.32,0,0,1-.5.82,1.91,1.91,0,0,1-.73.47,3,3,0,0,1-.89.17v.11a3,3,0,0,1,.93.16,2.64,2.64,0,0,1,.89.5,2.8,2.8,0,0,1,.68.9,3,3,0,0,1,.27,1.35,3.93,3.93,0,0,1-.24,1.37,3.51,3.51,0,0,1-.66,1.13,3.11,3.11,0,0,1-1,.75,3,3,0,0,1-1.28.27h-6.55Zm2.69,5.07H125a1,1,0,0,0,1.13-1.13v-.53a1,1,0,0,0-1.13-1.13h-2.67Zm0,5h3.1a1.18,1.18,0,0,0,.84-.29,1.08,1.08,0,0,0,.31-.82v-.6a1.08,1.08,0,0,0-.31-.82,1.18,1.18,0,0,0-.84-.29h-3.1Z" fill="#452f27"/><path d="M138.8,182.63h-4.71v5.07H131.4V175.32h2.69v4.91h4.71v-4.91h2.69v12.37H138.8Z" fill="#452f27"/><path d="M145,185.3h2.16l.26-.67-4.32-9.3h2.83l1.73,3.85,1,2.46h.05l.9-2.48,1.52-3.83h2.64L149.42,186a3.8,3.8,0,0,1-.43.81,2.19,2.19,0,0,1-.56.54,2.08,2.08,0,0,1-.73.3,4.64,4.64,0,0,1-1,.09H145Z" fill="#452f27"/><path d="M165.7,187.91a5.15,5.15,0,0,1-3.68-1.34,6.21,6.21,0,0,1-1.72-3.94h-2.21v5.07h-2.69V175.32h2.69v4.91h2.25a6.75,6.75,0,0,1,.58-2.22,5.1,5.1,0,0,1,1.15-1.61,4.67,4.67,0,0,1,1.62-1,6,6,0,0,1,2-.33,5.91,5.91,0,0,1,2.23.41,4.5,4.5,0,0,1,1.72,1.21,5.63,5.63,0,0,1,1.1,2,10.09,10.09,0,0,1,0,5.55,5.63,5.63,0,0,1-1.1,2,4.48,4.48,0,0,1-1.72,1.21A5.89,5.89,0,0,1,165.7,187.91Zm0-2.39a2.37,2.37,0,0,0,1.9-.8,3.42,3.42,0,0,0,.68-2.29v-1.84a3.42,3.42,0,0,0-.68-2.29,2.67,2.67,0,0,0-3.81,0,3.42,3.42,0,0,0-.68,2.29v1.84a3.42,3.42,0,0,0,.68,2.29A2.37,2.37,0,0,0,165.7,185.51Z" fill="#452f27"/><circle cx="168.53" cy="150.72" r="3.69" fill="#4d4d4d"/><circle cx="168.13" cy="150.32" r="3.29" fill="#666"/><rect x="167.54" y="147.56" width="1.19" height="5.52" rx="0.6" ry="0.6" transform="translate(107.01 -66.77) rotate(32.48)" fill="#4d4d4d"/><g opacity="0.7"><path d="M166,150.27l-.19-.14a.42.42,0,0,0-.67.34,2.51,2.51,0,0,0,.37,1.24.42.42,0,0,0,.69,0v0a.42.42,0,0,0,0-.47,1.64,1.64,0,0,1-.22-.62A1.67,1.67,0,0,1,166,150.27Z" fill="gray"/><path d="M167.32,147.35a2.5,2.5,0,0,0-1.16.71.42.42,0,0,0,.11.65h0a.43.43,0,0,0,.52-.09,1.63,1.63,0,0,1,1.4-.5.42.42,0,0,0,.42-.21v0a.42.42,0,0,0-.3-.62A2.49,2.49,0,0,0,167.32,147.35Z" fill="gray"/></g><circle cx="170.95" cy="195.45" r="3.69" fill="#4d4d4d"/><circle cx="170.55" cy="195.06" r="3.29" fill="#666"/><rect x="169.95" y="192.3" width="1.19" height="5.52" rx="0.6" ry="0.6" transform="translate(131.41 -61.07) rotate(32.48)" fill="#4d4d4d"/><g opacity="0.7"><path d="M168.38,195l-.19-.14a.42.42,0,0,0-.67.34,2.51,2.51,0,0,0,.37,1.24.42.42,0,0,0,.69,0v0a.42.42,0,0,0,0-.47,1.64,1.64,0,0,1-.22-.62A1.67,1.67,0,0,1,168.38,195Z" fill="gray"/><path d="M169.74,192.09a2.5,2.5,0,0,0-1.16.71.42.42,0,0,0,.11.65h0a.43.43,0,0,0,.52-.09,1.63,1.63,0,0,1,1.4-.5.42.42,0,0,0,.42-.21v0a.42.42,0,0,0-.3-.62A2.49,2.49,0,0,0,169.74,192.09Z" fill="gray"/></g><path d="M60.81,157.11h6a3.22,3.22,0,0,1,2.4.87,3.13,3.13,0,0,1,.86,2.3,3.45,3.45,0,0,1-.19,1.21,2.32,2.32,0,0,1-.5.82,1.91,1.91,0,0,1-.73.47,3,3,0,0,1-.89.17V163a3,3,0,0,1,.93.16,2.64,2.64,0,0,1,.89.5,2.8,2.8,0,0,1,.68.9,3,3,0,0,1,.27,1.35,3.93,3.93,0,0,1-.24,1.37,3.51,3.51,0,0,1-.66,1.13,3.11,3.11,0,0,1-1,.75,3,3,0,0,1-1.28.27H60.81Zm2.69,5.07h2.67A1,1,0,0,0,67.31,161v-.53a1,1,0,0,0-1.13-1.13H63.5Zm0,5h3.1a1.18,1.18,0,0,0,.84-.29,1.08,1.08,0,0,0,.31-.82v-.6a1.08,1.08,0,0,0-.31-.82,1.18,1.18,0,0,0-.84-.29H63.5Z" fill="#604b3b"/><path d="M72.62,169.48V157.11H81v2.39H75.31V162h4.9v2.39h-4.9v2.68H81v2.39Z" fill="#604b3b"/><path d="M83.37,169.48V157.11h5.84a4,4,0,0,1,1.56.29,3.46,3.46,0,0,1,1.18.81,3.52,3.52,0,0,1,.75,1.25,5,5,0,0,1,0,3.22,3.54,3.54,0,0,1-.75,1.24,3.46,3.46,0,0,1-1.18.81,4,4,0,0,1-1.56.29H86.06v4.47Zm2.69-6.8h2.83a1.37,1.37,0,0,0,.95-.31,1.16,1.16,0,0,0,.34-.91v-.78a1.16,1.16,0,0,0-.34-.91,1.37,1.37,0,0,0-.95-.31H86.06Z" fill="#604b3b"/><path d="M102.38,164.41H97.68v5.07H95V157.11h2.69V162h4.71v-4.91h2.69v12.37h-2.69Z" fill="#604b3b"/><path d="M108.55,167.09h2.16l.26-.67-4.32-9.3h2.83l1.73,3.85,1,2.46h.05l.9-2.48,1.52-3.83h2.64L113,167.74a3.8,3.8,0,0,1-.43.81,2.19,2.19,0,0,1-.56.54,2.08,2.08,0,0,1-.73.3,4.64,4.64,0,0,1-1,.09h-1.77Z" fill="#604b3b"/><path d="M124.18,159.5v10h-2.69v-10h-3.35v-2.39h9.38v2.39Z" fill="#604b3b"/><path d="M129.37,157.11h2.69v4.47h3.33a4,4,0,0,1,1.56.29,3.47,3.47,0,0,1,1.18.81,3.54,3.54,0,0,1,.75,1.25,5,5,0,0,1,0,3.22,3.55,3.55,0,0,1-.75,1.24,3.47,3.47,0,0,1-1.18.81,4,4,0,0,1-1.56.29h-6Zm5.7,10a1.36,1.36,0,0,0,.95-.31,1.16,1.16,0,0,0,.35-.91v-.78a1.16,1.16,0,0,0-.35-.91,1.36,1.36,0,0,0-.95-.31h-3v3.23Z" fill="#604b3b"/><path d="M146.08,169.69a6.11,6.11,0,0,1-2.27-.4,4.49,4.49,0,0,1-1.72-1.19,5.47,5.47,0,0,1-1.1-2,8.79,8.79,0,0,1-.39-2.75,9.06,9.06,0,0,1,.39-2.77,5.79,5.79,0,0,1,1.1-2,4.57,4.57,0,0,1,1.72-1.25,5.79,5.79,0,0,1,2.27-.42,5.25,5.25,0,0,1,2.83.7,4.83,4.83,0,0,1,1.79,2.21L148.38,161a2.75,2.75,0,0,0-.77-1.25,2.22,2.22,0,0,0-1.53-.47,2.48,2.48,0,0,0-1.9.77,3.18,3.18,0,0,0-.72,2.24v2a3.18,3.18,0,0,0,.72,2.24,2.48,2.48,0,0,0,1.9.77,2.26,2.26,0,0,0,1.58-.54,3.28,3.28,0,0,0,.88-1.3l2.2,1.28a5.49,5.49,0,0,1-1.81,2.19A4.91,4.91,0,0,1,146.08,169.69Z" fill="#604b3b"/><path d="M152,167.09h1.1l1-1.58a2,2,0,0,1,.47-.53,1.74,1.74,0,0,1,.73-.28v-.11a3.27,3.27,0,0,1-2.19-1.06,3.56,3.56,0,0,1-.82-2.46,4.65,4.65,0,0,1,.27-1.61,3.64,3.64,0,0,1,.75-1.25,3.31,3.31,0,0,1,1.18-.81,4,4,0,0,1,1.54-.28h5.86v12.37H159.2v-4.54h-1.63l-2.07,3.24a3.78,3.78,0,0,1-.49.66,2.05,2.05,0,0,1-.5.39,1.92,1.92,0,0,1-.56.2,3.65,3.65,0,0,1-.65.05H152Zm7.21-4.41v-3.23h-2.83a1.37,1.37,0,0,0-.95.31,1.16,1.16,0,0,0-.35.91v.76a1.19,1.19,0,0,0,.35.93,1.37,1.37,0,0,0,.95.31Z" fill="#604b3b"/><path d="M64.12,182.13H59.41v5.07H56.72V174.83h2.69v4.91h4.71v-4.91h2.69V187.2H64.12Z" fill="#604b3b"/><path d="M77.15,187.2l-.88-2.94H72.14l-.88,2.94H68.53l4.07-12.37h3.33l4,12.37Zm-2.92-9.92h-.09L72.78,182h2.83Z" fill="#604b3b"/><path d="M85.85,174.83h7.26v2.39H88.54v10H85.85Z" fill="#604b3b"/><path d="M92.88,184.81h1.47a2.86,2.86,0,0,0,.5-.75,5.44,5.44,0,0,0,.36-1.16,13.76,13.76,0,0,0,.23-1.71q.08-1,.08-2.42v-3.93h8.73V187.2h-2.69v-10H98.13v1.91A28.08,28.08,0,0,1,98,182a15,15,0,0,1-.34,2,6.2,6.2,0,0,1-.5,1.4,3.72,3.72,0,0,1-.63.89,3.25,3.25,0,0,1-1.18.78,4.6,4.6,0,0,1-1.57.23h-.92Z" fill="#604b3b"/><path d="M114.58,187.2l-.88-2.94h-4.13l-.88,2.94H106L110,174.83h3.33l4,12.37Zm-2.92-9.92h-.09l-1.36,4.7H113Z" fill="#604b3b"/><path d="M119.1,174.83h6a3.22,3.22,0,0,1,2.4.87,3.13,3.13,0,0,1,.86,2.3,3.45,3.45,0,0,1-.19,1.21,2.32,2.32,0,0,1-.5.82,1.91,1.91,0,0,1-.73.47,3,3,0,0,1-.89.17v.11a3,3,0,0,1,.93.16,2.64,2.64,0,0,1,.89.5,2.8,2.8,0,0,1,.68.9,3,3,0,0,1,.27,1.35,3.93,3.93,0,0,1-.24,1.37,3.51,3.51,0,0,1-.66,1.13,3.11,3.11,0,0,1-1,.75,3,3,0,0,1-1.28.27H119.1Zm2.69,5.07h2.67a1,1,0,0,0,1.13-1.13v-.53a1,1,0,0,0-1.13-1.13h-2.67Zm0,5h3.1a1.18,1.18,0,0,0,.84-.29,1.08,1.08,0,0,0,.31-.82v-.6a1.08,1.08,0,0,0-.31-.82,1.18,1.18,0,0,0-.84-.29h-3.1Z" fill="#604b3b"/><path d="M138.31,182.13H133.6v5.07h-2.69V174.83h2.69v4.91h4.71v-4.91H141V187.2h-2.69Z" fill="#604b3b"/><path d="M144.47,184.81h2.16l.26-.67-4.32-9.3h2.83l1.73,3.85,1,2.46h.05l.9-2.48,1.52-3.83h2.64l-4.36,10.63a3.8,3.8,0,0,1-.43.81,2.19,2.19,0,0,1-.56.54,2.08,2.08,0,0,1-.73.3,4.64,4.64,0,0,1-1,.09h-1.77Z" fill="#604b3b"/><path d="M165.2,187.41a5.15,5.15,0,0,1-3.68-1.34,6.21,6.21,0,0,1-1.72-3.94h-2.21v5.07H154.9V174.83h2.69v4.91h2.25a6.75,6.75,0,0,1,.58-2.22,5.1,5.1,0,0,1,1.15-1.61,4.67,4.67,0,0,1,1.62-1,6,6,0,0,1,2-.33,5.91,5.91,0,0,1,2.23.41,4.5,4.5,0,0,1,1.72,1.21,5.63,5.63,0,0,1,1.1,2,10.09,10.09,0,0,1,0,5.55,5.63,5.63,0,0,1-1.1,2,4.48,4.48,0,0,1-1.72,1.21A5.89,5.89,0,0,1,165.2,187.41Zm0-2.39a2.37,2.37,0,0,0,1.9-.8,3.42,3.42,0,0,0,.68-2.29V180.1a3.42,3.42,0,0,0-.68-2.29,2.67,2.67,0,0,0-3.81,0,3.42,3.42,0,0,0-.68,2.29v1.84a3.42,3.42,0,0,0,.68,2.29A2.37,2.37,0,0,0,165.2,185Z" fill="#604b3b"/><polygon points="156.84 209.51 179.31 209.51 179.31 203.47 172.68 203.41 156.84 203.41 156.84 209.51" fill="#452f27"/><polygon points="269.56 211.94 292.09 242.51 269.56 273.09 133.27 273.09 133.27 211.94 269.56 211.94" fill="#beac83"/><g opacity="0.1"><polygon points="198.91 211.94 133.27 211.94 133.27 273.09 169.24 273.09 198.91 211.94" fill="#fff"/><polygon points="269.56 211.94 262.95 211.94 233.28 273.09 269.56 273.09 292.09 242.51 269.56 211.94" fill="#fff"/></g><path d="M172.57,241.35a6.8,6.8,0,0,1-2.5-.44,5.66,5.66,0,0,1-2-1.38l1.77-1.79a4.23,4.23,0,0,0,1.25.9,3.52,3.52,0,0,0,1.51.32,2.88,2.88,0,0,0,1.61-.37,1.18,1.18,0,0,0,.55-1v-.14a1.17,1.17,0,0,0-.42-1,2.28,2.28,0,0,0-1.33-.31h-2.14V233.7h2q1.65,0,1.65-1.36v-.09q0-1.29-1.86-1.29a3.78,3.78,0,0,0-1.45.29,3.24,3.24,0,0,0-1.19.82l-1.63-1.7a5.47,5.47,0,0,1,1.89-1.33,5.93,5.93,0,0,1,2.38-.48,7.41,7.41,0,0,1,2,.24,4.45,4.45,0,0,1,1.48.69,3,3,0,0,1,1.27,2.53,2.77,2.77,0,0,1-.2,1.11,2.29,2.29,0,0,1-.55.79,2.48,2.48,0,0,1-.81.5,3.91,3.91,0,0,1-1,.23v.11a3.88,3.88,0,0,1,1,.21,2.56,2.56,0,0,1,1.51,1.34,2.67,2.67,0,0,1,.24,1.17,3.48,3.48,0,0,1-.35,1.58,3.62,3.62,0,0,1-1,1.22,4.73,4.73,0,0,1-1.58.8A7.14,7.14,0,0,1,172.57,241.35Z" fill="#452f27"/><path d="M187,241.14l-.88-2.94H182l-.88,2.94h-2.73l4.07-12.37h3.33l4,12.37Zm-2.92-9.92H184l-1.36,4.7h2.83Z" fill="#452f27"/><path d="M191.51,228.77h2.69v4.91H196l1.84-3.44a3.24,3.24,0,0,1,.91-1.1,2.17,2.17,0,0,1,1.3-.36h1.1v2.39H200l-1.27,2.4a2.35,2.35,0,0,1-.56.73,2.26,2.26,0,0,1-.74.4v.11a1.81,1.81,0,0,1,.79.35,2.14,2.14,0,0,1,.58.77l1.45,2.82h1.1v2.39H200a2.2,2.2,0,0,1-1.23-.32,3,3,0,0,1-.93-1.19L196,236.07H194.2v5.07h-2.69Z" fill="#452f27"/><path d="M211.08,241.14l-.88-2.94h-4.13l-.88,2.94h-2.73l4.07-12.37h3.33l4,12.37Zm-2.92-9.92h-.09l-1.36,4.7h2.83Z" fill="#452f27"/><path d="M219.27,241.35a6.8,6.8,0,0,1-2.5-.44,5.66,5.66,0,0,1-2-1.38l1.77-1.79a4.23,4.23,0,0,0,1.25.9,3.52,3.52,0,0,0,1.51.32,2.88,2.88,0,0,0,1.61-.37,1.18,1.18,0,0,0,.55-1v-.14a1.17,1.17,0,0,0-.42-1,2.28,2.28,0,0,0-1.33-.31h-2.14V233.7h2q1.65,0,1.65-1.36v-.09q0-1.29-1.86-1.29a3.78,3.78,0,0,0-1.45.29,3.24,3.24,0,0,0-1.19.82l-1.63-1.7A5.47,5.47,0,0,1,217,229a5.93,5.93,0,0,1,2.38-.48,7.41,7.41,0,0,1,2,.24,4.45,4.45,0,0,1,1.48.69,3,3,0,0,1,1.27,2.53,2.77,2.77,0,0,1-.2,1.11,2.29,2.29,0,0,1-.55.79,2.48,2.48,0,0,1-.81.5,3.91,3.91,0,0,1-1,.23v.11a3.88,3.88,0,0,1,1,.21,2.56,2.56,0,0,1,1.51,1.34,2.67,2.67,0,0,1,.24,1.17,3.48,3.48,0,0,1-.35,1.58,3.62,3.62,0,0,1-1,1.22,4.73,4.73,0,0,1-1.58.8A7.14,7.14,0,0,1,219.27,241.35Z" fill="#452f27"/><path d="M233.7,241.14l-.88-2.94h-4.13l-.88,2.94h-2.73l4.07-12.37h3.33l4,12.37Zm-2.92-9.92h-.09l-1.36,4.7h2.83Z" fill="#452f27"/><path d="M242.22,231.16v10h-2.69v-10h-3.35v-2.39h9.38v2.39Z" fill="#452f27"/><path d="M247.41,228.77h2.69v4.47h3.33a4,4,0,0,1,1.56.29,3.47,3.47,0,0,1,1.18.81,3.54,3.54,0,0,1,.75,1.25,5,5,0,0,1,0,3.22,3.55,3.55,0,0,1-.75,1.24,3.47,3.47,0,0,1-1.18.81,4,4,0,0,1-1.56.29h-6Zm5.7,10a1.36,1.36,0,0,0,.95-.31,1.16,1.16,0,0,0,.35-.91v-.78a1.16,1.16,0,0,0-.35-.91,1.36,1.36,0,0,0-.95-.31h-3v3.23Z" fill="#452f27"/><path d="M184.57,256.47H186a2.86,2.86,0,0,0,.5-.75,5.44,5.44,0,0,0,.36-1.16,13.76,13.76,0,0,0,.23-1.71q.08-1,.08-2.42v-3.93h8.73v12.37h-2.69v-10h-3.42v1.91a28.08,28.08,0,0,1-.12,2.83,15,15,0,0,1-.34,2,6.2,6.2,0,0,1-.5,1.4,3.72,3.72,0,0,1-.63.89,3.25,3.25,0,0,1-1.18.78,4.6,4.6,0,0,1-1.57.23h-.92Z" fill="#452f27"/><path d="M198.67,246.49h2.62v6l-.28,2.6h.05l1.22-2.36,4.07-6.29h2.41v12.37h-2.62v-6l.28-2.61h-.05l-1.22,2.36-4.07,6.29h-2.41Z" fill="#452f27"/><path d="M210.42,256.47h1.35a3.13,3.13,0,0,0,.57-.75,5.18,5.18,0,0,0,.46-1.18,10.91,10.91,0,0,0,.3-1.72,23.13,23.13,0,0,0,.11-2.39v-3.93h8.87v10h2v5.05h-2.53v-2.66H213v2.66h-2.53Zm9,0v-7.58h-3.56v1.93q0,1.22-.07,2.11a15.14,15.14,0,0,1-.2,1.56,5.73,5.73,0,0,1-.32,1.13,4.43,4.43,0,0,1-.42.8v.05Z" fill="#452f27"/><path d="M225.91,246.49h2.69V251h3.15a4,4,0,0,1,1.56.29,3.46,3.46,0,0,1,1.18.81,3.52,3.52,0,0,1,.75,1.25,5,5,0,0,1,0,3.22,3.54,3.54,0,0,1-.75,1.24,3.46,3.46,0,0,1-1.18.81,4,4,0,0,1-1.56.29h-5.84Zm5.52,10a1.37,1.37,0,0,0,.95-.31,1.16,1.16,0,0,0,.34-.91v-.78a1.16,1.16,0,0,0-.34-.91,1.37,1.37,0,0,0-.95-.31h-2.83v3.23Zm5.58-10h2.69v12.37H237Z" fill="#452f27"/><circle cx="167.18" cy="218.58" r="3.6" fill="#4d4d4d"/><circle cx="166.79" cy="218.2" r="3.21" fill="#666"/><rect x="166.21" y="215.5" width="1.16" height="5.39" rx="0.41" ry="0.41" transform="translate(143.24 -55.44) rotate(32.48)" fill="#4d4d4d"/><g opacity="0.7"><path d="M164.68,218.15l-.19-.14a.41.41,0,0,0-.66.33,2.45,2.45,0,0,0,.36,1.21.41.41,0,0,0,.68,0v0a.41.41,0,0,0,0-.46,1.6,1.6,0,0,1-.22-.61A1.63,1.63,0,0,1,164.68,218.15Z" fill="gray"/><path d="M166,215.3a2.44,2.44,0,0,0-1.13.69.41.41,0,0,0,.1.64h0a.42.42,0,0,0,.51-.09,1.59,1.59,0,0,1,1.37-.49.41.41,0,0,0,.41-.2v0a.41.41,0,0,0-.3-.61A2.43,2.43,0,0,0,166,215.3Z" fill="gray"/></g><circle cx="167.18" cy="265.98" r="3.6" fill="#4d4d4d"/><circle cx="166.79" cy="265.59" r="3.21" fill="#666"/><rect x="166.21" y="262.89" width="1.16" height="5.39" rx="0.41" ry="0.41" transform="translate(168.69 -48.02) rotate(32.48)" fill="#4d4d4d"/><g opacity="0.7"><path d="M164.68,265.54l-.19-.14a.41.41,0,0,0-.66.33,2.45,2.45,0,0,0,.36,1.21.41.41,0,0,0,.68,0v0a.41.41,0,0,0,0-.46,1.6,1.6,0,0,1-.22-.61A1.63,1.63,0,0,1,164.68,265.54Z" fill="gray"/><path d="M166,262.69a2.44,2.44,0,0,0-1.13.69.41.41,0,0,0,.1.64h0a.42.42,0,0,0,.51-.09,1.59,1.59,0,0,1,1.37-.49.41.41,0,0,0,.41-.2v0a.41.41,0,0,0-.3-.61A2.43,2.43,0,0,0,166,262.69Z" fill="gray"/></g><path d="M172.08,240.86a6.8,6.8,0,0,1-2.5-.44,5.66,5.66,0,0,1-2-1.38l1.77-1.79a4.23,4.23,0,0,0,1.25.9,3.52,3.52,0,0,0,1.51.32,2.88,2.88,0,0,0,1.61-.37,1.18,1.18,0,0,0,.55-1v-.14a1.17,1.17,0,0,0-.42-1,2.28,2.28,0,0,0-1.33-.31h-2.14V233.2h2q1.65,0,1.65-1.36v-.09q0-1.29-1.86-1.29a3.78,3.78,0,0,0-1.45.29,3.24,3.24,0,0,0-1.19.82l-1.63-1.7a5.47,5.47,0,0,1,1.89-1.33,5.93,5.93,0,0,1,2.38-.48,7.41,7.41,0,0,1,2,.24,4.45,4.45,0,0,1,1.48.69,3,3,0,0,1,1.27,2.53,2.77,2.77,0,0,1-.2,1.11,2.29,2.29,0,0,1-.55.79,2.48,2.48,0,0,1-.81.5,3.91,3.91,0,0,1-1,.23v.11a3.88,3.88,0,0,1,1,.21,2.56,2.56,0,0,1,1.51,1.34,2.67,2.67,0,0,1,.24,1.17,3.48,3.48,0,0,1-.35,1.58,3.62,3.62,0,0,1-1,1.22,4.73,4.73,0,0,1-1.58.8A7.14,7.14,0,0,1,172.08,240.86Z" fill="#604b3b"/><path d="M186.51,240.65l-.88-2.94h-4.13l-.88,2.94h-2.73L182,228.28h3.33l4,12.37Zm-2.92-9.92h-.09l-1.36,4.7H185Z" fill="#604b3b"/><path d="M191,228.28h2.69v4.91h1.79l1.84-3.44a3.24,3.24,0,0,1,.91-1.1,2.17,2.17,0,0,1,1.3-.36h1.1v2.39h-1.1l-1.27,2.4a2.35,2.35,0,0,1-.56.73,2.26,2.26,0,0,1-.74.4v.11a1.81,1.81,0,0,1,.79.35,2.14,2.14,0,0,1,.58.77l1.45,2.82h1.1v2.39h-1.4a2.2,2.2,0,0,1-1.23-.32,3,3,0,0,1-.93-1.19l-1.84-3.56h-1.79v5.07H191Z" fill="#604b3b"/><path d="M210.59,240.65l-.88-2.94h-4.13l-.88,2.94H202L206,228.28h3.33l4,12.37Zm-2.92-9.92h-.09l-1.36,4.7H209Z" fill="#604b3b"/><path d="M218.78,240.86a6.8,6.8,0,0,1-2.5-.44,5.66,5.66,0,0,1-2-1.38l1.77-1.79a4.23,4.23,0,0,0,1.25.9,3.52,3.52,0,0,0,1.51.32,2.88,2.88,0,0,0,1.61-.37,1.18,1.18,0,0,0,.55-1v-.14a1.17,1.17,0,0,0-.42-1,2.28,2.28,0,0,0-1.33-.31H217V233.2h2q1.65,0,1.65-1.36v-.09q0-1.29-1.86-1.29a3.78,3.78,0,0,0-1.45.29,3.24,3.24,0,0,0-1.19.82l-1.63-1.7a5.47,5.47,0,0,1,1.89-1.33,5.93,5.93,0,0,1,2.38-.48,7.41,7.41,0,0,1,2,.24,4.45,4.45,0,0,1,1.48.69,3,3,0,0,1,1.27,2.53,2.77,2.77,0,0,1-.2,1.11,2.29,2.29,0,0,1-.55.79,2.48,2.48,0,0,1-.81.5,3.91,3.91,0,0,1-1,.23v.11a3.88,3.88,0,0,1,1,.21,2.56,2.56,0,0,1,1.51,1.34,2.67,2.67,0,0,1,.24,1.17,3.48,3.48,0,0,1-.35,1.58,3.62,3.62,0,0,1-1,1.22,4.73,4.73,0,0,1-1.58.8A7.14,7.14,0,0,1,218.78,240.86Z" fill="#604b3b"/><path d="M233.21,240.65l-.88-2.94H228.2l-.88,2.94h-2.73l4.07-12.37H232l4,12.37Zm-2.92-9.92h-.09l-1.36,4.7h2.83Z" fill="#604b3b"/><path d="M241.73,230.67v10H239v-10h-3.35v-2.39h9.38v2.39Z" fill="#604b3b"/><path d="M246.92,228.28h2.69v4.47h3.33a4,4,0,0,1,1.56.29,3.47,3.47,0,0,1,1.18.81,3.54,3.54,0,0,1,.75,1.25,5,5,0,0,1,0,3.22,3.55,3.55,0,0,1-.75,1.24,3.47,3.47,0,0,1-1.18.81,4,4,0,0,1-1.56.29h-6Zm5.7,10a1.36,1.36,0,0,0,.95-.31,1.16,1.16,0,0,0,.35-.91v-.78a1.16,1.16,0,0,0-.35-.91,1.36,1.36,0,0,0-.95-.31h-3v3.23Z" fill="#604b3b"/><path d="M184.08,256h1.47a2.86,2.86,0,0,0,.5-.75,5.44,5.44,0,0,0,.36-1.16,13.76,13.76,0,0,0,.23-1.71q.08-1,.08-2.42V246h8.73v12.37h-2.69v-10h-3.42v1.91a28.08,28.08,0,0,1-.12,2.83,15,15,0,0,1-.34,2,6.2,6.2,0,0,1-.5,1.4,3.72,3.72,0,0,1-.63.89,3.25,3.25,0,0,1-1.18.78,4.6,4.6,0,0,1-1.57.23h-.92Z" fill="#604b3b"/><path d="M198.17,246h2.62v6l-.28,2.6h.05l1.22-2.36,4.07-6.29h2.41v12.37h-2.62v-6l.28-2.61h-.05l-1.22,2.36-4.07,6.29h-2.41Z" fill="#604b3b"/><path d="M209.93,256h1.35a3.13,3.13,0,0,0,.57-.75,5.18,5.18,0,0,0,.46-1.18,10.91,10.91,0,0,0,.3-1.72,23.13,23.13,0,0,0,.11-2.39V246h8.87v10h2V261H221v-2.66h-8.59V261h-2.53Zm9,0v-7.58h-3.56v1.93q0,1.22-.07,2.11a15.14,15.14,0,0,1-.2,1.56,5.73,5.73,0,0,1-.32,1.13,4.43,4.43,0,0,1-.42.8V256Z" fill="#604b3b"/><path d="M225.42,246h2.69v4.47h3.15a4,4,0,0,1,1.56.29,3.46,3.46,0,0,1,1.18.81,3.52,3.52,0,0,1,.75,1.25,5,5,0,0,1,0,3.22,3.54,3.54,0,0,1-.75,1.24,3.46,3.46,0,0,1-1.18.81,4,4,0,0,1-1.56.29h-5.84Zm5.52,10a1.37,1.37,0,0,0,.95-.31,1.16,1.16,0,0,0,.34-.91V254a1.16,1.16,0,0,0-.34-.91,1.37,1.37,0,0,0-.95-.31h-2.83V256Zm5.58-10h2.69v12.37h-2.69Z" fill="#604b3b"/><polygon points="269.56 211.94 273.82 209.51 294.93 238.82 292.09 242.51 269.56 211.94" fill="#604b3b"/><polygon points="273.82 209.51 137.53 209.51 133.27 211.94 269.56 211.94 273.82 209.51" fill="#916f5d"/><rect x="156.84" y="273.66" width="22.46" height="9.83" fill="#452f27"/><path d="M45.07,109.06a5.14,5.14,0,0,1-1.94-.35,3.91,3.91,0,0,1-1.5-1.06,4.89,4.89,0,0,1-1-1.74,8.75,8.75,0,0,1,0-4.83,4.9,4.9,0,0,1,1-1.74,3.92,3.92,0,0,1,1.5-1.06,5.49,5.49,0,0,1,3.88,0,3.92,3.92,0,0,1,1.49,1.06,4.92,4.92,0,0,1,1,1.74,8.77,8.77,0,0,1,0,4.83,4.91,4.91,0,0,1-1,1.74A3.91,3.91,0,0,1,47,108.71,5.14,5.14,0,0,1,45.07,109.06Zm0-2.08a2.06,2.06,0,0,0,1.66-.69,3,3,0,0,0,.59-2v-1.6a3,3,0,0,0-.59-2,2.33,2.33,0,0,0-3.31,0,3,3,0,0,0-.59,2v1.6a3,3,0,0,0,.59,2A2.06,2.06,0,0,0,45.07,107Z" fill="#fff"/><path d="M51.76,98.11H54v5.26l-.25,2.27h0l1.06-2.05,3.55-5.48h2.1v10.77H58.26v-5.26l.25-2.27h0L57.4,103.4l-3.55,5.48h-2.1Zm4.42-.65A2.79,2.79,0,0,1,54.53,97a2.91,2.91,0,0,1-1-1.28l-.32-.79L55,94.28l.49,1.56a1.07,1.07,0,0,0,.29.08,2.67,2.67,0,0,0,.8,0,1.09,1.09,0,0,0,.29-.08l.49-1.56,1.77.66-.32.79a2.92,2.92,0,0,1-1,1.28A2.79,2.79,0,0,1,56.18,97.46Z" fill="#fff"/><path d="M64.15,106.27a1.36,1.36,0,0,1,1,.35,1.24,1.24,0,0,1,.33.89v.31a4.11,4.11,0,0,1-.45,1.85,4.22,4.22,0,0,1-1.2,1.48H62.31a8.8,8.8,0,0,0,.92-1,3.71,3.71,0,0,0,.59-1.12,1.18,1.18,0,0,1-.79-.42,1.27,1.27,0,0,1-.25-.78v-.31a1.23,1.23,0,0,1,.33-.89A1.36,1.36,0,0,1,64.15,106.27Z" fill="#fff"/><path d="M71.33,98.11h2.34v4.27h1.56l1.6-3a2.83,2.83,0,0,1,.79-1,1.9,1.9,0,0,1,1.13-.32h1v2.08h-1l-1.11,2.09a2,2,0,0,1-.49.64,2,2,0,0,1-.64.35v.09a1.58,1.58,0,0,1,.69.3,1.88,1.88,0,0,1,.5.67L79,106.79h1v2.08H78.71a1.92,1.92,0,0,1-1.07-.28,2.64,2.64,0,0,1-.81-1l-1.6-3.1H73.67v4.41H71.33Z" fill="#fff"/><path d="M88.36,108.88l-.77-2.56H84l-.77,2.56H80.86L84.4,98.11h2.9l3.5,10.77Zm-2.54-8.64h-.08l-1.19,4.09H87Z" fill="#fff"/><path d="M91.72,106.79h1l1.19-2.51a1.45,1.45,0,0,1,1.16-.91v-.09a1.69,1.69,0,0,1-.63-.33,2.17,2.17,0,0,1-.49-.69l-1-2.07h-1V98.11h1a2,2,0,0,1,1.15.31,2.41,2.41,0,0,1,.78,1l1.45,3h1.4V98.11H100v4.29h1.4l1.45-3a2.4,2.4,0,0,1,.78-1,2,2,0,0,1,1.15-.31h1v2.08h-1l-1,2.07a2.17,2.17,0,0,1-.49.69,1.68,1.68,0,0,1-.63.33v.09a1.45,1.45,0,0,1,1.16.91l1.19,2.51h1v2.08h-1.23a2,2,0,0,1-1.09-.29,2.44,2.44,0,0,1-.79-1.06l-1.45-3.07H100v4.41H97.69v-4.41h-1.4l-1.45,3.07a2.44,2.44,0,0,1-.79,1.06,2,2,0,0,1-1.09.29H91.72Z" fill="#fff"/><path d="M107.8,108.88V98.11h7.32v2.08h-5v2.19h4.27v2.08h-4.27v2.33h5v2.08Z" fill="#fff"/><path d="M121.64,100.19v8.69h-2.34v-8.69h-2.91V98.11h8.17v2.08Z" fill="#fff"/><path d="M130.11,109.06a5.32,5.32,0,0,1-2-.35,3.92,3.92,0,0,1-1.5-1,4.76,4.76,0,0,1-1-1.71,7.64,7.64,0,0,1-.34-2.4,7.89,7.89,0,0,1,.34-2.41,5,5,0,0,1,1-1.77,4,4,0,0,1,1.5-1.09,5,5,0,0,1,2-.37,4.57,4.57,0,0,1,2.47.61,4.2,4.2,0,0,1,1.56,1.92l-2,1a2.41,2.41,0,0,0-.67-1.09,1.94,1.94,0,0,0-1.33-.41,2.15,2.15,0,0,0-1.66.67,2.76,2.76,0,0,0-.62,2v1.73a2.77,2.77,0,0,0,.62,2,2.16,2.16,0,0,0,1.66.67,2,2,0,0,0,1.38-.47,2.85,2.85,0,0,0,.76-1.13l1.91,1.11a4.79,4.79,0,0,1-1.58,1.91A4.28,4.28,0,0,1,130.11,109.06Z" fill="#fff"/><path d="M135.26,106.79h1l.88-1.37a1.72,1.72,0,0,1,.41-.46,1.52,1.52,0,0,1,.64-.25v-.09a2.85,2.85,0,0,1-1.9-.93,3.1,3.1,0,0,1-.72-2.14,4.06,4.06,0,0,1,.23-1.4,3.19,3.19,0,0,1,.66-1.09,2.86,2.86,0,0,1,1-.7,3.5,3.5,0,0,1,1.34-.25h5.1v10.77h-2.34v-3.95h-1.42l-1.8,2.82a3.35,3.35,0,0,1-.42.57,1.79,1.79,0,0,1-.44.34,1.67,1.67,0,0,1-.49.17,3.19,3.19,0,0,1-.56,0h-1.14Zm6.27-3.84v-2.81h-2.47a1.19,1.19,0,0,0-.82.27,1,1,0,0,0-.3.79v.66a1,1,0,0,0,.3.81,1.19,1.19,0,0,0,.82.27Z" fill="#fff"/><path d="M149.89,98.11h5.22a2.8,2.8,0,0,1,2.09.76,2.73,2.73,0,0,1,.75,2,3,3,0,0,1-.16,1,2,2,0,0,1-.43.71,1.66,1.66,0,0,1-.63.41,2.55,2.55,0,0,1-.78.15v.09a2.59,2.59,0,0,1,.81.14,2.27,2.27,0,0,1,.78.44,2.42,2.42,0,0,1,.59.78,2.61,2.61,0,0,1,.24,1.17,3.42,3.42,0,0,1-.21,1.2,3.06,3.06,0,0,1-.58,1,2.69,2.69,0,0,1-.88.66,2.56,2.56,0,0,1-1.11.24h-5.7Zm2.34,4.41h2.33a.91.91,0,0,0,1-1v-.46a.91.91,0,0,0-1-1h-2.33Zm0,4.38h2.7a1,1,0,0,0,.73-.25.94.94,0,0,0,.27-.72v-.52a.94.94,0,0,0-.27-.72,1,1,0,0,0-.73-.25h-2.7Z" fill="#fff"/><path d="M160.17,98.11h2.34V102h2.74a3.44,3.44,0,0,1,1.36.26,3,3,0,0,1,1,.7,3.08,3.08,0,0,1,.66,1.09,4.35,4.35,0,0,1,0,2.8,3.09,3.09,0,0,1-.66,1.08,3,3,0,0,1-1,.7,3.46,3.46,0,0,1-1.36.25h-5.09Zm4.81,8.73a1.19,1.19,0,0,0,.82-.27,1,1,0,0,0,.3-.79v-.68a1,1,0,0,0-.3-.79A1.19,1.19,0,0,0,165,104h-2.47v2.81Zm4.85-8.73h2.34v10.77h-2.34Z" fill="#fff"/><path d="M178.18,98.11h8.55v10.77H184.4v-8.69h-3.87v8.69h-2.34Z" fill="#fff"/><path d="M193.43,109.06a5.14,5.14,0,0,1-1.94-.35,3.91,3.91,0,0,1-1.5-1.06,4.89,4.89,0,0,1-1-1.74,8.75,8.75,0,0,1,0-4.83,4.9,4.9,0,0,1,1-1.74,3.92,3.92,0,0,1,1.5-1.06,5.49,5.49,0,0,1,3.88,0,3.92,3.92,0,0,1,1.49,1.06,4.92,4.92,0,0,1,1,1.74,8.77,8.77,0,0,1,0,4.83,4.91,4.91,0,0,1-1,1.74,3.91,3.91,0,0,1-1.49,1.06A5.14,5.14,0,0,1,193.43,109.06Zm0-2.08a2.06,2.06,0,0,0,1.66-.69,3,3,0,0,0,.59-2v-1.6a3,3,0,0,0-.59-2,2.33,2.33,0,0,0-3.31,0,3,3,0,0,0-.59,2v1.6a3,3,0,0,0,.59,2A2.06,2.06,0,0,0,193.43,107Z" fill="#fff"/><path d="M204.22,100.19v8.69h-2.34v-8.69H199V98.11h8.17v2.08Z" fill="#fff"/><path d="M208.73,108.88V98.11h7.32v2.08h-5v2.19h4.27v2.08h-4.27v2.33h5v2.08Z" fill="#fff"/><path d="M218.09,108.88V98.11h5.09a3.44,3.44,0,0,1,1.36.26,3,3,0,0,1,1,.7,3.08,3.08,0,0,1,.66,1.09,4.35,4.35,0,0,1,0,2.8,3.09,3.09,0,0,1-.66,1.08,3,3,0,0,1-1,.7,3.44,3.44,0,0,1-1.36.26h-2.74v3.89Zm2.34-5.92h2.47a1.19,1.19,0,0,0,.82-.27,1,1,0,0,0,.3-.79v-.68a1,1,0,0,0-.3-.79,1.19,1.19,0,0,0-.82-.27h-2.47Z" fill="#fff"/><path d="M227.66,106.79h1l.88-1.37a1.72,1.72,0,0,1,.41-.46,1.52,1.52,0,0,1,.64-.25v-.09a2.85,2.85,0,0,1-1.9-.93,3.1,3.1,0,0,1-.72-2.14,4.06,4.06,0,0,1,.23-1.4,3.19,3.19,0,0,1,.66-1.09,2.86,2.86,0,0,1,1-.7,3.5,3.5,0,0,1,1.34-.25h5.1v10.77h-2.34v-3.95h-1.42l-1.8,2.82a3.35,3.35,0,0,1-.42.57,1.79,1.79,0,0,1-.44.34,1.67,1.67,0,0,1-.49.17,3.19,3.19,0,0,1-.56,0h-1.14Zm6.27-3.84v-2.81h-2.47a1.19,1.19,0,0,0-.82.27,1,1,0,0,0-.3.79v.66a1,1,0,0,0,.3.81,1.19,1.19,0,0,0,.82.27Z" fill="#fff"/><path d="M237.77,106.79H239a2.51,2.51,0,0,0,.43-.66,4.75,4.75,0,0,0,.32-1,12,12,0,0,0,.2-1.49q.07-.87.07-2.11V98.11h7.6v10.77h-2.34v-8.69h-3v1.67a24.46,24.46,0,0,1-.11,2.46,13.06,13.06,0,0,1-.29,1.78,5.43,5.43,0,0,1-.44,1.22,3.24,3.24,0,0,1-.55.77,2.82,2.82,0,0,1-1,.68,4,4,0,0,1-1.36.2h-.8Z" fill="#fff"/><path d="M250,98.11h2.28v5.26l-.25,2.27h0l1.06-2.05,3.55-5.48h2.1v10.77h-2.28v-5.26l.25-2.27h0l-1.06,2.05-3.55,5.48H250Z" fill="#fff"/><path d="M265.54,109.06a5.32,5.32,0,0,1-2-.35,3.92,3.92,0,0,1-1.5-1,4.76,4.76,0,0,1-1-1.71,7.64,7.64,0,0,1-.34-2.4,7.89,7.89,0,0,1,.34-2.41,5,5,0,0,1,1-1.77,4,4,0,0,1,1.5-1.09,5,5,0,0,1,2-.37,4.57,4.57,0,0,1,2.47.61,4.2,4.2,0,0,1,1.56,1.92l-2,1a2.41,2.41,0,0,0-.67-1.09,1.94,1.94,0,0,0-1.33-.41,2.15,2.15,0,0,0-1.66.67,2.76,2.76,0,0,0-.62,2v1.73a2.77,2.77,0,0,0,.62,2,2.16,2.16,0,0,0,1.66.67,2,2,0,0,0,1.38-.47,2.85,2.85,0,0,0,.76-1.13l1.91,1.11a4.79,4.79,0,0,1-1.58,1.91A4.28,4.28,0,0,1,265.54,109.06Z" fill="#fff"/><path d="M271.23,98.11h2.34V102h2.9a3.44,3.44,0,0,1,1.36.26,3,3,0,0,1,1,.7,3.08,3.08,0,0,1,.66,1.09,4.37,4.37,0,0,1,0,2.8,3.09,3.09,0,0,1-.66,1.08,3,3,0,0,1-1,.7,3.46,3.46,0,0,1-1.36.25h-5.24Zm5,8.73a1.19,1.19,0,0,0,.82-.27,1,1,0,0,0,.3-.79v-.68a1,1,0,0,0-.3-.79,1.19,1.19,0,0,0-.82-.27h-2.62v2.81Z" fill="#fff"/><path d="M43,273a1.09,1.09,0,1,0-.33-1.1l-8.7.62,4.61-5.32a1.08,1.08,0,1,0-.54-.47L33.46,272l-.62-8.7a1.09,1.09,0,1,0-.72.05l.66,9.21h0l0,.21-7.66,8.84-2.26-31.79L31,240.47l.21,0h0l9.21-.66a1.07,1.07,0,0,0,1.8.28,1.08,1.08,0,1,0-1.63-1.42,1.07,1.07,0,0,0-.22.42l-8.7.62,4.61-5.32a1.08,1.08,0,1,0-.54-.47l-4.61,5.32-.62-8.7a1.07,1.07,0,0,0,.38-.28,1.09,1.09,0,1,0-1.1.33l.66,9.21h0l0,.21-7.66,8.84-.4-5.69-.48-6.76-.42-5.92.14-.16h0l6-7a1.07,1.07,0,0,0,.47.07,1.09,1.09,0,1,0-1-.55l-5.71,6.59-.5-7a1.08,1.08,0,1,0-.72.05l.5,7-6.59-5.72a1.09,1.09,0,1,0-.47.55l7,6.05h0l.16.14.42,5.92.48,6.76.7,9.88-9.06-7.86,0-.21h0l-.66-9.21a1.07,1.07,0,0,0,.38-.28,1.09,1.09,0,1,0-1.1.33l.62,8.7-5.31-4.61a1.08,1.08,0,1,0-.47.55l5.31,4.61-8.7.62a1.07,1.07,0,0,0-1.8-.28,1.08,1.08,0,1,0,1.85,1l9.21-.66h0l.21,0,9.6,8.33h0l1.39,19.54-9.06-7.86,0-.21h0l-.66-9.21a1.07,1.07,0,0,0,.38-.28,1.09,1.09,0,1,0-1.1.33l.62,8.7L8.7,260.49a1.08,1.08,0,1,0-.47.55l5.31,4.61-8.7.62a1.09,1.09,0,1,0,.05.72l9.21-.66h0l.21,0,9.6,8.33h0l2.17,30.44L17,297.22l0-.21h0l-.66-9.21a1.07,1.07,0,0,0,.38-.28,1.08,1.08,0,1,0-1.52.11,1.07,1.07,0,0,0,.42.22l.62,8.7-5.31-4.61a1.08,1.08,0,1,0-.47.55l5.31,4.61-8.7.62a1.09,1.09,0,1,0,.05.72l9.21-.66h0l.21,0,9.6,8.33h0l1.58,22.16-9.06-7.86,0-.21h0L18,311a1.07,1.07,0,0,0,.38-.28,1.08,1.08,0,1,0-1.52.11,1.07,1.07,0,0,0,.42.22l.62,8.7-5.31-4.61a1.08,1.08,0,1,0-.47.55l5.31,4.61-8.7.62a1.09,1.09,0,1,0,.05.72L18,321h0l.21,0,9.6,8.33h0L29,345.85l.78.77-.88-12.34L37,324.9l.21,0h0l9.21-.66a1.09,1.09,0,1,0-.05-.72l-8.7.62,4.61-5.32a1.08,1.08,0,1,0-.54-.47l-4.61,5.32-.62-8.7a1.07,1.07,0,0,0,.38-.28,1.09,1.09,0,1,0-1.1.33l.66,9.21h0l0,.21-7.66,8.84-2.3-32.4,8.13-9.38.21,0h0l9.21-.66a1.09,1.09,0,1,0-.05-.72l-8.7.62,4.61-5.32a1.08,1.08,0,1,0-.54-.47l-4.61,5.32-.62-8.7a1.07,1.07,0,0,0,.38-.28,1.09,1.09,0,1,0-1.1.33l.66,9.21h0l0,.21-7.66,8.84-1.22-17.18,8.13-9.38h.21l9.21-.66A1.07,1.07,0,0,0,43,273Z" fill="#8381d4"/><path d="M26.28,393.83c-8.31,7-15.07,14.11-18.95,19.52.28-4.55.56-10.24.79-16.9,5.51-2.07,15.38-10.12,25.27-21a92,92,0,0,0,18.18-31,91.93,91.93,0,0,0-29.09,21.06,134.2,134.2,0,0,0-14,18.08c0-1.59,0-3.22.06-4.88,4.31-5.85,11.06-18.58,17.68-33.79a187.65,187.65,0,0,0,12.45-41.2A187.56,187.56,0,0,0,17,340.93c-3.39,7.8-6.28,15.18-8.48,21.49-.07-6.28-.21-12.9-.46-19.82,3.36-6.47,8.12-17.73,12.85-30.75a229.22,229.22,0,0,0,10.36-39,229.17,229.17,0,0,0-17.1,36.55c-2.66,7.32-5,14.21-6.74,20.11-.46-7-1.19-14.27-2.11-21.65,2.55-6.15,6.1-17.73,9.44-31.16a215.51,215.51,0,0,0,5.83-37.49A215.46,215.46,0,0,0,8.22,275.09c-1.89,7.61-3.44,14.74-4.54,20.69-.75-5.08-1.57-10.16-2.42-15.16a220.87,220.87,0,0,0,7.91-26.23,183.68,183.68,0,0,0,5-32A183.63,183.63,0,0,0,3.59,253C2.13,258.88.91,264.4,0,269.16v31.23c1.52,12.84,2.52,24.27,2.48,32C2.31,363.61,0,422,0,422l6.35,3.83s.1-1.06.27-3c5.26-.46,17-7.45,29.13-17.73a92,92,0,0,0,22.08-28.34A91.9,91.9,0,0,0,26.28,393.83Z" fill="#96d0e0"/><path d="M18.2,411A57.12,57.12,0,0,0,11,421.95c-.27-2.12-.63-4.75-1.1-7.81a.57.57,0,0,0,0-.31c2.43-1.53,6.33-6.19,10-12.16a44.33,44.33,0,0,0,5.82-16.3A44.29,44.29,0,0,0,13.86,398a64.55,64.55,0,0,0-5,9.82c-.13-.76-.27-1.53-.41-2.32,1.51-3.15,3.56-9.78,5.32-17.57a90.38,90.38,0,0,0,2.18-20.61,90.36,90.36,0,0,0-6.9,19.54c-.9,4-1.61,7.75-2.08,10.93-.6-3-1.26-6.09-2-9.34a138.19,138.19,0,0,0,3.32-15.7,110.39,110.39,0,0,0,1.4-19.38,110.39,110.39,0,0,0-4.8,18.83c-.6,3.71-1.07,7.17-1.38,10.13C2.65,379,1.65,375.63.56,372.22a121.57,121.57,0,0,0,1.67-15.59,103.78,103.78,0,0,0-.61-18.26S.76,341.69,0,346.7v31.37c.62,2.28,1.1,4.32,1.41,6l.19,1c-.48-.66-1-1.37-1.6-2.11v4c.87.82,1.65,1.52,2.3,2.06.55,3.19,1.13,6.67,1.71,10.2-1.13-1.69-2.49-3.63-4-5.7V399c1.87,2.16,3.52,3.95,4.8,5.19l.49,3.1C3.8,405.62,2,403.76,0,401.8v6.48a70.9,70.9,0,0,0,6.16,4.54c.57,3.7,1.07,7,1.44,9.41-2-1.86-4.59-4.06-7.6-6.4v6a70.66,70.66,0,0,0,8.26,4.79h0l.07,0a12.44,12.44,0,0,0,2,.77l1.31.5s0-.51-.15-1.46c2.45-.69,7.35-5,12.18-11a44.32,44.32,0,0,0,7.9-15.39A44.27,44.27,0,0,0,18.2,411Z" fill="#8381d4"/><path d="M82.81,421.14c14.89-5.23,9.6-19.37,1.78-22.43-5.73-2.24-11.3-1.88-6.68-5.32,17.88-13.31,34.16-33.58,22-45.61s-23.54,5.09-25.29,1.76,19.9-18.23,23.68-30.36-13.12-27.33-26.64-9c-8.9,12.08-11.19-8.85-5.74-20.84,8.51-18.7,1.15-37.51-15.74-41-4.68,11.45-9.81,30.17-5.46,49,6.13,26.48,12,60.24,2,82.62-8.46,18.9-9,56.45,4.12,77.86l.31.18S57.16,430.15,82.81,421.14Z" fill="#a2ddeb"/><path d="M46.73,380c10-22.38,4.17-56.14-2-82.62-4.35-18.8.78-37.51,5.46-49a30.3,30.3,0,0,0-9.68-.32c-24.74,3-18,32.73-14,43.12s.55,11.16-8,6.28c-3.35-1.91-11.65-4-18.52-2v38.23c9.12,12.63,20.09,23.5,14.5,24.2C-2.41,360.09-4,377.9,9.15,388.59c15,12.14-4.16,3.82-4,22.47.2,19.93,41.66,44.46,45.68,46.79C37.73,436.44,38.27,398.89,46.73,380Z" fill="#c1e9fa"/><path d="M67.13,358.39a1.55,1.55,0,1,0-.65-1.5l-12.11,2.37L59.92,351a1.53,1.53,0,1,0-.85-.57l-5.56,8.27-2.37-12.12a1.54,1.54,0,1,0-1,.2l2.51,12.83h0l.06.3-9.23,13.73-8.65-44.28,9.8-14.58.3-.06h0l12.82-2.51a1.51,1.51,0,0,0,.46.49,1.55,1.55,0,1,0-.65-1.5l-12.11,2.37L51,305.31a1.53,1.53,0,1,0-.85-.57L44.59,313l-2.37-12.12a1.51,1.51,0,0,0,.49-.46,1.54,1.54,0,1,0-1.49.65l2.51,12.83h0l.06.3-9.23,13.73L33,320l-1.84-9.42-1.61-8.24.17-.25h0L37,291.26a1.51,1.51,0,0,0,.67,0,1.54,1.54,0,1,0-1.52-.59l-6.89,10.25-1.91-9.78a1.53,1.53,0,1,0-1,.2l1.91,9.78L18,294.24a1.55,1.55,0,1,0-.57.85l10.84,7.3h0l.25.17,1.61,8.24L32,320.21,34.69,334l-14.08-9.48-.06-.3h0L18,311.37a1.51,1.51,0,0,0,.49-.46,1.53,1.53,0,1,0-2.12.42,1.52,1.52,0,0,0,.63.24l2.37,12.12-8.26-5.56a1.53,1.53,0,1,0-.57.85l8.26,5.56L6.73,326.9a1.52,1.52,0,0,0-2.58-.08,1.53,1.53,0,1,0,2.78,1.08l12.82-2.51h0l.3-.06,14.92,10h0l5.32,27.22L26.2,353.12l-.06-.3h0L23.64,340a1.52,1.52,0,0,0,.49-.46,1.53,1.53,0,1,0-2.12.42,1.52,1.52,0,0,0,.63.24L25,352.31l-8.26-5.56a1.53,1.53,0,1,0-.57.85l8.26,5.56-12.11,2.37a1.55,1.55,0,1,0,.2,1L25.34,354h0l.3-.06,14.92,10h0l8.28,42.39-14.08-9.48-.06-.3h0l-2.51-12.83a1.51,1.51,0,0,0,.49-.46,1.53,1.53,0,1,0-2.12.42,1.51,1.51,0,0,0,.63.24l2.37,12.12-8.26-5.56a1.53,1.53,0,1,0-.57.85L33,397l-12.11,2.37a1.55,1.55,0,1,0,.2,1l12.82-2.51h0l.3-.06,14.92,10h0l6,30.86-14.08-9.48-.06-.3h0L38.5,416.05a1.52,1.52,0,0,0,.49-.46,1.53,1.53,0,1,0-2.12.42,1.51,1.51,0,0,0,.63.24l2.37,12.12-8.26-5.56a1.53,1.53,0,1,0-.57.85l8.26,5.56-12.11,2.37a1.55,1.55,0,1,0,.2,1l12.82-2.51h0l.3-.06,14.92,10h0l4.51,23.09,1.23,1L57.8,446.93l9.8-14.58.3-.06h0l12.82-2.51a1.55,1.55,0,1,0-.2-1l-12.11,2.37L74,422.88a1.53,1.53,0,1,0-.85-.57l-5.56,8.27-2.37-12.12a1.51,1.51,0,0,0,.49-.46,1.54,1.54,0,1,0-1.49.65l2.51,12.83h0l.06.3-9.23,13.73L48.71,400.4l9.8-14.58.3-.06h0l12.82-2.51a1.55,1.55,0,1,0-.2-1l-12.11,2.37,5.56-8.27a1.53,1.53,0,1,0-.85-.57L58.47,384,56.1,371.92a1.51,1.51,0,0,0,.49-.46,1.54,1.54,0,1,0-1.49.65L57.61,385h0l.06.3L48.43,399l-4.68-23.93,9.8-14.58.3-.06h0l12.82-2.51A1.52,1.52,0,0,0,67.13,358.39Z" fill="#96d0e0"/><path d="M51.16,458l4,2.52s6.49-43.19,10.31-63.88S92.08,317,92.08,317,69.86,363.38,61.64,398,51.16,458,51.16,458Z" fill="#8381d4"/><ellipse cx="81.82" cy="332.01" rx="14.46" ry="1.29" transform="translate(-253.38 399.6) rotate(-87.56)" fill="#8381d4"/><ellipse cx="72.83" cy="344.13" rx="1.94" ry="21.69" transform="translate(-18.99 4.57) rotate(-3.18)" fill="#8381d4"/><ellipse cx="87.79" cy="349.62" rx="21.68" ry="1.94" transform="translate(-223.61 168.03) rotate(-45.66)" fill="#8381d4"/><ellipse cx="66.65" cy="358.17" rx="2.27" ry="25.45" transform="translate(-19.78 4.25) rotate(-3.18)" fill="#8381d4"/><ellipse cx="85.56" cy="364.64" rx="25.44" ry="2.27" transform="translate(-224 153.79) rotate(-42.53)" fill="#8381d4"/><ellipse cx="58.28" cy="380.39" rx="2.42" ry="27.07" transform="translate(-60.26 14.27) rotate(-9.23)" fill="#8381d4"/><ellipse cx="79.01" cy="385.12" rx="27.06" ry="2.42" transform="translate(-262.04 189.56) rotate(-48.58)" fill="#8381d4"/><ellipse cx="51.54" cy="401.25" rx="3.38" ry="28.79" transform="translate(-87.38 21.3) rotate(-12.76)" fill="#8381d4"/><ellipse cx="43.87" cy="418.68" rx="4.96" ry="23.68" transform="translate(-212.42 84.72) rotate(-31.52)" fill="#8381d4"/><ellipse cx="74.63" cy="404.73" rx="28.78" ry="2.57" transform="translate(-290.61 215.05) rotate(-52.11)" fill="#8381d4"/><ellipse cx="74.9" cy="419.38" rx="28.78" ry="3.58" transform="translate(-263.8 160.98) rotate(-42.53)" fill="#8381d4"/><path d="M42,434.34c8.23,10.16,13.18,19.8,11,21.53s-10.53-5.11-18.76-15.27a62,62,0,0,1-11-21.53A61.92,61.92,0,0,1,42,434.34Z" fill="#8381d4"/><ellipse cx="74.59" cy="440.22" rx="28.77" ry="3.58" transform="translate(-245.56 128.99) rotate(-36.19)" fill="#8381d4"/><ellipse cx="90.35" cy="336.51" rx="18.58" ry="1.66" transform="translate(-224.46 187.19) rotate(-49.6)" fill="#8381d4"/><polygon points="97.06 400.03 170.23 387.03 178.78 277.15 97.06 291.64 97.06 400.03" fill="#c7c6c6"/><polygon points="236.57 421.58 169.65 394.82 178.78 277.15 263.95 304.32 236.57 421.58" fill="#c7c6c6"/><polygon points="232.77 413.45 170.23 387.6 179.38 282.16 257.65 306.9 232.77 413.45" fill="#f3edf3"/><polygon points="100.8 400.03 170.23 387.6 178.78 282.16 100.8 296.08 100.8 400.03" fill="#e5e5e5"/><path d="M108.09,294.78v9.29a2.18,2.18,0,0,0,2.61,2.14l40.23-8.12a2.18,2.18,0,0,1,2.61,2.19l-.1,4.62A2.18,2.18,0,0,1,151.6,307l-20,3.13a2.18,2.18,0,0,0-1.85,2.16h0a2.18,2.18,0,0,0,2.46,2.17l10.87-1.38a2.18,2.18,0,0,0,1.91-2.17v-4.09a2.18,2.18,0,0,0-2.63-2.14l-24.88,5.21a2.18,2.18,0,0,0-1.74,2.14v15.81a2.18,2.18,0,0,1-1.89,2.16l-6.3.85a2.18,2.18,0,0,0-1.89,2.17v11.48a2.18,2.18,0,0,0,2.47,2.17l10.29-1.36a2.18,2.18,0,0,0,1.9-2.15l.16-21.18a2.18,2.18,0,0,1,1.9-2.15l35.75-4.66a2.18,2.18,0,0,0,1.9-2.07l.86-18.56a2.18,2.18,0,0,1,1.72-2l6.85-1.47a2.18,2.18,0,0,1,2.64,2.25l-1.75,32.46a2.18,2.18,0,0,1-2,2.06l-40.83,4a2.18,2.18,0,0,0-2,2.15l-.34,28.85a2.18,2.18,0,0,1-1.89,2.14l-15,2a2.18,2.18,0,0,0-1.89,2.17v12a2.18,2.18,0,0,0,2.49,2.16l19-2.69a2.18,2.18,0,0,0,1.88-2.13l.7-49.76a2.18,2.18,0,0,1,1.91-2.14l27.18-3.38a2.18,2.18,0,0,1,2.45,2.23l-.16,5.33a2.18,2.18,0,0,1-2,2.11l-23.65,2.27a2.18,2.18,0,0,0-2,2.18V350.1a2.18,2.18,0,0,0,2.4,2.17l26.46-2.65a2.18,2.18,0,0,0,2-2.17V333.65a2.18,2.18,0,0,1,2.09-2.18l7.49-.32a2.18,2.18,0,0,1,.58.05l8.11,1.87a2.18,2.18,0,0,0,2.66-1.92l1.19-12.62a2.19,2.19,0,0,0-1.71-2.34l-3.78-.82A2.19,2.19,0,0,1,180,313l1.54-16.83a2.18,2.18,0,0,1,2.8-1.89l15.4,4.64a2.19,2.19,0,0,1,1.53,2.42l-1,6.35a2.18,2.18,0,0,1-2.72,1.79l-12.32-3.26a2.19,2.19,0,0,1-1.62-2.26l.18-2.61a2.18,2.18,0,0,1,2.77-2l19.23,5.37a2.19,2.19,0,0,1,1.58,2.41l-1,6.94a2.18,2.18,0,0,1-2.75,1.8l-8.48-2.37a2.18,2.18,0,0,0-2.76,1.87l-1.29,12a2.19,2.19,0,0,0,1.62,2.35L205.35,333a2.18,2.18,0,0,0,2.7-1.77l4.21-26.67a2.18,2.18,0,0,1,2.83-1.74L241,311.29a2.19,2.19,0,0,1,1.46,2.55l-3.07,13.9a2.18,2.18,0,0,1-2.82,1.6L217.25,323a2.19,2.19,0,0,1-1.45-2.52l1.87-9.06a2.18,2.18,0,0,1,2.73-1.66l12,3.4a2.19,2.19,0,0,1,1.54,2.56l-4.5,21.16a2.18,2.18,0,0,1-2.74,1.64l-2.86-.83a2.19,2.19,0,0,1-1.52-2.58l.91-4.06a2.19,2.19,0,0,0-1.38-2.53l-3.65-1.34a2.18,2.18,0,0,0-2.9,1.67l-4.42,24.76a2.19,2.19,0,0,0,1.43,2.45l14.58,5.13a2.18,2.18,0,0,0,2.83-1.5l3.58-13.52L236,335.22a2.18,2.18,0,0,1,3-1.46l4.8,2.13a2.19,2.19,0,0,1,1.23,2.54l-11,43a2.18,2.18,0,0,1-2.8,1.53l-45.61-15.1a2.19,2.19,0,0,1-1.47-2.4l4.2-28.23a2.18,2.18,0,0,1,2.73-1.79l9.94,2.71a2.19,2.19,0,0,1,1.58,2.46l-3,18.46a2.19,2.19,0,0,0,1.45,2.42l41.41,14.06" fill="none" stroke="#ccc" stroke-miterlimit="10" stroke-width="5" opacity="0.6"/><g opacity="0.4"><circle cx="222.09" cy="318.43" r="3.37" fill="#ccc"/><circle cx="227.67" cy="344.17" r="3.37" fill="#ccc"/><circle cx="205.6" cy="356.98" r="2.38" fill="#ccc"/><circle cx="204.9" cy="350.87" r="1.56" fill="#ccc"/><circle cx="207.98" cy="343.57" r="1.56" fill="#ccc"/><circle cx="214.83" cy="361.1" r="1.56" fill="#ccc"/><circle cx="232.2" cy="365.39" r="3.37" fill="#ccc"/><circle cx="193.71" cy="342.22" r="3.37" fill="#ccc"/><ellipse cx="219.45" cy="349.36" rx="5.19" ry="5.19" fill="#ccc"/><ellipse cx="217.53" cy="386.7" rx="5.19" ry="5.19" fill="#ccc"/><ellipse cx="205.6" cy="384.51" rx="5.19" ry="5.19" fill="#ccc"/><ellipse cx="212.34" cy="398.49" rx="5.19" ry="5.19" fill="#ccc"/><ellipse cx="249.56" cy="318.19" rx="5.19" ry="5.19" fill="#ccc"/><circle cx="203.63" cy="328.92" r="1.26" fill="#ccc"/><circle cx="229.27" cy="316.2" r="1.26" fill="#ccc"/><circle cx="237.28" cy="315.06" r="1.26" fill="#ccc"/><circle cx="237.28" cy="321.81" r="1.26" transform="translate(-100.92 535.07) rotate(-85.83)" fill="#ccc"/><circle cx="234.34" cy="325.5" r="1.26" transform="translate(-107.33 535.57) rotate(-85.83)" fill="#ccc"/><circle cx="218.72" cy="332.02" r="1.26" transform="translate(-128.31 526.04) rotate(-85.83)" fill="#ccc"/><circle cx="219.45" cy="339.38" r="1.26" transform="translate(-134.98 533.59) rotate(-85.83)" fill="#ccc"/><circle cx="215.63" cy="342.22" r="1.26" transform="translate(-185.37 395.15) rotate(-65.3)" fill="#ccc"/><circle cx="198.63" cy="347.54" r="1.26" transform="translate(-195.42 277.13) rotate(-50.12)" fill="#ccc"/><circle cx="194.59" cy="361.1" r="1.26" transform="translate(-207.28 278.89) rotate(-50.12)" fill="#ccc"/><circle cx="191.44" cy="364.87" r="1.26" transform="translate(-211.3 277.82) rotate(-50.12)" fill="#ccc"/><circle cx="200.08" cy="365.69" r="1.26" transform="translate(-208.84 284.75) rotate(-50.12)" fill="#ccc"/><circle cx="204.9" cy="369.72" r="1.26" transform="translate(-210.2 289.89) rotate(-50.12)" fill="#ccc"/><circle cx="211.47" cy="368.63" r="1.26" transform="translate(-207.01 294.54) rotate(-50.12)" fill="#ccc"/><circle cx="218.72" cy="374.5" r="1.26" transform="translate(-208.9 302.22) rotate(-50.12)" fill="#ccc"/><circle cx="225.46" cy="374.5" r="1.26" transform="translate(-206.49 307.39) rotate(-50.12)" fill="#ccc"/><circle cx="188.73" cy="358.28" r="1.26" transform="translate(-47.74 29.55) rotate(-7.95)" fill="#ccc"/><circle cx="239.07" cy="339.38" r="1.26" transform="translate(-176.04 335.31) rotate(-54.28)" fill="#ccc"/><circle cx="238.62" cy="346.78" r="1.26" transform="translate(-182.23 338.03) rotate(-54.28)" fill="#ccc"/><ellipse cx="199.11" cy="323.66" rx="4.52" ry="4.53" fill="#ccc"/><ellipse cx="193.71" cy="353.06" rx="4.52" ry="4.53" fill="#ccc"/><circle cx="205.6" cy="319.14" r="0.7" transform="translate(-171.09 271.96) rotate(-50.07)" fill="#ccc"/><circle cx="195.51" cy="317.63" r="1.8" fill="#ccc"/><circle cx="185.3" cy="311.89" r="2" fill="#ccc"/><circle cx="197.14" cy="293.57" r="1.98" fill="#ccc"/><circle cx="187.74" cy="290.41" r="2.44" fill="#ccc"/><circle cx="186.74" cy="303.36" r="1" fill="#ccc"/><circle cx="114.25" cy="298.56" r="3.54" fill="#ccc"/><circle cx="122.55" cy="299.41" r="1.76" fill="#ccc"/><circle cx="128.87" cy="295.19" r="1.63" fill="#ccc"/></g><polygon points="187.74 280.01 214.83 288.65 243.5 391.89 236.57 421.58 223.15 416.21 187.74 280.01" fill="#f2f2f2" opacity="0.5"/><polygon points="222.09 291.02 230.24 293.57 251.89 356 249.56 364.87 222.09 291.02" fill="#f2f2f2" opacity="0.5"/><path d="M257.34,351.37h0a3.69,3.69,0,0,0-4.9,1.8l-.42.92a5.8,5.8,0,0,0-2.46-1.17c-4.48-.92-9.24,3.82-10.63,10.6-1.08,5.27.19,10.21,2.92,12.58l-1,2.1,7,3.25a10.77,10.77,0,0,0,14.31-5.26l2.37-5.13A14.83,14.83,0,0,0,257.34,351.37Z" fill="#f1dac6"/><path d="M252,354.09a5.84,5.84,0,0,1,1.16,2.6c.12,1.3.16,1.87.16,1.87a38.12,38.12,0,0,1,2.24-5.13,3.42,3.42,0,0,1,2.45-1.25,1.89,1.89,0,0,1,1,.11,5.71,5.71,0,0,0-3.51-1.25,3.16,3.16,0,0,0-2.79,1.61C252.44,353.17,252,354.09,252,354.09Z" fill="#f0c2a3"/><path d="M239.42,361.6s-1.15,6.68,1.39,9.55c1.72,1.95,5,2.46,5.78,1.95,0,0,6.45-5,11.25-4.91s4.35,4.88,5.67,3.71c2.42-2.13,2.42-6.8,2.42-6.8a14.49,14.49,0,0,1-1.37,6c-.88,1.61-2.6,7.18-5.85,9.36a11,11,0,0,1-3.94,1.77s-4.82-6.63-8.08-7.12a53.79,53.79,0,0,0-6.21-.53,12.48,12.48,0,0,1-1.94-6.92A18.48,18.48,0,0,1,239.42,361.6Z" fill="#f0c2a3"/><ellipse cx="244.41" cy="360.51" rx="5.97" ry="2.86" transform="translate(-188.65 407.02) rotate(-61.99)" fill="#f6e1c9"/><ellipse cx="243.02" cy="360.74" rx="3.62" ry="1.73" transform="translate(-189.59 405.92) rotate(-61.99)" fill="#fff"/><ellipse cx="246.22" cy="356.14" rx="1.48" ry="0.71" transform="translate(-183.84 406.3) rotate(-61.99)" fill="#fff"/><path d="M205.35,480.76s-19,2.9-31.73,3.86c-11.23.85-37.85-.39-37.85-.39V352.48h24.34a45.26,45.26,0,0,1,45.24,45.28Z" fill="#333"/><rect x="227.98" y="373.53" width="25.18" height="34.6" rx="12.58" ry="12.58" transform="translate(247.48 -68.05) rotate(32.48)" fill="#333"/><path d="M247.94,379.23h0a17.28,17.28,0,0,0-23.87,5.32l-7.73,12.16-7.73-20.62a19.93,19.93,0,0,0-25.67-11.67h0a20,20,0,0,0-11.66,25.7l19.48,51.95a19.93,19.93,0,0,0,25.67,11.67h0a19.87,19.87,0,0,0,10.69-9.49l26.13-41.13A17.31,17.31,0,0,0,247.94,379.23Z" fill="#666"/><path d="M230.24,427.19a19.87,19.87,0,0,1-10.69,9.49h0A19.93,19.93,0,0,1,193.88,425L174.4,373.06c-.22-.57-.4-1.15-.56-1.73a20,20,0,0,0-2.57,18.78l19.48,51.95a19.93,19.93,0,0,0,25.67,11.67h0a19.87,19.87,0,0,0,10.69-9.49l26.13-41.13a17.28,17.28,0,0,0,1.76-14.9Z" fill="#4d4d4d"/><path d="M224.37,398.16l12.42-21.53a17.25,17.25,0,0,0-12.73,7.91l-7.35,11.56h0A4.1,4.1,0,0,0,224.37,398.16Z" fill="#4d4d4d"/><path d="M174.69,366.73C181,360.5,192,360,196.17,362.6a32.85,32.85,0,0,0-23.85-10.13Z" fill="#4b545a"/><path d="M167.25,311.8v11.07a5.9,5.9,0,1,0,0,10.45v13.83h0a11.41,11.41,0,0,0,11.4-11.41V311.8Z" fill="#f1cea8"/><path d="M167.25,311.8h-41v11.08a24.25,24.25,0,0,0,24.24,24.27h16.8V333.32a5.86,5.86,0,0,1-2.94.67,5.9,5.9,0,0,1,.22-11.79,5.85,5.85,0,0,1,3.08.88,8.43,8.43,0,0,0,8.07-8.42V311.8Z" fill="#4d4d4d"/><path d="M185.67,296.3c-1.31-3.46-5.24-7.21-13.31-7.21a16.33,16.33,0,0,0-9.45,2.73,27.48,27.48,0,0,1,15.77,20C185.23,307,187.7,301.67,185.67,296.3Z" fill="#9c2429"/><path d="M144.11,291h0Z" fill="#efbc7a"/><path d="M125.76,317.26a28.57,28.57,0,0,0,.68,6.2,80.44,80.44,0,0,0,14,.82l1.57-.06a39.09,39.09,0,0,1-1.38-3.89,36.48,36.48,0,0,1,3.47-29.27h0A27.55,27.55,0,0,0,125.76,317.26Z" fill="#791829"/><path d="M167.25,318.71a44.89,44.89,0,0,0,11.44-6.91c-2.45-12.64-13.25-22.16-26.2-22.16a25.9,25.9,0,0,0-8.37,1.39l0,0A34.82,34.82,0,0,1,167.25,318.71Z" fill="#791829"/><path d="M144.1,291.05a36.48,36.48,0,0,0-3.47,29.27,39.09,39.09,0,0,0,1.38,3.89,73,73,0,0,0,25.24-5.51A34.82,34.82,0,0,0,144.1,291.05Z" fill="#9c2429"/><path d="M170.27,296.65c-2.94,9.37-16.19,16.44-32.1,16.44a50.45,50.45,0,0,1-11.87-1.39,28.59,28.59,0,0,0,.14,11.76,80.44,80.44,0,0,0,14,.82c15.93-.44,29.9-5.34,38.24-12.48A27.81,27.81,0,0,0,170.27,296.65Z" fill="#1a1a1a" opacity="0.3"/><polygon points="174.31 464.86 137.04 484.46 137.04 386.15 174.69 366.73 174.31 464.86" fill="#637076"/><path d="M72.73,472.89,137,484.46V386.15l-68.37-12.3V468A4.93,4.93,0,0,0,72.73,472.89Z" fill="#788386"/><path d="M155.7,345.65h0a34,34,0,0,0-18.27,30.14v10.36l37.26-19.42v-9.55A13,13,0,0,0,155.7,345.65Z" fill="#788386"/><path d="M155.7,345.65h0a12.83,12.83,0,0,1,7.7-1.37h0l-54-8.53c-21-3.79-40.79,13-40.79,34.37l0,3.73,68.76,12.3V375.78A34,34,0,0,1,155.7,345.65Z" fill="#637076"/><polygon points="127.61 459.99 119.76 457.97 119.76 421.27 127.61 423.33 127.61 459.99" fill="#969997"/><polygon points="131 422.59 129.45 423.79 129.45 417.09 131 415.9 131 422.59" fill="#dca975"/><polygon points="116.87 396.13 118.59 395 131 397.22 129.45 398.49 116.87 396.13" fill="#f1cea8"/><polygon points="116.87 408.18 118.77 407.39 131 410.01 129.45 411.21 116.87 408.18" fill="#ca915e"/><polygon points="129.45 405.82 129.45 398.49 116.87 396.13 116.87 403.01 120.14 403.74 120.14 408.96 116.87 408.18 116.87 413.89 129.45 416.92 129.45 411.21 126.44 410.48 126.44 405.15 129.45 405.82" fill="#f6e1c9"/><polygon points="127.65 402.19 118.92 400.4 118.92 391.51 127.65 393.07 127.65 402.19" fill="#a1a1a0"/><polygon points="118.98 400.23 118.19 400.63 127.65 402.8 127.65 402.19 118.98 400.23" fill="#ca915e"/><polygon points="118.98 400.23 118.19 400.63 118.19 398.22 118.93 398.41 118.98 400.23" fill="#dca975"/><polygon points="131 404.49 129.45 405.82 129.45 398.49 131 397.16 131 404.49" fill="#dca975"/><polygon points="131 415.72 129.45 416.92 129.45 411.21 131 410.01 131 415.72" fill="#f1cea8"/><path d="M126.44,405.73l1.22-.31.84.18a2,2,0,0,1,1.15,1.86v2.6l-1.15.91Z" fill="#dca975"/><path d="M128.49,411l-2.06-.49v-4.76h0a2.62,2.62,0,0,1,2.06,2.56Z" fill="#f1cea8"/><polygon points="127.65 405.42 126.44 405.73 126.44 405.16 127.65 405.42" fill="#ca915e"/><path d="M120.14,404.15v.59l-1.72,1.53A2.13,2.13,0,0,1,120.14,404.15Z" fill="#dca975"/><path d="M120.14,404.74h0a1.39,1.39,0,0,0-1.72,1.35v2.51l1.72.43Z" fill="#f1cea8"/><polygon points="127.23 416.57 127.23 417.09 118.97 415.13 118.97 414.61 116.87 414.06 116.87 420.5 129.45 423.79 129.45 417.09 127.23 416.57" fill="#f6e1c9"/><polygon points="131 415.9 129.45 417.09 127.23 416.57 127.42 416.44 129.45 416.92 130.78 415.9 131 415.9" fill="#dca975"/><polygon points="119.37 417.71 118.98 418.87 127.23 421.01 127.23 419.78 119.37 417.71" fill="#ca915e"/><polygon points="119.48 414.52 119.53 417.28 118.98 418.87 118.97 414.61 119.48 414.52" fill="#dca975"/><polygon points="118.97 414.61 116.87 414.06 117.2 413.97 119.48 414.52 118.97 414.61" fill="#f1cea8"/><polygon points="127.23 446.53 119.38 444.51 119.38 421.15 127.23 423.21 127.23 446.53" fill="#a1a1a0"/><polygon points="127.23 419.78 119.38 417.71 119.38 415.04 127.23 417 127.23 419.78" fill="#a1a1a0"/><polygon points="127.23 444.02 119.38 441.98 119.38 441.78 127.23 443.82 127.23 444.02" fill="#969997"/><polygon points="127.23 440.25 119.14 438.15 119.14 432.6 127.23 434.7 127.23 440.25" fill="#969997"/><polygon points="127.71 434.59 127.23 434.7 127.23 440.25 127.71 440.17 127.71 434.59" fill="#637076"/><polygon points="119.14 432.6 119.38 432.47 119.38 432.66 119.14 432.6" fill="#ca915e"/><polygon points="80.26 445.08 73.17 443.25 73.17 410.07 80.26 411.94 80.26 445.08" fill="#969997"/><polygon points="83.33 411.27 81.92 412.36 81.92 406.3 83.33 405.22 83.33 411.27" fill="#dca975"/><polygon points="70.55 387.35 72.1 386.33 83.33 388.33 81.92 389.48 70.55 387.35" fill="#f1cea8"/><polygon points="70.55 398.24 72.27 397.53 83.33 399.9 81.92 400.98 70.55 398.24" fill="#ca915e"/><polygon points="81.92 396.11 81.92 389.48 70.55 387.35 70.55 393.56 73.5 394.22 73.5 398.95 70.55 398.24 70.55 403.41 81.92 406.14 81.92 400.98 79.2 400.32 79.2 395.5 81.92 396.11" fill="#f6e1c9"/><polygon points="80.3 392.83 72.41 391.21 72.41 383.17 80.3 384.59 80.3 392.83" fill="#a1a1a0"/><polygon points="72.46 391.05 71.75 391.42 80.3 393.38 80.3 392.83 72.46 391.05" fill="#ca915e"/><polygon points="72.46 391.05 71.75 391.42 71.75 389.24 72.41 389.41 72.46 391.05" fill="#dca975"/><polygon points="83.33 394.91 81.92 396.11 81.92 389.48 83.33 388.28 83.33 394.91" fill="#dca975"/><polygon points="83.33 405.06 81.92 406.14 81.92 400.98 83.33 399.9 83.33 405.06" fill="#f1cea8"/><path d="M79.2,396l1.1-.28.76.17a1.85,1.85,0,0,1,1,1.68V400l-1,.82Z" fill="#dca975"/><path d="M81.06,400.77l-1.86-.44V396h0a2.37,2.37,0,0,1,1.86,2.31Z" fill="#f1cea8"/><polygon points="80.3 395.75 79.2 396.03 79.2 395.51 80.3 395.75" fill="#ca915e"/><path d="M73.51,394.6v.53L72,396.51A1.93,1.93,0,0,1,73.51,394.6Z" fill="#dca975"/><path d="M73.51,395.13h0A1.25,1.25,0,0,0,72,396.35v2.27l1.55.38Z" fill="#f1cea8"/><polygon points="79.92 405.82 79.92 406.29 72.45 404.52 72.45 404.05 70.55 403.56 70.55 409.38 81.92 412.36 81.92 406.3 79.92 405.82" fill="#f6e1c9"/><polygon points="83.33 405.22 81.92 406.3 79.92 405.82 80.09 405.71 81.92 406.14 83.12 405.22 83.33 405.22" fill="#dca975"/><polygon points="72.81 406.86 72.46 407.91 79.92 409.84 79.92 408.73 72.81 406.86" fill="#ca915e"/><polygon points="72.91 403.97 72.95 406.47 72.46 407.91 72.45 404.05 72.91 403.97" fill="#dca975"/><polygon points="72.45 404.05 70.55 403.56 70.85 403.48 72.91 403.97 72.45 404.05" fill="#f1cea8"/><polygon points="79.92 432.92 72.82 431.09 72.82 409.96 79.92 411.83 79.92 432.92" fill="#a1a1a0"/><polygon points="79.92 408.73 72.82 406.86 72.82 404.44 79.92 406.21 79.92 408.73" fill="#a1a1a0"/><polygon points="79.92 430.65 72.82 428.8 72.82 428.62 79.92 430.46 79.92 430.65" fill="#969997"/><polygon points="79.92 427.23 72.61 425.34 72.61 420.32 79.92 422.21 79.92 427.23" fill="#969997"/><polygon points="80.35 422.12 79.92 422.21 79.92 427.23 80.35 427.17 80.35 422.12" fill="#637076"/><polygon points="72.61 420.32 72.82 420.2 72.82 420.37 72.61 420.32" fill="#ca915e"/><path d="M74.1,343.82l90.44,16.48v-42.5l-83-15.12A20.89,20.89,0,0,0,57,323.26h0A20.9,20.9,0,0,0,74.1,343.82Z" fill="#969997"/><path d="M106.31,467.42,118.17,459V422.68l-2.45,1.73a22.29,22.29,0,0,0-9.42,18.2Z" fill="#637076"/><path d="M84.33,416.25,81.83,418a22.29,22.29,0,0,0-9.37,18.17v23.58a1.52,1.52,0,0,0,1.24,1.5l32.61,6.15V442.61a22.29,22.29,0,0,1,9.42-18.2l2.45-1.73Z" fill="#858d92"/><ellipse cx="164.54" cy="339.11" rx="18.88" ry="21.19" fill="#a1a1a0"/><path d="M111.66,363.16l-16-2.49a9.43,9.43,0,0,0-3.1,5.37,40.21,40.21,0,0,0-.87,5.44l16.45,3a28.28,28.28,0,0,1,1-5.66A33.9,33.9,0,0,1,111.66,363.16Z" fill="#666"/><path d="M137.16,312.87l7.9,1.44s-11.77,4.95-14.17,17.79c-2.9,15.49,6,23.21,6,23.21l-10.81-2s-7.93-8.68-4.23-23.29A24.9,24.9,0,0,1,137.16,312.87Z" fill="#788386"/><path d="M136.71,355.21s-5.3,7.09-6.42,15.68a110,110,0,0,0-1.08,13.63l-11.86-2a34.62,34.62,0,0,1,1.33-17.18c3.14-9.34,7.23-12.1,7.23-12.1Z" fill="#788386"/><path d="M92.07,304.69l7.9,1.44S88.2,311.08,85.8,323.92c-2.9,15.49,6,23.21,6,23.21l-10.81-2s-7.93-8.68-4.23-23.29A24.9,24.9,0,0,1,92.07,304.69Z" fill="#788386"/><path d="M91.62,347s-5.3,7.09-6.42,15.68a110,110,0,0,0-1.08,13.63l-12.77-2.15a43.12,43.12,0,0,1,2.23-17c3.14-9.34,7.23-12.1,7.23-12.1Z" fill="#788386"/><path d="M137,386,68.67,373.86v3.69a9.58,9.58,0,0,1,3.81,6.31l7.82,1.3c2.73-3.83,10.83-5.66,19-4.33s18.58,6.18,19.65,10.68l8.73,1.57c.39-3.82,5.37-5.13,9.39-5.17Z" fill="#637076"/><path d="M179.54,387c.65,4.21-4.89,8.19-13.3,9.85s-16.73-.89-17.38-5.1,5.69-8.68,14.16-10S178.89,382.79,179.54,387Z" fill="#4d4d4d"/><path d="M164.54,431.18c-14,1.23-17.33-2-17.33-2V479h6.51a25.89,25.89,0,0,0,25.88-25.9V422.34S178.35,430,164.54,431.18Z" fill="#788386"/><path d="M165.32,396.75c-12.93,2.12-16.4-4.39-16.41-4.43v37.76s3.15,2.33,16.42,1.1c13.08-1.21,14.27-8.84,14.27-8.84V387S179.6,394.4,165.32,396.75Z" fill="#4d4d4d"/><path d="M148.9,411.18a28.7,28.7,0,0,0,19.56,3.09c10.4-2,11.13-7.19,11.13-7.19" fill="none" stroke="#1a1a1a" stroke-miterlimit="10"/><path d="M147.2,440s13.07,3.24,21.93.86c8.48-2.28,10.46-6.52,10.46-6.52" fill="none" stroke="#f1dac6" stroke-miterlimit="10"/><ellipse cx="167.13" cy="436.42" rx="1.33" ry="1.74" fill="#4d4d4d"/><ellipse cx="172.93" cy="435.23" rx="1.37" ry="1.59" transform="translate(-33.08 14.65) rotate(-4.43)" fill="#4d4d4d"/><path d="M172.35,434.6l-.81.42a4.23,4.23,0,0,1-2,.48h-1.81a.86.86,0,0,0-.86.87h0a.86.86,0,0,0,.86.87H170a4.23,4.23,0,0,0,2-.48l1.19-.62a.86.86,0,0,0,.38-1.13h0A.86.86,0,0,0,172.35,434.6Z" fill="#f1dac6"/><path d="M174.61,455.18,173.24,438h-3.42l-2.53,16.88a3.69,3.69,0,1,0,7.32.25Zm-2.38,1.49a1.77,1.77,0,0,1-3-1.46L171.47,440l1.22,15.33A1.75,1.75,0,0,1,172.23,456.67Z" fill="#f1dac6"/><polygon points="106.31 444.8 72.46 438.45 72.46 434.63 106.31 440.97 106.31 444.8" fill="#969997"/><polygon points="118.17 436.38 106.31 444.83 106.31 441 118.17 432.56 118.17 436.38" fill="#969997" opacity="0.3"/><polygon points="106.31 460.99 72.46 454.65 72.46 446.6 106.31 452.94 106.31 460.99" fill="#969997"/><polygon points="118.17 452.55 106.31 460.99 106.31 452.98 118.17 444.53 118.17 452.55" fill="#969997" opacity="0.3"/><polygon points="101.34 380.35 95.55 379.25 95.55 418.42 101.34 419.52 101.34 380.35" fill="#637076"/><circle cx="171.67" cy="437.23" r="2.52" fill="#333"/><circle cx="172.62" cy="437.07" r="1.69" fill="#1a1a1a"/><circle cx="173.03" cy="437.07" r="1.16" fill="#333"/><path d="M95.54,418.42,93.36,420A22.29,22.29,0,0,0,84,438.17v5.25l5.66,1.11v-5.21a22.29,22.29,0,0,1,9.42-18.2l2.26-1.6Z" fill="#637076"/><polygon points="89.44 464.11 84.5 463.19 84.5 455.87 89.44 456.82 89.44 464.11" fill="#5a636a"/><polygon points="91.6 456.27 90.61 457.04 90.61 452.75 91.6 452.06 91.6 456.27" fill="#dca975"/><polygon points="82.65 439.78 83.75 439.06 91.6 440.11 90.61 440.92 82.65 439.78" fill="#f1cea8"/><polygon points="82.65 447.49 83.86 446.98 91.6 448.29 90.61 449.06 82.65 447.49" fill="#ca915e"/><polygon points="90.61 445.61 90.61 440.92 82.65 439.78 82.65 444.18 84.74 444.65 84.74 447.99 82.65 447.49 82.65 451.14 90.61 452.66 90.61 449.06 88.69 448.6 88.69 445.18 90.61 445.61" fill="#f6e1c9"/><polygon points="89.46 443.29 83.96 442.51 83.96 436.82 89.55 437.82 89.46 443.29" fill="#637076"/><polygon points="84 442.4 83.49 442.66 89.46 443.68 89.46 443.29 84 442.4" fill="#ca915e"/><polygon points="84 442.4 83.49 442.66 83.49 441.12 83.97 441.24 84 442.4" fill="#dca975"/><polygon points="91.6 444.76 90.61 445.61 90.61 440.92 91.6 440.07 91.6 444.76" fill="#dca975"/><polygon points="91.6 451.95 90.61 452.71 90.61 449.06 91.6 448.29 91.6 451.95" fill="#f1cea8"/><path d="M88.68,445.56l.78-.2.54.12a1.31,1.31,0,0,1,.74,1.19v1.67l-.74.58Z" fill="#dca975"/><path d="M90,448.91l-1.32-.31v-3h0A1.68,1.68,0,0,1,90,447.19Z" fill="#f1cea8"/><polygon points="89.46 445.36 88.69 445.56 88.69 445.19 89.46 445.36" fill="#ca915e"/><path d="M84.74,444.91v.37l-1.1,1A1.37,1.37,0,0,1,84.74,444.91Z" fill="#dca975"/><path d="M84.74,445.29h0a.89.89,0,0,0-1.1.86v1.61l1.1.27Z" fill="#f1cea8"/><polygon points="89.19 452.49 89.19 452.82 83.99 451.94 84.01 451.55 82.65 451.26 82.65 455.37 90.61 457.04 90.61 452.75 89.19 452.49" fill="#f6e1c9"/><polygon points="91.6 452.06 90.61 452.75 89.19 452.49 89.31 452.41 90.61 452.66 91.46 452.06 91.6 452.06" fill="#dca975"/><polygon points="84.25 453.59 84 454.33 89.19 455.33 89.19 454.55 84.25 453.59" fill="#ca915e"/><polygon points="84.33 451.49 84.35 453.31 84 454.33 84.01 451.55 84.33 451.49" fill="#dca975"/><polygon points="84.01 451.55 82.65 451.26 82.86 451.2 84.33 451.49 84.01 451.55" fill="#f1cea8"/><polygon points="89.19 463.63 84.25 462.7 84.25 455.79 89.19 456.74 89.19 463.63" fill="#637076"/><polygon points="89.19 454.55 84.25 453.59 84.25 451.88 89.19 452.76 89.19 454.55" fill="#637076"/><polygon points="89.19 462.02 84.25 461.08 84.25 460.95 89.19 461.89 89.19 462.02" fill="#5a636a"/><polygon points="89.19 459.95 84.1 458.98 84.1 457.17 89.19 458.15 89.19 459.95" fill="#5a636a"/><polygon points="89.5 458.08 89.19 458.15 89.19 459.95 89.5 459.9 89.5 458.08" fill="#525351"/><polygon points="84.1 457.17 84.25 457.09 84.25 457.21 84.1 457.17" fill="#525351"/><g opacity="0.15" style="mix-blend-mode:multiply"><path d="M179.59,428.62a2.05,2.05,0,0,0,0-1.07v-5.2l-.52,1.45a21.25,21.25,0,0,1-3.31,3.79c-1.51,1.18-6.46,3-8.85,3.42a81.16,81.16,0,0,1-12.06.48c-4.6-.05-5.95-1.39-5.95-1.39V392.32c0-6.46,6.61-8.44,7.12-8.59-.73.2-11.77,3.69-13,7.78s2,75.62-1.28,75.91S137,441.73,137,441.73v42.73L147.2,479a34.79,34.79,0,0,0,11.69-.52c9.13-2.15,12.4-6.59,16.39-11.06C182.65,459.16,179.59,428.62,179.59,428.62Zm-5,27.31a3.79,3.79,0,0,1-3.69,3.23,3.62,3.62,0,0,1-3.68-3.58c.31-2.63,1.82-12.53,1.82-12.53s-5,13.68-2.5,17.39c2.15,3.25,9.41,1.57,6.37,5.14s-15.65,5.27-17.83,3.61-.34-26.52-.09-30.42,8-4.05,14.13-4.92a18.26,18.26,0,0,0,6.33-2.18c-1.15,4.2-2,9.46-2,9.46S174.54,454.07,174.62,455.93Z" fill="#999"/><path d="M156,383.73h0Z" fill="#999" opacity="0.37" style="mix-blend-mode:multiply"/><path d="M137,387.91a11.55,11.55,0,0,0-5.28.86c-2.17,1.11-3.74,1.47-3.92,3.42s-.19,10-.19,10l-8.67-2L127.23,421v2.2l-7.85-2.07.1,3.53,5.8,21.35-5.51-1.42v3.68l7.85,5V460l-7.85-2-1.59-.76V459l-11.87,8.39L73.7,461.27l23.07,15.95L137,484.46Z" fill="#999"/><path d="M164.54,317.92c-10.42,0-18.88,9.49-18.88,21.19q0,.56,0,1.12a21,21,0,0,1,.91-5.18c-.06.64-.09,1.3-.09,2,0,10,7.23,18.14,16.16,18.14S178.82,347,178.82,337c0-.53,0-1.06-.06-1.58a21.16,21.16,0,0,1,.82,5.85c0,10.16-7.09,18.47-16,19l1,0c10.42,0,18.88-9.49,18.88-21.19S175,317.92,164.54,317.92Z" fill="#999"/><path d="M94.42,418.16l-10.09-1.92-4.06,3v-5.18l-.35.19-7.1-1.9V410l9.1,2.39,1.4-1.08V399.9l-1.23-.26s0-2-.08-2.59-1-1.13-1-1.13l.86.19,1.4-1.2v-6.63l-3-.49v-2.63s.61-.73,1.33-1.43a16.41,16.41,0,0,1,4.59-2.26s-2.43,2.53-2.48,3.31-.09,2.57-.09,2.57Z" fill="#999"/><path d="M84.33,416.25l-1.19.85s25,4.88,27.08,5.25-.09,2.65-2.78,5.84-2.28,8.88-3.91,9.05-28.06-5.12-28.47-4.76a.81.81,0,0,0-.16.35,3.61,3.61,0,0,0,3,4.48l6.08.86,0,1.8,4.15,16.46-3.85-.64.09,4.2,8.81,4.95,13.15,2.48s-.34-25,.19-27.71,2.25-9.49,6.32-12.75l5.35-4.28Z" fill="#999"/><path d="M57.69,328.78c1.39,3.67,3.56,10.49,12.18,13.8s93.53,17.73,93.53,17.73-13.62-1.6-16.7-14.26c-3-12.3,1.71-17.95,1.71-17.95a23.28,23.28,0,0,0-3.9,10.58c-.54,6.07,1.71,13.53-1.81,12.9s-6.93-.09-8.12-3.88c-1.06-3.38-3-10.9.14-18.93S147.85,315,147.85,315l-2.79-.69s-13.61,5.94-14.84,20.88c-1.09,13.28-12.44,7.9-19.48,7s-18.24-2-19.13-3-3.88-6.88-2-15C92,313.88,104,306.78,104,306.78l-4.05-.65S90.59,311,87,319.67c-3.47,8.43-3.27,16.4-10.31,15.53s-12.38-1.61-15-3.12A18,18,0,0,1,57.69,328.78Z" fill="#999"/><path d="M79.2,344.78l64.08,11.92,20.11,3.6s4.56.22,7.16-1.1,4.13-2.22,4.13-2.22l-.06,25.46s-2.87-1-8.93-1a25.07,25.07,0,0,0-11.3,3.06s-6.08-15-10.31-18.28c-3.57-2.78-6.07,3.23-6.07,3.23s-10.65,3.74-38-.59c-21.62-3.42-29.67-8.57-29.67-8.57A29.81,29.81,0,0,1,79.2,344.78Z" fill="#999"/><path d="M179.59,387.42a10.6,10.6,0,0,1-7.73,7.59c-6.55,1.74-7.66,2.16-7.66,2.16l.34,34s6.37.28,11.22-3.61,3.83-5.23,3.83-5.23Z" fill="#b3b3b3" style="mix-blend-mode:multiply"/><g style="mix-blend-mode:multiply"><path d="M150.51,387.42a5.32,5.32,0,0,0-1.65,4.34,3.46,3.46,0,0,0,.1.43A7.13,7.13,0,0,1,150.51,387.42Z" fill="#b3b3b3"/><path d="M179.54,387c-.65-4.21-8-6.56-16.52-5.25a28.33,28.33,0,0,0-7.55,2.23,12,12,0,0,1,2-.48c5.32-.82,10.16,2,10.83,6.29a7.4,7.4,0,0,1-3.44,7.29c.47-.07.94-.14,1.42-.24C174.66,395.2,180.19,391.21,179.54,387Z" fill="#b3b3b3"/></g></g><g opacity="0.5"><path d="M72.55,374.42a2.42,2.42,0,0,1-2-2.37v-1.72a34.74,34.74,0,0,1,10.81-25.1l-.39-.07-.09-.11h0a2.43,2.43,0,0,0-2.16.69,34.7,34.7,0,0,0-10.06,24.36v1.72a2.42,2.42,0,0,0,2,2.37l66.78,11.95V386Z" fill="#fff"/><path d="M138.77,375.78a34,34,0,0,1,5.42-18.4.56.56,0,0,0-.38-.85h0a.56.56,0,0,0-.57.24,34,34,0,0,0-5.82,19v9.44a.56.56,0,0,0,.82.5l.22-.12a.56.56,0,0,0,.3-.5Z" fill="#fff"/><path d="M73.89,472.89A4.93,4.93,0,0,1,69.84,468v-94l-1.17-.21V468a4.93,4.93,0,0,0,4.06,4.85L137,484.46v-.21Z" fill="#fff"/><path d="M106.83,443.78a22.29,22.29,0,0,1,9.42-18.2l1.92-1.36v-1.54l-2.45,1.73a22.29,22.29,0,0,0-9.42,18.2v24.81l.52-.37Z" fill="#fff"/><path d="M75.27,460.55a1.52,1.52,0,0,1-1.24-1.5V435.47A22.29,22.29,0,0,1,83.4,417.3l1.37-1-.44-.08L81.83,418a22.29,22.29,0,0,0-9.37,18.17v23.58a1.52,1.52,0,0,0,1.24,1.5L103.93,467a.5.5,0,0,0,.59-.49h0a.5.5,0,0,0-.4-.49Z" fill="#fff"/><path d="M84.74,442.74v-4.57A22.29,22.29,0,0,1,94.11,420l2.18-1.58v-39l-.75-.14v39.17L93.36,420A22.29,22.29,0,0,0,84,438.17v4.57l5.66,1.11v-.15Z" fill="#fff"/><path d="M58.45,325.69h0a20.89,20.89,0,0,1,24.63-20.57s73.85,11.28,72.77,11.09L81.58,302.69A20.89,20.89,0,0,0,57,323.26h0a20.86,20.86,0,0,0,3.85,12.1A20.86,20.86,0,0,1,58.45,325.69Z" fill="#fff"/><path d="M147.3,340.09c0-11.48,8.29-20.79,18.51-20.79a17.54,17.54,0,0,1,13.26,6.29,18.11,18.11,0,0,0-14.54-7.67c-10.42,0-18.88,9.49-18.88,21.19,0,9.34,5.39,17.27,12.86,20.09C151.93,356,147.3,348.66,147.3,340.09Z" fill="#fff"/><path d="M147.2,479v-.6L137,482.86l2-96.2a.82.82,0,0,0-1.2-.74h0a.82.82,0,0,0-.44.72L137,484.46,147.44,479Z" fill="#fff"/><path d="M164.54,431.18c-14,1.23-17.33-2-17.33-2V479h6.51a25.8,25.8,0,0,0,19.5-8.88,23.77,23.77,0,0,1-17.53,7.71h0a6,6,0,0,1-6-6v-40.3s2.85,1.85,15.79.71c12.76-1.12,14.14-7,14.14-7v-2.82S178.35,430,164.54,431.18Z" fill="#fff"/><path d="M179.54,387c0-.06,0-.12,0-.19.4,3.91-4.8,7.57-12.62,9.11s-15.85-.84-16.47-4.83,5.19-8.08,13-9.4l-.41.06c-8.47,1.31-14.81,5.79-14.16,10s9.08,6.73,17.38,5.1S180.19,391.21,179.54,387Z" fill="#fff"/><path d="M166.06,396.75C179.6,394.4,179.6,387,179.6,387s0,7.39-14.28,9.74a30.89,30.89,0,0,1-4.38.42A26.56,26.56,0,0,0,166.06,396.75Z" fill="#fff"/><path d="M150.51,430.08V394.15a6.86,6.86,0,0,1-1.61-1.83v37.76s2.08,1.54,10,1.45C152.3,431.47,150.51,430.08,150.51,430.08Z" fill="#fff"/><ellipse cx="155.21" cy="387.57" rx="3.95" ry="1.81" transform="translate(-190.26 153.15) rotate(-34.02)" fill="#fff"/><circle cx="160.11" cy="384.63" r="0.86" fill="#fff"/><ellipse cx="153.25" cy="404.58" rx="1.46" ry="6.36" fill="#fff"/><ellipse cx="152.85" cy="416.16" rx="1.06" ry="1.55" fill="#fff"/><ellipse cx="153.25" cy="424.5" rx="1.46" ry="4.65" fill="#fff"/><path d="M174.3,437s0,0,0,0a1.59,1.59,0,0,0-.74-1.34,2.36,2.36,0,1,0-1.75,4h0a2.13,2.13,0,1,1,.7-4.19,1.59,1.59,0,1,0,.81,3,1.46,1.46,0,1,1-.17-2.79,2.13,2.13,0,0,1,.79.86.53.53,0,0,0-.37-.15.66.66,0,0,0,0,1.31.61.61,0,0,0,.57-.57v0s0,0,0-.06,0,0,0-.06a.73.73,0,0,0,0-.26,2.35,2.35,0,0,0-.29-.74A1.46,1.46,0,0,1,174.3,437Z" fill="#fff"/><path d="M122.69,330.13a25.44,25.44,0,0,1,12.73-16.54,24.91,24.91,0,0,0-13.58,16.47c-3.71,14.61,4.23,23.29,4.23,23.29l.28.05C124.58,351,119.6,342.67,122.69,330.13Z" fill="#fff"/><path d="M77.93,321.86A26,26,0,0,1,87.42,307a24.66,24.66,0,0,0-10.68,14.85C73,336.49,81,345.17,81,345.17l.27,0C79.27,342.22,75,334,77.93,321.86Z" fill="#fff"/><path d="M91.54,346.91l.17.21h.08Z" fill="#fff"/><path d="M97.36,307.56a20.57,20.57,0,0,1,2.62-1.42l-.38-.07A26.69,26.69,0,0,0,97.36,307.56Z" fill="#fff"/></g><path d="M31.86,66.49H77.15V86.27H98.24V66.49h13V49.22h-13V8Q87.49,10.8,77.15,14.56V49.22H49.56l19-31.31A241.1,241.1,0,0,0,42.62,30.34L31.86,47.6Z" fill="#fff"/><path d="M130.24,74Q140,88,160.18,88t29.94-14q9.73-14,9.73-39.27,0-19.56-5.85-32.37a243.19,243.19,0,0,0-67.63,0q-5.86,12.83-5.87,32.41Q120.51,60,130.24,74Zm14.31-49q0-11.81,3.39-18.31T160.18.21q8.85,0,12.24,6.5T175.82,25V44.5q0,11.81-3.39,18.31t-12.24,6.5q-8.85,0-12.24-6.5T144.55,44.5Z" fill="#fff"/><path d="M208.86,66.49h45.28V86.27h21.09V66.49h13V49.22h-13V29.12Q265,23.56,254.14,19V49.22H226.55L246.68,16q-7.34-2.82-14.9-5.17L208.86,47.6Z" fill="#fff"/></g></svg>