<svg xmlns="http://www.w3.org/2000/svg" viewBox="0 0 200 145"><title>methods_icons</title><path d="M94.73,94.14a.6.6,0,0,1-.6-.6V91.75a.6.6,0,1,1,1.2,0v1.78A.6.6,0,0,1,94.73,94.14Zm0-3.78a.6.6,0,0,1-.6-.6v-3a.6.6,0,1,1,1.2,0v3A.6.6,0,0,1,94.73,90.35Zm0-5a.6.6,0,0,1-.6-.6v-3a.6.6,0,1,1,1.2,0v3A.6.6,0,0,1,94.73,85.35Zm0-5a.6.6,0,0,1-.6-.6v-3a.6.6,0,1,1,1.2,0v3A.6.6,0,0,1,94.73,80.35Zm0-5a.6.6,0,0,1-.6-.59,11,11,0,0,0-.4-2.81.6.6,0,1,1,1.16-.32,12.18,12.18,0,0,1,.44,3.11.6.6,0,0,1-.59.61Zm-1.12-4.83a.6.6,0,0,1-.54-.34,10.94,10.94,0,0,0-1.54-2.38.6.6,0,0,1,.91-.78,12.14,12.14,0,0,1,1.71,2.64.6.6,0,0,1-.54.86Zm-3-3.91a.6.6,0,0,1-.38-.14A10.91,10.91,0,0,0,87.78,65a.6.6,0,1,1,.5-1.09,12.13,12.13,0,0,1,2.66,1.68.6.6,0,0,1-.38,1.06Zm-4.41-2.28-.15,0A11,11,0,0,0,83.19,64a.6.6,0,0,1,0-1.2,12.2,12.2,0,0,1,3.12.4.6.6,0,0,1-.15,1.18Z" fill="#6e6c6c"/><path d="M75.68,108.54a2,2,0,0,1-1.59-.86c-.27-.32-.38-.42-.62-.42s-.35.1-.62.42a1.89,1.89,0,0,1-3.17,0c-.27-.32-.38-.42-.62-.42s-.34.1-.62.42a1.89,1.89,0,0,1-3.17,0c-.27-.32-.38-.42-.61-.42s-.34.1-.61.42a1.89,1.89,0,0,1-3.17,0c-.27-.32-.38-.42-.62-.42s-.34.1-.61.42a1.89,1.89,0,0,1-3.17,0c-.27-.32-.38-.42-.61-.42a.64.64,0,1,1,0-1.28,2,2,0,0,1,1.59.86c.27.32.38.42.61.42s.34-.1.62-.42a1.89,1.89,0,0,1,3.17,0c.27.32.38.42.62.42s.34-.1.61-.42a1.89,1.89,0,0,1,3.17,0c.27.32.38.42.62.42s.34-.1.62-.42a1.89,1.89,0,0,1,3.17,0c.27.32.38.42.62.42s.35-.1.62-.42a1.89,1.89,0,0,1,3.18,0c.27.32.38.42.62.42a.64.64,0,1,1,0,1.28Z" fill="#6e6c6c"/><path d="M199.36,131a2,2,0,0,1-1.59-.86c-.27-.32-.38-.42-.62-.42s-.35.1-.62.42a1.89,1.89,0,0,1-3.17,0c-.27-.32-.38-.42-.62-.42s-.34.1-.62.42a1.89,1.89,0,0,1-3.17,0c-.27-.32-.38-.42-.61-.42s-.34.1-.61.42a1.89,1.89,0,0,1-3.17,0c-.27-.32-.38-.42-.62-.42s-.34.1-.61.42a1.89,1.89,0,0,1-3.17,0c-.27-.32-.38-.42-.61-.42a.64.64,0,1,1,0-1.28,2,2,0,0,1,1.59.86c.27.32.38.42.61.42s.34-.1.62-.42a1.89,1.89,0,0,1,3.17,0c.27.32.38.42.62.42s.34-.1.61-.42a1.89,1.89,0,0,1,3.17,0c.27.32.38.42.62.42s.34-.1.62-.42a1.89,1.89,0,0,1,3.17,0c.27.32.38.42.62.42s.35-.1.62-.42a1.89,1.89,0,0,1,3.18,0c.27.32.38.42.62.42a.64.64,0,0,1,0,1.28Z" fill="#6e6c6c"/><path d="M13.15,73.63a.64.64,0,0,1-.45-1.09L24.12,61.12A.64.64,0,1,1,25,62L13.61,73.44A.64.64,0,0,1,13.15,73.63Z" fill="#6e6c6c"/><path d="M36.19,73.63a.64.64,0,0,1-.45-1.09L47.16,61.12a.64.64,0,1,1,.91.91L36.64,73.44A.64.64,0,0,1,36.19,73.63Z" fill="#6e6c6c"/><path d="M36.19,73.63a.64.64,0,0,1-.45-.19L24.32,62a.64.64,0,1,1,.91-.91L36.64,72.54a.64.64,0,0,1-.45,1.09Z" fill="#6e6c6c"/><circle cx="13.15" cy="72.99" r="2.33" fill="#c1aae6"/><path d="M13.15,76a3,3,0,1,1,3-3A3,3,0,0,1,13.15,76Zm0-4.66A1.69,1.69,0,1,0,14.84,73,1.69,1.69,0,0,0,13.15,71.3Z" fill="#6e6c6c"/><circle cx="24.77" cy="61.57" r="2.33" fill="#c1aae6"/><path d="M24.77,64.54a3,3,0,1,1,3-3A3,3,0,0,1,24.77,64.54Zm0-4.66a1.69,1.69,0,1,0,1.69,1.69A1.69,1.69,0,0,0,24.77,59.88Z" fill="#6e6c6c"/><circle cx="36.19" cy="72.99" r="2.33" fill="#d2bfe7"/><path d="M36.19,76a3,3,0,1,1,3-3A3,3,0,0,1,36.19,76Zm0-4.66A1.69,1.69,0,1,0,37.88,73,1.69,1.69,0,0,0,36.19,71.3Z" fill="#6e6c6c"/><circle cx="47.61" cy="61.57" r="2.33" fill="#f5f5f5"/><path d="M47.61,64.54a3,3,0,1,1,3-3A3,3,0,0,1,47.61,64.54Zm0-4.66a1.69,1.69,0,1,0,1.69,1.69A1.69,1.69,0,0,0,47.61,59.88Z" fill="#6e6c6c"/><path d="M30,92.12h0a25.17,25.17,0,0,1-2.62-.18.64.64,0,0,1,.15-1.27,23.8,23.8,0,0,0,2.49.17.64.64,0,0,1,0,1.28Zm3.83-.24a.64.64,0,0,1-.09-1.27,23.35,23.35,0,0,0,2.44-.48.64.64,0,0,1,.31,1.24,24.89,24.89,0,0,1-2.58.51ZM23.7,91.19l-.18,0A24.83,24.83,0,0,1,21,90.3a.64.64,0,1,1,.48-1.19,23.7,23.7,0,0,0,2.35.81.64.64,0,0,1-.18,1.26Zm16.28-1a.64.64,0,0,1-.25-1.23A23.45,23.45,0,0,0,42,87.81a.64.64,0,0,1,.63,1.12,24.81,24.81,0,0,1-2.35,1.17A.64.64,0,0,1,40,90.14ZM17.85,88.63a.64.64,0,0,1-.33-.09,25.06,25.06,0,0,1-2.17-1.48.64.64,0,0,1,.78-1,23.61,23.61,0,0,0,2.06,1.4.64.64,0,0,1-.33,1.19Zm27.6-1.77a.64.64,0,0,1-.4-1.14,24,24,0,0,0,1.87-1.65.64.64,0,1,1,.9.91,25.32,25.32,0,0,1-2,1.74A.64.64,0,0,1,45.45,86.86ZM12.88,84.63a.64.64,0,0,1-.46-.2,25,25,0,0,1-1.71-2,.64.64,0,1,1,1-.78,23.79,23.79,0,0,0,1.62,1.89.64.64,0,0,1-.46,1.08Zm37-2.36a.64.64,0,0,1-.51-1,23.69,23.69,0,0,0,1.37-2.08.64.64,0,1,1,1.1.65A24.91,24.91,0,0,1,50.39,82,.64.64,0,0,1,49.87,82.27ZM9.12,79.48a.64.64,0,0,1-.56-.33,24.83,24.83,0,0,1-1.13-2.37.64.64,0,0,1,1.18-.49,23.54,23.54,0,0,0,1.07,2.25.64.64,0,0,1-.56.95Zm43.83-2.8a.64.64,0,0,1-.6-.87,23.42,23.42,0,0,0,.78-2.37.64.64,0,1,1,1.24.33,24.81,24.81,0,0,1-.82,2.5A.64.64,0,0,1,52.95,76.68ZM6.83,73.52A.64.64,0,0,1,6.21,73a24.93,24.93,0,0,1-.47-2.58A.64.64,0,1,1,7,70.28a23.51,23.51,0,0,0,.44,2.45A.64.64,0,0,1,7,73.5Zm47.62-3h-.07a.64.64,0,0,1-.57-.7,23.94,23.94,0,0,0,.13-2.49.64.64,0,1,1,1.28,0,25.21,25.21,0,0,1-.14,2.62A.64.64,0,0,1,54.45,70.47ZM6.19,67.17h0a.64.64,0,0,1-.62-.66,25.08,25.08,0,0,1,.22-2.62A.64.64,0,0,1,7,64.07a23.88,23.88,0,0,0-.21,2.48A.64.64,0,0,1,6.19,67.17Zm48.28-1.6a.64.64,0,0,1-.64-.58,23.57,23.57,0,0,0-.37-2.46.64.64,0,1,1,1.25-.26,25,25,0,0,1,.39,2.6.64.64,0,0,1-.58.7ZM7.22,60.88l-.19,0a.64.64,0,0,1-.43-.8,24.74,24.74,0,0,1,.9-2.47.64.64,0,1,1,1.18.5,23.44,23.44,0,0,0-.85,2.34A.64.64,0,0,1,7.22,60.88ZM53,59.37a.64.64,0,0,1-.6-.41,23.45,23.45,0,0,0-1-2.28.64.64,0,0,1,1.14-.58,24.82,24.82,0,0,1,1.06,2.4.64.64,0,0,1-.6.87ZM9.87,55.07a.64.64,0,0,1-.54-1,25,25,0,0,1,1.51-2.15.64.64,0,0,1,1,.79,23.86,23.86,0,0,0-1.43,2A.64.64,0,0,1,9.87,55.07ZM50,53.75a.64.64,0,0,1-.52-.26,23.74,23.74,0,0,0-1.56-1.94.64.64,0,0,1,1-.86,25,25,0,0,1,1.65,2,.64.64,0,0,1-.52,1ZM13.94,50.16a.64.64,0,0,1-.43-1.11,25.15,25.15,0,0,1,2-1.68.64.64,0,1,1,.77,1A23.86,23.86,0,0,0,14.38,50,.64.64,0,0,1,13.94,50.16Zm31.67-1a.64.64,0,0,1-.4-.14,23.81,23.81,0,0,0-2-1.46.64.64,0,1,1,.7-1.07A25.21,25.21,0,0,1,46,48a.64.64,0,0,1-.4,1.14ZM19.15,46.48a.64.64,0,0,1-.3-1.21,24.72,24.72,0,0,1,2.39-1.1.64.64,0,0,1,.47,1.19,23.47,23.47,0,0,0-2.26,1A.64.64,0,0,1,19.15,46.48Zm21-.7a.64.64,0,0,1-.26-.06,23.46,23.46,0,0,0-2.33-.89A.64.64,0,0,1,38,43.62a24.73,24.73,0,0,1,2.46.93.64.64,0,0,1-.26,1.23Zm-15-1.49A.64.64,0,0,1,25,43a24.89,24.89,0,0,1,2.59-.43.64.64,0,0,1,.14,1.27,23.67,23.67,0,0,0-2.46.41ZM34,44H34a23.6,23.6,0,0,0-2.48-.24.64.64,0,0,1,.06-1.28,25,25,0,0,1,2.61.26A.64.64,0,0,1,34,44Z" fill="#6e6c6c"/><g opacity="0.5"><path d="M123.4,141.19A32.68,32.68,0,0,1,98,129a4.16,4.16,0,0,1,6.46-5.25,24.45,24.45,0,0,0,43.49-15.54V48.07a4.16,4.16,0,1,1,8.32,0v60.16A32.93,32.93,0,0,1,123.4,141.19Z" fill="#f5f5f5"/></g><path d="M101.19,127a.64.64,0,0,1-.5-.24q-.41-.51-.8-1a.64.64,0,0,1,1-.76q.37.5.77,1a.64.64,0,0,1-.5,1Z" fill="#6e6c6c"/><path d="M99,123.93a.64.64,0,0,1-.55-.3c-.45-.73-.87-1.49-1.26-2.26a.64.64,0,1,1,1.15-.57c.37.73.77,1.46,1.2,2.16a.64.64,0,0,1-.54,1Zm-2.26-4.52a.64.64,0,0,1-.6-.41c-.31-.8-.6-1.62-.84-2.44a.64.64,0,0,1,1.23-.36c.23.79.5,1.57.81,2.34a.64.64,0,0,1-.6.88Zm-1.43-4.84a.64.64,0,0,1-.63-.51c-.17-.84-.3-1.7-.4-2.55a.64.64,0,1,1,1.27-.14c.09.82.22,1.64.38,2.44a.64.64,0,0,1-.5.75Zm-.56-5a.64.64,0,0,1-.64-.63q0-.35,0-.69v-1.85a.64.64,0,1,1,1.28,0v1.85q0,.33,0,.66a.64.64,0,0,1-.62.66Zm0-5.06a.64.64,0,0,1-.64-.64v-2.53a.64.64,0,1,1,1.28,0v2.53A.64.64,0,0,1,94.73,104.49Zm0-5.06a.64.64,0,0,1-.64-.64V96.26a.64.64,0,1,1,1.28,0v2.53A.64.64,0,0,1,94.73,99.43Z" fill="#6e6c6c"/><path d="M123.4,137.67a29.17,29.17,0,0,1-22.7-10.87.64.64,0,1,1,1-.81,28,28,0,0,0,49.74-17.76V48.07a.64.64,0,1,1,1.28,0v60.16A29.41,29.41,0,0,1,123.4,137.67Z" fill="#6e6c6c"/><circle cx="94.3" cy="93.44" r="12.65" fill="#f2f2f2"/><path d="M94.3,106.66a13.22,13.22,0,1,1,13.22-13.22A13.24,13.24,0,0,1,94.3,106.66Zm0-25.3a12.07,12.07,0,1,0,12.07,12.07A12.09,12.09,0,0,0,94.3,81.37Z" fill="#6e6c6c"/><polygon points="87.67 95.55 90.7 101.45 93.65 95.55 92.18 95.55 92.18 85.43 89.14 85.43 89.14 95.55 87.67 95.55" fill="#d2bfe7"/><path d="M90.7,102.09a.64.64,0,0,1-.57-.35l-3-5.9a.64.64,0,0,1,.57-.93h.83V85.43a.64.64,0,0,1,.64-.64h3a.64.64,0,0,1,.64.64v9.48h.83a.64.64,0,0,1,.57.93l-3,5.9a.64.64,0,0,1-.57.35Zm-2-5.9,2,3.85,1.92-3.85h-.43a.64.64,0,0,1-.64-.64V86.07H89.78v9.48a.64.64,0,0,1-.64.64Z" fill="#6e6c6c"/><path d="M99.77,102h-3a.58.58,0,0,1-.58-.58V91.91h-.89a.58.58,0,0,1-.52-.83l3-5.9a.58.58,0,0,1,.51-.32h0a.58.58,0,0,1,.51.31l3,5.9a.58.58,0,0,1-.51.84h-.89v9.54A.58.58,0,0,1,99.77,102Zm-2.46-1.15h1.89V91.33a.58.58,0,0,1,.58-.58h.53L98.21,86.7l-2,4.05h.54a.58.58,0,0,1,.58.58Z" fill="#6e6c6c"/><path d="M169.77,117.19h-1.44a.64.64,0,0,1,0-1.28h1.44a.64.64,0,0,1,0,1.28Z" fill="#6e6c6c"/><path d="M176.73,117.19h-4a.64.64,0,0,1,0-1.28h4a.64.64,0,0,1,0,1.28Z" fill="#6e6c6c"/><path d="M145.46,9H144a.64.64,0,1,1,0-1.28h1.44a.64.64,0,0,1,0,1.28Z" fill="#6e6c6c"/><path d="M141.06,9h-4a.64.64,0,1,1,0-1.28h4a.64.64,0,1,1,0,1.28Z" fill="#6e6c6c"/><path d="M145.08,5h-1.44a.64.64,0,1,1,0-1.28h1.44a.64.64,0,1,1,0,1.28Z" fill="#6e6c6c"/><path d="M152,5h-4a.64.64,0,0,1,0-1.28h4A.64.64,0,0,1,152,5Z" fill="#6e6c6c"/><path d="M113.47,112.11H112a.64.64,0,1,1,0-1.28h1.44a.64.64,0,0,1,0,1.28Z" fill="#6e6c6c"/><path d="M120.43,112.11h-4a.64.64,0,1,1,0-1.28h4a.64.64,0,1,1,0,1.28Z" fill="#6e6c6c"/><path d="M38.43,118.61H37a.64.64,0,1,1,0-1.28h1.44a.64.64,0,1,1,0,1.28Z" fill="#6e6c6c"/><path d="M45.39,118.61h-4a.64.64,0,1,1,0-1.28h4a.64.64,0,1,1,0,1.28Z" fill="#6e6c6c"/><rect x="191.8" y="88.73" width="7.63" height="7.63" fill="#f2f2f2"/><path d="M199.42,96.94H191.8a.58.58,0,0,1-.58-.58V88.73a.58.58,0,0,1,.58-.58h7.63a.58.58,0,0,1,.58.58v7.63A.58.58,0,0,1,199.42,96.94Zm-7.05-1.15h6.48V89.31h-6.48Z" fill="#6e6c6c"/><path d="M122.72,75.45h-1.44a.64.64,0,1,1,0-1.28h1.44a.64.64,0,1,1,0,1.28Z" fill="#6e6c6c"/><path d="M119,75.45h-4a.64.64,0,0,1,0-1.28h4a.64.64,0,0,1,0,1.28Z" fill="#6e6c6c"/><path d="M130.4,75.45h-4a.64.64,0,1,1,0-1.28h4a.64.64,0,0,1,0,1.28Z" fill="#6e6c6c"/><path d="M127.12,82.85h-1.44a.64.64,0,1,1,0-1.28h1.44a.64.64,0,1,1,0,1.28Z" fill="#6e6c6c"/><path d="M115.95,82.85H109a.64.64,0,1,1,0-1.28h6.91a.64.64,0,1,1,0,1.28Z" fill="#6e6c6c"/><path d="M122.72,82.85h-4a.64.64,0,0,1,0-1.28h4a.64.64,0,1,1,0,1.28Z" fill="#6e6c6c"/><path d="M119.52,91.84h-1.44a.64.64,0,1,1,0-1.28h1.44a.64.64,0,0,1,0,1.28Z" fill="#6e6c6c"/><path d="M126.48,91.84h-4a.64.64,0,1,1,0-1.28h4a.64.64,0,1,1,0,1.28Z" fill="#6e6c6c"/><path d="M114.5,87.37h-4a.64.64,0,1,1,0-1.28h4a.64.64,0,1,1,0,1.28Z" fill="#6e6c6c"/><polygon points="177.66 70.05 177.66 93.44 164.07 81.31 177.66 70.05" fill="#d2bfe7"/><polygon points="177.66 70.05 164.07 81.31 157.41 86.84 150.75 81.31 137.17 70.05 177.66 70.05" fill="#f5f5f5"/><polygon points="177.66 93.44 137.17 93.44 150.75 81.31 157.41 86.84 164.07 81.31 177.66 93.44" fill="#d2bfe7"/><polygon points="150.75 81.31 137.17 93.44 137.17 70.05 150.75 81.31" fill="#d2bfe7"/><path d="M177.66,94.08H137.17a.64.64,0,0,1-.64-.64V70a.64.64,0,0,1,.64-.64h40.49a.64.64,0,0,1,.64.64V93.44A.64.64,0,0,1,177.66,94.08ZM137.81,92.8H177V70.69H137.81Z" fill="#6e6c6c"/><path d="M157.41,87.48a.64.64,0,0,1-.41-.15L136.76,70.54a.64.64,0,1,1,.82-1L157.41,86l19.84-16.46a.64.64,0,1,1,.82,1L157.82,87.33A.64.64,0,0,1,157.41,87.48Z" fill="#6e6c6c"/><path d="M137.17,94.08a.64.64,0,0,1-.43-1.12l13.58-12.13a.64.64,0,0,1,.85,1L137.59,93.92A.64.64,0,0,1,137.17,94.08Z" fill="#6e6c6c"/><path d="M177.66,94.08a.64.64,0,0,1-.43-.16L163.65,81.79a.64.64,0,0,1,.85-1L178.08,93a.64.64,0,0,1-.43,1.12Z" fill="#6e6c6c"/><polygon points="169.05 15.65 140.57 15.65 140.57 61.74 174.25 61.74 174.25 20.86 169.05 20.86 169.05 15.65" fill="#f5f5f5"/><path d="M174.25,62.38H140.57a.64.64,0,0,1-.64-.64V15.66a.64.64,0,0,1,.64-.64h28.48a.64.64,0,0,1,.64.64v4.56h4.56a.64.64,0,0,1,.64.64V61.74A.64.64,0,0,1,174.25,62.38Zm-33-1.28h32.4V21.5h-4.56a.64.64,0,0,1-.64-.64V16.3h-27.2Z" fill="#6e6c6c"/><polygon points="169.05 15.65 174.25 20.86 169.05 20.86 169.05 15.65" fill="#d2bfe7"/><path d="M174.25,21.5h-5.2a.64.64,0,0,1-.64-.64v-5.2a.64.64,0,0,1,1.09-.45l5.2,5.2a.64.64,0,0,1-.45,1.09Zm-4.56-1.28h3l-3-3Z" fill="#6e6c6c"/><rect x="144.61" y="25.9" width="3.41" height="15.04" fill="#d2bfe7"/><path d="M148,41.58h-3.41a.64.64,0,0,1-.64-.64v-15a.64.64,0,0,1,.64-.64H148a.64.64,0,0,1,.64.64v15A.64.64,0,0,1,148,41.58Zm-2.77-1.28h2.13V26.54h-2.13Z" fill="#6e6c6c"/><rect x="150.16" y="22.48" width="3.41" height="18.45" fill="#c1aae6"/><path d="M153.57,41.58h-3.41a.64.64,0,0,1-.64-.64V22.48a.64.64,0,0,1,.64-.64h3.41a.64.64,0,0,1,.64.64V40.94A.64.64,0,0,1,153.57,41.58ZM150.8,40.3h2.13V23.12H150.8Z" fill="#6e6c6c"/><rect x="155.7" y="36.67" width="3.41" height="4.27" fill="#c1aae6"/><path d="M159.12,41.58H155.7a.64.64,0,0,1-.64-.64V36.67a.64.64,0,0,1,.64-.64h3.41a.64.64,0,0,1,.64.64v4.27A.64.64,0,0,1,159.12,41.58Zm-2.77-1.28h2.13v-3h-2.13Z" fill="#6e6c6c"/><rect x="161.25" y="30.8" width="3.41" height="10.13" fill="#d2bfe7"/><path d="M164.67,41.58h-3.41a.64.64,0,0,1-.64-.64V30.8a.64.64,0,0,1,.64-.64h3.41a.64.64,0,0,1,.64.64V40.94A.64.64,0,0,1,164.67,41.58Zm-2.77-1.28H164V31.44h-2.13Z" fill="#6e6c6c"/><rect x="166.8" y="28.03" width="3.41" height="12.91" fill="#d2bfe7"/><path d="M170.21,41.58H166.8a.64.64,0,0,1-.64-.64V28a.64.64,0,0,1,.64-.64h3.41a.64.64,0,0,1,.64.64V40.94A.64.64,0,0,1,170.21,41.58Zm-2.77-1.28h2.13V28.67h-2.13Z" fill="#6e6c6c"/><path d="M170.21,45.66h-25.6a.64.64,0,0,1,0-1.28h25.6a.64.64,0,1,1,0,1.28Z" fill="#6e6c6c"/><path d="M170.21,48.38h-25.6a.64.64,0,0,1,0-1.28h25.6a.64.64,0,1,1,0,1.28Z" fill="#6e6c6c"/><path d="M170.21,51.1h-25.6a.64.64,0,0,1,0-1.28h25.6a.64.64,0,1,1,0,1.28Z" fill="#6e6c6c"/><path d="M170.21,53.82h-25.6a.64.64,0,0,1,0-1.28h25.6a.64.64,0,1,1,0,1.28Z" fill="#6e6c6c"/><path d="M170.21,56.54h-25.6a.64.64,0,0,1,0-1.28h25.6a.64.64,0,1,1,0,1.28Z" fill="#6e6c6c"/><rect x="70.26" y="117.43" width="10.77" height="10.77" fill="#fff"/><path d="M81,128.78H70.26a.58.58,0,0,1-.58-.58V117.43a.58.58,0,0,1,.58-.58H81a.58.58,0,0,1,.58.58V128.2A.58.58,0,0,1,81,128.78Zm-10.2-1.15h9.62V118H70.83Z" fill="#6e6c6c"/><line x1="70.26" y1="117.43" x2="81.03" y2="128.2" fill="#fff"/><path d="M81,128.78a.57.57,0,0,1-.41-.17L69.85,117.84a.58.58,0,1,1,.81-.82L81.44,127.8a.58.58,0,0,1-.41,1Z" fill="#6e6c6c"/><line x1="70.26" y1="128.2" x2="81.03" y2="117.43" fill="#fff"/><path d="M70.26,128.78a.58.58,0,0,1-.41-1L80.62,117a.58.58,0,1,1,.81.82L70.66,128.61A.57.57,0,0,1,70.26,128.78Z" fill="#6e6c6c"/><rect x="166.82" y="0.66" width="7.39" height="7.39" fill="#fff"/><path d="M174.2,8.63h-7.39a.58.58,0,0,1-.58-.58V.66a.58.58,0,0,1,.58-.58h7.39a.58.58,0,0,1,.58.58V8A.58.58,0,0,1,174.2,8.63Zm-6.81-1.15h6.23V1.24h-6.23Z" fill="#6e6c6c"/><line x1="166.82" y1="0.66" x2="174.2" y2="8.05" fill="#fff"/><path d="M174.2,8.63a.57.57,0,0,1-.41-.17l-7.39-7.39a.58.58,0,1,1,.81-.81l7.39,7.39a.58.58,0,0,1-.41,1Z" fill="#6e6c6c"/><line x1="166.82" y1="8.05" x2="174.2" y2="0.66" fill="#fff"/><path d="M166.82,8.63a.58.58,0,0,1-.41-1L173.8.26a.58.58,0,0,1,.81.81l-7.39,7.39A.57.57,0,0,1,166.82,8.63Z" fill="#6e6c6c"/><path d="M7,40.58a9.45,9.45,0,0,1,3.42-1.4h0L11,36.74h2.57l.56,2.44h0a9.33,9.33,0,0,1,3.41,1.4l2.12-1.32,1.81,1.81-1.32,2.11a9.45,9.45,0,0,1,1.41,3.4l2.43.56v2.57l-2.43.56a9.38,9.38,0,0,1-1.41,3.41l1.32,2.11-1.81,1.82L17.53,56.3a9.43,9.43,0,0,1-3.41,1.41l-.56,2.42H11l-.56-2.42A9.43,9.43,0,0,1,7,56.3L4.9,57.62,3.09,55.81l1.32-2.12A9.43,9.43,0,0,1,3,50.28L.58,49.73V47.15L3,46.6a9.42,9.42,0,0,1,1.41-3.4L3.1,41.08l1.81-1.82Zm8.75,7.86A3.5,3.5,0,1,0,12.27,52,3.5,3.5,0,0,0,15.78,48.45Z" fill="#c1aae6"/><path d="M7,41.16a.58.58,0,1,1,.58-.58A.59.59,0,0,1,7,41.16Z" fill="#6e6c6c"/><path d="M13.56,60.71H11a.58.58,0,0,1-.56-.45L10,58.2A10,10,0,0,1,7,57L5.21,58.11A.58.58,0,0,1,4.5,58L2.69,56.21a.58.58,0,0,1-.08-.71l1.13-1.81a9.93,9.93,0,0,1-1.21-2.93L.45,50.29A.58.58,0,0,1,0,49.73V47.15a.58.58,0,0,1,.45-.56l2.08-.48a9.93,9.93,0,0,1,1.22-2.92L2.61,41.38a.58.58,0,0,1,.08-.71L4.5,38.85a.57.57,0,0,1,.71-.08L7,39.9A10,10,0,0,1,9.95,38.7l.48-2.08a.58.58,0,0,1,.56-.45h2.57a.58.58,0,0,1,.56.45l.48,2.08a9.83,9.83,0,0,1,2.92,1.2l1.81-1.13a.58.58,0,0,1,.71.08l1.81,1.81a.58.58,0,0,1,.08.71l-1.12,1.8A10,10,0,0,1,22,46.12l2.07.48a.58.58,0,0,1,.45.56v2.57a.58.58,0,0,1-.45.56L22,50.76a9.9,9.9,0,0,1-1.21,2.93l1.12,1.8a.58.58,0,0,1-.08.71L20,58a.58.58,0,0,1-.71.08L17.53,57A9.94,9.94,0,0,1,14.6,58.2l-.48,2.06A.58.58,0,0,1,13.56,60.71Zm-2.11-1.15H13.1l.46-2a.58.58,0,0,1,.45-.44,8.8,8.8,0,0,0,3.2-1.33.58.58,0,0,1,.63,0l1.72,1.07,1.17-1.17L19.65,54a.58.58,0,0,1,0-.62A8.78,8.78,0,0,0,21,50.17a.58.58,0,0,1,.44-.45l2-.46V47.61l-2-.46a.58.58,0,0,1-.44-.45,8.82,8.82,0,0,0-1.33-3.2.58.58,0,0,1,0-.63l1.08-1.72L19.55,40l-1.73,1.08a.58.58,0,0,1-.62,0A8.71,8.71,0,0,0,14,39.75a.58.58,0,0,1-.47-.57l-.43-1.86H11.45L11,39.21a.57.57,0,0,1-.46.53,8.85,8.85,0,0,0-3.21,1.32.58.58,0,0,1-.62,0L5,40,3.83,41.16l1.08,1.73a.58.58,0,0,1,0,.63,8.79,8.79,0,0,0-1.33,3.19.58.58,0,0,1-.44.45l-2,.46v1.65l2,.46a.58.58,0,0,1,.44.45,8.8,8.8,0,0,0,1.32,3.2.58.58,0,0,1,0,.63L3.82,55.72,5,56.89l1.73-1.08a.57.57,0,0,1,.62,0,8.81,8.81,0,0,0,3.2,1.33.58.58,0,0,1,.45.44Z" fill="#6e6c6c"/><path d="M12.27,52.53a4.08,4.08,0,1,1,4.08-4.08A4.08,4.08,0,0,1,12.27,52.53Zm0-7a2.93,2.93,0,1,0,2.93,2.92A2.93,2.93,0,0,0,12.27,45.52Z" fill="#6e6c6c"/><path d="M5.58,49A.58.58,0,0,1,5,48.45a7.28,7.28,0,0,1,7.27-7.27.58.58,0,1,1,0,1.15,6.13,6.13,0,0,0-6.12,6.12A.58.58,0,0,1,5.58,49Z" fill="#6e6c6c"/><path d="M80.49,63.93H78.14a.59.59,0,0,1,0-1.18h2.35a.59.59,0,0,1,0,1.18Z" fill="#6e6c6c"/><path d="M75.79,63.93H73.43a.59.59,0,0,1,0-1.18h2.35a.59.59,0,1,1,0,1.18Z" fill="#6e6c6c"/><path d="M71.08,63.93H68.73a.59.59,0,1,1,0-1.18h2.35a.59.59,0,0,1,0,1.18Z" fill="#6e6c6c"/><path d="M66.38,63.93H64a.59.59,0,0,1,0-1.18h2.35a.59.59,0,1,1,0,1.18Z" fill="#6e6c6c"/><path d="M61.67,63.93H59.32a.59.59,0,1,1,0-1.18h2.35a.59.59,0,0,1,0,1.18Z" fill="#6e6c6c"/></svg>