<svg xmlns="http://www.w3.org/2000/svg" viewBox="0 0 200 145"><title>methods_icons</title><path d="M175.68,1.47a1.41,1.41,0,0,1,1.41,1.41V18a1.41,1.41,0,0,1-1.41,1.41H155.6a2.84,2.84,0,0,1-2.16-1.19l-4.14-6.6a2.46,2.46,0,0,1,0-2.39l4.14-6.6a2.84,2.84,0,0,1,2.16-1.19Z" fill="#fff"/><path d="M155.6.83h20.08a2,2,0,0,1,2,2V18a2,2,0,0,1-2,2H155.6a3.49,3.49,0,0,1-2.7-1.49L148.76,12a3.1,3.1,0,0,1,0-3.06l4.14-6.6A3.49,3.49,0,0,1,155.6.83Zm20.08,18a.78.78,0,0,0,.78-.77V2.88a.78.78,0,0,0-.78-.77H155.6A2.23,2.23,0,0,0,154,3l-4.14,6.6a1.84,1.84,0,0,0,0,1.71L154,17.9a2.23,2.23,0,0,0,1.62.9Z" fill="#6e6c6c"/><path d="M155.42,7.53a2.92,2.92,0,1,1-2.92,2.92A2.93,2.93,0,0,1,155.42,7.53Zm0,4.58a1.66,1.66,0,1,0-1.66-1.66A1.66,1.66,0,0,0,155.42,12.11Z" fill="#6e6c6c"/><path d="M130.76,9.82h24.66a.63.63,0,0,1,0,1.27H130.76a.63.63,0,0,1,0-1.27Z" fill="#6e6c6c"/><path d="M130.76,9.82a.63.63,0,0,1,0,1.27,1.66,1.66,0,1,0,0,3.31h8.9a2.92,2.92,0,0,1,0,5.85H118.21a.63.63,0,0,1,0-1.27h21.45a1.66,1.66,0,1,0,0-3.31h-8.9a2.92,2.92,0,0,1,0-5.85Z" fill="#6e6c6c"/><path d="M189.21,48.37a2.21,2.21,0,0,1-1.75-.95c-.3-.35-.42-.46-.68-.46s-.38.11-.68.46a2.08,2.08,0,0,1-3.49,0c-.3-.35-.42-.46-.68-.46s-.38.11-.68.46a2.08,2.08,0,0,1-3.49,0c-.3-.35-.42-.46-.68-.46s-.38.11-.68.46a2.08,2.08,0,0,1-3.49,0c-.3-.35-.42-.46-.68-.46s-.38.11-.68.46a2.08,2.08,0,0,1-3.49,0c-.3-.35-.42-.46-.68-.46a.7.7,0,1,1,0-1.41,2.2,2.2,0,0,1,1.75,1c.3.35.42.46.68.46s.38-.11.68-.46a2.08,2.08,0,0,1,3.49,0c.3.35.42.46.68.46s.38-.11.68-.46a2.08,2.08,0,0,1,3.49,0c.3.35.42.46.68.46s.38-.11.68-.46a2.08,2.08,0,0,1,3.49,0c.3.35.42.46.68.46s.38-.11.68-.46a2.08,2.08,0,0,1,3.5,0c.3.35.42.46.68.46a.7.7,0,1,1,0,1.41Z" fill="#6e6c6c"/><path d="M155.66,57.39a.63.63,0,0,0,.63-.63V53.19a.63.63,0,1,0-1.27,0v3.57A.63.63,0,0,0,155.66,57.39Z" fill="#6e6c6c"/><path d="M149.52,58.58a.63.63,0,1,0,1.1-.63l-1.79-3.09a.63.63,0,1,0-1.1.63Z" fill="#6e6c6c"/><path d="M146.29,61.81,143.19,60a.63.63,0,0,0-.63,1.1l3.09,1.79a.63.63,0,1,0,.63-1.1Z" fill="#6e6c6c"/><path d="M145.11,68a.63.63,0,0,0-.63-.63H140.9a.63.63,0,0,0,0,1.27h3.57A.63.63,0,0,0,145.11,68Z" fill="#6e6c6c"/><path d="M145.65,73l-3.09,1.79a.63.63,0,1,0,.63,1.1l3.09-1.79a.63.63,0,1,0-.63-1.1Z" fill="#6e6c6c"/><path d="M150.39,77.09a.63.63,0,0,0-.87.23l-1.79,3.09a.63.63,0,1,0,1.1.63L150.62,78A.63.63,0,0,0,150.39,77.09Z" fill="#6e6c6c"/><path d="M155.66,78.51a.63.63,0,0,0-.63.63v3.57a.63.63,0,1,0,1.27,0V79.14A.63.63,0,0,0,155.66,78.51Z" fill="#6e6c6c"/><path d="M161.81,77.32a.63.63,0,0,0-1.1.63l1.79,3.09a.63.63,0,0,0,1.1-.63Z" fill="#6e6c6c"/><path d="M168.76,74.78,165.67,73a.63.63,0,0,0-.63,1.1l3.09,1.79a.63.63,0,0,0,.63-1.1Z" fill="#6e6c6c"/><path d="M170.42,67.32h-3.57a.63.63,0,0,0,0,1.27h3.57a.63.63,0,0,0,0-1.27Z" fill="#6e6c6c"/><path d="M165.35,63a.63.63,0,0,0,.32-.09l3.09-1.79a.63.63,0,0,0-.63-1.1L165,61.81a.63.63,0,0,0,.32,1.18Z" fill="#6e6c6c"/><path d="M163.36,54.62a.63.63,0,0,0-.87.23l-1.79,3.09a.63.63,0,1,0,1.1.63l1.79-3.09A.63.63,0,0,0,163.36,54.62Z" fill="#6e6c6c"/><path d="M156.3,67.17V59.63a.63.63,0,1,0-1.27,0v7.54a1,1,0,0,0-.38.72l-4.27,3a.63.63,0,1,0,.73,1l4.28-3a1,1,0,0,0,.27.06,1,1,0,0,0,1-1A1,1,0,0,0,156.3,67.17Z" fill="#6e6c6c"/><path d="M153.34,35.39h-1.59a.7.7,0,1,1,0-1.41h1.59a.7.7,0,1,1,0,1.41Z" fill="#6e6c6c"/><path d="M140.53,35.39h-4.4a.7.7,0,1,1,0-1.41h4.4a.7.7,0,1,1,0,1.41Z" fill="#6e6c6c"/><path d="M152.93,31h-1.59a.7.7,0,0,1,0-1.41h1.59a.7.7,0,0,1,0,1.41Z" fill="#6e6c6c"/><path d="M160.59,31h-4.4a.7.7,0,0,1,0-1.41h4.4a.7.7,0,1,1,0,1.41Z" fill="#6e6c6c"/><path d="M44,64.47a.7.7,0,0,1-.5-1.2L56,50.7a.7.7,0,0,1,1,1L44.47,64.27A.7.7,0,0,1,44,64.47Z" fill="#6e6c6c"/><path d="M69.33,64.47a.7.7,0,0,1-.5-1.2L81.41,50.7a.7.7,0,0,1,1,1L69.83,64.27A.7.7,0,0,1,69.33,64.47Z" fill="#6e6c6c"/><path d="M69.33,64.47a.7.7,0,0,1-.5-.21L56.26,51.69a.7.7,0,0,1,1-1L69.83,63.27a.7.7,0,0,1-.5,1.2Z" fill="#6e6c6c"/><circle cx="43.97" cy="63.77" r="2.56" fill="#c1aae6"/><path d="M44,67a3.27,3.27,0,1,1,3.27-3.27A3.27,3.27,0,0,1,44,67Zm0-5.13a1.86,1.86,0,1,0,1.86,1.86A1.86,1.86,0,0,0,44,61.91Z" fill="#6e6c6c"/><circle cx="56.76" cy="51.19" r="2.56" fill="#c1aae6"/><path d="M56.76,54.46A3.27,3.27,0,1,1,60,51.19,3.27,3.27,0,0,1,56.76,54.46Zm0-5.13a1.86,1.86,0,1,0,1.86,1.86A1.86,1.86,0,0,0,56.76,49.34Z" fill="#6e6c6c"/><circle cx="69.33" cy="63.77" r="2.56" fill="#d2bfe7"/><path d="M69.33,67a3.27,3.27,0,1,1,3.27-3.27A3.27,3.27,0,0,1,69.33,67Zm0-5.13a1.86,1.86,0,1,0,1.86,1.86A1.86,1.86,0,0,0,69.33,61.91Z" fill="#6e6c6c"/><circle cx="81.91" cy="51.19" r="2.56" fill="#f5f5f5"/><path d="M81.91,54.46a3.27,3.27,0,1,1,3.27-3.27A3.27,3.27,0,0,1,81.91,54.46Zm0-5.13a1.86,1.86,0,1,0,1.86,1.86A1.86,1.86,0,0,0,81.91,49.34Z" fill="#6e6c6c"/><rect x="81.41" y="136.8" width="7.57" height="7.57" fill="#fff"/><path d="M89,145H81.41a.63.63,0,0,1-.63-.63V136.8a.63.63,0,0,1,.63-.63H89a.63.63,0,0,1,.63.63v7.57A.63.63,0,0,1,89,145ZM82,143.73h6.3v-6.3H82Z" fill="#6e6c6c"/><line x1="81.41" y1="136.8" x2="88.98" y2="144.37" fill="#fff"/><path d="M89,145a.63.63,0,0,1-.45-.19L81,137.25a.63.63,0,0,1,.9-.9l7.57,7.57A.63.63,0,0,1,89,145Z" fill="#6e6c6c"/><line x1="81.41" y1="144.37" x2="88.98" y2="136.8" fill="#fff"/><path d="M81.41,145a.63.63,0,0,1-.45-1.08l7.57-7.57a.63.63,0,1,1,.9.9l-7.57,7.57A.63.63,0,0,1,81.41,145Z" fill="#6e6c6c"/><ellipse cx="191.09" cy="99.84" rx="1.2" ry="1.21" fill="#6e6c6c"/><path d="M187.68,98.64a1.21,1.21,0,1,1-1.21,1.2A1.2,1.2,0,0,1,187.68,98.64Z" fill="#6e6c6c"/><path d="M194.39,101.05a1.21,1.21,0,1,1,1.2-1.21A1.21,1.21,0,0,1,194.39,101.05Z" fill="#6e6c6c"/><path d="M195.59,99.84a1.2,1.2,0,0,0-1.2-1.2V96.57h5v6.3h-5v-1.81A1.21,1.21,0,0,0,195.59,99.84Z" fill="#d2bfe7"/><path d="M175.85,113.19a1.51,1.51,0,1,1-2.79-1.14,1.51,1.51,0,1,1,2.79,1.14Z" fill="#c1aae6"/><polygon points="175.06 115.95 177.66 119.65 161.96 119.65 166.75 111.06 171.38 118.88 175.06 115.95" fill="#c1aae6"/><path d="M194.39,102.86H140.27v-6.3h54.12v2.07a1.21,1.21,0,1,0,0,2.41Zm-5.5-3a1.21,1.21,0,1,0-1.2,1.21A1.2,1.2,0,0,0,188.88,99.84Zm1,0a1.2,1.2,0,1,0,1.2-1.2A1.2,1.2,0,0,0,189.89,99.84Z" fill="#d2bfe7"/><path d="M195.25,123v-15.3h-49.9V123Zm4.12,14h-59.1V102.86h59.1Z" fill="#f5f5f5"/><path d="M199.37,137.61h-59.1a.63.63,0,0,1-.63-.63V96.57a.63.63,0,0,1,.63-.63h59.1a.63.63,0,0,1,.63.63V137A.63.63,0,0,1,199.37,137.61Zm-58.47-1.27h57.83V97.2H140.9Z" fill="#6e6c6c"/><path d="M199.37,103.5h-59.1a.63.63,0,0,1,0-1.27h59.1a.63.63,0,0,1,0,1.27Z" fill="#6e6c6c"/><path d="M195.25,123.71h-49.9a.7.7,0,0,1-.7-.7v-15.3a.7.7,0,0,1,.7-.7h49.9a.7.7,0,0,1,.7.7V123A.7.7,0,0,1,195.25,123.71Zm-49.19-1.41h48.49V108.41H146.06Z" fill="#6e6c6c"/><path d="M195.25,127.39h-49.9a.63.63,0,0,1,0-1.27h49.9a.63.63,0,0,1,0,1.27Z" fill="#6e6c6c"/><path d="M195.25,131.26h-49.9a.63.63,0,0,1,0-1.27h49.9a.63.63,0,0,1,0,1.27Z" fill="#6e6c6c"/><path d="M177.66,120.29H162a.63.63,0,0,1-.55-.94l4.8-8.59a.64.64,0,0,1,.55-.33.66.66,0,0,1,.55.31l4.26,7.19,3.1-2.47a.62.62,0,0,1,.49-.13.63.63,0,0,1,.43.26l2.61,3.7a.63.63,0,0,1-.52,1ZM172.23,119h4.22l-1.52-2.15ZM163,119h7.69l-4-6.69Z" fill="#6e6c6c"/><path d="M174.45,114.77a2.15,2.15,0,1,1,.84-.17A2.13,2.13,0,0,1,174.45,114.77Zm0-3a.87.87,0,0,0-.34.07.85.85,0,0,0-.46.47.88.88,0,0,0,.48,1.15.88.88,0,0,0,1.14-.48h0a.85.85,0,0,0,0-.66.88.88,0,0,0-.48-.48A.89.89,0,0,0,174.45,111.74Z" fill="#6e6c6c"/><rect x="187.24" y="74.19" width="11.86" height="11.86" fill="#fff"/><path d="M199.1,86.69H187.24a.63.63,0,0,1-.63-.63V74.19a.63.63,0,0,1,.63-.63H199.1a.63.63,0,0,1,.63.63V86.05A.63.63,0,0,1,199.1,86.69Zm-11.23-1.27h10.59V74.83H187.88Z" fill="#6e6c6c"/><line x1="187.24" y1="74.19" x2="199.1" y2="86.05" fill="#fff"/><path d="M199.1,86.69a.63.63,0,0,1-.45-.19L186.8,74.64a.63.63,0,0,1,.9-.9L199.55,85.6a.63.63,0,0,1-.45,1.08Z" fill="#6e6c6c"/><line x1="187.24" y1="86.05" x2="199.1" y2="74.19" fill="#fff"/><path d="M187.24,86.69a.63.63,0,0,1-.45-1.08l11.86-11.86a.63.63,0,0,1,.9.9L187.69,86.5A.63.63,0,0,1,187.24,86.69Z" fill="#6e6c6c"/><path d="M84.56,121.43H12.46a.63.63,0,0,1-.63-.63V80.89a3.68,3.68,0,0,1,3.68-3.68h66a3.68,3.68,0,0,1,3.68,3.68v39.9A.63.63,0,0,1,84.56,121.43ZM13.1,120.16H83.92V80.89a2.41,2.41,0,0,0-2.41-2.41h-66a2.41,2.41,0,0,0-2.41,2.41Z" fill="#6e6c6c"/><path d="M81.69,128.23H15.33a7.45,7.45,0,0,1-7.44-7.44.63.63,0,0,1,.63-.63h80a.63.63,0,0,1,.63.63A7.45,7.45,0,0,1,81.69,128.23ZM9.19,121.43A6.18,6.18,0,0,0,15.33,127H81.69a6.18,6.18,0,0,0,6.14-5.54Z" fill="#6e6c6c"/><path d="M80.28,117.41H16.74a.63.63,0,0,1-.63-.63V85.41a3.68,3.68,0,0,1,3.68-3.68H77.24a3.68,3.68,0,0,1,3.68,3.68v31.36A.63.63,0,0,1,80.28,117.41Zm-62.91-1.27H79.65V85.41A2.41,2.41,0,0,0,77.24,83H19.78a2.41,2.41,0,0,0-2.41,2.41Z" fill="#6e6c6c"/><path d="M63.33,111.38H33.69a.63.63,0,0,1-.63-.63V89.9a.63.63,0,0,1,.63-.63H63.33a.63.63,0,0,1,.63.63v20.84A.63.63,0,0,1,63.33,111.38Zm-29-1.27H62.69V90.54H34.33Z" fill="#6e6c6c"/><path d="M60.82,98.92H36.21a.63.63,0,0,1-.63-.63V95.43a.63.63,0,0,1,.63-.63H60.82a.63.63,0,0,1,.63.63v2.85A.63.63,0,0,1,60.82,98.92Zm-24-1.27H60.18V96.06H36.84Z" fill="#6e6c6c"/><path d="M60.82,103.7H36.21a.63.63,0,0,1-.63-.63v-2.74a.63.63,0,0,1,.63-.63H60.82a.63.63,0,0,1,.63.63v2.74A.63.63,0,0,1,60.82,103.7Zm-24-1.27H60.18V101H36.84Z" fill="#6e6c6c"/><rect x="36.21" y="105.22" width="24.61" height="3" fill="#c1aae6"/><path d="M60.82,108.92H36.21a.7.7,0,0,1-.7-.7v-3a.7.7,0,0,1,.7-.7H60.82a.7.7,0,0,1,.7.7v3A.7.7,0,0,1,60.82,108.92Zm-23.91-1.41h23.2v-1.59H36.91Z" fill="#6e6c6c"/><path d="M57.5,124h-18a3,3,0,0,1-3-3,.63.63,0,0,1,.63-.63H59.85a.63.63,0,0,1,.63.63A3,3,0,0,1,57.5,124Zm-19.58-2.35a1.72,1.72,0,0,0,1.59,1.08h18a1.72,1.72,0,0,0,1.59-1.08Z" fill="#6e6c6c"/><path d="M106.25,99h-2.69a.7.7,0,1,1,0-1.41h2.69a.7.7,0,1,1,0,1.41Zm-5.48,0H98a.7.7,0,1,1,0-1.41h2.78a.7.7,0,1,1,0,1.41ZM95.2,99H92.42a.7.7,0,1,1,0-1.41H95.2a.7.7,0,1,1,0,1.41Zm-5.57,0H86.85a.7.7,0,0,1,0-1.41h2.78a.7.7,0,1,1,0,1.41Zm-5.57,0H81.28a.7.7,0,1,1,0-1.41h2.78a.7.7,0,0,1,0,1.41Z" fill="#6e6c6c"/><path d="M143.3,99.32a.7.7,0,0,1-.7.7h-2.78a.7.7,0,1,1,0-1.41h2.78A.7.7,0,0,1,143.3,99.32Zm-5.57,0a.7.7,0,0,1-.7.7h-2.78a.7.7,0,1,1,0-1.41H137A.7.7,0,0,1,137.73,99.32Zm-5.57,0a.7.7,0,0,1-.7.7h-2.78a.7.7,0,1,1,0-1.41h2.78A.7.7,0,0,1,132.16,99.32Zm-5.57,0a.7.7,0,0,1-.7.7H123.1a.7.7,0,1,1,0-1.41h2.78A.7.7,0,0,1,126.59,99.32Zm-5.57,0a.7.7,0,0,1-.7.7h-2.78a.7.7,0,0,1,0-1.41h2.78A.7.7,0,0,1,121,99.32Z" fill="#6e6c6c"/><path d="M115.07,88.5a.7.7,0,0,1-.7-.7V85a.7.7,0,1,1,1.41,0v2.78A.7.7,0,0,1,115.07,88.5Zm0-5.57a.7.7,0,0,1-.7-.7V79.44a.7.7,0,1,1,1.41,0v2.78A.7.7,0,0,1,115.07,82.93Zm0-5.57a.7.7,0,0,1-.7-.7V73.87a.7.7,0,1,1,1.41,0v2.78A.7.7,0,0,1,115.07,77.36Zm0-5.57a.7.7,0,0,1-.7-.7V68.3a.7.7,0,1,1,1.41,0v2.78A.7.7,0,0,1,115.07,71.79Zm0-5.57a.7.7,0,0,1-.7-.7V63.19a.7.7,0,1,1,1.41,0v2.32A.7.7,0,0,1,115.07,66.22Z" fill="#6e6c6c"/><circle cx="115.07" cy="95.42" r="13.92" fill="#f2f2f2"/><path d="M115.07,110a14.56,14.56,0,1,1,14.56-14.56A14.57,14.57,0,0,1,115.07,110Zm0-27.85a13.29,13.29,0,1,0,13.29,13.29A13.3,13.3,0,0,0,115.07,82.13Z" fill="#6e6c6c"/><polygon points="117.39 102.72 123.89 99.39 117.39 96.14 117.39 97.76 106.25 97.76 106.25 101.11 117.39 101.11 117.39 102.72" fill="#d2bfe7"/><path d="M117.39,103.36a.64.64,0,0,1-.63-.63v-1H106.25a.63.63,0,0,1-.63-.63V97.76a.63.63,0,0,1,.63-.63h10.51v-1a.63.63,0,0,1,.92-.57l6.5,3.25a.63.63,0,0,1,0,1.13l-6.5,3.33A.63.63,0,0,1,117.39,103.36Zm-10.51-2.89h10.51a.63.63,0,0,1,.63.63v.58l4.46-2.29L118,97.17v.59a.63.63,0,0,1-.63.63H106.88Z" fill="#6e6c6c"/><path d="M112.74,95a.63.63,0,0,1-.28-.07L106,91.69a.63.63,0,0,1,0-1.13l6.5-3.33a.63.63,0,0,1,.92.56v1h10.51a.63.63,0,0,1,.63.63v3.35a.63.63,0,0,1-.63.63H113.38v1a.63.63,0,0,1-.63.63Zm-5.1-3.89,4.46,2.23v-.59a.63.63,0,0,1,.63-.63h10.51V90H112.74a.63.63,0,0,1-.63-.63v-.58Z" fill="#6e6c6c"/><path d="M27.61,48.44H26A.7.7,0,1,1,26,47h1.59a.7.7,0,1,1,0,1.41Z" fill="#6e6c6c"/><path d="M23.56,48.44h-4.4a.7.7,0,1,1,0-1.41h4.4a.7.7,0,1,1,0,1.41Z" fill="#6e6c6c"/><path d="M36.07,48.44h-4.4a.7.7,0,1,1,0-1.41h4.4a.7.7,0,1,1,0,1.41Z" fill="#6e6c6c"/><path d="M32.46,56.59H30.87a.7.7,0,1,1,0-1.41h1.59a.7.7,0,0,1,0,1.41Z" fill="#6e6c6c"/><path d="M20.16,56.59h-7.6a.7.7,0,1,1,0-1.41h7.6a.7.7,0,1,1,0,1.41Z" fill="#6e6c6c"/><path d="M27.61,56.59h-4.4a.7.7,0,1,1,0-1.41h4.4a.7.7,0,1,1,0,1.41Z" fill="#6e6c6c"/><path d="M24.09,66.49H22.5a.7.7,0,0,1,0-1.41h1.59a.7.7,0,0,1,0,1.41Z" fill="#6e6c6c"/><path d="M31.75,66.49h-4.4a.7.7,0,0,1,0-1.41h4.4a.7.7,0,0,1,0,1.41Z" fill="#6e6c6c"/><path d="M18.56,61.57h-4.4a.7.7,0,1,1,0-1.41h4.4a.7.7,0,0,1,0,1.41Z" fill="#6e6c6c"/><path d="M117.41,43.61H100.68a3.46,3.46,0,0,1-3.45-3.45V3.66A3.46,3.46,0,0,1,100.68.21h16.73a3.46,3.46,0,0,1,3.45,3.45V40.15A3.46,3.46,0,0,1,117.41,43.61ZM100.68,1.48a2.19,2.19,0,0,0-2.18,2.18V40.15a2.19,2.19,0,0,0,2.18,2.18h16.73a2.19,2.19,0,0,0,2.18-2.18V3.66a2.19,2.19,0,0,0-2.18-2.18Z" fill="#6e6c6c"/><rect x="97.86" y="5.07" width="22.37" height="32.53" fill="#d2bfe7"/><path d="M120.23,38.3H97.86a.7.7,0,0,1-.7-.7V5.07a.7.7,0,0,1,.7-.7h22.37a.7.7,0,0,1,.7.7V37.6A.7.7,0,0,1,120.23,38.3ZM98.56,36.9h21V5.78h-21Z" fill="#6e6c6c"/><path d="M111.19,3.53h-4.3a.63.63,0,0,1,0-1.27h4.3a.63.63,0,0,1,0,1.27Z" fill="#6e6c6c"/><circle cx="108.95" cy="40.17" r="1.23" fill="#c1aae6"/><path d="M109,41.75a1.59,1.59,0,1,1,1.59-1.59A1.59,1.59,0,0,1,109,41.75Zm0-2.47a.88.88,0,1,0,.88.88A.88.88,0,0,0,109,39.29Z" fill="#6e6c6c"/><path d="M126.15,37.5a3.94,3.94,0,0,0-.81-2.73A2.4,2.4,0,0,0,123.5,34a2.73,2.73,0,0,0-1.76.59l0-.35a2.81,2.81,0,0,0-2.86-2.18,2.88,2.88,0,0,0-2.07.78h0a2.81,2.81,0,0,0-2.86-2.18,2.9,2.9,0,0,0-2,.76V20.33a2.89,2.89,0,0,0-5.78,0V37.47a10.12,10.12,0,0,0-2-2.42,3.64,3.64,0,0,0-1.64-.93l-.94-.16-.25.92a2.09,2.09,0,0,0-.07.57v9.75c-.17.79-1.76,9,6.54,12.21.8.27,1.06.45,1.06,2.38v1.06H119.9l1.23,0-.19-1.22c0-.13.25-.65,1.26-1.52l.14-.15c.64-.81,3.82-5,3.82-8.58Z" fill="#f5f5f5"/><path d="M116.38,35a.63.63,0,0,1-.63-.63V33a1.91,1.91,0,0,0-3.66,0V34a.63.63,0,1,1-1.27,0V33a.62.62,0,0,1,0-.1,3.17,3.17,0,0,1,6.18,0,.62.62,0,0,1,0,.1v1.41A.63.63,0,0,1,116.38,35Z" fill="#6e6c6c"/><path d="M121.32,37.08a.63.63,0,0,1-.63-.63v-2a1.91,1.91,0,0,0-3.67,0,.63.63,0,0,1-1.25-.21,3.17,3.17,0,0,1,6.18,0,.62.62,0,0,1,0,.1v2.06A.63.63,0,0,1,121.32,37.08Z" fill="#6e6c6c"/><path d="M109.24,60.35a.63.63,0,0,1-.63-.63c0-1.79-.21-1.95-.94-2.19C99.4,54.28,100.83,46,101,45.1V35.37a1.79,1.79,0,0,1,.29-1.08,1.15,1.15,0,0,1,1-.48c2,0,4.89,4,4.89,6.15a.63.63,0,1,1-1.27,0c0-1.26-1.28-3.16-2.46-4.19a2.68,2.68,0,0,0-1.11-.68,1.08,1.08,0,0,0,0,.29v9.79a.64.64,0,0,1,0,.15c-.08.33-1.8,8,5.84,11,1.52.52,1.77,1.43,1.77,3.39A.63.63,0,0,1,109.24,60.35Z" fill="#6e6c6c"/><path d="M106.52,44.33a.63.63,0,0,1-.63-.63V20.32a.66.66,0,0,1,0-.07,3.1,3.1,0,0,1,6.2.05h0V34a.63.63,0,1,1-1.27,0V20.41a.62.62,0,0,1,0-.07s0,0,0-.07a1.83,1.83,0,0,0-3.66,0h0V43.69A.63.63,0,0,1,106.52,44.33Z" fill="#6e6c6c"/><path d="M120.52,60.27a.63.63,0,0,1-.62-.5c-.17-.78.77-1.8,1.61-2.52.37-.47,3.59-4.68,3.59-7.93V42.26a.61.61,0,0,1,0-.08V37.4a3,3,0,0,0-.53-2,1.37,1.37,0,0,0-1.06-.4,1.52,1.52,0,0,0-1.59,1.17v.42a.63.63,0,1,1-1.27,0v-.48a.63.63,0,0,1,0-.1,2.79,2.79,0,0,1,2.85-2.27,2.64,2.64,0,0,1,2,.82,4.23,4.23,0,0,1,.86,2.88v4.65a.6.6,0,0,1,0,.08v7.15c0,3.88-3.75,8.57-3.91,8.77l-.08.08a5.26,5.26,0,0,0-1.23,1.39.63.63,0,0,1-.49.69Zm.62-.77h0Z" fill="#6e6c6c"/><path d="M108.84,13.8a.63.63,0,0,1-.63-.63v-2a.63.63,0,1,1,1.27,0v2A.63.63,0,0,1,108.84,13.8Z" fill="#6e6c6c"/><path d="M105.57,14.67a.63.63,0,0,1-.55-.32l-1-1.72a.63.63,0,0,1,1.1-.63l1,1.72a.63.63,0,0,1-.55,1Z" fill="#6e6c6c"/><path d="M103.18,17.06a.63.63,0,0,1-.32-.09l-1.72-1a.63.63,0,0,1,.63-1.1l1.72,1a.63.63,0,0,1-.32,1.18Z" fill="#6e6c6c"/><path d="M102.31,20.33h-2a.63.63,0,0,1,0-1.27h2a.63.63,0,0,1,0,1.27Z" fill="#6e6c6c"/><path d="M101.46,24.59a.63.63,0,0,1-.32-1.18l1.72-1a.63.63,0,1,1,.63,1.1l-1.72,1A.63.63,0,0,1,101.46,24.59Z" fill="#6e6c6c"/><path d="M116.22,24.59a.63.63,0,0,1-.32-.09l-1.72-1a.63.63,0,1,1,.63-1.1l1.72,1a.63.63,0,0,1-.32,1.18Z" fill="#6e6c6c"/><path d="M117.36,20.33h-2a.63.63,0,0,1,0-1.27h2a.63.63,0,0,1,0,1.27Z" fill="#6e6c6c"/><path d="M114.49,17.06a.63.63,0,0,1-.32-1.18l1.72-1a.63.63,0,1,1,.63,1.1l-1.72,1A.63.63,0,0,1,114.49,17.06Z" fill="#6e6c6c"/><path d="M112.1,14.67a.63.63,0,0,1-.55-1l1-1.72a.63.63,0,0,1,1.1.63l-1,1.72A.63.63,0,0,1,112.1,14.67Z" fill="#6e6c6c"/><rect x="104.58" y="59.64" width="21.16" height="9.8" fill="#c1aae6"/><path d="M125.74,70.14H104.58a.7.7,0,0,1-.7-.7v-9.8a.7.7,0,0,1,.7-.7h21.16a.7.7,0,0,1,.7.7v9.8A.7.7,0,0,1,125.74,70.14Zm-20.45-1.41H125V60.34H105.28Z" fill="#6e6c6c"/></svg>