<svg xmlns="http://www.w3.org/2000/svg" viewBox="0 0 200 145"><title>methods_icons</title><g opacity="0.5"><circle cx="156.47" cy="41.49" r="30.36" fill="#c1aae6"/></g><path d="M138.09,3.21a2.52,2.52,0,0,1-2-1.08c-.34-.4-.48-.52-.78-.52s-.43.13-.78.52a2.37,2.37,0,0,1-4,0c-.34-.4-.48-.52-.77-.52s-.43.13-.77.52a2.37,2.37,0,0,1-4,0c-.34-.4-.47-.52-.77-.52s-.43.13-.77.52a2.37,2.37,0,0,1-4,0c-.34-.4-.48-.52-.77-.52s-.43.13-.77.52a2.37,2.37,0,0,1-4,0c-.34-.4-.47-.52-.77-.52a.8.8,0,1,1,0-1.61,2.51,2.51,0,0,1,2,1.08c.34.4.47.52.77.52s.43-.13.77-.52a2.37,2.37,0,0,1,4,0c.34.4.48.52.77.52s.43-.13.77-.52a2.37,2.37,0,0,1,4,0c.34.4.48.52.77.52s.43-.13.77-.52a2.37,2.37,0,0,1,4,0c.34.4.48.52.77.52s.43-.13.77-.52a2.38,2.38,0,0,1,4,0c.34.4.48.52.77.52a.8.8,0,1,1,0,1.61Z" fill="#6e6c6c"/><path d="M85.43,13a.72.72,0,0,1-.72-.72V8.25a.72.72,0,0,1,1.45,0v4.07A.72.72,0,0,1,85.43,13Z" fill="#6e6c6c"/><path d="M79.06,14.75a.72.72,0,0,1-.63-.36l-2-3.53a.72.72,0,0,1,1.25-.72l2,3.53a.72.72,0,0,1-.62,1.08Z" fill="#6e6c6c"/><path d="M74.39,19.42a.72.72,0,0,1-.36-.1l-3.53-2A.72.72,0,0,1,71.22,16l3.53,2a.72.72,0,0,1-.36,1.35Z" fill="#6e6c6c"/><path d="M72.68,25.8H68.61a.72.72,0,1,1,0-1.45h4.07a.72.72,0,1,1,0,1.45Z" fill="#6e6c6c"/><path d="M70.86,34.21a.72.72,0,0,1-.36-1.35l3.53-2a.72.72,0,1,1,.72,1.25l-3.53,2A.72.72,0,0,1,70.86,34.21Z" fill="#6e6c6c"/><path d="M77,40.37a.72.72,0,0,1-.62-1.08l2-3.53a.72.72,0,1,1,1.25.72l-2,3.53A.72.72,0,0,1,77,40.37Z" fill="#6e6c6c"/><path d="M85.43,42.62a.72.72,0,0,1-.72-.72V37.83a.72.72,0,1,1,1.45,0V41.9A.72.72,0,0,1,85.43,42.62Z" fill="#6e6c6c"/><path d="M93.84,40.37a.72.72,0,0,1-.63-.36l-2-3.53a.72.72,0,1,1,1.25-.72l2,3.53a.72.72,0,0,1-.62,1.08Z" fill="#6e6c6c"/><path d="M100,34.21a.72.72,0,0,1-.36-.1l-3.53-2a.72.72,0,1,1,.72-1.25l3.53,2a.72.72,0,0,1-.36,1.35Z" fill="#6e6c6c"/><path d="M102.25,25.8H98.18a.72.72,0,1,1,0-1.45h4.07a.72.72,0,1,1,0,1.45Z" fill="#6e6c6c"/><path d="M96.48,19.42a.72.72,0,0,1-.36-1.35l3.53-2a.72.72,0,1,1,.72,1.25l-3.53,2A.72.72,0,0,1,96.48,19.42Z" fill="#6e6c6c"/><path d="M91.81,14.75a.72.72,0,0,1-.62-1.08l2-3.53a.72.72,0,0,1,1.25.72l-2,3.53A.72.72,0,0,1,91.81,14.75Z" fill="#6e6c6c"/><path d="M79.83,29.74a.72.72,0,0,1-.42-1.31l5.3-3.72V15.59a.72.72,0,0,1,1.45,0v9.49a.72.72,0,0,1-.31.59l-5.6,3.94A.72.72,0,0,1,79.83,29.74Z" fill="#6e6c6c"/><circle cx="85.43" cy="25.08" r="1.17" fill="#6e6c6c"/><path d="M190,130.81h-1.81a.8.8,0,0,1,0-1.61H190a.8.8,0,0,1,0,1.61Z" fill="#6e6c6c"/><path d="M184.43,130.81h-5a.8.8,0,1,1,0-1.61h5a.8.8,0,0,1,0,1.61Z" fill="#6e6c6c"/><path d="M189.48,125.76h-1.81a.8.8,0,1,1,0-1.61h1.81a.8.8,0,0,1,0,1.61Z" fill="#6e6c6c"/><path d="M198.21,125.76h-5a.8.8,0,1,1,0-1.61h5a.8.8,0,1,1,0,1.61Z" fill="#6e6c6c"/><path d="M111,64.39h-1.81a.8.8,0,1,1,0-1.61H111a.8.8,0,1,1,0,1.61Z" fill="#6e6c6c"/><path d="M105.51,64.39h-5a.8.8,0,0,1,0-1.61h5a.8.8,0,1,1,0,1.61Z" fill="#6e6c6c"/><path d="M110.56,59.33h-1.81a.8.8,0,1,1,0-1.61h1.81a.8.8,0,1,1,0,1.61Z" fill="#6e6c6c"/><path d="M119.29,59.33h-5a.8.8,0,1,1,0-1.61h5a.8.8,0,1,1,0,1.61Z" fill="#6e6c6c"/><path d="M24.89,9.91H23.09a.8.8,0,1,1,0-1.61h1.81a.8.8,0,1,1,0,1.61Z" fill="#6e6c6c"/><path d="M33.62,9.91h-5a.8.8,0,0,1,0-1.61h5a.8.8,0,1,1,0,1.61Z" fill="#6e6c6c"/><path d="M141.85,145h-3.21a.8.8,0,1,1,0-1.61h3.21a.8.8,0,1,1,0,1.61Zm-6.42,0h-3.21a.8.8,0,0,1,0-1.61h3.21a.8.8,0,1,1,0,1.61ZM129,145h-3.21a.8.8,0,1,1,0-1.61H129a.8.8,0,1,1,0,1.61Zm-6.42,0h-3.21a.8.8,0,0,1,0-1.61h3.21a.8.8,0,1,1,0,1.61Zm-6.42,0h-3.21a.8.8,0,1,1,0-1.61h3.21a.8.8,0,0,1,0,1.61Zm-6.42,0h-3.21a.8.8,0,0,1,0-1.61h3.21a.8.8,0,1,1,0,1.61Zm-6.42,0h-3.21a.8.8,0,1,1,0-1.61h3.21a.8.8,0,0,1,0,1.61Zm-6.42,0H93.67a.8.8,0,1,1,0-1.61h3.21a.8.8,0,1,1,0,1.61Zm-6.42,0H87.25a.8.8,0,1,1,0-1.61h3.21a.8.8,0,1,1,0,1.61ZM84,145H80.82a.8.8,0,1,1,0-1.61H84A.8.8,0,1,1,84,145Zm-6.42,0H74.4a.8.8,0,1,1,0-1.61h3.21a.8.8,0,1,1,0,1.61Zm-6.42,0H68a.8.8,0,1,1,0-1.61h3.21a.8.8,0,1,1,0,1.61Zm-6.42,0H61.55a.8.8,0,1,1,0-1.61h3.21a.8.8,0,1,1,0,1.61Zm-6.42,0h-.75a13.81,13.81,0,0,1-2.59-.25.8.8,0,1,1,.3-1.58,12.11,12.11,0,0,0,2.29.22h.75a.8.8,0,1,1,0,1.61Zm86.72,0a.8.8,0,0,1-.06-1.6,12,12,0,0,0,2.94-.58.8.8,0,1,1,.51,1.52,13.64,13.64,0,0,1-3.34.66Zm-93-1.19a.79.79,0,0,1-.34-.08,13.66,13.66,0,0,1-2.87-1.83.8.8,0,0,1,1-1.24,12.09,12.09,0,0,0,2.53,1.61.8.8,0,0,1-.34,1.53Zm99-.81a.8.8,0,0,1-.44-1.48,12.2,12.2,0,0,0,2.3-1.93.8.8,0,1,1,1.17,1.09,13.75,13.75,0,0,1-2.61,2.18A.8.8,0,0,1,151.09,143ZM47.2,139.72a.8.8,0,0,1-.65-.33,13.62,13.62,0,0,1-1.65-3,.8.8,0,0,1,1.49-.6,12.07,12.07,0,0,0,1.46,2.62.8.8,0,0,1-.65,1.28Zm108.22-1.41a.8.8,0,0,1-.7-1.19,12,12,0,0,0,1.1-2.79.8.8,0,1,1,1.56.4,13.6,13.6,0,0,1-1.25,3.17A.8.8,0,0,1,155.42,138.31ZM44.83,133.83a.8.8,0,0,1-.8-.7,13.72,13.72,0,0,1-.12-1.8v-1.51a.8.8,0,1,1,1.61,0v1.51a12.16,12.16,0,0,0,.1,1.59.8.8,0,0,1-.69.9ZM157,132.15a.8.8,0,0,1-.8-.8v-3.21a.8.8,0,0,1,1.61,0v3.2A.81.81,0,0,1,157,132.15ZM44.72,127.41a.8.8,0,0,1-.8-.8v-3.21a.8.8,0,0,1,1.61,0v3.21A.8.8,0,0,1,44.72,127.41ZM157,125.73a.8.8,0,0,1-.8-.8v-3.21a.8.8,0,0,1,1.61,0v3.21A.8.8,0,0,1,157,125.73ZM44.72,121a.8.8,0,0,1-.8-.8V117a.8.8,0,1,1,1.61,0v3.21A.8.8,0,0,1,44.72,121ZM157,119.31a.8.8,0,0,1-.8-.8v-3.21a.8.8,0,0,1,1.61,0v3.21A.8.8,0,0,1,157,119.31Zm0-6.42a.8.8,0,0,1-.8-.8v-3.21a.8.8,0,0,1,1.61,0v3.21A.8.8,0,0,1,157,112.88Zm0-6.42a.8.8,0,0,1-.8-.8v-3.21a.8.8,0,1,1,1.61,0v3.21A.8.8,0,0,1,157,106.46Zm0-6.42a.8.8,0,0,1-.8-.8V96a.8.8,0,0,1,1.61,0v3.21A.8.8,0,0,1,157,100Zm0-6.42a.8.8,0,0,1-.8-.8V89.6a.8.8,0,0,1,1.61,0v3.21A.8.8,0,0,1,157,93.61Zm0-6.42a.8.8,0,0,1-.8-.8V83.17a.8.8,0,0,1,1.61,0v3.21A.8.8,0,0,1,157,87.19Zm0-6.42a.8.8,0,0,1-.8-.8V76.75a.8.8,0,0,1,1.61,0V80A.8.8,0,0,1,157,80.76Zm0-6.42a.8.8,0,0,1-.8-.8V70.33a.8.8,0,0,1,1.61,0v3.21A.8.8,0,0,1,157,74.34Z" fill="#6e6c6c"/><path d="M121,92.21a11.86,11.86,0,0,1,4.28-1.76h0l.71-3.06h3.22l.71,3.06h0a11.71,11.71,0,0,1,4.28,1.76l2.66-1.65,2.27,2.27-1.65,2.65a11.86,11.86,0,0,1,1.77,4.27l3,.7v3.22l-3,.7a11.77,11.77,0,0,1-1.77,4.28l1.65,2.64-2.27,2.28-2.65-1.65a11.83,11.83,0,0,1-4.28,1.77l-.7,3H126l-.7-3a11.84,11.84,0,0,1-4.28-1.77l-2.66,1.65-2.27-2.27,1.66-2.66a11.83,11.83,0,0,1-1.77-4.27l-3-.7v-3.22l3-.7a11.81,11.81,0,0,1,1.77-4.26l-1.66-2.66,2.27-2.28Zm11,9.86a4.4,4.4,0,1,0-4.4,4.4A4.39,4.39,0,0,0,132,102.07Z" fill="#c1aae6"/><path d="M121,92.94a.73.73,0,1,1,.73-.73A.73.73,0,0,1,121,92.94Z" fill="#6e6c6c"/><path d="M129.23,117.46H126a.72.72,0,0,1-.7-.56l-.6-2.59a12.47,12.47,0,0,1-3.68-1.53l-2.27,1.41a.72.72,0,0,1-.89-.1l-2.27-2.27a.72.72,0,0,1-.1-.89l1.42-2.27a12.45,12.45,0,0,1-1.52-3.68l-2.6-.6a.72.72,0,0,1-.56-.7v-3.23a.72.72,0,0,1,.56-.7l2.6-.6a12.44,12.44,0,0,1,1.53-3.67l-1.42-2.27a.72.72,0,0,1,.1-.89L117.86,90a.72.72,0,0,1,.89-.1L121,91.35a12.53,12.53,0,0,1,3.67-1.51l.61-2.61a.72.72,0,0,1,.7-.56h3.22a.72.72,0,0,1,.7.56l.6,2.61a12.34,12.34,0,0,1,3.66,1.51l2.27-1.41a.73.73,0,0,1,.89.1l2.27,2.27a.72.72,0,0,1,.1.89l-1.41,2.26a12.5,12.5,0,0,1,1.53,3.68l2.6.6a.72.72,0,0,1,.56.7v3.23a.72.72,0,0,1-.56.7l-2.59.6a12.44,12.44,0,0,1-1.52,3.68l1.41,2.26a.72.72,0,0,1-.1.89l-2.27,2.28a.72.72,0,0,1-.89.1l-2.26-1.41a12.48,12.48,0,0,1-3.68,1.53l-.6,2.59A.72.72,0,0,1,129.23,117.46ZM126.58,116h2.07l.57-2.48a.72.72,0,0,1,.56-.55,11,11,0,0,0,4-1.67.73.73,0,0,1,.78,0l2.16,1.35,1.46-1.47L136.86,109a.72.72,0,0,1,0-.78,11,11,0,0,0,1.66-4,.72.72,0,0,1,.55-.57l2.48-.57V101l-2.48-.57a.72.72,0,0,1-.55-.56,11.05,11.05,0,0,0-1.67-4,.72.72,0,0,1,0-.78l1.35-2.16-1.46-1.46-2.17,1.35a.73.73,0,0,1-.78,0,10.91,10.91,0,0,0-4-1.65.72.72,0,0,1-.58-.71l-.54-2.33h-2.07L126,90.49a.71.71,0,0,1-.57.67,11.11,11.11,0,0,0-4,1.65.72.72,0,0,1-.78,0l-2.17-1.35L117,92.93l1.36,2.17a.72.72,0,0,1,0,.78,11,11,0,0,0-1.67,4,.72.72,0,0,1-.55.56l-2.49.57v2.07l2.49.57a.72.72,0,0,1,.55.56,11.06,11.06,0,0,0,1.66,4,.72.72,0,0,1,0,.78L117,111.2l1.46,1.46,2.17-1.35a.73.73,0,0,1,.78,0,11,11,0,0,0,4,1.67.72.72,0,0,1,.56.55Z" fill="#6e6c6c"/><path d="M127.61,107.19a5.12,5.12,0,1,1,5.12-5.12A5.12,5.12,0,0,1,127.61,107.19Zm0-8.79a3.67,3.67,0,1,0,3.68,3.67A3.67,3.67,0,0,0,127.61,98.4Z" fill="#6e6c6c"/><path d="M119.21,102.79a.72.72,0,0,1-.72-.72,9.13,9.13,0,0,1,9.12-9.12.72.72,0,0,1,0,1.45,7.68,7.68,0,0,0-7.68,7.68A.72.72,0,0,1,119.21,102.79Z" fill="#6e6c6c"/><path d="M99.81,108a9.39,9.39,0,0,1,3.4-1.4h0l.56-2.42h2.55l.56,2.42h0a9.27,9.27,0,0,1,3.39,1.4l2.11-1.31,1.8,1.8-1.31,2.1a9.4,9.4,0,0,1,1.41,3.39l2.41.56v2.56l-2.41.56a9.32,9.32,0,0,1-1.4,3.39l1.31,2.1-1.8,1.81-2.1-1.31a9.38,9.38,0,0,1-3.39,1.41l-.56,2.41h-2.55l-.56-2.41a9.38,9.38,0,0,1-3.39-1.41L97.7,125l-1.8-1.8,1.32-2.11a9.39,9.39,0,0,1-1.4-3.39l-2.42-.56v-2.56l2.42-.56a9.37,9.37,0,0,1,1.41-3.38l-1.32-2.11,1.8-1.81Zm8.7,7.82a3.48,3.48,0,1,0-3.49,3.49A3.48,3.48,0,0,0,108.51,115.86Z" fill="#f5f5f5"/><path d="M99.81,108.77a.73.73,0,1,1,.73-.73A.73.73,0,0,1,99.81,108.77Z" fill="#6e6c6c"/><path d="M106.31,128.21h-2.55a.72.72,0,0,1-.7-.56l-.45-2a10,10,0,0,1-2.79-1.16l-1.72,1.07a.73.73,0,0,1-.89-.1l-1.8-1.8a.72.72,0,0,1-.1-.89l1.07-1.72a10,10,0,0,1-1.15-2.79l-2-.45a.72.72,0,0,1-.56-.7v-2.56a.72.72,0,0,1,.56-.7l2-.45a10,10,0,0,1,1.16-2.78l-1.07-1.72a.72.72,0,0,1,.1-.89l1.8-1.81a.72.72,0,0,1,.89-.1l1.72,1.08a10.07,10.07,0,0,1,2.78-1.15l.46-2a.72.72,0,0,1,.7-.56h2.55a.72.72,0,0,1,.7.56l.46,2a9.9,9.9,0,0,1,2.78,1.15l1.72-1.07a.72.72,0,0,1,.89.1l1.8,1.8a.72.72,0,0,1,.1.89l-1.07,1.72a10,10,0,0,1,1.16,2.79l2,.45a.72.72,0,0,1,.56.7v2.56a.72.72,0,0,1-.56.7l-2,.45a10,10,0,0,1-1.16,2.79l1.07,1.71a.72.72,0,0,1-.1.89l-1.8,1.81a.72.72,0,0,1-.89.1l-1.71-1.07a10,10,0,0,1-2.79,1.16l-.45,2A.72.72,0,0,1,106.31,128.21Zm-2-1.45h1.4l.43-1.85a.72.72,0,0,1,.56-.55,8.6,8.6,0,0,0,3.13-1.3.73.73,0,0,1,.78,0l1.61,1,1-1-1-1.61a.72.72,0,0,1,0-.78,8.55,8.55,0,0,0,1.29-3.13.72.72,0,0,1,.55-.57l1.85-.43v-1.41l-1.85-.43a.72.72,0,0,1-.55-.56,8.6,8.6,0,0,0-1.3-3.12.72.72,0,0,1,0-.78l1-1.61-1-1-1.62,1a.72.72,0,0,1-.78,0,8.48,8.48,0,0,0-3.13-1.29.72.72,0,0,1-.58-.7l-.4-1.71h-1.4l-.41,1.76a.71.71,0,0,1-.58.65,8.61,8.61,0,0,0-3.13,1.29.73.73,0,0,1-.78,0l-1.62-1-1,1,1,1.62a.72.72,0,0,1,0,.78,8.61,8.61,0,0,0-1.3,3.12.72.72,0,0,1-.55.56l-1.86.43v1.41L96,117a.72.72,0,0,1,.55.56,8.61,8.61,0,0,0,1.29,3.12.72.72,0,0,1,0,.78l-1,1.62,1,1,1.62-1a.73.73,0,0,1,.78,0,8.6,8.6,0,0,0,3.13,1.3.72.72,0,0,1,.56.55Z" fill="#6e6c6c"/><path d="M105,120.07a4.21,4.21,0,1,1,4.21-4.21A4.21,4.21,0,0,1,105,120.07Zm0-7a2.76,2.76,0,1,0,2.76,2.76A2.76,2.76,0,0,0,105,113.1Z" fill="#6e6c6c"/><path d="M98.37,116.58a.72.72,0,0,1-.72-.72,7.39,7.39,0,0,1,7.38-7.38.72.72,0,1,1,0,1.45,5.94,5.94,0,0,0-5.94,5.94A.72.72,0,0,1,98.37,116.58Z" fill="#6e6c6c"/><rect x="133.35" y="38.25" width="43.96" height="23.89" fill="#d2bfe7"/><path d="M177.31,62.86h-44a.72.72,0,0,1-.72-.72V38.25a.72.72,0,0,1,.72-.72h44a.72.72,0,0,1,.72.72V62.14A.72.72,0,0,1,177.31,62.86Zm-43.24-1.45h42.52V39H134.08Z" fill="#6e6c6c"/><path d="M163.49,48.33H147.41a.72.72,0,0,1-.4-.12L133,38.85a.72.72,0,1,1,.8-1.2l13.87,9.23h15.64l13.64-9.23a.72.72,0,1,1,.81,1.2L163.89,48.2A.72.72,0,0,1,163.49,48.33Z" fill="#6e6c6c"/><polygon points="177.31 38.25 155.33 23.62 133.35 38.25 177.31 38.25" fill="#d2bfe7"/><path d="M177.31,39h-44a.72.72,0,0,1-.4-1.32l22-14.63a.72.72,0,0,1,.8,0l22,14.63a.72.72,0,0,1-.4,1.32Zm-41.57-1.45h39.18l-19.59-13Z" fill="#6e6c6c"/><path d="M133.35,62.86a.72.72,0,0,1-.52-1.23L146.9,47.1a.72.72,0,1,1,1,1L133.87,62.64A.72.72,0,0,1,133.35,62.86Z" fill="#6e6c6c"/><path d="M177.31,62.86a.72.72,0,0,1-.52-.22l-14-14.46a.72.72,0,1,1,1-1l14,14.46a.72.72,0,0,1-.52,1.23Z" fill="#6e6c6c"/><polygon points="172.84 20.02 138.05 20.02 138.05 41.38 147.41 47.6 163.49 47.6 172.84 41.38 172.84 20.02" fill="#f2f2f2"/><path d="M163.49,48.33H147.41a.72.72,0,0,1-.4-.12L137.65,42a.72.72,0,0,1-.32-.6V20a.72.72,0,0,1,.72-.72h34.78a.72.72,0,0,1,.72.72V41.38a.72.72,0,0,1-.32.6l-9.35,6.23A.72.72,0,0,1,163.49,48.33Zm-15.86-1.45h15.64L172.12,41V20.74H138.78V41Z" fill="#6e6c6c"/><path d="M169,34.91h-27.3a.72.72,0,1,1,0-1.45H169a.72.72,0,0,1,0,1.45Z" fill="#6e6c6c"/><path d="M169,38.25h-27.3a.72.72,0,1,1,0-1.45H169a.72.72,0,0,1,0,1.45Z" fill="#6e6c6c"/><path d="M169,26.33h-5.63a.72.72,0,1,1,0-1.45H169a.72.72,0,1,1,0,1.45Z" fill="#6e6c6c"/><path d="M169,29.67h-5.63a.72.72,0,1,1,0-1.45H169a.72.72,0,1,1,0,1.45Z" fill="#6e6c6c"/><path d="M169,41.59h-27.3a.72.72,0,1,1,0-1.45H169a.72.72,0,0,1,0,1.45Z" fill="#6e6c6c"/><rect x="141.66" y="23.62" width="18.74" height="7.31" fill="#f2f2f2"/><path d="M160.39,31.66H141.66a.72.72,0,0,1-.72-.72V23.62a.72.72,0,0,1,.72-.72h18.74a.72.72,0,0,1,.72.72v7.31A.72.72,0,0,1,160.39,31.66Zm-18-1.45h17.29V24.35H142.38Z" fill="#6e6c6c"/><rect x="159.38" y="1.01" width="13.52" height="13.52" fill="#fff"/><path d="M172.9,15.25H159.38a.72.72,0,0,1-.72-.72V1a.72.72,0,0,1,.72-.72H172.9a.72.72,0,0,1,.72.72V14.52A.72.72,0,0,1,172.9,15.25ZM160.11,13.8h12.07V1.73H160.11Z" fill="#6e6c6c"/><line x1="159.38" y1="1.01" x2="172.9" y2="14.52" fill="#fff"/><path d="M172.9,15.25a.72.72,0,0,1-.51-.21L158.87,1.52a.72.72,0,0,1,1-1L173.41,14a.72.72,0,0,1-.51,1.23Z" fill="#6e6c6c"/><line x1="159.38" y1="14.52" x2="172.9" y2="1.01" fill="#fff"/><path d="M159.38,15.25a.72.72,0,0,1-.51-1.23L172.39.5a.72.72,0,1,1,1,1L159.9,15A.72.72,0,0,1,159.38,15.25Z" fill="#6e6c6c"/><rect x="3.47" y="39.04" width="13.52" height="13.52" fill="#fff"/><path d="M17,53.28H3.47a.72.72,0,0,1-.72-.72V39a.72.72,0,0,1,.72-.72H17a.72.72,0,0,1,.72.72V52.55A.72.72,0,0,1,17,53.28ZM4.19,51.83H16.26V39.76H4.19Z" fill="#6e6c6c"/><line x1="3.47" y1="39.04" x2="16.98" y2="52.55" fill="#fff"/><path d="M17,53.28a.72.72,0,0,1-.51-.21L3,39.55a.72.72,0,1,1,1-1L17.49,52A.72.72,0,0,1,17,53.28Z" fill="#6e6c6c"/><line x1="3.47" y1="52.55" x2="16.98" y2="39.04" fill="#fff"/><path d="M3.47,53.28A.72.72,0,0,1,3,52L16.47,38.53a.72.72,0,0,1,1,1L4,53.06A.72.72,0,0,1,3.47,53.28Z" fill="#6e6c6c"/><path d="M87.38,109.37H5.21a.72.72,0,0,1-.72-.72V63.18A4.2,4.2,0,0,1,8.68,59H83.91a4.2,4.2,0,0,1,4.19,4.19v45.47A.72.72,0,0,1,87.38,109.37ZM5.94,107.93H86.65V63.18a2.75,2.75,0,0,0-2.74-2.74H8.68a2.75,2.75,0,0,0-2.74,2.74Z" fill="#6e6c6c"/><path d="M84.11,117.13H8.48A8.49,8.49,0,0,1,0,108.65a.72.72,0,0,1,.72-.72H91.87a.72.72,0,0,1,.72.72A8.49,8.49,0,0,1,84.11,117.13ZM1.48,109.37a7,7,0,0,0,7,6.31H84.11a7,7,0,0,0,7-6.31Z" fill="#6e6c6c"/><path d="M82.5,104.8H10.09a.72.72,0,0,1-.72-.72V68.33a4.19,4.19,0,0,1,4.19-4.19H79a4.19,4.19,0,0,1,4.19,4.19v35.74A.72.72,0,0,1,82.5,104.8Zm-71.69-1.45h71v-35A2.75,2.75,0,0,0,79,65.59H13.56a2.75,2.75,0,0,0-2.74,2.74Z" fill="#6e6c6c"/><path d="M63.18,97.93H29.41a.72.72,0,0,1-.72-.72V73.45a.72.72,0,0,1,.72-.72H63.18a.72.72,0,0,1,.72.72V97.2A.72.72,0,0,1,63.18,97.93Zm-33-1.45H62.46V74.17H30.13Z" fill="#6e6c6c"/><path d="M60.32,83.72h-28a.72.72,0,0,1-.72-.72V79.75a.72.72,0,0,1,.72-.72h28a.72.72,0,0,1,.72.72V83A.72.72,0,0,1,60.32,83.72ZM33,82.27h26.6V80.47H33Z" fill="#6e6c6c"/><path d="M60.32,89.17h-28a.72.72,0,0,1-.72-.72V85.33a.72.72,0,0,1,.72-.72h28a.72.72,0,0,1,.72.72v3.12A.72.72,0,0,1,60.32,89.17ZM33,87.72h26.6V86.05H33Z" fill="#6e6c6c"/><rect x="32.27" y="90.91" width="28.05" height="3.41" fill="#c1aae6"/><path d="M60.32,95.12h-28a.8.8,0,0,1-.8-.8V90.91a.8.8,0,0,1,.8-.8h28a.8.8,0,0,1,.8.8v3.41A.8.8,0,0,1,60.32,95.12ZM33.07,93.52H59.51V91.71H33.07Z" fill="#6e6c6c"/><path d="M56.54,112.26H36a3.4,3.4,0,0,1-3.4-3.4.72.72,0,0,1,.72-.72H59.22a.72.72,0,0,1,.72.72A3.4,3.4,0,0,1,56.54,112.26Zm-22.31-2.68A2,2,0,0,0,36,110.81h20.5a2,2,0,0,0,1.82-1.23Z" fill="#6e6c6c"/></svg>