<svg xmlns="http://www.w3.org/2000/svg" width="114" height="41">
  <defs>
    <style>
      .cls-1{fill:#8e5fc2;}.cls-2{fill:#fff;}
    </style>
  </defs>
  <path class="cls-1" d="M111.21 0H2.18A2.18 2.18 0 0 0 0 2.18v29.66A2.18 2.18 0 0 0 2.18 34h49.5l5 7.26 5-7.26h49.5a2.18 2.18 0 0 0 2.18-2.18V2.18A2.18 2.18 0 0 0 111.21 0z"/>
  <path class="cls-2" d="M31.47 19a4.45 4.45 0 0 1-.4 1.93A4.36 4.36 0 0 1 30 22.36a4.77 4.77 0 0 1-1.58.91 5.74 5.74 0 0 1-1.88.31h-5.36V9.4h5.35a5.92 5.92 0 0 1 1.88.3 4.6 4.6 0 0 1 1.57.88A4.28 4.28 0 0 1 31.07 12a4.57 4.57 0 0 1 .4 2zm-2.39-4.57a3.23 3.23 0 0 0-.26-1.36 2.4 2.4 0 0 0-.69-.9 2.82 2.82 0 0 0-1-.49 3.92 3.92 0 0 0-1.09-.15h-2.51v10h2.55a3.78 3.78 0 0 0 1-.15 2.81 2.81 0 0 0 1-.49 2.59 2.59 0 0 0 .71-.89 3 3 0 0 0 .28-1.36zM104 11.52v12.05h-2.34V11.52h-3.88V9.4H108v2.12zM12.77 9.4h-2.39L5.43 23.57h2.49l2.55-7.9 1.05-3.45h.08l1.09 3.6 2.49 7.75h2.55L12.77 9.4zM42.19 9.4H39.8l-4.96 14.17h2.49l2.55-7.9 1.05-3.45h.09l1.08 3.6 2.49 7.75h2.56L42.19 9.4zM74.6 9.4h-2.38l-4.96 14.17h2.49l2.55-7.9 1.05-3.45h.08l1.09 3.6 2.49 7.75h2.55L74.6 9.4zM91.84 9.4v9.79h-.09l-2.28-3.52-3.98-5.92-.24-.35h-2.18v14.36h2.42v-9.92h.07l2.18 3.36 4.1 6.11.27.37h2.11V9.4h-2.38zM62.28 9.4l-1.04.02-4.09 11.73-4.09-11.73-1.04-.02h-1.46v14.09h2.36v-7.25l2.98 8.48.48 1.39h1.53l.49-1.39 3.04-8.67v7.44h2.36V9.4h-1.52z"/>
</svg>
